<svg xmlns="http://www.w3.org/2000/svg" xmlns:xlink="http://www.w3.org/1999/xlink" width="105" height="105" viewBox="0 0 105 105">
  <defs>
    <clipPath id="clip-path">
      <rect id="Rectángulo_5172" data-name="Rectángulo 5172" width="85" height="85" transform="translate(495 2491)" fill="#fff" stroke="#707070" stroke-width="1"/>
    </clipPath>
  </defs>
  <g id="Grupo_55307" data-name="Grupo 55307" transform="translate(-981 -2534)">
    <circle id="Elipse_4053" data-name="Elipse 4053" cx="52.5" cy="52.5" r="52.5" transform="translate(981 2534)" fill="#fff"/>
    <g id="Enmascarar_grupo_45" data-name="Enmascarar grupo 45" transform="translate(496 48)" clip-path="url(#clip-path)">
      <g id="cuenta-privada" transform="translate(495 2491)">
        <g id="Grupo_53775" data-name="Grupo 53775">
          <path id="Trazado_100471" data-name="Trazado 100471" d="M40.406,7.324C37.616.011,7.133-6.651,11.936,24.96H40.406Z" fill="#56788b"/>
          <path id="Trazado_100472" data-name="Trazado 100472" d="M52.7,24.681c8.354-13.52-14.807-31.154-14.369-8.132v7.545Z" fill="#415e6f"/>
          <path id="Trazado_100473" data-name="Trazado 100473" d="M56.826,49.61H8.362c2.666-6.928,2.854-19.588,2.854-19.588H53.972S54.16,42.682,56.826,49.61Z" fill="#56788b"/>
          <path id="Trazado_100474" data-name="Trazado 100474" d="M56.826,49.61H32.612V30.023H53.972S54.16,42.682,56.826,49.61Z" fill="#415e6f"/>
          <g id="Grupo_53772" data-name="Grupo 53772">
            <path id="Trazado_100475" data-name="Trazado 100475" d="M58.447,83.755H6.777C6.777,60.731,15.69,56.886,23,56.266c1.813-.153,3.528-.108,4.984-.108h9.251c1.444,0,3.145-.045,4.943.1,7.318.609,16.267,4.425,16.267,27.492Z" fill="#4dd4f7"/>
            <path id="Trazado_100476" data-name="Trazado 100476" d="M58.447,83.755h-3.32c0-23.067-8.949-26.883-16.267-27.492-.8-.066-1.574-.095-2.316-.1h.694c1.444,0,3.144-.045,4.943.1C49.5,56.872,58.447,60.687,58.447,83.755Z" fill="#00c2f3"/>
          </g>
          <path id="Trazado_100477" data-name="Trazado 100477" d="M42.221,56.331a9.623,9.623,0,0,1-19.219,0v-.068c1.813-.153,3.528-.108,4.984-.108h9.251c1.444,0,3.145-.045,4.943.1Z" fill="#d9f0f4"/>
          <g id="Grupo_53774" data-name="Grupo 53774">
            <g id="Grupo_53773" data-name="Grupo 53773">
              <path id="Trazado_100478" data-name="Trazado 100478" d="M50.673,24.093h-2.9l.018,7.586h2.878a3.793,3.793,0,0,0,0-7.586Z" fill="#fab684"/>
              <path id="Trazado_100479" data-name="Trazado 100479" d="M10.556,27.886a3.793,3.793,0,0,0,3.793,3.793h2.878l.018-7.586h-2.9A3.793,3.793,0,0,0,10.556,27.886Z" fill="#fab684"/>
            </g>
            <path id="Trazado_100480" data-name="Trazado 100480" d="M37.237,50.908H27.986a9.628,9.628,0,0,1,0,5.264,4.625,4.625,0,1,0,9.251,0,9.626,9.626,0,0,1,0-5.264Z" fill="#fab684"/>
            <path id="Trazado_100481" data-name="Trazado 100481" d="M48.045,36.907c0,3.672-3.123,8.059-9.284,13.041a9.854,9.854,0,0,1-6.183,2.163,9.67,9.67,0,0,1-6.115-2.163c-6.161-4.982-9.284-9.369-9.284-13.041,0-.39.015-.78.046-1.164.159-1.6.113-8.917.11-13.641v0a4.1,4.1,0,0,1,2.294-3.785c3.144-1.4,8.06-2.1,12.981-2.092A42.254,42.254,0,0,1,42.545,17.3a18.746,18.746,0,0,1,3.05,1.016A4.1,4.1,0,0,1,47.887,22.1v0c0,4.723-.048,12.038.11,13.641C48.028,36.127,48.045,36.517,48.045,36.907Z" fill="#fdd9b4"/>
            <path id="Trazado_100482" data-name="Trazado 100482" d="M48.045,36.907c0,3.672-3.123,8.059-9.284,13.041a9.854,9.854,0,0,1-6.183,2.163,9.643,9.643,0,0,1-1.655-.139,9.794,9.794,0,0,0,4.518-2.024c6.161-4.982,9.284-9.369,9.284-13.041,0-.39-.017-.78-.048-1.164-.158-1.6-.113-8.917-.11-13.641V20.936A4.1,4.1,0,0,0,42.545,17.3a18.746,18.746,0,0,1,3.05,1.016A4.1,4.1,0,0,1,47.887,22.1v0c0,4.723-.048,12.038.11,13.641C48.028,36.127,48.045,36.517,48.045,36.907Z" fill="#f9c19b"/>
          </g>
          <path id="Trazado_100483" data-name="Trazado 100483" d="M78.223,67.322V81.138a2.616,2.616,0,0,1-2.617,2.617H57.1a2.617,2.617,0,0,1-2.617-2.617V67.322A2.616,2.616,0,0,1,57.1,64.705h18.5a2.615,2.615,0,0,1,2.617,2.617Z" fill="#90abbd"/>
          <path id="Trazado_100484" data-name="Trazado 100484" d="M78.223,67.322V81.138a2.616,2.616,0,0,1-2.617,2.617h-3.32A2.616,2.616,0,0,0,74.9,81.138V67.322a2.615,2.615,0,0,0-2.617-2.617h3.32A2.615,2.615,0,0,1,78.223,67.322Z" fill="#56788b"/>
        </g>
        <g id="Grupo_53776" data-name="Grupo 53776">
          <path id="Trazado_100485" data-name="Trazado 100485" d="M30.34,35.189a1.245,1.245,0,0,0,1.722-.37.654.654,0,0,1,1.1,0,1.245,1.245,0,0,0,2.092-1.351,3.144,3.144,0,0,0-5.284,0A1.245,1.245,0,0,0,30.34,35.189Z"/>
          <path id="Trazado_100486" data-name="Trazado 100486" d="M7.768,71.99a1.246,1.246,0,0,0-1.436,1.02,65.071,65.071,0,0,0-.8,10.745,1.245,1.245,0,0,0,2.49,0,62.6,62.6,0,0,1,.766-10.329,1.245,1.245,0,0,0-1.02-1.436Z"/>
          <path id="Trazado_100487" data-name="Trazado 100487" d="M53.5,60.186c-4.7-5.267-11.04-5.3-15.3-5.276a10.007,10.007,0,0,1,.084-3.123,10.7,10.7,0,0,0,1.261-.881l.064-.052h17.22a1.245,1.245,0,0,0,1.162-1.692,34.875,34.875,0,0,1-1.66-6.637,1.245,1.245,0,0,0-2.457.407,43.827,43.827,0,0,0,1.217,5.432H42.48C47,44.144,49.29,40.3,49.29,36.9c0-.424-.017-.85-.052-1.267l0-.019c-.045-.454-.073-1.43-.089-2.7h1.526a5.009,5.009,0,0,0,2.139-.477c.062,1.281.168,2.985.348,4.89A1.245,1.245,0,0,0,54.4,38.464c.039,0,.079,0,.119-.006A1.245,1.245,0,0,0,55.639,37.1c-.345-3.651-.413-6.618-.421-7.044a5.028,5.028,0,0,0-.924-5.669c3.053-5.91.847-12.089-2.111-15.712-2.995-3.669-6.933-5.3-10.035-4.166a5.844,5.844,0,0,0-1.5.814,14.5,14.5,0,0,0-6.67-4.136A21.829,21.829,0,0,0,21.827.606a14.448,14.448,0,0,0-9.307,7.26c-2.228,4.156-2.869,9.753-1.907,16.645a5.027,5.027,0,0,0-.649,5.851c-.056,2.088-.454,12.8-2.764,18.8a1.245,1.245,0,0,0,1.162,1.692H25.617l.062.05a10.865,10.865,0,0,0,1.263.884,10.007,10.007,0,0,1,.084,3.121c-5.689-.029-15.048.035-19.285,12.409a1.245,1.245,0,1,0,2.356.807c2.626-7.671,7.29-9.871,11.8-10.491a10.871,10.871,0,0,0,21.437.011,13.106,13.106,0,0,1,8.315,4.2A1.245,1.245,0,1,0,53.5,60.186Zm-2.83-29.755H49.128c-.006-1.62,0-3.41,0-5.092h1.546a2.546,2.546,0,1,1,0,5.092ZM43.006,6.847c2.057-.755,4.97.612,7.247,3.4,2.437,2.986,4.279,8.024,1.912,12.825a5.021,5.021,0,0,0-1.493-.226H49.132q0-.374,0-.733a5.353,5.353,0,0,0-2.99-4.918l-.042-.02a25.577,25.577,0,0,0-6.527-1.724c.078-4.715,1.309-7.828,3.434-8.608ZM14.715,9.042a11.861,11.861,0,0,1,7.746-6.028,19.279,19.279,0,0,1,10.729.534c2.721.911,4.886,2.3,5.765,3.663-1.026,1.649-1.783,4.158-1.87,7.957-1.415-.123-2.9-.187-4.419-.187h-.105c-1.172,0-2.344.039-3.485.116a1.245,1.245,0,1,0,.168,2.485c1.085-.073,2.2-.111,3.319-.111h.1c4.974,0,9.6.737,12.4,1.973a2.857,2.857,0,0,1,1.577,2.624c0,.01,0,.026,0,.036,0,.766,0,1.6,0,2.467-.009,4.622-.019,9.86.118,11.279.029.346.043.7.043,1.052,0,3.229-3.051,7.4-8.824,12.069A8.658,8.658,0,0,1,32.6,50.855h-.043a8.443,8.443,0,0,1-5.307-1.885c-5.772-4.665-8.822-8.838-8.822-12.067,0-.352.014-.706.043-1.051.137-1.418.128-6.657.118-11.28,0-.867,0-1.7,0-2.471q0-.016,0-.032a2.858,2.858,0,0,1,1.576-2.624,18.973,18.973,0,0,1,3.532-1.1,1.245,1.245,0,0,0-.537-2.432,21.358,21.358,0,0,0-4.03,1.269l-.042.02a5.354,5.354,0,0,0-2.99,4.918q0,.357,0,.732H14.349a5.022,5.022,0,0,0-1.412.2c-.675-5.838-.078-10.545,1.778-14.009ZM16.1,30.432H14.349a2.546,2.546,0,1,1,0-5.092H16.1c0,1.682.005,3.472,0,5.092Zm-6,17.933c1.566-5.182,2.1-12.171,2.275-15.846a5.012,5.012,0,0,0,1.973.4h1.727c-.017,1.265-.044,2.241-.089,2.7l0,.019c-.035.417-.052.843-.052,1.267,0,3.395,2.288,7.241,6.809,11.462H10.1Zm22.447,4.981H32.6a11.154,11.154,0,0,0,3.041-.423,9.988,9.988,0,0,0,.34,3.432,3.38,3.38,0,0,1-6.749,0,9.978,9.978,0,0,0,.341-3.425A10.86,10.86,0,0,0,32.547,53.346Zm.065,10.861a8.367,8.367,0,0,1-8.227-6.779c.857-.033,1.692-.032,2.488-.028a5.871,5.871,0,0,0,11.477,0c.784,0,1.621,0,2.488.031A8.366,8.366,0,0,1,32.612,64.207Z"/>
          <path id="Trazado_100488" data-name="Trazado 100488" d="M78.224,70.569a1.245,1.245,0,0,0,1.245-1.245v-2a3.866,3.866,0,0,0-3.862-3.862H74.076V56.485a7.72,7.72,0,1,0-15.44,0V63.46H57.1a3.866,3.866,0,0,0-3.862,3.862V81.138A3.866,3.866,0,0,0,57.1,85h18.5a3.866,3.866,0,0,0,3.862-3.862v-6a1.245,1.245,0,0,0-2.49,0v6a1.373,1.373,0,0,1-1.372,1.372H57.1a1.373,1.373,0,0,1-1.372-1.372V67.322A1.373,1.373,0,0,1,57.1,65.95h18.5a1.373,1.373,0,0,1,1.372,1.372v2A1.245,1.245,0,0,0,78.224,70.569Zm-17.1-7.109V56.485a5.23,5.23,0,1,1,10.46,0V63.46Z"/>
          <path id="Trazado_100489" data-name="Trazado 100489" d="M29.141,42.018h6.876a1.245,1.245,0,1,0,0-2.49H29.141a1.245,1.245,0,0,0,0,2.49Z"/>
          <path id="Trazado_100490" data-name="Trazado 100490" d="M65.111,71.521v5.419a1.245,1.245,0,1,0,2.49,0V71.521a1.245,1.245,0,0,0-2.49,0Z"/>
          <path id="Trazado_100491" data-name="Trazado 100491" d="M19.866,78.19a1.567,1.567,0,0,0-1.132.489c-.488.48-1.138,1.528-1.138,5.076a1.245,1.245,0,0,0,2.49,0,8.768,8.768,0,0,1,.373-3.238,1.245,1.245,0,0,0-.594-2.327Z"/>
          <path id="Trazado_100492" data-name="Trazado 100492" d="M46.489,78.679a1.571,1.571,0,0,0-1.132-.489,1.245,1.245,0,0,0-.581,2.334,9.327,9.327,0,0,1,.361,3.231,1.245,1.245,0,0,0,2.49,0C47.627,80.207,46.978,79.159,46.489,78.679Z"/>
        </g>
      </g>
    </g>
  </g>
</svg>
