<svg xmlns="http://www.w3.org/2000/svg" width="295" height="280" viewBox="0 0 295 280">
  <g id="Grupo_55516" data-name="Grupo 55516" transform="translate(9944 -4356.183)">
    <rect id="Rectángulo_5434" data-name="Rectángulo 5434" width="295" height="280" rx="5" transform="translate(-9944 4356.183)" fill="#59ffcc"/>
    <g id="Grupo_55347" data-name="Grupo 55347" transform="translate(-11469.515 4115)">
      <g id="Grupo_55306" data-name="Grupo 55306" transform="translate(1599.517 329.753)">
        <path id="Trazado_103573" data-name="Trazado 103573" d="M1845.392,622.785c-.131.093-.266.177-.41.261l-53.127,30.675-9.525,5.5-50.572,29.2a5.427,5.427,0,0,1-3.926.592,5.328,5.328,0,0,1-1.524-.6L1675.4,658.86l-.494-.289q-.2-.119-.392-.252a5.439,5.439,0,0,1,.429-9.179l.48-.275,21.985-12.545a4.31,4.31,0,0,0,.434-.28,5.435,5.435,0,0,0-.345-9.119l-29.281-17.455-1.118-.667c-.117-.07-.234-.144-.341-.219a5.346,5.346,0,0,1-2.3-4.037,5.187,5.187,0,0,1,0-.853c0-.07.009-.14.019-.205a5.387,5.387,0,0,1,2.713-4.089l74.446-42.391a5.444,5.444,0,0,1,5.413.019l97.938,56.6A5.442,5.442,0,0,1,1845.392,622.785Z" transform="translate(-1664.44 -518.533)" fill="#15325c" opacity="0.22" style="mix-blend-mode: multiply;isolation: isolate"/>
        <path id="Trazado_103574" data-name="Trazado 103574" d="M1847.623,536.03l.1-7.34-100.674-52.156a5.433,5.433,0,0,0-5.412-.018l-73.443,41.822-3.735-4.269-.018,9.083.023-.019v0a5.4,5.4,0,0,0,2.634,5.175l30.4,18.116c.121.07.233.144.345.219a5.448,5.448,0,0,1-.434,9.184l-13.785,7.865-6.2,3.538.21-.228-5.436-2.527.014,8.5a5.407,5.407,0,0,0,2.695,5.1l48.587,28.2,2.816,1.636a5.435,5.435,0,0,0,5.45.009l50.572-29.2,9.525-5.5,51.833-29.263a8.718,8.718,0,0,0,3-2.83A8.459,8.459,0,0,0,1847.623,536.03Z" transform="translate(-1664.439 -466.9)" fill="#d6edff"/>
        <path id="Trazado_103575" data-name="Trazado 103575" d="M1993.251,728.2v8.9l9.524-5.5v-8.9Z" transform="translate(-1875.361 -625.28)" fill="#fff"/>
        <path id="Trazado_103576" data-name="Trazado 103576" d="M2025.3,715.885v8.9l3.541-2.044v-8.9Z" transform="translate(-1895.916 -619.594)" fill="#fff"/>
        <path id="Trazado_103577" data-name="Trazado 103577" d="M1741.862,749.445v8.8l-4.494-2.27-48.587-28.2a5.407,5.407,0,0,1-2.695-5.1l-.014-8.5a5.389,5.389,0,0,1,2.746-4.732l.48-.275c2.592,1.371,5.59,2.932,8.2,4.224a40.951,40.951,0,0,0,6.2,2.722c2.508.448,35.482,30.862,38.013,33.2Z" transform="translate(-1678.316 -616.591)" fill="#bbe0fd"/>
        <path id="Trazado_103578" data-name="Trazado 103578" d="M1845.392,517.463c-.131.093-.266.177-.41.261L1791.854,548.4l-9.525,5.5-50.572,29.2a5.428,5.428,0,0,1-3.926.592,5.326,5.326,0,0,1-1.524-.6L1675.4,553.537l-.494-.289q-.2-.119-.392-.252a5.439,5.439,0,0,1,.429-9.18l.48-.275L1697.408,531a4.289,4.289,0,0,0,.434-.28,5.435,5.435,0,0,0-.345-9.119l-29.281-17.455-1.118-.667c-.117-.07-.234-.145-.341-.219a5.345,5.345,0,0,1-2.3-4.037,5.182,5.182,0,0,1,0-.853c0-.07.009-.14.019-.205a5.387,5.387,0,0,1,2.713-4.089l74.446-42.391a5.445,5.445,0,0,1,5.413.019l97.938,56.6A5.442,5.442,0,0,1,1845.392,517.463Z" transform="translate(-1664.44 -450.972)" fill="#fff"/>
      </g>
      <g id="Grupo_55307" data-name="Grupo 55307" transform="translate(1563.23 387.406)">
        <path id="Trazado_103579" data-name="Trazado 103579" d="M1618.032,641.746v7.442l-.039-.029a2.338,2.338,0,0,1-1.15,1.654l-25.007,14.437a2.362,2.362,0,0,1-1.2.318,2.393,2.393,0,0,1-1.178-.318l-25.035-14.495a2.35,2.35,0,0,1-1.182-2.06v-6.949l5.249,2.553,20.929-12.051a2.378,2.378,0,0,1,2.375,0l16.169,9.323,4.2,2.418Z" transform="translate(-1563.237 -624.705)" fill="#bbe0fd"/>
        <path id="Trazado_103580" data-name="Trazado 103580" d="M1667.047,659v7.442l-.039-.029a2.338,2.338,0,0,1-1.15,1.654L1640.851,682.5a2.36,2.36,0,0,1-1.2.318V673.86l17.326-15.033,4.2,2.418Z" transform="translate(-1612.252 -641.957)" fill="#d6edff"/>
        <path id="Trazado_103581" data-name="Trazado 103581" d="M1589.411,612.715,1564.422,627.1a2.378,2.378,0,0,0-.005,4.119l25.033,14.493a2.379,2.379,0,0,0,2.381,0l25.006-14.438a2.378,2.378,0,0,0,0-4.12l-25.051-14.443A2.378,2.378,0,0,0,1589.411,612.715Z" transform="translate(-1563.23 -612.174)" fill="#fff"/>
        <path id="Trazado_103582" data-name="Trazado 103582" d="M1589.411,612.091l-24.989,14.387a2.378,2.378,0,0,0-.005,4.119l25.033,14.493a2.38,2.38,0,0,0,2.381,0l25.006-14.437a2.378,2.378,0,0,0,0-4.12l-25.051-14.443A2.379,2.379,0,0,0,1589.411,612.091Z" transform="translate(-1563.23 -611.774)" fill="#fff"/>
      </g>
      <g id="Grupo_55310" data-name="Grupo 55310" transform="translate(1570.847 353.374)">
        <g id="Grupo_55308" data-name="Grupo 55308" transform="translate(0.204 20.12)">
          <path id="Trazado_103583" data-name="Trazado 103583" d="M1585.042,634.863l19.186-11.234,19.73,11.234L1604.5,646.1Z" transform="translate(-1585.042 -605.466)" fill="#15325c" opacity="0.33" style="mix-blend-mode: multiply;isolation: isolate"/>
          <path id="Trazado_103584" data-name="Trazado 103584" d="M1585.042,584.206l19.186-11.234,19.73,11.234L1604.5,595.44Z" transform="translate(-1585.042 -572.972)" fill="#d6effb"/>
          <path id="Trazado_103585" data-name="Trazado 103585" d="M1585.042,615.83V604.3l19.458,11.234-.2,11.352Z" transform="translate(-1585.042 -593.071)" fill="#77b8e0"/>
          <path id="Trazado_103586" data-name="Trazado 103586" d="M1658.405,604.3l-19.458,11.234-.2,11.352L1658.2,615.83Z" transform="translate(-1619.49 -593.071)" fill="#a9d1ea"/>
        </g>
        <g id="Grupo_55309" data-name="Grupo 55309" transform="translate(0 0)">
          <path id="Trazado_103587" data-name="Trazado 103587" d="M1584.473,528.088l19.186-11.234,19.73,11.234-19.458,11.234Z" transform="translate(-1584.473 -516.854)" fill="#bbe0fd"/>
          <path id="Trazado_103588" data-name="Trazado 103588" d="M1584.473,559.711V548.187l19.458,11.234-.2,11.352Z" transform="translate(-1584.473 -536.953)" fill="#77b8e0"/>
          <path id="Trazado_103589" data-name="Trazado 103589" d="M1657.837,548.187l-19.458,11.234-.2,11.352,19.458-11.061Z" transform="translate(-1618.921 -536.953)" fill="#a9d1ea"/>
        </g>
      </g>
      <g id="Grupo_55311" data-name="Grupo 55311" transform="translate(1617.679 262)">
        <path id="Trazado_103590" data-name="Trazado 103590" d="M1824.849,545.363v-2.314l-1.637,1.022-16.47-9.494a1.243,1.243,0,0,0-1.237,0l-20.976,11.958-1.639-.966v2.558l.053-.04a.748.748,0,0,0,.353.462l17.71,10.256a1.243,1.243,0,0,0,1.245,0l22.279-12.862A.635.635,0,0,0,1824.849,545.363Z" transform="translate(-1758.583 -436.742)" fill="#183561"/>
        <path id="Trazado_103591" data-name="Trazado 103591" d="M1805.515,527.581l-22.2,12.658a.758.758,0,0,0,0,1.314l17.709,10.256a1.243,1.243,0,0,0,1.245,0l22.279-12.863a.641.641,0,0,0,0-1.11l-17.787-10.253A1.242,1.242,0,0,0,1805.515,527.581Z" transform="translate(-1758.607 -432.256)" fill="#d6effb"/>
        <path id="Trazado_103592" data-name="Trazado 103592" d="M1834.054,514.789l-1.744,13.067-11.859,9.669-1.772-1a1.323,1.323,0,0,1-.757-1.2l.024-12.035a1.6,1.6,0,0,1,.219-.809,1.617,1.617,0,0,1,.581-.58l12.937-7.528a1.485,1.485,0,0,1,1.378-.062Z" transform="translate(-1781.054 -423.761)" fill="#183561"/>
        <path id="Trazado_103593" data-name="Trazado 103593" d="M1839.9,514.357l-.04,14.562-15.1,8.722.014-14.481Z" transform="translate(-1785.438 -423.878)" fill="#3c6a9e"/>
        <path id="Trazado_103594" data-name="Trazado 103594" d="M1794.582,262.419l3.5,1.886-5.237,70.1-72.514,47.134-2.877-1.549a4.489,4.489,0,0,1-2.36-3.952V309a3.475,3.475,0,0,1,1.719-3l74.332-43.521a3.508,3.508,0,0,1,3.437-.061Z" transform="translate(-1715.094 -262)" fill="#a9d1ea"/>
        <path id="Trazado_103595" data-name="Trazado 103595" d="M1807.453,268.429v72.918L1729.7,385.661V313.952Z" transform="translate(-1724.464 -266.124)" fill="#d6effb"/>
        <path id="Trazado_103596" data-name="Trazado 103596" d="M1810.167,293.081v58.455l-9.2,5.244-2.764,1.577-18.894,10.769-10.466,5.964-16.433,9.368-15.963,9.1v-57.31l15.625-9.148,8.458-4.953,13.345-7.813,16.057-9.4,10-5.854,7.3-4.272Z" transform="translate(-1728.789 -281.937)" fill="#183561"/>
      </g>
      <g id="Grupo_55316" data-name="Grupo 55316" transform="translate(1734.436 358.035)">
        <g id="Grupo_55314" data-name="Grupo 55314" transform="translate(0 0)">
          <g id="Grupo_55312" data-name="Grupo 55312" transform="translate(0 14.065)">
            <path id="Trazado_103597" data-name="Trazado 103597" d="M2041.546,591.855l17.931-10.5a1.62,1.62,0,0,1,1.62-.01l18.474,10.519a1.62,1.62,0,0,1,.009,2.811l-18.185,10.5a1.618,1.618,0,0,1-1.62,0l-18.219-10.519A1.62,1.62,0,0,1,2041.546,591.855Z" transform="translate(-2040.745 -576.815)" fill="#15325c" opacity="0.33" style="mix-blend-mode: multiply;isolation: isolate"/>
            <path id="Trazado_103598" data-name="Trazado 103598" d="M2110.472,592.025l-14.245,8.224-.149,8.31,14.245-8.1Z" transform="translate(-2076.239 -583.8)" fill="#a9d1ea"/>
            <path id="Trazado_103599" data-name="Trazado 103599" d="M2056.764,577.31l14.046-8.224,14.444,8.224-14.245,8.224Z" transform="translate(-2051.02 -569.086)" fill="#bbe0fd"/>
            <path id="Trazado_103600" data-name="Trazado 103600" d="M2073.963,583.835l7.818-4.578,8.04,4.578-7.929,4.578Z" transform="translate(-2062.053 -575.61)" fill="#15325c"/>
            <path id="Trazado_103601" data-name="Trazado 103601" d="M2056.764,600.462v-8.437l14.245,8.224-.15,8.31Z" transform="translate(-2051.02 -583.8)" fill="#77b8e0"/>
          </g>
          <g id="Grupo_55313" data-name="Grupo 55313" transform="translate(10.821)">
            <path id="Trazado_103602" data-name="Trazado 103602" d="M2086.738,548.557a9.987,9.987,0,0,1-3.049,2.99c-3.172,2.55-8.885,1.927-10.486-1.141a7.164,7.164,0,0,1-2.233-6.029,7.094,7.094,0,0,0,2.521,3.163c-2.616-2.234-.949-8.771-.949-8.771a10.317,10.317,0,0,0,3.288,5.176,23.016,23.016,0,0,1,.22-8.56,9.945,9.945,0,0,1,3.24-5.531,15.636,15.636,0,0,0,2.674,10.9c2.214-2.655,1.677-6.566,1.677-6.566s3.192,6.125,1.725,10.793a7.174,7.174,0,0,0,3.163-2.55A11.028,11.028,0,0,1,2086.738,548.557Z" transform="translate(-2070.924 -529.856)" fill="#77b8e0"/>
            <path id="Trazado_103603" data-name="Trazado 103603" d="M2086.738,558.452a9.988,9.988,0,0,1-3.049,2.991,7.2,7.2,0,0,1-2.665,1.3c-3.038.805-6.6-.124-7.821-2.444a7.164,7.164,0,0,1-2.233-6.029,7.094,7.094,0,0,0,2.521,3.163c-2.616-2.234-.949-8.771-.949-8.771a10.411,10.411,0,0,0,3.288,5.176,23.017,23.017,0,0,1,.22-8.56C2076.04,554.656,2080.852,558.587,2086.738,558.452Z" transform="translate(-2070.924 -539.751)" fill="#77b8e0" opacity="0.33" style="mix-blend-mode: multiply;isolation: isolate"/>
            <path id="Trazado_103604" data-name="Trazado 103604" d="M2081.024,568.8c-3.038.805-6.6-.124-7.821-2.444a7.164,7.164,0,0,1-2.233-6.029,7.1,7.1,0,0,0,2.521,3.163c-2.616-2.234-.949-8.771-.949-8.771a9.7,9.7,0,0,0,1.16,2.684C2074.593,564.113,2078.36,567.333,2081.024,568.8Z" transform="translate(-2070.924 -545.805)" fill="#77b8e0" opacity="0.33" style="mix-blend-mode: multiply;isolation: isolate"/>
          </g>
        </g>
        <g id="Grupo_55315" data-name="Grupo 55315" transform="translate(16.597 6.1)">
          <path id="Trazado_103605" data-name="Trazado 103605" d="M2087.968,556.574a5.182,5.182,0,0,0,1.582,1.552c1.646,1.323,4.61,1,5.441-.592a3.719,3.719,0,0,0,1.159-3.129,3.681,3.681,0,0,1-1.308,1.641c1.357-1.159.492-4.551.492-4.551a5.35,5.35,0,0,1-1.706,2.686,11.94,11.94,0,0,0-.114-4.441,5.164,5.164,0,0,0-1.681-2.87,8.114,8.114,0,0,1-1.387,5.655,4.883,4.883,0,0,1-.87-3.407s-1.656,3.178-.9,5.6a3.724,3.724,0,0,1-1.642-1.323A5.724,5.724,0,0,0,2087.968,556.574Z" transform="translate(-2087.036 -546.871)" fill="#77b8e0"/>
          <path id="Trazado_103606" data-name="Trazado 103606" d="M2089.636,561.708a5.183,5.183,0,0,0,1.582,1.552,3.741,3.741,0,0,0,1.383.677c1.576.418,3.427-.065,4.058-1.268a3.719,3.719,0,0,0,1.159-3.129,3.68,3.68,0,0,1-1.308,1.641c1.358-1.159.492-4.551.492-4.551a5.41,5.41,0,0,1-1.706,2.686,11.934,11.934,0,0,0-.115-4.441C2095.187,559.739,2092.69,561.778,2089.636,561.708Z" transform="translate(-2088.704 -552.005)" fill="#77b8e0" opacity="0.33" style="mix-blend-mode: multiply;isolation: isolate"/>
          <path id="Trazado_103607" data-name="Trazado 103607" d="M2097.9,567.077c1.577.418,3.426-.065,4.058-1.268a3.719,3.719,0,0,0,1.159-3.129,3.68,3.68,0,0,1-1.308,1.641c1.357-1.159.492-4.551.492-4.551a5.022,5.022,0,0,1-.6,1.393A7.52,7.52,0,0,1,2097.9,567.077Z" transform="translate(-2094.007 -555.146)" fill="#77b8e0" opacity="0.33" style="mix-blend-mode: multiply;isolation: isolate"/>
        </g>
      </g>
      <g id="Grupo_55326" data-name="Grupo 55326" transform="translate(1710.525 277.384)">
        <g id="Grupo_55320" data-name="Grupo 55320" transform="translate(39.889 34.498)">
          <path id="Trazado_103608" data-name="Trazado 103608" d="M2106.324,412.745v23.1l-.653.522-19.708-12.138-.653-22.579.653-.522Z" transform="translate(-2085.311 -401.129)" fill="#183561"/>
          <path id="Trazado_103609" data-name="Trazado 103609" d="M2085.311,402.585v23.1l20.361,11.616V414.2Z" transform="translate(-2085.311 -402.063)" fill="#183561"/>
          <path id="Trazado_103610" data-name="Trazado 103610" d="M2085.311,402.585v4.829l20.361,11.616V414.2Z" transform="translate(-2085.311 -402.063)" fill="#3c6a9e"/>
          <g id="Grupo_55319" data-name="Grupo 55319" transform="translate(1.412 9.658)">
            <path id="Trazado_103611" data-name="Trazado 103611" d="M2089.249,428.067l.01,1.606,11.063,6.409-.068-1.651Z" transform="translate(-2089.249 -428.067)" fill="#fec400"/>
            <path id="Trazado_103612" data-name="Trazado 103612" d="M2104.689,465.411l.01,1.606,11.063,6.409-.068-1.651Z" transform="translate(-2099.153 -452.022)" fill="#fec400"/>
            <g id="Grupo_55317" data-name="Grupo 55317" transform="translate(12.344 7.16)">
              <path id="Trazado_103613" data-name="Trazado 103613" d="M2123.677,448.038v1.557l4.158,2.411v-1.556Z" transform="translate(-2123.677 -448.038)" fill="#77b8e0"/>
            </g>
            <g id="Grupo_55318" data-name="Grupo 55318" transform="translate(1.788 7.97)">
              <path id="Trazado_103614" data-name="Trazado 103614" d="M2094.237,450.3v1.557l4.158,2.411v-1.556Z" transform="translate(-2094.237 -450.297)" fill="#77b8e0"/>
            </g>
            <path id="Trazado_103615" data-name="Trazado 103615" d="M2090.482,458.06v1.557l4.158,2.411v-1.556Z" transform="translate(-2090.04 -447.306)" fill="#fff"/>
            <path id="Trazado_103616" data-name="Trazado 103616" d="M2108.285,448.038l9.656,5.575v1.612l-9.674-5.629Z" transform="translate(-2101.448 -440.877)" fill="#fff"/>
            <path id="Trazado_103617" data-name="Trazado 103617" d="M2108.285,457.494l9.656,5.575v1.612l-9.674-5.629Z" transform="translate(-2101.448 -446.944)" fill="#fff"/>
          </g>
        </g>
        <g id="Grupo_55325" data-name="Grupo 55325">
          <path id="Trazado_103618" data-name="Trazado 103618" d="M2006.782,323v54.563l-1.016.813-30.695-18.9-1.017-53.749,1.017-.813Z" transform="translate(-1974.054 -304.909)" fill="#183561"/>
          <path id="Trazado_103619" data-name="Trazado 103619" d="M1974.054,307.177v54.562l31.711,18.092V325.268Z" transform="translate(-1974.054 -306.364)" fill="#a9d1ea"/>
          <path id="Trazado_103620" data-name="Trazado 103620" d="M1974.054,307.177V314.7l31.711,18.092v-7.521Z" transform="translate(-1974.054 -306.364)" fill="#3c6a9e"/>
          <g id="Grupo_55324" data-name="Grupo 55324" transform="translate(3.292 16.136)">
            <g id="Grupo_55323" data-name="Grupo 55323">
              <path id="Trazado_103621" data-name="Trazado 103621" d="M1983.236,349.913l.015,2.5,17.23,9.982-.105-2.572Z" transform="translate(-1983.236 -349.913)" fill="#fec400"/>
              <path id="Trazado_103622" data-name="Trazado 103622" d="M2007.285,408.075l.015,2.5,17.23,9.982-.106-2.572Z" transform="translate(-1998.663 -387.222)" fill="#fec400"/>
              <g id="Grupo_55321" data-name="Grupo 55321" transform="translate(19.225 11.152)">
                <path id="Trazado_103623" data-name="Trazado 103623" d="M2036.858,381.016v2.425l6.476,3.755v-2.424Z" transform="translate(-2036.858 -381.016)" fill="#77b8e0"/>
              </g>
              <g id="Grupo_55322" data-name="Grupo 55322" transform="translate(2.785 12.413)">
                <path id="Trazado_103624" data-name="Trazado 103624" d="M1991.005,384.535v2.425l6.476,3.755v-2.424Z" transform="translate(-1991.005 -384.535)" fill="#77b8e0"/>
              </g>
              <path id="Trazado_103625" data-name="Trazado 103625" d="M1985.158,396.626v2.425l6.476,3.755v-2.424Z" transform="translate(-1984.469 -379.878)" fill="#fff"/>
              <path id="Trazado_103626" data-name="Trazado 103626" d="M2012.885,381.016l15.038,8.682v2.511l-15.066-8.768Z" transform="translate(-2002.237 -369.865)" fill="#fff"/>
              <path id="Trazado_103627" data-name="Trazado 103627" d="M2012.885,395.745l15.038,8.682v2.511l-15.066-8.768Z" transform="translate(-2002.237 -379.313)" fill="#fff"/>
            </g>
            <path id="Trazado_103628" data-name="Trazado 103628" d="M1983.236,410.889l.015,2.5,17.23,9.982-.105-2.572Z" transform="translate(-1983.236 -389.027)" fill="#fec400"/>
            <path id="Trazado_103629" data-name="Trazado 103629" d="M2007.285,456.856l.015,2.5,17.23,9.982-.106-2.572Z" transform="translate(-1998.663 -418.513)" fill="#fec400"/>
            <path id="Trazado_103630" data-name="Trazado 103630" d="M2036.858,441.992v2.425l6.476,3.755v-2.424Z" transform="translate(-2017.632 -408.979)" fill="#77b8e0"/>
            <path id="Trazado_103631" data-name="Trazado 103631" d="M1991.005,433.316v2.425l6.476,3.755v-2.424Z" transform="translate(-1988.22 -403.413)" fill="#77b8e0"/>
            <path id="Trazado_103632" data-name="Trazado 103632" d="M1985.158,445.406v2.425l6.476,3.755v-2.424Z" transform="translate(-1984.469 -411.169)" fill="#fff"/>
            <path id="Trazado_103633" data-name="Trazado 103633" d="M2012.885,444.526l15.038,8.682v2.511l-15.066-8.768Z" transform="translate(-2002.237 -410.604)" fill="#fff"/>
          </g>
        </g>
      </g>
      <g id="Grupo_55330" data-name="Grupo 55330" transform="translate(1629.991 300.174)">
        <path id="Trazado_103634" data-name="Trazado 103634" d="M1760.868,477.159l-1.576.922-3.39,1.985-6.262,3.666v2.775l6.262-3.666,3.39-1.985,1.576-.922Z" transform="translate(-1749.567 -438.191)" fill="#fff"/>
        <g id="Grupo_55327" data-name="Grupo 55327" transform="translate(0.074 35.073)">
          <path id="Trazado_103635" data-name="Trazado 103635" d="M1796.184,466.985l-2.925,1.712-4.007,2.346-6.435,3.768-4.839,2.833v2.774l4.839-2.833,6.435-3.768,4.007-2.346,2.925-1.712,1.178-.69v-2.775Z" transform="translate(-1767.819 -466.295)" fill="#f02098"/>
          <path id="Trazado_103636" data-name="Trazado 103636" d="M1758.948,499.344l-3.045,1.783-6.262,3.666v2.774l6.262-3.666,3.045-1.783Z" transform="translate(-1749.641 -487.495)" fill="#fff"/>
        </g>
        <g id="Grupo_55328" data-name="Grupo 55328" transform="translate(0.074 46.171)">
          <path id="Trazado_103637" data-name="Trazado 103637" d="M1764.07,521.934l-4.777,2.8-3.39,1.985-6.262,3.666v2.774l6.262-3.666,3.39-1.985,4.777-2.8Z" transform="translate(-1749.641 -513.083)" fill="#fec400"/>
          <path id="Trazado_103638" data-name="Trazado 103638" d="M1805.348,497.939l-2.925,1.712L1798.417,502l-6.152,3.6v2.774l6.152-3.6,4.007-2.346,2.925-1.712,1.178-.69v-2.775Z" transform="translate(-1776.983 -497.249)" fill="#fff"/>
        </g>
        <g id="Grupo_55329" data-name="Grupo 55329" transform="translate(0.074 40.622)">
          <path id="Trazado_103639" data-name="Trazado 103639" d="M1780.237,499.137l-3.911,2.29-5.348,3.131-3.12,1.827v2.775l3.12-1.827,5.348-3.131,3.911-2.29Z" transform="translate(-1761.327 -492.911)" fill="#fff"/>
          <path id="Trazado_103640" data-name="Trazado 103640" d="M1755.319,520.746l-5.678,3.324v2.775l5.678-3.324Z" transform="translate(-1749.641 -506.773)" fill="#fff"/>
          <path id="Trazado_103641" data-name="Trazado 103641" d="M1813.367,482.462l-2.925,1.712-4.007,2.346-1.67.978v2.775l1.67-.978,4.007-2.346,2.925-1.712,1.178-.69v-2.774Z" transform="translate(-1785.001 -481.772)" fill="#fff"/>
        </g>
        <path id="Trazado_103642" data-name="Trazado 103642" d="M1801.113,368.472l-.019,3.131L1779.531,384.1l.132-3.218Z" transform="translate(-1768.74 -368.472)" fill="#fec400"/>
        <path id="Trazado_103643" data-name="Trazado 103643" d="M1771.016,441.261l-.019,3.131-21.563,12.493.132-3.218Z" transform="translate(-1749.434 -415.164)" fill="#fff"/>
        <path id="Trazado_103644" data-name="Trazado 103644" d="M1758.118,407.4v3.035l-8.1,4.7V412.1Z" transform="translate(-1749.805 -393.441)" fill="#f02098"/>
        <path id="Trazado_103645" data-name="Trazado 103645" d="M1815.5,411.8v3.035l-8.1,4.7V416.5Z" transform="translate(-1786.615 -396.266)" fill="#f02098"/>
        <path id="Trazado_103646" data-name="Trazado 103646" d="M1822.819,426.932v3.035l-8.1,4.7v-3.034Z" transform="translate(-1791.309 -405.972)" fill="#fff"/>
        <path id="Trazado_103647" data-name="Trazado 103647" d="M1849.008,411.8v3.035l-8.1,4.7V416.5Z" transform="translate(-1808.108 -396.266)" fill="#fff"/>
        <path id="Trazado_103648" data-name="Trazado 103648" d="M1768.886,407.4l-18.82,10.866v3.142l18.855-10.973Z" transform="translate(-1749.839 -393.441)" fill="#fff"/>
        <path id="Trazado_103649" data-name="Trazado 103649" d="M1768.886,425.83l-18.82,10.866v3.142l18.855-10.973Z" transform="translate(-1749.839 -405.265)" fill="#fff"/>
      </g>
      <path id="Trazado_103650" data-name="Trazado 103650" d="M1876.429,396.336V382.81l-11.886,6.914v13.647Z" transform="translate(-193.282 -77.496)" fill="#3c6a9e"/>
      <path id="Trazado_103651" data-name="Trazado 103651" d="M1915.438,374.231V360.706l-11.886,6.914v13.647Z" transform="translate(-218.304 -63.316)" fill="#3c6a9e"/>
      <path id="Trazado_103652" data-name="Trazado 103652" d="M1876.429,443.146V429.62l-11.886,6.914v13.647Z" transform="translate(-193.282 -107.523)" fill="#3c6a9e"/>
      <path id="Trazado_103653" data-name="Trazado 103653" d="M1915.438,421.041V407.515l-11.886,6.914v13.647Z" transform="translate(-218.304 -93.343)" fill="#3c6a9e"/>
      <g id="Grupo_55331" data-name="Grupo 55331" transform="translate(1644.892 419.573)">
        <path id="Trazado_103654" data-name="Trazado 103654" d="M1830.354,750.891l-.123.072-19.558,11.292-.123-.071L1791,750.891l5.958-3.49,13.445-7.872,13.912,7.921,5.922,3.371Z" transform="translate(-1790.996 -725.892)" fill="#15325c" opacity="0.33" style="mix-blend-mode: multiply;isolation: isolate"/>
        <path id="Trazado_103655" data-name="Trazado 103655" d="M1810.674,731.371l-.123,6.859-.083,4.621L1791,731.664v-4.726l5.958-3.49Z" transform="translate(-1790.996 -715.576)" fill="#183561"/>
        <path id="Trazado_103656" data-name="Trazado 103656" d="M1865.073,726.957l0,.141-.083,4.655-19.68,11.187.083-4.621.123-6.859,13.637-7.874Z" transform="translate(-1825.835 -715.664)" fill="#23477c"/>
        <path id="Trazado_103657" data-name="Trazado 103657" d="M1830.354,712.854l-.123.072-19.558,11.292-.123-.072L1791,712.854l5.958-3.49,13.445-7.872,13.912,7.921,5.922,3.371Z" transform="translate(-1790.996 -701.493)" fill="#3c6a9e"/>
        <path id="Trazado_103658" data-name="Trazado 103658" d="M1808.358,719.3l13.2-7.728,13.642,7.767-13.388,7.73Z" transform="translate(-1802.133 -707.958)" fill="#ffd561"/>
        <path id="Trazado_103659" data-name="Trazado 103659" d="M1813.321,721.143l11.427-6.69,11.838,6.74-11.59,6.692Z" transform="translate(-1805.316 -709.806)" fill="#5b95d3"/>
        <path id="Trazado_103660" data-name="Trazado 103660" d="M1838.395,730.449l2.6-1.52,2.689,1.531-2.633,1.52Z" transform="translate(-1821.401 -719.092)" fill="#bbe0fd"/>
        <path id="Trazado_103661" data-name="Trazado 103661" d="M1824.748,715.347l11.058,6.3.78-.45-11.838-6.74-11.427,6.69.769.444Z" transform="translate(-1805.316 -709.806)" fill="#183561"/>
      </g>
      <g id="Grupo_55334" data-name="Grupo 55334" transform="translate(1621.321 393.932)">
        <g id="Grupo_55332" data-name="Grupo 55332" transform="translate(0.149 14.716)">
          <path id="Trazado_103662" data-name="Trazado 103662" d="M1725.668,716.291l14.033-8.217,14.431,8.217-14.232,8.217Z" transform="translate(-1725.668 -694.79)" fill="#15325c" opacity="0.33" style="mix-blend-mode: multiply;isolation: isolate"/>
          <path id="Trazado_103663" data-name="Trazado 103663" d="M1725.668,679.24l14.033-8.217,14.431,8.217-14.232,8.217Z" transform="translate(-1725.668 -671.023)" fill="#d6effb"/>
          <path id="Trazado_103664" data-name="Trazado 103664" d="M1725.668,702.37V693.94l14.232,8.217-.149,8.3Z" transform="translate(-1725.668 -685.724)" fill="#77b8e0"/>
          <path id="Trazado_103665" data-name="Trazado 103665" d="M1779.327,693.94l-14.232,8.217-.149,8.3,14.232-8.09Z" transform="translate(-1750.864 -685.724)" fill="#a9d1ea"/>
        </g>
        <g id="Grupo_55333" data-name="Grupo 55333">
          <path id="Trazado_103666" data-name="Trazado 103666" d="M1725.252,638.194l14.033-8.217,14.431,8.217-14.232,8.217Z" transform="translate(-1725.252 -629.978)" fill="#bbe0fd"/>
          <path id="Trazado_103667" data-name="Trazado 103667" d="M1725.252,661.324V652.9l14.232,8.217-.149,8.3Z" transform="translate(-1725.252 -644.678)" fill="#77b8e0"/>
          <path id="Trazado_103668" data-name="Trazado 103668" d="M1778.911,652.9l-14.232,8.217-.149,8.3,14.232-8.09Z" transform="translate(-1750.448 -644.678)" fill="#a9d1ea"/>
        </g>
      </g>
      <g id="Grupo_55340" data-name="Grupo 55340" transform="translate(1677.43 362.698)">
        <path id="Trazado_103669" data-name="Trazado 103669" d="M1918.172,611.143l21.343,12.434-36,20.971-21.157-12.62Z" transform="translate(-1882.137 -586.661)" fill="#15325c" opacity="0.33" style="mix-blend-mode: multiply;isolation: isolate"/>
        <g id="Grupo_55335" data-name="Grupo 55335" transform="translate(36.266 16.327)">
          <rect id="Rectángulo_5437" data-name="Rectángulo 5437" width="1.299" height="23.365" transform="translate(0 1.125) rotate(-59.98)" fill="#77b8e0"/>
        </g>
        <g id="Grupo_55336" data-name="Grupo 55336" transform="translate(55.893 12.62)">
          <path id="Trazado_103670" data-name="Trazado 103670" d="M2038.383,603.112a.742.742,0,0,0,.742-.742V578.8a.742.742,0,0,0-1.485,0v23.57A.742.742,0,0,0,2038.383,603.112Z" transform="translate(-2037.641 -578.058)" fill="#77b8e0"/>
        </g>
        <path id="Trazado_103671" data-name="Trazado 103671" d="M2038.955,632.408V637.2a.959.959,0,1,1-1.918,0v-4.794Z" transform="translate(-1981.361 -600.302)" fill="#1c427e"/>
        <g id="Grupo_55337" data-name="Grupo 55337" transform="translate(0.217 20.971)">
          <path id="Trazado_103672" data-name="Trazado 103672" d="M1883.1,626.405a.742.742,0,0,0,.742-.742v-23.57a.742.742,0,0,0-1.485,0v23.57A.742.742,0,0,0,1883.1,626.405Z" transform="translate(-1882.353 -601.351)" fill="#77b8e0"/>
        </g>
        <path id="Trazado_103673" data-name="Trazado 103673" d="M1883.667,655.7V660.5a.959.959,0,1,1-1.918,0V655.7Z" transform="translate(-1881.749 -615.243)" fill="#1c427e"/>
        <g id="Grupo_55338" data-name="Grupo 55338" transform="translate(20.631 33.034)">
          <path id="Trazado_103674" data-name="Trazado 103674" d="M1940.034,660.05a.743.743,0,0,0,.742-.743V635.739a.742.742,0,1,0-1.485,0v23.569A.742.742,0,0,0,1940.034,660.05Z" transform="translate(-1939.292 -634.996)" fill="#77b8e0"/>
        </g>
        <path id="Trazado_103675" data-name="Trazado 103675" d="M1918.172,548.553l21.343,10.393v2.042l-36,20.971-21.157-12.62V567.3Z" transform="translate(-1882.137 -546.512)" fill="#a9d1ea"/>
        <path id="Trazado_103676" data-name="Trazado 103676" d="M1918.172,542.859l21.343,12.434-36,20.971-21.157-12.62Z" transform="translate(-1882.137 -542.859)" fill="#bbe0fd"/>
        <path id="Trazado_103677" data-name="Trazado 103677" d="M1940.606,689.347v4.794a.959.959,0,0,1-1.918,0v-4.794Z" transform="translate(-1918.274 -636.826)" fill="#1c427e"/>
        <g id="Grupo_55339" data-name="Grupo 55339" transform="translate(0.633 37.484)">
          <rect id="Rectángulo_5438" data-name="Rectángulo 5438" width="1.299" height="23.365" transform="matrix(0.5, -0.866, 0.866, 0.5, 0, 1.125)" fill="#77b8e0"/>
        </g>
      </g>
      <g id="Grupo_55342" data-name="Grupo 55342" transform="translate(1693.646 375.285)">
        <circle id="Elipse_4207" data-name="Elipse 4207" cx="0.782" cy="0.782" r="0.782" transform="translate(14.916 10.1)" fill="#052754"/>
        <path id="Trazado_103678" data-name="Trazado 103678" d="M1939.487,584.33l-6.135,3.609-6.375,2.767v.962l9.383,5.293,6.255-3.609,6.255-3.609v-.962Z" transform="translate(-1926.977 -582.048)" fill="#052754"/>
        <path id="Trazado_103679" data-name="Trazado 103679" d="M1971.7,597.083l4.855-5.9.347,2.081Z" transform="translate(-1955.663 -586.447)" fill="#3c6a9e"/>
        <path id="Trazado_103680" data-name="Trazado 103680" d="M1960.586,582.707l-.9,1.09-3.926,4.767-.032.039-8.924-5.178.009-.009.084-.08,5.593-5.369Z" transform="translate(-1939.697 -577.967)" fill="#fff"/>
        <path id="Trazado_103681" data-name="Trazado 103681" d="M1943.566,598.324l-.253.032-6.105.777-7.061-3.923-2.3-1.28,6.652-.776.156-.019h.009l.119-.014Z" transform="translate(-1927.533 -587.688)" fill="#fff"/>
        <g id="Grupo_55341" data-name="Grupo 55341" transform="translate(6.963 5.369)">
          <path id="Trazado_103682" data-name="Trazado 103682" d="M1955.5,598.169l-.032.039-.253.032-8.752-5.162-.066-.039.156-.018.084-.08.029.017Z" transform="translate(-1946.397 -592.941)" fill="#183561"/>
        </g>
        <path id="Trazado_103683" data-name="Trazado 103683" d="M1927.843,595.379v2.279l9.364,5.235v-2.312Z" transform="translate(-1927.533 -589.136)" fill="#77b8e0"/>
        <path id="Trazado_103684" data-name="Trazado 103684" d="M1953.961,608.441v2.312l6.359-3.121Z" transform="translate(-1944.286 -596.996)" fill="#3c6a9e"/>
      </g>
      <g id="Grupo_55346" data-name="Grupo 55346" transform="translate(1705.131 361.765)">
        <path id="Trazado_103685" data-name="Trazado 103685" d="M1993.43,677.136l-11.4,6.668-11.686-7.277,11.509-6.278Z" transform="translate(-1966.282 -623.642)" fill="#15325c" opacity="0.33" style="mix-blend-mode: multiply;isolation: isolate"/>
        <path id="Trazado_103686" data-name="Trazado 103686" d="M1959.11,674.81c.227-.793,3.74-1.02,3.74-1.02l3.287,1.474c-.114,1.813-.453,2.267-1.247,2.267-5.214-.567-5.781-1.587-5.781-1.587A1.442,1.442,0,0,1,1959.11,674.81Z" transform="translate(-1959.009 -625.914)" fill="#052754"/>
        <path id="Trazado_103687" data-name="Trazado 103687" d="M1974.984,669.226c.227-.793,3.74-1.02,3.74-1.02l3.287,1.473c-.113,1.813-.453,2.267-1.247,2.267-5.213-.567-5.78-1.587-5.78-1.587A1.442,1.442,0,0,1,1974.984,669.226Z" transform="translate(-1969.192 -622.332)" fill="#052754"/>
        <path id="Trazado_103688" data-name="Trazado 103688" d="M1976.885,622.075l-5.312,2.9-.1,1.284-.4,15.852c-2.175,1.263-2.968-.61-2.968-.61l-1.168-15.939h0a2.465,2.465,0,0,1,2.1-2.333Z" transform="translate(-1964.098 -592.741)" fill="#f9beae"/>
        <path id="Trazado_103689" data-name="Trazado 103689" d="M1984.825,642.936c-2.051,1.455-3.009-.34-3.009-.34l-2.257-15.021-.133-.758-.032-.691h4.595l.011.976Z" transform="translate(-1972.085 -595.339)" fill="#f9beae"/>
        <g id="Grupo_55343" data-name="Grupo 55343" transform="translate(15.008 46.602)">
          <path id="Trazado_103690" data-name="Trazado 103690" d="M2001.24,684.168a.371.371,0,0,1-.371-.371V670.609a.371.371,0,0,1,.742,0V683.8A.371.371,0,0,1,2001.24,684.168Z" transform="translate(-2000.869 -670.238)" fill="#77b8e0"/>
        </g>
        <path id="Trazado_103691" data-name="Trazado 103691" d="M2000.567,702.107v2.4a.479.479,0,0,0,.959,0v-2.4Z" transform="translate(-1985.667 -644.079)" fill="#1c427e"/>
        <g id="Grupo_55344" data-name="Grupo 55344" transform="translate(27.148 39.935)">
          <path id="Trazado_103692" data-name="Trazado 103692" d="M2035.1,665.571a.371.371,0,0,1-.371-.372V652.012a.371.371,0,1,1,.742,0V665.2A.371.371,0,0,1,2035.1,665.571Z" transform="translate(-2034.728 -651.641)" fill="#77b8e0"/>
        </g>
        <path id="Trazado_103693" data-name="Trazado 103693" d="M2034.426,683.51v2.4a.479.479,0,1,0,.959,0v-2.4Z" transform="translate(-2007.386 -632.149)" fill="#1c427e"/>
        <g id="Grupo_55345" data-name="Grupo 55345" transform="translate(3.672 40.075)">
          <path id="Trazado_103694" data-name="Trazado 103694" d="M1969.623,665.962a.372.372,0,0,1-.371-.371V652.4a.371.371,0,0,1,.742,0v13.188A.371.371,0,0,1,1969.623,665.962Z" transform="translate(-1969.252 -652.032)" fill="#77b8e0"/>
        </g>
        <path id="Trazado_103695" data-name="Trazado 103695" d="M1981.554,659.057h0a.8.8,0,0,1-1.2.549l-11.265-6.626v-1.133Z" transform="translate(-1965.476 -611.839)" fill="#a9d1ea"/>
        <path id="Trazado_103696" data-name="Trazado 103696" d="M1984.021,634.965l-3.251-1.648-11.537,6.7,11.537,6.8Z" transform="translate(-1965.568 -599.952)" fill="#bbe0fd"/>
        <path id="Trazado_103697" data-name="Trazado 103697" d="M1968.95,683.9v2.4a.48.48,0,0,0,.959,0v-2.4Z" transform="translate(-1965.386 -632.4)" fill="#1c427e"/>
        <path id="Trazado_103698" data-name="Trazado 103698" d="M1965.983,599.726a1.977,1.977,0,0,0-.131-1.573c-.453-.562-.9.275-.9.275-1.749-1.358-2.1-.688-2.1-.688-1.125.906-.673,1.469-.673,1.469.319.814,2.581,2.015,2.581,2.015Z" transform="translate(-1960.984 -577.024)" fill="#f4caab"/>
        <path id="Trazado_103699" data-name="Trazado 103699" d="M2020.944,570.505c1.24-.124,2.328.5,2.662,3.837s.23,9.131.23,9.131l-2.259,10.432-2.492-.334L2020.144,583l-1.172-8.3S2018.463,570.754,2020.944,570.505Z" transform="translate(-1997.446 -559.651)" fill="#ffd561"/>
        <path id="Trazado_103700" data-name="Trazado 103700" d="M1984.518,630.572c-8.126,4.587-16.648-6.5-17.375-7.478-.033-.047-.051-.07-.051-.07l1.189-1.469a11.353,11.353,0,0,1,9.692-4.172l11.035-1.981c.094.247.182.489.261.732C1992.849,626.684,1984.518,630.572,1984.518,630.572Z" transform="translate(-1964.194 -588.46)" fill="#f1249a"/>
        <path id="Trazado_103701" data-name="Trazado 103701" d="M1984.609,631.881c-8.126,4.587-16.648-6.5-17.375-7.478,10.625,6.527,18.918,6.336,22.125-6.96C1992.94,627.993,1984.609,631.881,1984.609,631.881Z" transform="translate(-1964.285 -589.77)" fill="#f1249a" opacity="0.44" style="mix-blend-mode: multiply;isolation: isolate"/>
        <path id="Trazado_103702" data-name="Trazado 103702" d="M1995.24,575l.952,3.738a16.418,16.418,0,0,1-.952,10.82h0s9.294,1.48,12.891-3.574l-.2-1.186a17.742,17.742,0,0,1-.843-8.288l.843-6.18a3.4,3.4,0,0,0-.942-1.735,2.54,2.54,0,0,0-1.457-.71,2.623,2.623,0,0,0-1.6.3l-6.885,3.763a3.479,3.479,0,0,0-1.81,3.053Z" transform="translate(-1982.25 -557.967)" fill="#fec400"/>
        <path id="Trazado_103703" data-name="Trazado 103703" d="M1979.649,581.052c1.245.067,2.224.854,2.044,4.2-.1,1.952-.747,5.992-1.265,9.02a2.674,2.674,0,0,1-3.995,1.852l-7.716-5.3,1.742-2.323,6.39,3.485.209-7.086S1977.159,580.918,1979.649,581.052Z" transform="translate(-1965.236 -566.424)" fill="#ffd561"/>
        <path id="Trazado_103704" data-name="Trazado 103704" d="M1998.933,548.2s-.793,8.727,2.607,7.933,4.307-4.873,4.307-4.873l-2.38-3.06Z" transform="translate(-1984.568 -545.354)" fill="#f9beae"/>
        <path id="Trazado_103705" data-name="Trazado 103705" d="M2008.11,564.789l-.34,3.627s2.607.793,3.74-.454v-3.173Z" transform="translate(-1990.288 -555.994)" fill="#f4caab"/>
        <path id="Trazado_103706" data-name="Trazado 103706" d="M2002.608,556.551a1.281,1.281,0,1,0,1.281-1.281A1.281,1.281,0,0,0,2002.608,556.551Z" transform="translate(-1986.977 -549.888)" fill="#f4caab"/>
        <path id="Trazado_103707" data-name="Trazado 103707" d="M2003.934,543.858a4.359,4.359,0,0,0-.419-1.318c-1.36-2.607-5.78-2.267-5.78-2.267s-2.267.454-2.267,2.04a2.672,2.672,0,0,0,1.462,2.136c1.31,5.294-2.242,7.329-2.242,7.329s5.735,3.164,9.294-.2C2006.7,549.017,2004.928,545.423,2003.934,543.858Z" transform="translate(-1981.896 -540.258)" fill="#052754"/>
        <path id="Trazado_103708" data-name="Trazado 103708" d="M2001.124,628.278l3.914-16.069,12.052-7.622.979.67-5,16.12-10.97,7.468Z" transform="translate(-1986.024 -581.523)" fill="#a9d1ea"/>
        <path id="Trazado_103709" data-name="Trazado 103709" d="M2004,630l3.914-16.069,12.052-7.622-4.017,16.79Z" transform="translate(-1987.867 -582.629)" fill="#bbe0fd"/>
      </g>
      <path id="Trazado_103710" data-name="Trazado 103710" d="M1876.429,349.526V336l-11.886,6.914v13.647Z" transform="translate(-193.282 -47.469)" fill="#3c6a9e"/>
      <path id="Trazado_103711" data-name="Trazado 103711" d="M1915.438,327.421V313.9l-11.886,6.914v13.647Z" transform="translate(-218.304 -33.289)" fill="#3c6a9e"/>
    </g>
  </g>
</svg>
