<svg xmlns="http://www.w3.org/2000/svg" width="295" height="280" viewBox="0 0 295 280">
  <g id="Grupo_55517" data-name="Grupo 55517" transform="translate(9629 -4356)">
    <rect id="Rectángulo_5433" data-name="Rectángulo 5433" width="295" height="280" rx="5" transform="translate(-9629 4356)" fill="#59ffcc"/>
    <g id="Grupo_55387" data-name="Grupo 55387" transform="translate(-11849.037 4100.964)">
      <g id="Grupo_55350" data-name="Grupo 55350" transform="translate(2265.756 339.942)">
        <path id="Trazado_103712" data-name="Trazado 103712" d="M2309.316,623.112l122-70.436a4.491,4.491,0,0,1,4.479-.007l70.039,40.156a4.49,4.49,0,0,1,.028,7.774l-25.924,15.107a4.49,4.49,0,0,0-.006,7.755l14.794,8.652a4.49,4.49,0,0,1-.1,7.809l-84.732,46.628a4.489,4.489,0,0,1-4.413-.047l-96.164-55.618A4.49,4.49,0,0,1,2309.316,623.112Z" transform="translate(-2307.071 -512.648)" fill="#15325c" opacity="0.22" style="mix-blend-mode: multiply;isolation: isolate"/>
        <g id="Grupo_55348" data-name="Grupo 55348" transform="translate(183.478 77.279)">
          <path id="Trazado_103713" data-name="Trazado 103713" d="M2842.425,676.036l-.112-.075a.7.7,0,0,1-.23.226l-34.961,20.182a.657.657,0,0,1-.307.09.685.685,0,0,1-.379-.093l-8.894-5.242a.671.671,0,0,1-.323-.67l-.009,0V684.48l4.524,3.052,5.081-2.934,25.6-14.779a.681.681,0,0,1,.68,0l3.192,1.844,6.118-1.935Z" transform="translate(-2797.209 -663.538)" fill="#d6edff"/>
          <path id="Trazado_103714" data-name="Trazado 103714" d="M2806.815,709.253v11.863a.686.686,0,0,1-.379-.093l-8.894-5.242a.671.671,0,0,1-.323-.67l-.009,0v-5.971l4.524,3.052Z" transform="translate(-2797.209 -688.193)" fill="#bbe0fd"/>
          <path id="Trazado_103715" data-name="Trazado 103715" d="M2797.541,675.071l8.892,5.242a.682.682,0,0,0,.686,0l34.959-20.184a.68.68,0,0,0,0-1.179l-8.986-5.188a.681.681,0,0,0-.681,0l-34.866,20.13A.681.681,0,0,0,2797.541,675.071Z" transform="translate(-2797.206 -653.493)" fill="#fff"/>
          <path id="Trazado_103716" data-name="Trazado 103716" d="M2797.541,674.589l8.892,5.242a.68.68,0,0,0,.686,0l34.959-20.184a.68.68,0,0,0,0-1.179l-8.986-5.188a.683.683,0,0,0-.681,0l-34.866,20.13A.681.681,0,0,0,2797.541,674.589Z" transform="translate(-2797.206 -653.192)" fill="#fff"/>
        </g>
        <g id="Grupo_55349" data-name="Grupo 55349" transform="translate(169.707 62.744)">
          <path id="Trazado_103717" data-name="Trazado 103717" d="M2805.638,637.208l-.112-.075a.694.694,0,0,1-.23.227l-34.96,20.182a.652.652,0,0,1-.307.09.681.681,0,0,1-.379-.093l-8.894-5.242a.67.67,0,0,1-.323-.671l-.01,0v-5.971l4.525,3.052,5.081-2.934,25.6-14.779a.681.681,0,0,1,.68,0l3.192,1.844,6.118-1.935Z" transform="translate(-2760.422 -624.71)" fill="#d6edff"/>
          <path id="Trazado_103718" data-name="Trazado 103718" d="M2770.028,670.425v11.862a.682.682,0,0,1-.379-.093l-8.894-5.242a.67.67,0,0,1-.323-.671l-.01,0v-5.971l4.525,3.052Z" transform="translate(-2760.422 -649.365)" fill="#bbe0fd"/>
          <path id="Trazado_103719" data-name="Trazado 103719" d="M2760.755,636.243l8.892,5.242a.681.681,0,0,0,.686,0l34.96-20.185a.681.681,0,0,0,0-1.179l-8.986-5.188a.682.682,0,0,0-.681,0l-34.866,20.13A.681.681,0,0,0,2760.755,636.243Z" transform="translate(-2760.42 -614.665)" fill="#fff"/>
          <path id="Trazado_103720" data-name="Trazado 103720" d="M2760.755,635.761l8.892,5.243a.681.681,0,0,0,.686,0l34.96-20.184a.681.681,0,0,0,0-1.179l-8.986-5.188a.683.683,0,0,0-.681,0l-34.866,20.13A.681.681,0,0,0,2760.755,635.761Z" transform="translate(-2760.42 -614.364)" fill="#fff"/>
        </g>
        <path id="Trazado_103721" data-name="Trazado 103721" d="M2508.091,513.19v14.966l-.015-.01a4.425,4.425,0,0,1-2.213,3.515L2479.94,546.77a4.493,4.493,0,0,0-.01,7.76l8.162,4.773,2.957-6.457,5.87,1.072v12.606a4.524,4.524,0,0,1,0,1v.03l0-.005a4.393,4.393,0,0,1-2.291,3.437l-6.712,3.7-1.293.705-1.557.861-1.821,1.009-73.347,40.365a4.5,4.5,0,0,1-3.573.328,4.588,4.588,0,0,1-.837-.377l-49.975-28.9-1.816-1.052-1.562-.9-1.282-.749-41.53-24.013a4.427,4.427,0,0,1-2.145-2.981v0a4.622,4.622,0,0,1-.014-1.8v-.015s0,0,0-.01l-.088-13.448,7.642,7.363,55.032-31.778,61.563-35.547a4.523,4.523,0,0,1,4.484,0l62.307,35.724,4.4-5.645Z" transform="translate(-2307.073 -469.518)" fill="#d6edff"/>
        <path id="Trazado_103722" data-name="Trazado 103722" d="M2406.32,579.687v98.667a4.584,4.584,0,0,1-.837-.377l-49.975-28.9-1.816-1.052-1.562-.9-1.282-.749-41.53-24.013a4.427,4.427,0,0,1-2.145-2.981v0a4.622,4.622,0,0,1-.014-1.8v-.015s0,0,0-.01l-.088-13.448,7.642,7.363,55.032-31.778Z" transform="translate(-2307.073 -529.924)" fill="#bbe0fd"/>
        <path id="Trazado_103723" data-name="Trazado 103723" d="M2309.316,517.79l122-70.436a4.491,4.491,0,0,1,4.479-.007l70.039,40.156a4.49,4.49,0,0,1,.028,7.774l-25.924,15.107a4.489,4.489,0,0,0-.006,7.755l14.794,8.653a4.49,4.49,0,0,1-.1,7.809l-84.732,46.628a4.49,4.49,0,0,1-4.413-.047l-96.164-55.618A4.49,4.49,0,0,1,2309.316,517.79Z" transform="translate(-2307.071 -446.752)" fill="#fff"/>
        <path id="Trazado_103724" data-name="Trazado 103724" d="M2728.9,712.5l.184,13.519,13.124-7.222-.183-13.519Z" transform="translate(-2570.995 -608.499)" fill="#fff"/>
        <path id="Trazado_103725" data-name="Trazado 103725" d="M2703.846,735.153v13.62l3.955-2.177v-13.62Z" transform="translate(-2555.317 -625.831)" fill="#fff"/>
      </g>
      <path id="Trazado_103726" data-name="Trazado 103726" d="M2476.617,545.095l-27.781,15.837a.948.948,0,0,0-.005,1.644l22.157,12.832a1.554,1.554,0,0,0,1.557,0l27.874-16.093a.8.8,0,0,0,0-1.389L2478.165,545.1A1.557,1.557,0,0,0,2476.617,545.095Z" transform="translate(-129.712 -168.212)" fill="#15325c" opacity="0.33" style="mix-blend-mode: multiply;isolation: isolate"/>
      <path id="Trazado_103727" data-name="Trazado 103727" d="M2509.7,532.683l-15.064,8.757-1.527-.723a1.692,1.692,0,0,1,.607-.606l13.507-7.86a1.552,1.552,0,0,1,1.439-.065Z" transform="translate(-157.71 -160.172)" fill="#a34b73"/>
      <g id="Grupo_55351" data-name="Grupo 55351" transform="translate(2297.594 276.036)">
        <path id="Trazado_103728" data-name="Trazado 103728" d="M2503.724,559.882v-2.416l-1.708,1.067-17.2-9.913a1.3,1.3,0,0,0-1.292,0l-21.9,12.485-1.711-1.008v2.671l.056-.042a.778.778,0,0,0,.369.483l18.49,10.708a1.3,1.3,0,0,0,1.3,0l23.261-13.429A.661.661,0,0,0,2503.724,559.882Z" transform="translate(-2434.538 -446.472)" fill="#183561"/>
        <path id="Trazado_103729" data-name="Trazado 103729" d="M2483.537,541.624l-23.183,13.216a.791.791,0,0,0,0,1.372l18.49,10.708a1.3,1.3,0,0,0,1.3,0l23.261-13.43a.669.669,0,0,0,0-1.159l-18.571-10.705A1.3,1.3,0,0,0,2483.537,541.624Z" transform="translate(-2434.562 -442.097)" fill="#d6effb"/>
        <path id="Trazado_103730" data-name="Trazado 103730" d="M2511.792,528.852l-1.821,13.643-12.383,10.095-1.85-1.043a1.384,1.384,0,0,1-.79-1.251l.026-12.565a1.677,1.677,0,0,1,.835-1.45l13.507-7.86a1.552,1.552,0,0,1,1.439-.065Z" transform="translate(-2456.455 -433.811)" fill="#183561"/>
        <path id="Trazado_103731" data-name="Trazado 103731" d="M2517.593,528.393l-.042,15.2-15.768,9.107.013-15.12Z" transform="translate(-2460.732 -433.925)" fill="#3c6a9e"/>
        <path id="Trazado_103732" data-name="Trazado 103732" d="M2475.112,276.474l3.656,1.969L2473.3,351.63l-75.711,49.212-3-1.617a4.686,4.686,0,0,1-2.464-4.126V325.108a3.63,3.63,0,0,1,1.795-3.131l77.609-45.439a3.662,3.662,0,0,1,3.588-.064Z" transform="translate(-2392.121 -276.036)" fill="#a9d1ea"/>
        <path id="Trazado_103733" data-name="Trazado 103733" d="M2487.907,282.465V358.6l-81.179,46.268v-74.87Z" transform="translate(-2401.26 -280.058)" fill="#d6effb"/>
        <path id="Trazado_103734" data-name="Trazado 103734" d="M2490.443,307.117v61.032l-9.608,5.475-2.885,1.646-19.728,11.243-10.928,6.227-17.157,9.781-16.667,9.5V352.185l16.314-9.551,8.831-5.171,13.934-8.157,16.764-9.818,10.44-6.112,7.621-4.46Z" transform="translate(-2405.478 -295.482)" fill="#183561"/>
      </g>
      <g id="Grupo_55353" data-name="Grupo 55353" transform="translate(2327.42 382.206)">
        <path id="Trazado_103735" data-name="Trazado 103735" d="M2567.7,591.769l-29.5-17.189a1.874,1.874,0,0,0-1.879-.005l-63.576,36.563a1.876,1.876,0,0,0,0,3.251l27.765,16.037a5.88,5.88,0,0,0,5.882,0l61.309-35.411a1.875,1.875,0,0,0,.006-3.245Z" transform="translate(-2471.798 -568.834)" fill="#15325c" opacity="0.33" style="mix-blend-mode: multiply;isolation: isolate"/>
        <path id="Trazado_103736" data-name="Trazado 103736" d="M2568.559,580.755l-31.213-16.474-63.931,34.795a2.758,2.758,0,0,0-1.437,2.329l-.034,1.02a2.785,2.785,0,0,0,1.391,2.505l28.195,16.285a4,4,0,0,0,4.005,0l61.887-35.745a2.375,2.375,0,0,0,1.186-2.1Z" transform="translate(-2471.888 -562.55)" fill="#a9d1ea"/>
        <path id="Trazado_103737" data-name="Trazado 103737" d="M2567.7,577.1l-29.5-17.189a1.875,1.875,0,0,0-1.879-.005l-63.576,36.563a1.876,1.876,0,0,0,0,3.251l27.765,16.037a5.88,5.88,0,0,0,5.882,0l61.309-35.411a1.875,1.875,0,0,0,.006-3.245Z" transform="translate(-2471.798 -559.656)" fill="#d6effb"/>
        <path id="Trazado_103738" data-name="Trazado 103738" d="M2573.328,586.835l-28.11-16.377-56.953,32.754,28.354,16.377Z" transform="translate(-2482.1 -566.414)" fill="#77b8e0"/>
        <g id="Grupo_55352" data-name="Grupo 55352" transform="translate(11.634 7.159)">
          <path id="Trazado_103739" data-name="Trazado 103739" d="M2646.624,611.454l-6.486,3.73-4.907-2.822,6.485-3.73Z" transform="translate(-2585.685 -597.457)" fill="#d6edff"/>
          <path id="Trazado_103740" data-name="Trazado 103740" d="M2662.521,620.6l-6.486,3.73-4.908-2.822,6.485-3.73Z" transform="translate(-2595.631 -603.176)" fill="#d6edff"/>
          <path id="Trazado_103741" data-name="Trazado 103741" d="M2626.513,623.02l-6.484,3.729-4.908-2.822,6.485-3.729Z" transform="translate(-2573.103 -604.693)" fill="#d6edff"/>
          <path id="Trazado_103742" data-name="Trazado 103742" d="M2610.615,613.878l-6.485,3.729-4.908-2.822,6.485-3.73Z" transform="translate(-2563.156 -598.974)" fill="#d6edff"/>
          <path id="Trazado_103743" data-name="Trazado 103743" d="M2570.679,667.77l6.486-3.73,4.907,2.822-6.485,3.73Z" transform="translate(-2545.297 -632.124)" fill="#d6edff"/>
          <path id="Trazado_103744" data-name="Trazado 103744" d="M2590.791,641.73l21.543-12.39,4.908,2.822-21.543,12.39Z" transform="translate(-2557.881 -610.414)" fill="#d6edff"/>
          <path id="Trazado_103745" data-name="Trazado 103745" d="M2655.344,600.866l6.411-3.687,4.876,2.841-6.38,3.669Z" transform="translate(-2598.269 -590.292)" fill="#d6edff"/>
          <path id="Trazado_103746" data-name="Trazado 103746" d="M2554.782,658.628l6.486-3.73,4.907,2.822-6.486,3.73Z" transform="translate(-2535.352 -626.404)" fill="#d6edff"/>
          <path id="Trazado_103747" data-name="Trazado 103747" d="M2639.446,591.687l6.449-3.709,4.876,2.841-6.418,3.691Z" transform="translate(-2588.323 -584.534)" fill="#d6edff"/>
          <path id="Trazado_103748" data-name="Trazado 103748" d="M2590.5,625.445l-6.483,3.729-4.908-2.822,6.484-3.729Z" transform="translate(-2550.575 -606.21)" fill="#d6edff"/>
          <path id="Trazado_103749" data-name="Trazado 103749" d="M2606.4,634.587l-6.484,3.729-4.908-2.822,6.484-3.729Z" transform="translate(-2560.521 -611.93)" fill="#d6edff"/>
          <path id="Trazado_103750" data-name="Trazado 103750" d="M2559,637.919l6.486-3.73,4.907,2.822-6.486,3.73Z" transform="translate(-2537.989 -613.447)" fill="#d6edff"/>
          <path id="Trazado_103751" data-name="Trazado 103751" d="M2574.894,647.061l6.486-3.73,4.907,2.823-6.485,3.73Z" transform="translate(-2547.935 -619.167)" fill="#d6edff"/>
          <path id="Trazado_103752" data-name="Trazado 103752" d="M2534.67,670.195l6.486-3.73,4.907,2.822-6.485,3.73Z" transform="translate(-2522.768 -633.641)" fill="#d6edff"/>
          <path id="Trazado_103753" data-name="Trazado 103753" d="M2550.566,679.337l6.485-3.73,4.907,2.822-6.486,3.73Z" transform="translate(-2532.714 -639.361)" fill="#d6edff"/>
          <path id="Trazado_103754" data-name="Trazado 103754" d="M2518.773,661.052l6.486-3.73,4.907,2.822-6.486,3.73Z" transform="translate(-2512.822 -627.921)" fill="#d6edff"/>
          <path id="Trazado_103755" data-name="Trazado 103755" d="M2502.876,651.91l6.486-3.73,4.907,2.822-6.486,3.73Z" transform="translate(-2502.876 -622.201)" fill="#d6edff"/>
          <path id="Trazado_103756" data-name="Trazado 103756" d="M2676.148,612.868l-4.908-2.822,6.372-3.665,4.876,2.841Z" transform="translate(-2608.214 -596.048)" fill="#d6edff"/>
          <path id="Trazado_103757" data-name="Trazado 103757" d="M2628.457,585.332l-4.907-2.822,6.485-3.73.4.228,4.482,2.611Z" transform="translate(-2578.377 -578.78)" fill="#d6edff"/>
          <path id="Trazado_103758" data-name="Trazado 103758" d="M2522.988,640.343l6.486-3.73,4.907,2.822-6.485,3.73Z" transform="translate(-2515.459 -614.964)" fill="#d6edff"/>
          <path id="Trazado_103759" data-name="Trazado 103759" d="M2554.494,627.868l-6.486,3.73-4.907-2.822,6.486-3.73Z" transform="translate(-2528.043 -607.727)" fill="#d6edff"/>
          <path id="Trazado_103760" data-name="Trazado 103760" d="M2538.885,649.486l6.486-3.73,4.908,2.822-6.486,3.73Z" transform="translate(-2525.405 -620.684)" fill="#d6edff"/>
          <path id="Trazado_103761" data-name="Trazado 103761" d="M2574.607,616.3l-6.484,3.729-4.908-2.822,6.484-3.729Z" transform="translate(-2540.628 -600.49)" fill="#d6edff"/>
          <path id="Trazado_103762" data-name="Trazado 103762" d="M2614.831,593.169l-6.486,3.73-4.907-2.822,6.485-3.73Z" transform="translate(-2565.793 -586.017)" fill="#d6edff"/>
          <path id="Trazado_103763" data-name="Trazado 103763" d="M2594.718,604.736l-6.486,3.73-4.908-2.822,6.486-3.73Z" transform="translate(-2553.209 -593.254)" fill="#d6edff"/>
          <path id="Trazado_103764" data-name="Trazado 103764" d="M2630.727,602.311l-6.486,3.73-4.908-2.822,6.486-3.73Z" transform="translate(-2575.739 -591.737)" fill="#d6edff"/>
        </g>
      </g>
      <g id="Grupo_55354" data-name="Grupo 55354" transform="translate(2408.025 375.882)">
        <path id="Trazado_103765" data-name="Trazado 103765" d="M2687.181,548.522a2.59,2.59,0,0,0,.618,1.043c1.97,2.248,8.121,5.741,12.928,6.846,2.055.479,3.863.518,5-.162,3.864-2.318,3.091-9.272-4.636-12.363S2686.408,544.658,2687.181,548.522Z" transform="translate(-2687.122 -542.763)" fill="#183561"/>
        <path id="Trazado_103766" data-name="Trazado 103766" d="M2688.93,560.612c1.971,2.248,8.121,5.741,12.928,6.846C2698.728,560.164,2692.291,560.079,2688.93,560.612Z" transform="translate(-2688.253 -553.809)" fill="#15325c" opacity="0.33" style="mix-blend-mode: multiply;isolation: isolate"/>
        <path id="Trazado_103767" data-name="Trazado 103767" d="M2699.425,546.294l-6.869-.125A8.071,8.071,0,0,1,2699.425,546.294Z" transform="translate(-2690.522 -544.466)" fill="#15325c" opacity="0.33" style="mix-blend-mode: multiply;isolation: isolate"/>
      </g>
      <g id="Grupo_55355" data-name="Grupo 55355" transform="translate(2330.405 326.601)">
        <path id="Trazado_103768" data-name="Trazado 103768" d="M2532.4,411.114l-.02,3.269-22.514,13.044.138-3.36Z" transform="translate(-2498.602 -411.114)" fill="#fec400"/>
        <path id="Trazado_103769" data-name="Trazado 103769" d="M2502.305,483.9l-.02,3.269-22.514,13.043.138-3.36Z" transform="translate(-2479.772 -456.655)" fill="#fff"/>
        <path id="Trazado_103770" data-name="Trazado 103770" d="M2488.813,450.039v3.169l-8.462,4.907v-3.168Z" transform="translate(-2480.134 -435.468)" fill="#f02098"/>
        <path id="Trazado_103771" data-name="Trazado 103771" d="M2546.2,454.443v3.169l-8.462,4.907v-3.167Z" transform="translate(-2516.037 -438.223)" fill="#f02098"/>
        <path id="Trazado_103772" data-name="Trazado 103772" d="M2553.515,469.574v3.169l-8.462,4.907v-3.167Z" transform="translate(-2520.615 -447.69)" fill="#fff"/>
        <path id="Trazado_103773" data-name="Trazado 103773" d="M2579.7,454.443v3.169l-8.462,4.907v-3.167Z" transform="translate(-2537 -438.223)" fill="#fff"/>
        <path id="Trazado_103774" data-name="Trazado 103774" d="M2500.053,450.039l-19.65,11.345v3.281l19.687-11.457Z" transform="translate(-2480.167 -435.468)" fill="#fff"/>
        <path id="Trazado_103775" data-name="Trazado 103775" d="M2500.053,468.472l-19.65,11.345V483.1l19.687-11.456Z" transform="translate(-2480.167 -447)" fill="#fff"/>
      </g>
      <g id="Grupo_55357" data-name="Grupo 55357" transform="translate(2381.37 344.635)">
        <ellipse id="Elipse_4208" data-name="Elipse 4208" cx="13.894" cy="8.091" rx="13.894" ry="8.091" transform="translate(0.016 10.907)" fill="#15325c" opacity="0.33" style="mix-blend-mode: multiply;isolation: isolate"/>
        <path id="Trazado_103776" data-name="Trazado 103776" d="M2615.96,475.265c0,4.469,6.221,8.091,13.895,8.091a22.66,22.66,0,0,0,5.494-.657q.487-.122.953-.264.488-.15.953-.32a14.837,14.837,0,0,0,2.858-1.392c2.258-1.439,3.636-3.354,3.636-5.457v0h0v-3.627h-1.478a9.794,9.794,0,0,0-2.161-1.825,14.843,14.843,0,0,0-2.858-1.393q-.464-.171-.953-.32-.466-.142-.953-.264a22.66,22.66,0,0,0-5.494-.657c-5.431,0-10.134,1.814-12.419,4.459h-1.474v3.533C2615.961,475.2,2615.96,475.232,2615.96,475.265Z" transform="translate(-2615.944 -464.222)" fill="#e8a302"/>
        <ellipse id="Elipse_4209" data-name="Elipse 4209" cx="13.894" cy="8.091" rx="13.894" ry="8.091" transform="translate(0 0.055) rotate(-0.113)" fill="#fec400"/>
        <ellipse id="Elipse_4210" data-name="Elipse 4210" cx="11.754" cy="6.845" rx="11.754" ry="6.845" transform="translate(2.157 1.274)" fill="#ffd561"/>
        <g id="Grupo_55356" data-name="Grupo 55356" transform="translate(10.527 2.123)">
          <path id="Trazado_103777" data-name="Trazado 103777" d="M2644.991,476.015a.953.953,0,0,1-.148-1.894l3.746-.594-1.3-7.449a.953.953,0,1,1,1.877-.326l1.627,9.354-5.656.9A.931.931,0,0,1,2644.991,476.015Z" transform="translate(-2644.039 -464.962)" fill="#fff"/>
        </g>
      </g>
      <g id="Grupo_55359" data-name="Grupo 55359" transform="translate(2350.619 438.735)">
        <ellipse id="Elipse_4211" data-name="Elipse 4211" cx="13.894" cy="8.091" rx="13.894" ry="8.091" transform="translate(0.016 10.907)" fill="#15325c" opacity="0.33" style="mix-blend-mode: multiply;isolation: isolate"/>
        <path id="Trazado_103778" data-name="Trazado 103778" d="M2533.811,726.639c0,4.469,6.221,8.091,13.895,8.091a22.652,22.652,0,0,0,5.495-.657q.487-.122.953-.264.489-.149.953-.32a14.847,14.847,0,0,0,2.858-1.393c2.259-1.439,3.636-3.354,3.636-5.457v0h0v-3.627h-1.478a9.815,9.815,0,0,0-2.161-1.825,14.854,14.854,0,0,0-2.858-1.392q-.464-.171-.953-.32-.466-.142-.953-.264a22.649,22.649,0,0,0-5.495-.657c-5.431,0-10.134,1.814-12.419,4.459h-1.475v3.533C2533.812,726.573,2533.811,726.606,2533.811,726.639Z" transform="translate(-2533.795 -715.596)" fill="#e8a302"/>
        <ellipse id="Elipse_4212" data-name="Elipse 4212" cx="13.894" cy="8.091" rx="13.894" ry="8.091" transform="matrix(1, -0.002, 0.002, 1, 0, 0.055)" fill="#fec400"/>
        <ellipse id="Elipse_4213" data-name="Elipse 4213" cx="11.754" cy="6.845" rx="11.754" ry="6.845" transform="translate(2.157 1.274)" fill="#ffd561"/>
        <g id="Grupo_55358" data-name="Grupo 55358" transform="translate(10.527 2.123)">
          <path id="Trazado_103779" data-name="Trazado 103779" d="M2562.843,727.389a.953.953,0,0,1-.148-1.894l3.746-.594-1.3-7.449a.953.953,0,1,1,1.877-.326l1.627,9.354-5.656.9A.976.976,0,0,1,2562.843,727.389Z" transform="translate(-2561.892 -716.335)" fill="#fff"/>
        </g>
      </g>
      <g id="Grupo_55370" data-name="Grupo 55370" transform="translate(2273.309 365.565)">
        <path id="Trazado_103780" data-name="Trazado 103780" d="M2327.247,537.032v22.215l1.341.766,36.2-22.981,1.341-21.066-1.341-.766Z" transform="translate(-2327.247 -515.2)" fill="#183561"/>
        <path id="Trazado_103781" data-name="Trazado 103781" d="M2330.828,539.079v22.215l37.536-22.215V517.247Z" transform="translate(-2329.488 -516.481)" fill="#a9d1ea"/>
        <g id="Grupo_55369" data-name="Grupo 55369" transform="translate(4.829 10.931)">
          <path id="Trazado_103782" data-name="Trazado 103782" d="M2346.951,569.617l1.111-.651V567.01l-1.111.651-2.39,1.4-4.415,2.585V573.6l4.415-2.585Z" transform="translate(-2340.146 -558.546)" fill="#fec400"/>
          <g id="Grupo_55360" data-name="Grupo 55360" transform="translate(0 14.072)">
            <path id="Trazado_103783" data-name="Trazado 103783" d="M2346.708,583.949v-1.956l-2.147,1.257-4.415,2.585v1.956l4.415-2.585Z" transform="translate(-2340.146 -581.993)" fill="#fff"/>
          </g>
          <path id="Trazado_103784" data-name="Trazado 103784" d="M2344.561,600.621l-4.415,2.585v1.956l4.415-2.585,2.39-1.4,3.368-1.972v-1.956l-3.368,1.972Z" transform="translate(-2340.146 -577.466)" fill="#fec400"/>
          <g id="Grupo_55361" data-name="Grupo 55361" transform="translate(4.606 14.02)">
            <path id="Trazado_103785" data-name="Trazado 103785" d="M2361.178,581.853l-2.758,1.615-3.771,2.208-2.2,1.288v1.956l2.2-1.288,3.771-2.208,2.758-1.615Z" transform="translate(-2352.449 -581.853)" fill="#fff"/>
          </g>
          <g id="Grupo_55362" data-name="Grupo 55362" transform="translate(0 19.483)">
            <path id="Trazado_103786" data-name="Trazado 103786" d="M2344.149,596.447l-4,2.344v1.956l4-2.344Z" transform="translate(-2340.146 -596.447)" fill="#fff"/>
          </g>
          <g id="Grupo_55363" data-name="Grupo 55363" transform="translate(7.164 7.781)">
            <path id="Trazado_103787" data-name="Trazado 103787" d="M2359.284,573.082l3.412-2,4.537-2.657,2.193-1.284v-1.956l-2.193,1.284-4.537,2.657-3.412,2Z" transform="translate(-2359.284 -565.187)" fill="#77b8e0"/>
          </g>
          <g id="Grupo_55364" data-name="Grupo 55364" transform="translate(17.979)">
            <path id="Trazado_103788" data-name="Trazado 103788" d="M2390.2,550.6l-2.022,1.184v1.956l2.022-1.184,10.919-6.2V544.4Z" transform="translate(-2388.175 -544.401)" fill="#fff"/>
          </g>
          <g id="Grupo_55365" data-name="Grupo 55365" transform="translate(13.936 8.017)">
            <path id="Trazado_103789" data-name="Trazado 103789" d="M2377.375,571.468v1.956l1.177-.69,2.826-1.654,2.063-1.207,3.695-2.1v-1.956l-3.695,2.1-2.062,1.207-2.826,1.654Z" transform="translate(-2377.375 -565.818)" fill="#fff"/>
          </g>
          <g id="Grupo_55366" data-name="Grupo 55366" transform="translate(24.369 3.913)">
            <path id="Trazado_103790" data-name="Trazado 103790" d="M2405.244,560.532l6.552-3.723v-1.956l-6.552,3.722Z" transform="translate(-2405.244 -554.853)" fill="#fff"/>
          </g>
          <g id="Grupo_55367" data-name="Grupo 55367" transform="translate(21.679 7.826)">
            <path id="Trazado_103791" data-name="Trazado 103791" d="M2398.057,572.513l9.243-5.251v-1.956l-9.243,5.251Z" transform="translate(-2398.057 -565.306)" fill="#77b8e0"/>
          </g>
          <g id="Grupo_55368" data-name="Grupo 55368" transform="translate(10.776 13.459)">
            <path id="Trazado_103792" data-name="Trazado 103792" d="M2376.1,582.132l-2.826,1.654-4.338,2.54v1.956l4.338-2.54,2.826-1.654,2.063-1.207,1-.571v-1.956l-1,.571Z" transform="translate(-2368.932 -580.354)" fill="#fff"/>
          </g>
        </g>
      </g>
      <g id="Grupo_55373" data-name="Grupo 55373" transform="translate(2286.162 393.865)">
        <g id="Grupo_55371" data-name="Grupo 55371" transform="translate(0 13.389)">
          <path id="Trazado_103793" data-name="Trazado 103793" d="M2362.345,647.757l17.069-9.995a1.542,1.542,0,0,1,1.542-.009l17.585,10.013a1.542,1.542,0,0,1,.008,2.675l-17.31,9.995a1.544,1.544,0,0,1-1.542,0l-17.343-10.013A1.542,1.542,0,0,1,2362.345,647.757Z" transform="translate(-2361.583 -633.439)" fill="#15325c" opacity="0.33" style="mix-blend-mode: multiply;isolation: isolate"/>
          <path id="Trazado_103794" data-name="Trazado 103794" d="M2425.733,647.48l-13.56,7.829-.142,7.911,13.56-7.708Z" transform="translate(-2393.146 -639.651)" fill="#a9d1ea"/>
          <path id="Trazado_103795" data-name="Trazado 103795" d="M2376.188,634.4l13.37-7.829,13.75,7.829-13.56,7.829Z" transform="translate(-2370.72 -626.566)" fill="#bbe0fd"/>
          <path id="Trazado_103796" data-name="Trazado 103796" d="M2391.869,640.2l7.442-4.357,7.653,4.357-7.548,4.358Z" transform="translate(-2380.532 -632.368)" fill="#15325c"/>
          <path id="Trazado_103797" data-name="Trazado 103797" d="M2376.188,655.511V647.48l13.56,7.829-.142,7.911Z" transform="translate(-2370.72 -639.651)" fill="#77b8e0"/>
        </g>
        <g id="Grupo_55372" data-name="Grupo 55372" transform="translate(10.3 0)">
          <path id="Trazado_103798" data-name="Trazado 103798" d="M2404.152,608.6a9.515,9.515,0,0,1-2.9,2.847c-3.02,2.427-8.458,1.834-9.981-1.086a6.819,6.819,0,0,1-2.126-5.739,6.749,6.749,0,0,0,2.4,3.011c-2.491-2.126-.9-8.349-.9-8.349a9.824,9.824,0,0,0,3.13,4.927,21.9,21.9,0,0,1,.21-8.148,9.469,9.469,0,0,1,3.084-5.265,14.888,14.888,0,0,0,2.545,10.374c2.108-2.528,1.6-6.25,1.6-6.25s3.039,5.83,1.643,10.274a6.826,6.826,0,0,0,3.011-2.427A10.5,10.5,0,0,1,2404.152,608.6Z" transform="translate(-2389.099 -590.8)" fill="#77b8e0"/>
          <path id="Trazado_103799" data-name="Trazado 103799" d="M2404.152,617.4a9.515,9.515,0,0,1-2.9,2.847,6.862,6.862,0,0,1-2.537,1.241c-2.892.766-6.287-.119-7.445-2.327a6.82,6.82,0,0,1-2.126-5.739,6.749,6.749,0,0,0,2.4,3.011c-2.491-2.126-.9-8.349-.9-8.349a9.922,9.922,0,0,0,3.13,4.927,21.905,21.905,0,0,1,.21-8.148C2393.969,613.787,2398.549,617.528,2404.152,617.4Z" transform="translate(-2389.099 -599.599)" fill="#77b8e0" opacity="0.33" style="mix-blend-mode: multiply;isolation: isolate"/>
          <path id="Trazado_103800" data-name="Trazado 103800" d="M2398.713,626.871c-2.892.766-6.287-.119-7.445-2.327a6.82,6.82,0,0,1-2.126-5.739,6.749,6.749,0,0,0,2.4,3.011c-2.491-2.126-.9-8.349-.9-8.349a9.252,9.252,0,0,0,1.1,2.555C2392.59,622.409,2396.177,625.475,2398.713,626.871Z" transform="translate(-2389.099 -604.982)" fill="#77b8e0" opacity="0.33" style="mix-blend-mode: multiply;isolation: isolate"/>
        </g>
      </g>
      <g id="Grupo_55374" data-name="Grupo 55374" transform="translate(2301.961 399.672)">
        <path id="Trazado_103801" data-name="Trazado 103801" d="M2404.675,615.549a4.93,4.93,0,0,0,1.505,1.477c1.567,1.26,4.389.952,5.18-.563a3.538,3.538,0,0,0,1.1-2.978,3.5,3.5,0,0,1-1.245,1.563c1.292-1.1.468-4.332.468-4.332a5.093,5.093,0,0,1-1.624,2.556,11.353,11.353,0,0,0-.109-4.227,4.916,4.916,0,0,0-1.6-2.732,7.726,7.726,0,0,1-1.321,5.383,4.65,4.65,0,0,1-.829-3.243s-1.576,3.025-.852,5.331a3.544,3.544,0,0,1-1.562-1.259A5.445,5.445,0,0,0,2404.675,615.549Z" transform="translate(-2403.787 -606.312)" fill="#77b8e0"/>
        <path id="Trazado_103802" data-name="Trazado 103802" d="M2406.158,620.115a4.929,4.929,0,0,0,1.506,1.477,3.556,3.556,0,0,0,1.316.644c1.5.4,3.261-.061,3.863-1.207a3.537,3.537,0,0,0,1.1-2.978,3.5,3.5,0,0,1-1.245,1.562c1.293-1.1.469-4.332.469-4.332a5.137,5.137,0,0,1-1.624,2.556,11.359,11.359,0,0,0-.108-4.227C2411.441,618.24,2409.065,620.181,2406.158,620.115Z" transform="translate(-2405.271 -610.878)" fill="#77b8e0" opacity="0.33" style="mix-blend-mode: multiply;isolation: isolate"/>
        <path id="Trazado_103803" data-name="Trazado 103803" d="M2413.7,625.029c1.5.4,3.261-.061,3.863-1.207a3.539,3.539,0,0,0,1.1-2.978,3.5,3.5,0,0,1-1.245,1.563c1.292-1.1.469-4.332.469-4.332a4.773,4.773,0,0,1-.573,1.325A7.158,7.158,0,0,1,2413.7,625.029Z" transform="translate(-2409.987 -613.671)" fill="#77b8e0" opacity="0.33" style="mix-blend-mode: multiply;isolation: isolate"/>
      </g>
      <g id="Grupo_55375" data-name="Grupo 55375" transform="translate(2291.769 351.731)">
        <path id="Trazado_103804" data-name="Trazado 103804" d="M2377.917,503.91h-1.356v-9.2l28.127-16.464.684,1.17-27.455,16.071Z" transform="translate(-2376.561 -478.245)" fill="#183561"/>
      </g>
      <g id="Grupo_55376" data-name="Grupo 55376" transform="translate(2374.129 316.705)">
        <path id="Trazado_103805" data-name="Trazado 103805" d="M2597.007,408.314l-.434-.763,19.083-10.843v-12.03h.878v12.54Z" transform="translate(-2596.573 -384.679)" fill="#183561"/>
      </g>
      <g id="Grupo_55377" data-name="Grupo 55377" transform="translate(2241.037 307.187)">
        <path id="Trazado_103806" data-name="Trazado 103806" d="M2725.268,367.36c.473-2.142,1.566-3.723,3.168-4.228,1.728-.546,3.69.273,5.4,2.008.8-2.849,2.384-4.927,4.615-5.632,4.836-1.527,10.883,3.967,13.506,12.272q.238.754.427,1.5c2.585.786,5.214,3.876,6.531,8.046a16.283,16.283,0,0,1,.787,5.388l.275.158a6.584,6.584,0,0,1,3.308,5.712h0a6.584,6.584,0,0,1-9.86,5.712l-32.712-18.761a6.584,6.584,0,0,1-3.308-5.712h0A6.592,6.592,0,0,1,2725.268,367.36Z" transform="translate(-2539.081 -359.253)" fill="#fff"/>
        <path id="Trazado_103807" data-name="Trazado 103807" d="M2268.858,493.913a3.847,3.847,0,0,0-2.319-3.094c-1.264-.4-2.7.2-3.951,1.47-.586-2.084-1.744-3.606-3.377-4.121-3.539-1.118-7.964,2.9-9.883,8.981q-.174.552-.312,1.1c-1.893.575-3.816,2.837-4.78,5.888a11.905,11.905,0,0,0-.575,3.943l-.2.116a4.819,4.819,0,0,0-2.421,4.18h0a4.818,4.818,0,0,0,7.216,4.18l23.939-13.729a4.819,4.819,0,0,0,2.421-4.18h0A4.824,4.824,0,0,0,2268.858,493.913Z" transform="translate(-2241.037 -439.793)" fill="#fff"/>
      </g>
      <g id="Grupo_55381" data-name="Grupo 55381" transform="translate(2310.832 329.655)">
        <path id="Trazado_103808" data-name="Trazado 103808" d="M2438.253,423.4l1.758-1.029v-3.1l-1.758,1.029-3.782,2.215-6.986,4.09v3.1l6.986-4.09Z" transform="translate(-2427.485 -419.273)" fill="#fec400"/>
        <g id="Grupo_55378" data-name="Grupo 55378" transform="translate(0 8.874)">
          <path id="Trazado_103809" data-name="Trazado 103809" d="M2437.867,446.075v-3.1l-3.4,1.989-6.986,4.09v3.1l6.986-4.09Z" transform="translate(-2427.485 -442.98)" fill="#fff"/>
        </g>
        <path id="Trazado_103810" data-name="Trazado 103810" d="M2434.471,472.453l-6.986,4.09v3.1l6.986-4.09,3.782-2.215,5.329-3.12v-3.1l-5.329,3.12Z" transform="translate(-2427.485 -449.208)" fill="#fec400"/>
        <g id="Grupo_55379" data-name="Grupo 55379" transform="translate(7.287 8.791)">
          <path id="Trazado_103811" data-name="Trazado 103811" d="M2460.762,442.758l-4.364,2.555-5.967,3.493-3.48,2.038v3.1l3.48-2.038,5.967-3.493,4.364-2.555Z" transform="translate(-2446.951 -442.758)" fill="#fff"/>
        </g>
        <g id="Grupo_55380" data-name="Grupo 55380" transform="translate(0 17.436)">
          <path id="Trazado_103812" data-name="Trazado 103812" d="M2433.82,465.85l-6.335,3.709v3.1l6.335-3.709Z" transform="translate(-2427.485 -465.85)" fill="#fff"/>
        </g>
      </g>
      <g id="Grupo_55385" data-name="Grupo 55385" transform="translate(2378.201 281.39)">
        <path id="Trazado_103813" data-name="Trazado 103813" d="M2607.451,306.318V338.1l.9.718,27.11-16.7.9-31.06-.9-.718Z" transform="translate(-2607.451 -290.339)" fill="#183561"/>
        <path id="Trazado_103814" data-name="Trazado 103814" d="M2637.856,292.257v31.778l-28.008,15.979V308.236Z" transform="translate(-2608.951 -291.539)" fill="#a9d1ea"/>
        <path id="Trazado_103815" data-name="Trazado 103815" d="M2637.856,292.257V298.9l-28.008,15.979v-6.643Z" transform="translate(-2608.951 -291.539)" fill="#3c6a9e"/>
        <g id="Grupo_55384" data-name="Grupo 55384" transform="translate(4.117 13.286)">
          <path id="Trazado_103816" data-name="Trazado 103816" d="M2654.023,325.83l-.013,2.21-15.218,8.816.094-2.271Z" transform="translate(-2631.177 -325.83)" fill="#fec400"/>
          <path id="Trazado_103817" data-name="Trazado 103817" d="M2633.679,375.03l-.013,2.21-15.218,8.816.094-2.271Z" transform="translate(-2618.449 -356.612)" fill="#fec400"/>
          <g id="Grupo_55382" data-name="Grupo 55382" transform="translate(0.147 9.849)">
            <path id="Trazado_103818" data-name="Trazado 103818" d="M2624.56,352.141v2.142l-5.72,3.317v-2.141Z" transform="translate(-2618.84 -352.141)" fill="#77b8e0"/>
          </g>
          <g id="Grupo_55383" data-name="Grupo 55383" transform="translate(14.666 10.964)">
            <path id="Trazado_103819" data-name="Trazado 103819" d="M2663.347,355.117v2.142l-5.72,3.317v-2.141Z" transform="translate(-2657.628 -355.117)" fill="#77b8e0"/>
          </g>
          <path id="Trazado_103820" data-name="Trazado 103820" d="M2668.294,365.345v2.142l-5.72,3.317v-2.141Z" transform="translate(-2646.056 -350.553)" fill="#fff"/>
          <path id="Trazado_103821" data-name="Trazado 103821" d="M2632.157,352.141l-13.282,7.668v2.217l13.307-7.744Z" transform="translate(-2618.716 -342.291)" fill="#fff"/>
          <path id="Trazado_103822" data-name="Trazado 103822" d="M2632.157,364.6l-13.282,7.668v2.217l13.307-7.744Z" transform="translate(-2618.716 -350.087)" fill="#fff"/>
        </g>
      </g>
      <ellipse id="Elipse_4214" data-name="Elipse 4214" cx="15.881" cy="9.248" rx="15.881" ry="9.248" transform="translate(2399.25 425.467)" fill="#15325c" opacity="0.33" style="mix-blend-mode: multiply;isolation: isolate"/>
      <g id="Grupo_55386" data-name="Grupo 55386" transform="translate(2397.515 356.836)">
        <path id="Trazado_103823" data-name="Trazado 103823" d="M2673.656,698.252l3.866,1.45v2.291a1.464,1.464,0,0,1-.738,1.271l-.22.126a1.464,1.464,0,0,1-1.465-.007c-1.336-.781-4.1-2.413-4.825-2.956C2669.308,699.7,2669.55,697.044,2673.656,698.252Z" transform="translate(-2665.776 -620.805)" fill="#183561"/>
        <path id="Trazado_103824" data-name="Trazado 103824" d="M2725.735,694.534l3.524-2.15,1.8,1.412a1.463,1.463,0,0,1,.546,1.365l-.037.251a1.463,1.463,0,0,1-.908,1.149c-1.439.571-4.427,1.742-5.3,1.978C2724.2,698.852,2722.252,697.024,2725.735,694.534Z" transform="translate(-2699.534 -617.328)" fill="#183561"/>
        <path id="Trazado_103825" data-name="Trazado 103825" d="M2700.962,594.861V616l8.517,15.342s-1.679,3.383-4.168,2.416c-.894-1.208-10.691-14.8-11.114-17.335s-3.805-14.375-3.805-14.375v-7.188Z" transform="translate(-2678.658 -556.311)" fill="#15325c"/>
        <path id="Trazado_103826" data-name="Trazado 103826" d="M2677.047,594.861s-2.959,12.684-2.536,20.294.857,17.637,1.341,19.328c1.45,2.416,4.941.967,4.941.967l-.061-20.295,6.885-20.294Z" transform="translate(-2668.696 -556.311)" fill="#15325c"/>
        <path id="Trazado_103827" data-name="Trazado 103827" d="M2694.919,521.573c1.443-.507,2.922-.074,4.284,3.8s2.917,10.819,2.917,10.819l.326,13.091-3.067.323-1.8-12.909-3.8-9.555S2692.034,522.586,2694.919,521.573Z" transform="translate(-2680.451 -510.35)" fill="#ec69b9"/>
        <path id="Trazado_103828" data-name="Trazado 103828" d="M2670.687,616.571s-1.216.463-1.409,1.328.95.651.95.651c.033,2.716.948,2.546.948,2.546,1.73.388,1.923-.477,1.923-.477.537-.929-.039-4.017-.039-4.017Z" transform="translate(-2665.433 -569.894)" fill="#f9beae"/>
        <path id="Trazado_103829" data-name="Trazado 103829" d="M2668.5,530.557l5.327,21.69s11.4,1.954,14.357-6.61l-2.443-7.705-3.461-16.615a4.172,4.172,0,0,0-1.625-1.8,3.113,3.113,0,0,0-1.942-.425,3.214,3.214,0,0,0-1.819.819l-7.12,6.479a4.267,4.267,0,0,0-1.274,4.163Z" transform="translate(-2664.884 -508.897)" fill="#f02098"/>
        <path id="Trazado_103830" data-name="Trazado 103830" d="M2668.092,540.808c1.5-.281,2.9.374,3.651,4.414s1.229,11.138,1.229,11.138l-1.68,12.986-3.081-.149.2-13.032-2.294-10.024S2665.084,541.369,2668.092,540.808Z" transform="translate(-2663.362 -522.458)" fill="#ec69b9"/>
        <path id="Trazado_103831" data-name="Trazado 103831" d="M2662.424,501.231s1.58,10.633,5.4,8.7,3.724-7.056,3.724-7.056l-3.723-2.96Z" transform="translate(-2661.159 -496.91)" fill="#f9beae"/>
        <path id="Trazado_103832" data-name="Trazado 103832" d="M2678.03,518.047l.644,4.422s3.337.191,4.328-1.623l-.918-3.783Z" transform="translate(-2670.923 -507.636)" fill="#f9beae"/>
        <path id="Trazado_103833" data-name="Trazado 103833" d="M2663.694,499.53a1.468,1.468,0,0,1-1.573-1.764s-2.526-.388-2.986-2.28a4.361,4.361,0,0,1,1-3.534l1.11.446s5.171-1.684,7.547,1.03,1.558,8.778,1.558,8.778l-2.291.556-2.819-2.75Z" transform="translate(-2659.046 -491.881)" fill="#052754"/>
        <path id="Trazado_103834" data-name="Trazado 103834" d="M2669.33,511.348a1.571,1.571,0,1,0,1.156-1.9A1.571,1.571,0,0,0,2669.33,511.348Z" transform="translate(-2665.452 -502.845)" fill="#f9beae"/>
      </g>
    </g>
  </g>
</svg>
