<svg xmlns="http://www.w3.org/2000/svg" xmlns:xlink="http://www.w3.org/1999/xlink" width="295" height="280" viewBox="0 0 295 280">
  <defs>
    <clipPath id="clip-path">
      <path id="Trazado_104054" data-name="Trazado 104054" d="M184.352,89.083c-5.321-3.07-9.621-10.519-9.6-16.636-.59.343-1.184.685-1.773,1.029-.019,6.117,4.284,13.566,9.6,16.637C183.111,89.806,183.819,89.392,184.352,89.083Z" fill="none"/>
    </clipPath>
    <clipPath id="clip-path-2">
      <path id="Trazado_104059" data-name="Trazado 104059" d="M188.225,90.388a9.179,9.179,0,0,1-3.873-1.305l-1.771,1.03a9.175,9.175,0,0,0,3.87,1.306Z" fill="none"/>
    </clipPath>
    <clipPath id="clip-path-3">
      <path id="Trazado_104067" data-name="Trazado 104067" d="M191.207,89.755a4.78,4.78,0,0,1-1.543.563l-1.772,1.029a4.681,4.681,0,0,0,1.542-.562C189.964,90.476,190.674,90.064,191.207,89.755Z" fill="none"/>
    </clipPath>
    <clipPath id="clip-path-4">
      <path id="Trazado_104069" data-name="Trazado 104069" d="M174.749,72.447c.01-3.037,1.081-5.174,2.811-6.178L175.788,67.3c-1.728,1.006-2.8,3.143-2.812,6.178C173.565,73.132,174.159,72.79,174.749,72.447Z" fill="none"/>
    </clipPath>
    <clipPath id="clip-path-5">
      <path id="Trazado_104074" data-name="Trazado 104074" d="M177.56,66.269,175.789,67.3a4.685,4.685,0,0,1,1.066-.453l1.775-1.029A4.67,4.67,0,0,0,177.56,66.269Z" fill="none"/>
    </clipPath>
    <clipPath id="clip-path-6">
      <path id="Trazado_104086" data-name="Trazado 104086" d="M182.642,67.968l1.773-1.029a8.707,8.707,0,0,0-4.394-1.32l-1.773,1.029A8.7,8.7,0,0,1,182.642,67.968Z" fill="none"/>
    </clipPath>
    <clipPath id="clip-path-7">
      <path id="Trazado_104103" data-name="Trazado 104103" d="M189.434,90.785l1.772-1.03c1.73-1.006,2.8-3.144,2.813-6.183.016-6.114-4.282-13.561-9.6-16.633l-1.773,1.029c5.323,3.074,9.62,10.522,9.6,16.635C192.236,87.642,191.163,89.781,189.434,90.785Z" fill="none"/>
    </clipPath>
    <clipPath id="clip-path-8">
      <path id="Trazado_104129" data-name="Trazado 104129" d="M49.781,182.3a14.969,14.969,0,0,1-6.791-11.767c-.469.271-.932.543-1.4.814a14.974,14.974,0,0,0,6.791,11.768C48.8,182.873,49.361,182.547,49.781,182.3Z" fill="none"/>
    </clipPath>
    <clipPath id="clip-path-9">
      <path id="Trazado_104140" data-name="Trazado 104140" d="M42.99,170.538c0-2.149.763-3.661,1.987-4.372l-1.4.815c-1.224.711-1.981,2.223-1.987,4.371C42.058,171.081,42.521,170.809,42.99,170.538Z" fill="none"/>
    </clipPath>
    <clipPath id="clip-path-10">
      <path id="Trazado_104151" data-name="Trazado 104151" d="M54.632,182.78c-1.239.72-2.957.619-4.851-.475l-1.4.815c1.893,1.093,3.61,1.193,4.85.472C53.651,183.35,54.212,183.024,54.632,182.78Z" fill="none"/>
    </clipPath>
    <clipPath id="clip-path-11">
      <path id="Trazado_104174" data-name="Trazado 104174" d="M53.231,183.592l1.4-.812c1.223-.713,1.982-2.223,1.989-4.373a14.972,14.972,0,0,0-6.795-11.764l-1.4.814a14.978,14.978,0,0,1,6.8,11.764C55.214,181.37,54.455,182.883,53.231,183.592Z" fill="none"/>
    </clipPath>
    <clipPath id="clip-path-12">
      <path id="Trazado_104186" data-name="Trazado 104186" d="M44.977,166.166l-1.4.815c1.238-.721,2.953-.617,4.849.476l1.4-.814C47.931,165.551,46.216,165.448,44.977,166.166Z" fill="none"/>
    </clipPath>
  </defs>
  <g id="Grupo_55519" data-name="Grupo 55519" transform="translate(8999 -4356.183)">
    <rect id="Rectángulo_5436" data-name="Rectángulo 5436" width="295" height="280" rx="5" transform="translate(-8999 4356.183)" fill="#59ffcc"/>
    <g id="Grupo_55419" data-name="Grupo 55419" transform="translate(-11236.686 3200.259)">
      <g id="Grupo_55404" data-name="Grupo 55404" transform="translate(2260.831 1228.429)">
        <path id="Trazado_103925" data-name="Trazado 103925" d="M2483.849,1428.627l-26.616,15.511a4.608,4.608,0,0,0,0,7.961l15.187,8.885a4.608,4.608,0,0,1-.105,8.016l-86.992,47.874a4.6,4.6,0,0,1-4.527-.05l-98.731-57.1a4.608,4.608,0,0,1,0-7.98l125.252-72.315a4.618,4.618,0,0,1,4.6-.01l43.422,24.9,1.989,1.139,2.493,1.429,1.994,1.144,22.008,12.618A4.609,4.609,0,0,1,2483.849,1428.627Z" transform="translate(-2279.759 -1338.333)" fill="#15325c" opacity="0.22" style="mix-blend-mode: multiply;isolation: isolate"/>
        <path id="Trazado_103926" data-name="Trazado 103926" d="M2486.14,1348.754v15.362l-.015-.01a4.525,4.525,0,0,1-2.273,3.608l-21.458,12.508-5.152,3a4.615,4.615,0,0,0-.01,7.971l8.375,4.9,3.039-6.627,6.027,1.1v12.943a4.679,4.679,0,0,1,0,1.024v.03l0,0a4.5,4.5,0,0,1-2.354,3.528l-6.891,3.793-1.324.725-1.6.885-1.869,1.034-10.039,5.527-2,1.1-2.5,1.374-2,1.1-11.838,6.511-46.93,25.831a4.621,4.621,0,0,1-3.667.34,4.965,4.965,0,0,1-.86-.39l-51.312-29.674-1.864-1.08-1.465-.844-.14-.08-1.314-.77-.545-.315-2.5-1.445-2-1.154-37.595-21.743a4.528,4.528,0,0,1-2.2-3.058v-.005a4.773,4.773,0,0,1-.015-1.844v-.015s0,0,0-.01l-.085-12.858v-.3a.016.016,0,0,1,0-.02l0-.629.055.054,7.791,7.5,56.5-32.622,63.206-36.5a4.638,4.638,0,0,1,4.6,0l63.97,36.675,4.518-5.8,5.632-.625Z" transform="translate(-2279.761 -1303.915)" fill="#d6edff"/>
        <path id="Trazado_103927" data-name="Trazado 103927" d="M2381.657,1403.209v101.3a4.975,4.975,0,0,1-.86-.39l-51.312-29.674-1.864-1.08-1.465-.844-.14-.08-1.314-.769-.545-.315-2.5-1.445-2-1.154-37.595-21.743a4.527,4.527,0,0,1-2.2-3.058v-.005a4.773,4.773,0,0,1-.015-1.844v-.015s0,0,0-.01l-.085-12.858v-.3l0-.649.055.055,7.791,7.5,56.5-32.622Z" transform="translate(-2279.761 -1352.119)" fill="#bbe0fd"/>
        <path id="Trazado_103928" data-name="Trazado 103928" d="M2483.849,1335.565l-26.616,15.511a4.608,4.608,0,0,0,0,7.961l15.187,8.885a4.607,4.607,0,0,1-.105,8.015l-86.992,47.874a4.6,4.6,0,0,1-4.527-.05l-98.731-57.1a4.608,4.608,0,0,1,0-7.981l125.252-72.315a4.618,4.618,0,0,1,4.6-.01l43.422,24.9,1.989,1.139,2.493,1.429,1.994,1.144,22.008,12.618A4.609,4.609,0,0,1,2483.849,1335.565Z" transform="translate(-2279.759 -1285.749)" fill="#fff"/>
        <path id="Trazado_103929" data-name="Trazado 103929" d="M2652.49,1521.591l.188,13.88,13.474-7.415-.188-13.88Z" transform="translate(-2490.369 -1414.82)" fill="#fff"/>
        <path id="Trazado_103930" data-name="Trazado 103930" d="M2630.349,1540.888v13.983l4.061-2.235v-13.983Z" transform="translate(-2477.857 -1428.651)" fill="#fff"/>
      </g>
      <g id="Grupo_55405" data-name="Grupo 55405" transform="translate(2450.798 1276.554)">
        <path id="Trazado_103931" data-name="Trazado 103931" d="M2716.513,1431.755v9.956l.053-.038a3.126,3.126,0,0,0,1.539,2.212l33.457,19.316a3.159,3.159,0,0,0,1.606.425,3.2,3.2,0,0,0,1.576-.425l33.5-19.393a3.144,3.144,0,0,0,1.582-2.756v-9.3l-7.023,3.416-28-16.124a3.183,3.183,0,0,0-3.177,0l-21.633,12.474-5.614,3.235Z" transform="translate(-2716.511 -1408.954)" fill="#bbe0fd"/>
        <path id="Trazado_103932" data-name="Trazado 103932" d="M2716.513,1448.515v9.956l.053-.038a3.125,3.125,0,0,0,1.539,2.212l33.457,19.316a3.157,3.157,0,0,0,1.606.425V1468.4l-23.181-20.114-5.614,3.235Z" transform="translate(-2716.511 -1425.714)" fill="#d6edff"/>
        <path id="Trazado_103933" data-name="Trazado 103933" d="M2754.8,1397.5l33.433,19.249a3.182,3.182,0,0,1,.007,5.511l-33.492,19.391a3.184,3.184,0,0,1-3.186,0l-33.457-19.316a3.182,3.182,0,0,1,0-5.513l33.516-19.323A3.182,3.182,0,0,1,2754.8,1397.5Z" transform="translate(-2716.51 -1396.781)" fill="#fff"/>
        <path id="Trazado_103934" data-name="Trazado 103934" d="M2754.8,1396.817l33.433,19.248a3.182,3.182,0,0,1,.007,5.512l-33.492,19.391a3.183,3.183,0,0,1-3.186,0l-33.457-19.316a3.182,3.182,0,0,1,0-5.513l33.516-19.323A3.182,3.182,0,0,1,2754.8,1396.817Z" transform="translate(-2716.51 -1396.392)" fill="#fff"/>
      </g>
      <path id="Trazado_103935" data-name="Trazado 103935" d="M2629.973,1348.1l-49.3,29.149-3.308-5.587,46.13-27.275,1.989,1.139,2.493,1.429Z" transform="translate(-187.09 -90.451)" fill="#77b8e0"/>
      <path id="Trazado_103936" data-name="Trazado 103936" d="M2597.552,1192.63c.485-2.2,1.608-3.822,3.253-4.341,1.774-.561,3.789.28,5.544,2.062.823-2.924,2.447-5.058,4.738-5.782,4.965-1.568,11.173,4.073,13.866,12.6q.244.774.438,1.542c2.655.807,5.353,3.979,6.705,8.26a16.71,16.71,0,0,1,.807,5.532l.282.162a6.759,6.759,0,0,1,3.4,5.864h0a6.76,6.76,0,0,1-10.123,5.864l-33.584-19.262a6.761,6.761,0,0,1-3.4-5.864h0A6.768,6.768,0,0,1,2597.552,1192.63Z" transform="translate(-193.934)" fill="#fff"/>
      <path id="Trazado_103937" data-name="Trazado 103937" d="M2267.938,1320.446a3,3,0,0,0-1.807-2.411,3.146,3.146,0,0,0-3.079,1.145,4.33,4.33,0,0,0-2.631-3.211c-2.758-.871-6.206,2.262-7.7,7-.091.287-.171.572-.244.857-1.474.448-2.973,2.21-3.724,4.588a9.272,9.272,0,0,0-.448,3.072l-.157.09a3.755,3.755,0,0,0-1.887,3.257h0a3.755,3.755,0,0,0,5.623,3.257l18.653-10.7a3.755,3.755,0,0,0,1.887-3.257h0A3.759,3.759,0,0,0,2267.938,1320.446Z" transform="translate(0 -74.313)" fill="#fff"/>
      <g id="Grupo_55406" data-name="Grupo 55406" transform="translate(2304.315 1263.804)">
        <path id="Trazado_103938" data-name="Trazado 103938" d="M2438.5,1435.782l-58.767-33.582,58.028-35.122.645.385,58.123,34.723Zm-53.839-33.643,53.831,30.76,53.107-30.747-53.83-32.159Z" transform="translate(-2379.733 -1367.079)" fill="#77b8e0"/>
      </g>
      <path id="Trazado_103939" data-name="Trazado 103939" d="M2590.873,1475.361v14.212l-2,1.1-2.5,1.374-2,1.1v-14.037l-.1-.06-56.24-32.482,3.248-5.627Z" transform="translate(-159.213 -145.009)" fill="#77b8e0"/>
      <path id="Trazado_103940" data-name="Trazado 103940" d="M2434.333,1448.864l-.844.49-55.28,31.928-.22.125v13.733l-.14-.08-1.314-.77-.545-.315-2.5-1.444-2-1.154v-13.718l.23-.13,59.363-34.291,2.4,4.163Z" transform="translate(-70.762 -146.307)" fill="#77b8e0"/>
      <path id="Trazado_103941" data-name="Trazado 103941" d="M2631.536,1348.433l-46.6,27.56-1.274-2.154,45.38-26.835Z" transform="translate(-190.647 -91.931)" fill="#f1249a"/>
      <path id="Trazado_103942" data-name="Trazado 103942" d="M2592.418,1480.066v14.157l-2.5,1.374v-14.092l-.054-.03-55.56-32.088,1.249-2.164Z" transform="translate(-162.758 -148.56)" fill="#ffd561"/>
      <path id="Trazado_103943" data-name="Trazado 103943" d="M2434.2,1451.686l-55.395,31.988-.22.13v13.722l-2.5-1.444v-13.718l.225-.13,56.639-32.712Z" transform="translate(-73.358 -149.858)" fill="#f1249a"/>
      <path id="Trazado_103944" data-name="Trazado 103944" d="M2664.068,1519.79l-6.5,4v13.992l6.5-3.5Z" transform="translate(-232.409 -189.563)" fill="#77b8e0" opacity="0.39" style="mix-blend-mode: multiply;isolation: isolate"/>
      <path id="Trazado_103945" data-name="Trazado 103945" d="M2371.492,1522.088l6.5,4v13.493l-6.5-3.5Z" transform="translate(-70.762 -190.861)" fill="#77b8e0" opacity="0.39" style="mix-blend-mode: multiply;isolation: isolate"/>
      <g id="Grupo_55410" data-name="Grupo 55410" transform="translate(2457.922 1242.774)">
        <g id="Grupo_55407" data-name="Grupo 55407" transform="translate(0 32.197)">
          <path id="Trazado_103946" data-name="Trazado 103946" d="M2734.064,1423.1l26.352-15.43a2.379,2.379,0,0,1,2.38-.014l27.149,15.458a2.38,2.38,0,0,1,.012,4.13l-26.725,15.43a2.378,2.378,0,0,1-2.38,0l-26.775-15.459A2.38,2.38,0,0,1,2734.064,1423.1Z" transform="translate(-2732.887 -1401)" fill="#15325c" opacity="0.33" style="mix-blend-mode: multiply;isolation: isolate"/>
          <path id="Trazado_103947" data-name="Trazado 103947" d="M2821.071,1420.541l-20.934,12.086-.219,12.213,20.934-11.9Z" transform="translate(-2770.762 -1408.454)" fill="#a9d1ea"/>
          <path id="Trazado_103948" data-name="Trazado 103948" d="M2752.293,1404.84l20.642-12.086,21.227,12.086-20.934,12.086Z" transform="translate(-2743.852 -1392.753)" fill="#bbe0fd"/>
          <path id="Trazado_103949" data-name="Trazado 103949" d="M2773.129,1411.8l11.489-6.727,11.815,6.727-11.652,6.727Z" transform="translate(-2755.625 -1399.715)" fill="#15325c"/>
          <path id="Trazado_103950" data-name="Trazado 103950" d="M2752.293,1432.94v-12.4l20.934,12.086-.219,12.213Z" transform="translate(-2743.852 -1408.454)" fill="#77b8e0"/>
        </g>
        <rect id="Rectángulo_5443" data-name="Rectángulo 5443" width="5.763" height="17.578" transform="translate(25.717 25.935)" fill="#15325c"/>
        <path id="Trazado_103951" data-name="Trazado 103951" d="M2798.637,1384.381l10.086-10.662,1.153,2.017-10.662,11.527" transform="translate(-2770.039 -1349.801)" fill="#15325c"/>
        <g id="Grupo_55408" data-name="Grupo 55408" transform="translate(32.057 13.832)">
          <path id="Trazado_103952" data-name="Trazado 103952" d="M2824.166,1359.32a8.784,8.784,0,1,1-8.789-8.789A8.77,8.77,0,0,1,2824.166,1359.32Z" transform="translate(-2806.588 -1350.531)" fill="#77b8e0"/>
          <path id="Trazado_103953" data-name="Trazado 103953" d="M2823.777,1364.406a8.79,8.79,0,0,1-17.189-2.594c0-.294.014-.582.043-.867a8.769,8.769,0,0,1,3.271-6C2809.7,1364.222,2817.339,1365.064,2823.777,1364.406Z" transform="translate(-2806.588 -1353.024)" fill="#77b8e0" opacity="0.24" style="mix-blend-mode: multiply;isolation: isolate"/>
          <path id="Trazado_103954" data-name="Trazado 103954" d="M2821.264,1376.137a8.79,8.79,0,0,1-14.676-6.527c0-.294.014-.582.043-.867C2808.274,1374.881,2815.04,1376.887,2821.264,1376.137Z" transform="translate(-2806.588 -1360.821)" fill="#77b8e0" opacity="0.24" style="mix-blend-mode: multiply;isolation: isolate"/>
        </g>
        <g id="Grupo_55409" data-name="Grupo 55409" transform="translate(14.767)">
          <path id="Trazado_103955" data-name="Trazado 103955" d="M2794.789,1332.705a13.968,13.968,0,1,1-13.976-13.976A13.938,13.938,0,0,1,2794.789,1332.705Z" transform="translate(-2766.837 -1318.729)" fill="#77b8e0"/>
          <path id="Trazado_103956" data-name="Trazado 103956" d="M2794.17,1340.794a13.978,13.978,0,0,1-27.333-4.124,13.738,13.738,0,0,1,.068-1.379,13.942,13.942,0,0,1,5.2-9.545C2771.79,1340.5,2783.933,1341.839,2794.17,1340.794Z" transform="translate(-2766.837 -1322.694)" fill="#77b8e0" opacity="0.24" style="mix-blend-mode: multiply;isolation: isolate"/>
          <path id="Trazado_103957" data-name="Trazado 103957" d="M2790.174,1359.449a13.977,13.977,0,0,1-23.337-10.379,13.742,13.742,0,0,1,.068-1.379C2769.517,1357.451,2780.277,1360.641,2790.174,1359.449Z" transform="translate(-2766.837 -1335.094)" fill="#77b8e0" opacity="0.24" style="mix-blend-mode: multiply;isolation: isolate"/>
        </g>
      </g>
      <ellipse id="Elipse_4216" data-name="Elipse 4216" cx="16.305" cy="9.495" rx="16.305" ry="9.495" transform="translate(2274.453 1295.746)" fill="#15325c" opacity="0.33" style="mix-blend-mode: multiply;isolation: isolate"/>
      <g id="Grupo_55411" data-name="Grupo 55411" transform="translate(2278.827 1217.288)">
        <path id="Trazado_103958" data-name="Trazado 103958" d="M2412.552,1272.7s-.076-1.5.745-2.1,1.126.7,1.126.7c2.876-1.225,3.121-.182,3.121-.182,1.21,1.642.39,2.247.39,2.247-.729,1-4.249,1.823-4.249,1.823Z" transform="translate(-2372.787 -1265.958)" fill="#f9beae"/>
        <path id="Trazado_103959" data-name="Trazado 103959" d="M2378.612,1273.695l-11.471,7.541s-10.135-.876-14.4.029l1.563,4.755.531,1.622s13.007-.211,14.5-1.365c1.406-1.1,10.411-8.4,11.415-9.222a.045.045,0,0,1,.03-.022.206.206,0,0,0,.035-.028l.03-.022Z" transform="translate(-2338.991 -1267.797)" fill="#23477c"/>
        <path id="Trazado_103960" data-name="Trazado 103960" d="M2360.138,1453.983c.32-1.053-3.455-3.849-3.455-3.849l-4.75-.726c-1.185,2.115-1.132,2.869-.242,3.443,6.254,3.137,7.627,2.4,7.627,2.4S2359.818,1455.037,2360.138,1453.983Z" transform="translate(-2338.027 -1367.083)" fill="#15325c"/>
        <path id="Trazado_103961" data-name="Trazado 103961" d="M2339.16,1465.3c.32-1.053-3.454-3.849-3.454-3.849l-4.75-.726c-1.185,2.115-1.132,2.869-.242,3.443,6.254,3.136,7.627,2.4,7.627,2.4S2338.84,1466.356,2339.16,1465.3Z" transform="translate(-2326.174 -1373.478)" fill="#15325c"/>
        <path id="Trazado_103962" data-name="Trazado 103962" d="M2349.148,1348.269l.776,19.841-.826,21.92s-1.122,1.279-5.6.633l-.942-18.881-5.167-28.994Z" transform="translate(-2330.318 -1306.837)" fill="#f1249a"/>
        <path id="Trazado_103963" data-name="Trazado 103963" d="M2335.828,1363.875l-2.571,42.858s-1.12,1.28-5.6.64l-2.264-43.5Z" transform="translate(-2323.541 -1318.753)" fill="#f1249a"/>
        <path id="Trazado_103964" data-name="Trazado 103964" d="M2323.111,1300.374v23.475s12.174,5.444,18.442-3.443l-.522-26.625a4.809,4.809,0,0,0-1.331-2.45,3.582,3.582,0,0,0-2.057-1,3.7,3.7,0,0,0-2.257.423l-9.721,5.312a4.911,4.911,0,0,0-2.556,4.31Z" transform="translate(-2322.251 -1277.178)" fill="#15325c"/>
        <path id="Trazado_103965" data-name="Trazado 103965" d="M2365.282,1325.157s-.076-1.495.745-2.1,1.126.7,1.126.7c2.876-1.226,3.121-.183,3.121-.183,1.21,1.642.39,2.247.39,2.247-.729,1-4.249,1.823-4.249,1.823Z" transform="translate(-2346.078 -1295.598)" fill="#f9beae"/>
        <path id="Trazado_103966" data-name="Trazado 103966" d="M2324.054,1305.416c3.514-.187,3.653,5.429,3.653,5.429l.723,8.346,11.589-4.614,1.678,3.126s-7.149,4.2-12.332,7.161a4.319,4.319,0,0,1-6.377-2.894c-.8-3.956-1.727-8.818-1.825-10.629C2320.909,1306.622,2322.3,1305.513,2324.054,1305.416Z" transform="translate(-2321.134 -1285.718)" fill="#23477c"/>
        <path id="Trazado_103967" data-name="Trazado 103967" d="M2342.77,1287.723s-3.683,1.119-5.282-.643v-9.327l.741.749,4.06,4.1.367,3.921Z" transform="translate(-2330.375 -1270.09)" fill="#f9beae"/>
        <path id="Trazado_103968" data-name="Trazado 103968" d="M2343.619,1287.493c-2.753-1.07-4.378-3.406-4.427-8.019l4.061,4.1Z" transform="translate(-2331.337 -1271.062)" fill="#f9beae" style="mix-blend-mode: multiply;isolation: isolate"/>
        <path id="Trazado_103969" data-name="Trazado 103969" d="M2343.556,1267.193s4.347,11.582-.579,11.775-7.687-5.021-7.687-5.021l2.094-5.057Z" transform="translate(-2329.133 -1264.123)" fill="#f9beae"/>
        <path id="Trazado_103970" data-name="Trazado 103970" d="M2340.716,1261.279c-2.348-2.575-4.859,0-4.859,0-5.517.3-11.222,6.771-3.371,11.679v-1.211l.807-1.053c1.7-.363.985-3.357.985-3.357C2340.565,1267.717,2343.064,1263.854,2340.716,1261.279Z" transform="translate(-2325.373 -1260.135)" fill="#052754"/>
        <path id="Trazado_103971" data-name="Trazado 103971" d="M2337.035,1281.479a1.359,1.359,0,1,1-2.169-.283A1.584,1.584,0,0,1,2337.035,1281.479Z" transform="translate(-2328.731 -1271.855)" fill="#f9beae"/>
      </g>
      <g id="Grupo_55412" data-name="Grupo 55412" transform="translate(2343.919 1335.724)">
        <path id="Trazado_103972" data-name="Trazado 103972" d="M2510.493,1558.575l-.124.072-19.73,11.392-.124-.072-19.728-11.392,6.01-3.521,13.564-7.941,14.035,7.991,5.974,3.4Z" transform="translate(-2470.788 -1540.726)" fill="#15325c" opacity="0.33" style="mix-blend-mode: multiply;isolation: isolate"/>
        <path id="Trazado_103973" data-name="Trazado 103973" d="M2490.639,1558.678l-.124,6.92-.083,4.662-19.644-11.286v-4.768l6.01-3.521Z" transform="translate(-2470.788 -1542.744)" fill="#183561"/>
        <path id="Trazado_103974" data-name="Trazado 103974" d="M2535.892,1554.2l0,.142-.083,4.7-19.854,11.286.083-4.662.124-6.92,13.758-7.943Z" transform="translate(-2496.307 -1542.808)" fill="#23477c"/>
        <path id="Trazado_103975" data-name="Trazado 103975" d="M2510.493,1543.89l-.124.072-19.73,11.392-.124-.072-19.728-11.392,6.01-3.521,13.564-7.941,14.035,7.991,5.974,3.4Z" transform="translate(-2470.788 -1532.428)" fill="#3c6a9e"/>
        <path id="Trazado_103976" data-name="Trazado 103976" d="M2485.226,1548.606l13.316-7.8,13.762,7.835-13.506,7.8Z" transform="translate(-2478.946 -1537.164)" fill="#ffd561"/>
        <path id="Trazado_103977" data-name="Trazado 103977" d="M2489.353,1549.954l11.528-6.749,11.942,6.8-11.692,6.751Z" transform="translate(-2481.278 -1538.517)" fill="#5b95d3"/>
        <path id="Trazado_103978" data-name="Trazado 103978" d="M2510.2,1556.776l2.619-1.533,2.713,1.544-2.656,1.534Z" transform="translate(-2493.059 -1545.319)" fill="#bbe0fd"/>
        <path id="Trazado_103979" data-name="Trazado 103979" d="M2500.881,1544.107l11.155,6.351.787-.454-11.942-6.8-11.528,6.749.776.448Z" transform="translate(-2481.278 -1538.517)" fill="#183561"/>
      </g>
      <g id="Grupo_55413" data-name="Grupo 55413" transform="translate(2414.618 1273.269)">
        <path id="Trazado_103980" data-name="Trazado 103980" d="M2633.329,1407l2.542,1.539,2.193-1.255a9.163,9.163,0,0,0,1.319.317v1.473h3.077v-1.422a9.355,9.355,0,0,0,1.669-.369l2.311,1.322,2.542-1.539-2.312-1.311a2.361,2.361,0,0,0-.041-3.373l2.219-1.27-2.542-1.472-2.2,1.25a9.273,9.273,0,0,0-1.475-.337v-1.448h-3.077v1.45a9.323,9.323,0,0,0-1.46.334l-2.085-1.182-2.542,1.471,2.1,1.2a2.536,2.536,0,0,0-.73,1.711,2.51,2.51,0,0,0,.69,1.665Zm5.753-2.908c0-.648.9-1.173,2.013-1.173s2.013.525,2.013,1.173-.9,1.172-2.013,1.172S2639.082,1404.739,2639.082,1404.091Z" transform="translate(-2633.329 -1394.64)" fill="#15325c" opacity="0.33" style="mix-blend-mode: multiply;isolation: isolate"/>
        <path id="Trazado_103981" data-name="Trazado 103981" d="M2633.329,1402.2l2.192-1.243a2.51,2.51,0,0,1-.69-1.665c0-.309.036-1.975.036-1.975s.462.52.695.265l-2.1-1.2,2.542-1.472,2.085,1.182a10.329,10.329,0,0,1,6.012,0l2.2-1.25,2.542,1.472-2.219,1.269c.231.253.748-.4.748-.4s-.018,1.8-.018,2.109a2.511,2.511,0,0,1-.688,1.664l2.312,1.311-2.542,1.539-2.311-1.323a10.317,10.317,0,0,1-6.065,0l-2.193,1.255Z" transform="translate(-2633.329 -1392.228)" fill="#e8a302"/>
        <rect id="Rectángulo_5444" data-name="Rectángulo 5444" width="3.077" height="2.007" transform="translate(6.021 9.968)" fill="#fec400"/>
        <path id="Trazado_103982" data-name="Trazado 103982" d="M2635.871,1408.526v2.074l-2.542-1.539v-2.074Z" transform="translate(-2633.329 -1399.093)" fill="#fec400"/>
        <path id="Trazado_103983" data-name="Trazado 103983" d="M2633.636,1393.606v2.074l1.539.87.87-1.873Z" transform="translate(-2633.503 -1391.532)" fill="#fec400"/>
        <path id="Trazado_103984" data-name="Trazado 103984" d="M2663.474,1408.68v2.074l2.542-1.539v-2.074Z" transform="translate(-2650.362 -1399.18)" fill="#fec400"/>
        <path id="Trazado_103985" data-name="Trazado 103985" d="M2665.969,1393.453v2.074l-1.637.937-.7-1.739Z" transform="translate(-2650.449 -1391.446)" fill="#fec400"/>
        <path id="Trazado_103986" data-name="Trazado 103986" d="M2633.329,1396.732l2.542,1.539,2.193-1.255a9.115,9.115,0,0,0,1.319.317v1.473h3.077v-1.422a9.334,9.334,0,0,0,1.669-.368l2.311,1.322,2.542-1.539-2.312-1.311a2.362,2.362,0,0,0-.041-3.374l2.219-1.269-2.542-1.472-2.2,1.25a9.233,9.233,0,0,0-1.475-.337v-1.448h-3.077v1.451a9.3,9.3,0,0,0-1.46.335l-2.085-1.183-2.542,1.471,2.1,1.2a2.536,2.536,0,0,0-.73,1.711,2.51,2.51,0,0,0,.69,1.665Zm5.753-2.908c0-.648.9-1.173,2.013-1.173s2.013.525,2.013,1.173-.9,1.172-2.013,1.172S2639.082,1394.471,2639.082,1393.824Z" transform="translate(-2633.329 -1388.838)" fill="#ffd561"/>
      </g>
      <g id="Grupo_55414" data-name="Grupo 55414" transform="translate(2429.926 1264.263)">
        <path id="Trazado_103987" data-name="Trazado 103987" d="M2668.523,1398.315l4.225,2.557,3.645-2.085a15.251,15.251,0,0,0,2.193.526v2.448h5.114V1399.4a15.526,15.526,0,0,0,2.774-.613l3.841,2.2,4.225-2.557-3.842-2.179a3.924,3.924,0,0,0-.068-5.606l3.688-2.11-4.225-2.446-3.664,2.077a15.448,15.448,0,0,0-2.451-.56V1385.2h-5.114v2.41a15.409,15.409,0,0,0-2.427.555l-3.466-1.965-4.225,2.446,3.49,2a3.925,3.925,0,0,0-.068,5.61Zm9.562-4.833c0-1.076,1.5-1.949,3.346-1.949s3.346.873,3.346,1.949-1.5,1.948-3.346,1.948S2678.085,1394.557,2678.085,1393.481Z" transform="translate(-2668.523 -1377.774)" fill="#15325c" opacity="0.33" style="mix-blend-mode: multiply;isolation: isolate"/>
        <path id="Trazado_103988" data-name="Trazado 103988" d="M2668.523,1390.331l3.644-2.066a4.172,4.172,0,0,1-1.146-2.767c0-.514.059-3.283.059-3.283s.767.864,1.155.44l-3.489-2,4.225-2.446,3.466,1.965a17.18,17.18,0,0,1,9.992,0l3.664-2.077,4.225,2.446-3.688,2.11c.384.42,1.242-.665,1.242-.665s-.03,2.988-.03,3.505a4.173,4.173,0,0,1-1.144,2.766l3.842,2.179-4.225,2.557-3.841-2.2a17.158,17.158,0,0,1-10.081,0l-3.645,2.085Z" transform="translate(-2668.523 -1373.766)" fill="#e8a302"/>
        <rect id="Rectángulo_5445" data-name="Rectángulo 5445" width="5.114" height="3.335" transform="translate(10.006 16.565)" fill="#fec400"/>
        <path id="Trazado_103989" data-name="Trazado 103989" d="M2672.748,1400.851v3.446l-4.225-2.557v-3.447Z" transform="translate(-2668.523 -1385.175)" fill="#fec400"/>
        <path id="Trazado_103990" data-name="Trazado 103990" d="M2669.035,1376.057v3.446l2.557,1.445,1.445-3.113Z" transform="translate(-2668.812 -1372.61)" fill="#fec400"/>
        <path id="Trazado_103991" data-name="Trazado 103991" d="M2718.622,1401.107v3.447l4.225-2.557v-3.447Z" transform="translate(-2696.831 -1385.32)" fill="#fec400"/>
        <path id="Trazado_103992" data-name="Trazado 103992" d="M2722.769,1375.8v3.447l-2.72,1.556-1.171-2.891Z" transform="translate(-2696.976 -1372.466)" fill="#fec400"/>
        <path id="Trazado_103993" data-name="Trazado 103993" d="M2668.523,1381.252l4.225,2.557,3.645-2.085a15.235,15.235,0,0,0,2.193.526v2.448h5.114v-2.363a15.547,15.547,0,0,0,2.774-.613l3.841,2.2,4.225-2.557-3.842-2.179a3.925,3.925,0,0,0-.068-5.606l3.688-2.11-4.225-2.446-3.664,2.077a15.435,15.435,0,0,0-2.451-.56v-2.407h-5.114v2.411a15.4,15.4,0,0,0-2.427.555l-3.466-1.965-4.225,2.446,3.49,2a3.926,3.926,0,0,0-.068,5.61Zm9.562-4.833c0-1.076,1.5-1.949,3.346-1.949s3.346.873,3.346,1.949-1.5,1.948-3.346,1.948S2678.085,1377.495,2678.085,1376.419Z" transform="translate(-2668.523 -1368.133)" fill="#ffd561"/>
      </g>
      <g id="Grupo_55415" data-name="Grupo 55415" transform="translate(2398.506 1241.775)">
        <path id="Trazado_103994" data-name="Trazado 103994" d="M2596.286,1340.848l3.644,2.205,3.143-1.8a13.21,13.21,0,0,0,1.891.454v2.112h4.411v-2.038a13.408,13.408,0,0,0,2.393-.528l3.312,1.9,3.644-2.205-3.314-1.879a3.385,3.385,0,0,0-.058-4.835l3.181-1.819-3.644-2.11-3.16,1.792a13.253,13.253,0,0,0-2.114-.483v-2.076H2605.2v2.079a13.263,13.263,0,0,0-2.092.479l-2.989-1.7-3.644,2.11,3.009,1.722a3.635,3.635,0,0,0-1.047,2.452,3.6,3.6,0,0,0,.989,2.387Zm8.246-4.169c0-.928,1.292-1.68,2.886-1.68s2.885.752,2.885,1.68-1.292,1.68-2.885,1.68S2604.532,1337.607,2604.532,1336.679Z" transform="translate(-2596.286 -1323.835)" fill="#15325c" opacity="0.33" style="mix-blend-mode: multiply;isolation: isolate"/>
        <path id="Trazado_103995" data-name="Trazado 103995" d="M2596.286,1335.576l3.143-1.782a3.6,3.6,0,0,1-.989-2.387c0-.443.051-2.831.051-2.831s.662.745,1,.379l-3.009-1.722,3.644-2.109,2.989,1.695a14.807,14.807,0,0,1,8.617,0l3.159-1.792,3.644,2.11-3.18,1.82c.331.362,1.071-.573,1.071-.573s-.026,2.577-.026,3.023a3.6,3.6,0,0,1-.987,2.386l3.314,1.879-3.644,2.205-3.313-1.9a14.791,14.791,0,0,1-8.694,0l-3.143,1.8Z" transform="translate(-2596.286 -1321.29)" fill="#e8a302"/>
        <rect id="Rectángulo_5446" data-name="Rectángulo 5446" width="4.411" height="2.877" transform="translate(8.63 14.287)" fill="#fec400"/>
        <path id="Trazado_103996" data-name="Trazado 103996" d="M2599.929,1344.65v2.973l-3.644-2.205v-2.972Z" transform="translate(-2596.286 -1331.13)" fill="#fec400"/>
        <path id="Trazado_103997" data-name="Trazado 103997" d="M2596.727,1323.266v2.972l2.206,1.247,1.246-2.685Z" transform="translate(-2596.535 -1320.293)" fill="#fec400"/>
        <path id="Trazado_103998" data-name="Trazado 103998" d="M2639.493,1344.87v2.972l3.644-2.205v-2.972Z" transform="translate(-2620.7 -1331.255)" fill="#fec400"/>
        <path id="Trazado_103999" data-name="Trazado 103999" d="M2643.07,1323.045v2.972l-2.346,1.343-1.01-2.493Z" transform="translate(-2620.825 -1320.169)" fill="#fec400"/>
        <path id="Trazado_104000" data-name="Trazado 104000" d="M2596.286,1327.746l3.644,2.206,3.143-1.8a13.145,13.145,0,0,0,1.891.454v2.111h4.411v-2.038a13.429,13.429,0,0,0,2.393-.528l3.312,1.9,3.644-2.205-3.314-1.879a3.385,3.385,0,0,0-.058-4.835l3.181-1.82-3.644-2.109-3.16,1.792a13.306,13.306,0,0,0-2.114-.483v-2.076H2605.2v2.079a13.331,13.331,0,0,0-2.092.479l-2.989-1.695-3.644,2.109,3.009,1.722a3.634,3.634,0,0,0-1.047,2.452,3.6,3.6,0,0,0,.989,2.387Zm8.246-4.169c0-.928,1.292-1.68,2.886-1.68s2.885.753,2.885,1.68-1.292,1.681-2.885,1.681S2604.532,1324.506,2604.532,1323.577Z" transform="translate(-2596.286 -1316.432)" fill="#ffd561"/>
      </g>
      <g id="Grupo_55418" data-name="Grupo 55418" transform="translate(2323.041 1204.494)">
        <path id="Trazado_104001" data-name="Trazado 104001" d="M2423.281,1254.443l39.714,22.693,39.2-22.693-39.714-23.725Z" transform="translate(-2423.065 -1230.718)" fill="#5b95d3"/>
        <path id="Trazado_104002" data-name="Trazado 104002" d="M2424.252,1422.39l36.033,21.8a3.042,3.042,0,0,0,3.116.02l37.134-21.823a3.042,3.042,0,0,0,.019-5.233l-36.806-21.988a3.042,3.042,0,0,0-3.135.009l-36.362,22.009A3.042,3.042,0,0,0,2424.252,1422.39Z" transform="translate(-2422.786 -1323.397)" fill="#15325c" opacity="0.33" style="mix-blend-mode: multiply;isolation: isolate"/>
        <path id="Trazado_104003" data-name="Trazado 104003" d="M2513.4,1307.287v70.143l39.714-23.725v-69.628Z" transform="translate(-2473.987 -1260.869)" fill="#23477c"/>
        <g id="Grupo_55416" data-name="Grupo 55416" transform="translate(44.055 31.299)">
          <path id="Trazado_104004" data-name="Trazado 104004" d="M2524.072,1379.759v-59.3l30.43-17.784v58.9Zm1.032-58.708v56.89l28.367-16.946v-56.522Z" transform="translate(-2524.072 -1302.676)" fill="#052754"/>
        </g>
        <path id="Trazado_104005" data-name="Trazado 104005" d="M2423.281,1284.078v69.628l39.2,23.725v-70.143Z" transform="translate(-2423.065 -1260.869)" fill="#3c6a9e"/>
        <path id="Trazado_104006" data-name="Trazado 104006" d="M2432.917,1361.579v-56.243a2.281,2.281,0,0,1,3.444-1.964l26.252,15.543a2.282,2.282,0,0,1,1.12,1.964v56.589a2.282,2.282,0,0,1-3.464,1.952l-26.251-15.889A2.281,2.281,0,0,1,2432.917,1361.579Z" transform="translate(-2428.51 -1271.589)" fill="#23477c"/>
        <path id="Trazado_104007" data-name="Trazado 104007" d="M2437.478,1361.984a2.282,2.282,0,0,1-1.1-1.953v-56.243a2.324,2.324,0,0,1,.021-.306l-.187-.111a2.282,2.282,0,0,0-3.445,1.964v56.243a2.283,2.283,0,0,0,1.1,1.953l26.252,15.889a2.282,2.282,0,0,0,3.443-1.649Z" transform="translate(-2428.426 -1271.589)" fill="#052754"/>
        <path id="Trazado_104008" data-name="Trazado 104008" d="M2470.413,1330.178l-25.788-15.269v8.768l25.788,15.269Z" transform="translate(-2435.126 -1278.289)" fill="#5b95d3"/>
        <path id="Trazado_104009" data-name="Trazado 104009" d="M2470.413,1355.079l-25.788-15.269v8.768l25.788,15.269Z" transform="translate(-2435.126 -1292.36)" fill="#5b95d3"/>
        <path id="Trazado_104010" data-name="Trazado 104010" d="M2470.413,1379.98l-25.788-15.269v8.768l25.788,15.269Z" transform="translate(-2435.126 -1306.43)" fill="#5b95d3"/>
        <path id="Trazado_104011" data-name="Trazado 104011" d="M2470.413,1404.882l-25.788-15.269v8.768l25.788,15.269Z" transform="translate(-2435.126 -1320.501)" fill="#5b95d3"/>
        <path id="Trazado_104012" data-name="Trazado 104012" d="M2470.413,1429.783l-25.788-15.269v8.768l25.788,15.269Z" transform="translate(-2435.126 -1334.571)" fill="#5b95d3"/>
        <g id="Grupo_55417" data-name="Grupo 55417" transform="translate(13.926 40.745)">
          <path id="Trazado_104013" data-name="Trazado 104013" d="M2454.8,1324.395v5.758l16.935,10.027v-5.758Z" transform="translate(-2454.802 -1324.395)" fill="#d6effb"/>
          <path id="Trazado_104014" data-name="Trazado 104014" d="M2454.8,1355.054l16.935,10.027v-5.758L2454.8,1349.3Z" transform="translate(-2454.802 -1338.465)" fill="#d6effb"/>
          <path id="Trazado_104015" data-name="Trazado 104015" d="M2454.8,1379.955l16.935,10.027v-5.758L2454.8,1374.2Z" transform="translate(-2454.802 -1352.535)" fill="#d6effb"/>
          <path id="Trazado_104016" data-name="Trazado 104016" d="M2454.8,1404.856l16.935,10.027v-5.758L2454.8,1399.1Z" transform="translate(-2454.802 -1366.606)" fill="#d6effb"/>
          <path id="Trazado_104017" data-name="Trazado 104017" d="M2454.8,1429.758l16.935,10.027v-5.758L2454.8,1424Z" transform="translate(-2454.802 -1380.676)" fill="#d6effb"/>
        </g>
      </g>
    </g>
    <g id="Grupo_55515" data-name="Grupo 55515" transform="translate(-9110.669 4263.564)">
      <g id="Grupo_55460" data-name="Grupo 55460" transform="translate(121 81.898)">
        <g id="Grupo_55428" data-name="Grupo 55428" style="isolation: isolate">
          <g id="Grupo_55427" data-name="Grupo 55427" clip-path="url(#clip-path)">
            <g id="Grupo_55426" data-name="Grupo 55426" style="isolation: isolate">
              <path id="Trazado_104039" data-name="Trazado 104039" d="M182.581,90.113l1.771-1.03a16.11,16.11,0,0,1-3.216-2.49l-1.774,1.03a16.078,16.078,0,0,0,3.219,2.49Z" fill="#c63a38"/>
              <path id="Trazado_104040" data-name="Trazado 104040" d="M179.362,87.623l1.774-1.03c-.363-.357-.712-.732-1.053-1.121L178.31,86.5c.341.391.69.764,1.052,1.122Z" fill="#c13937"/>
              <path id="Trazado_104041" data-name="Trazado 104041" d="M178.31,86.5l1.773-1.029c-.269-.308-.53-.627-.782-.953l-1.775,1.029q.383.492.784.953Z" fill="#bc3735"/>
              <path id="Trazado_104042" data-name="Trazado 104042" d="M177.526,85.548l1.775-1.029c-.22-.283-.435-.574-.641-.869l-1.772,1.029c.206.295.42.586.638.869Z" fill="#b73634"/>
              <path id="Trazado_104043" data-name="Trazado 104043" d="M176.888,84.679l1.772-1.029c-.191-.274-.378-.551-.558-.832l-1.774,1.029c.182.281.367.559.56.832Z" fill="#b23532"/>
              <path id="Trazado_104044" data-name="Trazado 104044" d="M176.328,83.847l1.774-1.029c-.173-.27-.338-.541-.5-.819l-1.772,1.032q.238.413.5.816Z" fill="#ad3331"/>
              <path id="Trazado_104045" data-name="Trazado 104045" d="M175.832,83.031,177.6,82c-.156-.265-.307-.537-.453-.81l-1.771,1.029c.143.274.295.545.452.813Z" fill="#a83230"/>
              <path id="Trazado_104046" data-name="Trazado 104046" d="M175.38,82.218l1.771-1.029c-.143-.27-.283-.545-.416-.82L174.963,81.4c.133.275.271.549.417.818Z" fill="#a3302e"/>
              <path id="Trazado_104047" data-name="Trazado 104047" d="M174.963,81.4l1.772-1.031c-.132-.276-.259-.557-.382-.836l-1.772,1.029q.183.422.382.838Z" fill="#9e2f2d"/>
              <path id="Trazado_104048" data-name="Trazado 104048" d="M174.581,80.562l1.772-1.029c-.125-.285-.244-.575-.354-.866L174.227,79.7c.11.289.229.578.354.863Z" fill="#992d2b"/>
              <path id="Trazado_104049" data-name="Trazado 104049" d="M174.227,79.7,176,78.667c-.116-.3-.227-.605-.326-.908l-1.773,1.03c.1.3.211.607.327.91Z" fill="#942c2a"/>
              <path id="Trazado_104050" data-name="Trazado 104050" d="M173.9,78.789l1.773-1.03q-.165-.492-.3-.984L173.6,77.806q.135.489.3.983Z" fill="#8f2a29"/>
              <path id="Trazado_104051" data-name="Trazado 104051" d="M173.6,77.806l1.773-1.031c-.1-.369-.193-.736-.272-1.106l-1.773,1.03c.077.369.169.736.272,1.107Z" fill="#8a2927"/>
              <path id="Trazado_104052" data-name="Trazado 104052" d="M173.329,76.7l1.773-1.03c-.1-.447-.172-.894-.232-1.336l-1.77,1.03q.085.665.229,1.336Z" fill="#852726"/>
              <path id="Trazado_104053" data-name="Trazado 104053" d="M173.1,75.363l1.77-1.03a14.808,14.808,0,0,1-.121-1.886c.01-3.037,1.081-5.174,2.811-6.178L175.789,67.3c-1.729,1.006-2.8,3.143-2.813,6.178a14.484,14.484,0,0,0,.124,1.887Z" fill="#802624"/>
            </g>
          </g>
        </g>
        <g id="Grupo_55431" data-name="Grupo 55431" style="isolation: isolate">
          <g id="Grupo_55430" data-name="Grupo 55430" clip-path="url(#clip-path-2)">
            <g id="Grupo_55429" data-name="Grupo 55429" style="isolation: isolate">
              <path id="Trazado_104055" data-name="Trazado 104055" d="M186.451,91.419l1.774-1.031c-.175-.012-.351-.031-.533-.06l-1.772,1.031c.182.027.356.047.531.06Z" fill="#b73634"/>
              <path id="Trazado_104056" data-name="Trazado 104056" d="M185.92,91.359l1.772-1.031a7.362,7.362,0,0,1-.846-.18l-1.775,1.031a8.549,8.549,0,0,0,.849.18Z" fill="#bc3735"/>
              <path id="Trazado_104057" data-name="Trazado 104057" d="M185.071,91.179l1.775-1.031a8.827,8.827,0,0,1-1.122-.385l-1.774,1.031a9.088,9.088,0,0,0,1.121.385Z" fill="#c13937"/>
              <path id="Trazado_104058" data-name="Trazado 104058" d="M183.95,90.794l1.774-1.031a11.038,11.038,0,0,1-1.372-.68l-1.771,1.03a11.527,11.527,0,0,0,1.369.681Z" fill="#c63a38"/>
            </g>
          </g>
        </g>
        <g id="Grupo_55432" data-name="Grupo 55432">
          <path id="Trazado_104060" data-name="Trazado 104060" d="M186.9,92.562l1.771-1.029-.446-1.145-1.773,1.031Z" fill="#a6312f"/>
        </g>
        <g id="Grupo_55433" data-name="Grupo 55433">
          <path id="Trazado_104061" data-name="Trazado 104061" d="M188.313,92.431l1.772-1.029-1.415.131L186.9,92.562Z" fill="#b73634"/>
        </g>
        <g id="Grupo_55434" data-name="Grupo 55434">
          <path id="Trazado_104062" data-name="Trazado 104062" d="M188.313,92.431l1.772-1.029-.422-1.084-1.772,1.029Z" fill="#a6312f"/>
        </g>
        <g id="Grupo_55437" data-name="Grupo 55437" style="isolation: isolate">
          <g id="Grupo_55436" data-name="Grupo 55436" clip-path="url(#clip-path-3)">
            <g id="Grupo_55435" data-name="Grupo 55435" style="isolation: isolate">
              <path id="Trazado_104063" data-name="Trazado 104063" d="M189.434,90.785l1.772-1.03-.052.03-1.773,1.031c.015-.01.034-.02.053-.031Z" fill="#992d2b"/>
              <path id="Trazado_104064" data-name="Trazado 104064" d="M189.381,90.816l1.773-1.031a4.315,4.315,0,0,1-.483.236L188.9,91.052a4.488,4.488,0,0,0,.483-.236Z" fill="#9e2f2d"/>
              <path id="Trazado_104065" data-name="Trazado 104065" d="M188.9,91.052l1.773-1.031a4.665,4.665,0,0,1-.51.18l-1.771,1.031a4.5,4.5,0,0,0,.508-.18Z" fill="#a3302e"/>
              <path id="Trazado_104066" data-name="Trazado 104066" d="M188.39,91.232l1.771-1.031a4.73,4.73,0,0,1-.5.117l-1.772,1.029a4.669,4.669,0,0,0,.5-.115Z" fill="#a83230"/>
            </g>
          </g>
        </g>
        <g id="Grupo_55440" data-name="Grupo 55440" style="isolation: isolate">
          <g id="Grupo_55439" data-name="Grupo 55439" clip-path="url(#clip-path-4)">
            <g id="Grupo_55438" data-name="Grupo 55438" style="isolation: isolate">
              <path id="Trazado_104068" data-name="Trazado 104068" d="M173.1,75.363l1.77-1.03a14.808,14.808,0,0,1-.121-1.886c.01-3.037,1.081-5.174,2.811-6.178L175.789,67.3c-1.729,1.006-2.8,3.143-2.813,6.178a14.484,14.484,0,0,0,.124,1.887Z" fill="#802624"/>
            </g>
          </g>
        </g>
        <g id="Grupo_55443" data-name="Grupo 55443" style="isolation: isolate">
          <g id="Grupo_55442" data-name="Grupo 55442" clip-path="url(#clip-path-5)">
            <g id="Grupo_55441" data-name="Grupo 55441" style="isolation: isolate">
              <path id="Trazado_104070" data-name="Trazado 104070" d="M176.855,66.845l1.775-1.029-.024.006-1.771,1.031.02-.008Z" fill="#adadad"/>
              <path id="Trazado_104071" data-name="Trazado 104071" d="M176.835,66.853l1.771-1.031A5.1,5.1,0,0,0,178.1,66l-1.772,1.032a3.946,3.946,0,0,1,.51-.18Z" fill="#a8a8a8"/>
              <path id="Trazado_104072" data-name="Trazado 104072" d="M176.325,67.033,178.1,66a4.027,4.027,0,0,0-.484.239l-1.771,1.029a4.151,4.151,0,0,1,.483-.236Z" fill="#a3a3a3"/>
              <path id="Trazado_104073" data-name="Trazado 104073" d="M175.842,67.269l1.771-1.029c-.017.008-.035.019-.053.029L175.789,67.3a.372.372,0,0,1,.053-.029Z" fill="#9e9e9e"/>
            </g>
          </g>
        </g>
        <g id="Grupo_55444" data-name="Grupo 55444">
          <path id="Trazado_104075" data-name="Trazado 104075" d="M176.855,66.845c-2.344.668-3.868,3.01-3.879,6.631-.019,6.117,4.284,13.566,9.6,16.637a9.175,9.175,0,0,0,3.87,1.306Z" fill="#f0f8ff"/>
        </g>
        <g id="Grupo_55445" data-name="Grupo 55445">
          <path id="Trazado_104076" data-name="Trazado 104076" d="M186.451,91.419l1.773-1.031L178.63,65.816l-1.774,1.029Z" fill="#acacac"/>
        </g>
        <g id="Grupo_55446" data-name="Grupo 55446">
          <path id="Trazado_104077" data-name="Trazado 104077" d="M176.855,66.845l1.774-1.029-.458-1.17L176.4,65.677Z" fill="#a6312f"/>
        </g>
        <g id="Grupo_55447" data-name="Grupo 55447">
          <path id="Trazado_104078" data-name="Trazado 104078" d="M187.892,91.347l1.772-1.029-9.643-24.7-1.774,1.029Z" fill="#a6312f"/>
        </g>
        <g id="Grupo_55448" data-name="Grupo 55448">
          <path id="Trazado_104079" data-name="Trazado 104079" d="M178.248,66.648l1.774-1.029-.433-1.105-1.773,1.029Z" fill="#a6312f"/>
        </g>
        <g id="Grupo_55449" data-name="Grupo 55449">
          <path id="Trazado_104080" data-name="Trazado 104080" d="M177.816,65.543l1.773-1.029-1.417.133L176.4,65.677Z" fill="#b63634"/>
        </g>
        <g id="Grupo_55452" data-name="Grupo 55452" style="isolation: isolate">
          <g id="Grupo_55451" data-name="Grupo 55451" clip-path="url(#clip-path-6)">
            <g id="Grupo_55450" data-name="Grupo 55450" style="isolation: isolate">
              <path id="Trazado_104081" data-name="Trazado 104081" d="M182.642,67.968l1.773-1.029a11.688,11.688,0,0,0-1.371-.68l-1.772,1.03a11.826,11.826,0,0,1,1.37.679Z" fill="#ccc"/>
              <path id="Trazado_104082" data-name="Trazado 104082" d="M181.272,67.289l1.772-1.03a9.387,9.387,0,0,0-1.122-.385l-1.773,1.03a9.281,9.281,0,0,1,1.123.385Z" fill="#c7c7c7"/>
              <path id="Trazado_104083" data-name="Trazado 104083" d="M180.149,66.9l1.773-1.03a7.352,7.352,0,0,0-.846-.179L179.3,66.724a8.3,8.3,0,0,1,.845.18Z" fill="#c2c2c2"/>
              <path id="Trazado_104084" data-name="Trazado 104084" d="M179.3,66.724l1.772-1.029a6.572,6.572,0,0,0-.716-.071l-1.771,1.03a6.622,6.622,0,0,1,.715.07Z" fill="#bdbdbd"/>
              <path id="Trazado_104085" data-name="Trazado 104085" d="M178.589,66.654l1.771-1.03c-.115,0-.227-.007-.339,0l-1.773,1.029c.112,0,.225,0,.341.006Z" fill="#b8b8b8"/>
            </g>
          </g>
        </g>
        <g id="Grupo_55453" data-name="Grupo 55453">
          <path id="Trazado_104087" data-name="Trazado 104087" d="M182.642,67.968a8.7,8.7,0,0,0-4.394-1.32l9.644,24.7c2.614-.474,4.341-2.883,4.355-6.744C192.262,78.49,187.965,71.042,182.642,67.968Z" fill="#f0f8ff"/>
        </g>
        <g id="Grupo_55456" data-name="Grupo 55456" style="isolation: isolate">
          <g id="Grupo_55455" data-name="Grupo 55455" clip-path="url(#clip-path-7)">
            <g id="Grupo_55454" data-name="Grupo 55454" style="isolation: isolate">
              <path id="Trazado_104088" data-name="Trazado 104088" d="M189.434,90.785l1.772-1.03c1.73-1.006,2.8-3.144,2.813-6.183a14.788,14.788,0,0,0-.124-1.885l-1.774,1.029a14.445,14.445,0,0,1,.126,1.887c-.011,3.039-1.084,5.178-2.813,6.182Z" fill="#858585"/>
              <path id="Trazado_104089" data-name="Trazado 104089" d="M192.121,82.716l1.774-1.029q-.087-.664-.229-1.338l-1.774,1.029c.1.45.173.9.229,1.338Z" fill="#8a8a8a"/>
              <path id="Trazado_104090" data-name="Trazado 104090" d="M191.892,81.378l1.774-1.029c-.078-.367-.17-.736-.272-1.1l-1.771,1.029q.153.556.269,1.1Z" fill="#8f8f8f"/>
              <path id="Trazado_104091" data-name="Trazado 104091" d="M191.623,80.273l1.771-1.029c-.091-.329-.189-.655-.3-.983l-1.773,1.031c.109.327.21.655.3.981Z" fill="#949494"/>
              <path id="Trazado_104092" data-name="Trazado 104092" d="M191.322,79.292l1.773-1.031c-.1-.3-.212-.607-.326-.908l-1.774,1.029c.115.3.225.606.327.91Z" fill="#999"/>
              <path id="Trazado_104093" data-name="Trazado 104093" d="M190.995,78.382l1.774-1.029c-.113-.291-.231-.578-.353-.865l-1.772,1.029c.123.287.241.574.351.865Z" fill="#9e9e9e"/>
              <path id="Trazado_104094" data-name="Trazado 104094" d="M190.644,77.517l1.772-1.029q-.183-.423-.385-.836l-1.772,1.029c.134.277.261.557.385.836Z" fill="#a3a3a3"/>
              <path id="Trazado_104095" data-name="Trazado 104095" d="M190.259,76.681l1.772-1.029q-.2-.414-.415-.821l-1.772,1.032c.142.271.283.543.415.818Z" fill="#a8a8a8"/>
              <path id="Trazado_104096" data-name="Trazado 104096" d="M189.844,75.863l1.772-1.032c-.146-.271-.3-.542-.453-.81l-1.772,1.029c.155.27.307.539.453.813Z" fill="#adadad"/>
              <path id="Trazado_104097" data-name="Trazado 104097" d="M189.391,75.05l1.772-1.029q-.238-.413-.5-.815l-1.772,1.03q.255.4.5.814Z" fill="#b3b3b3"/>
              <path id="Trazado_104098" data-name="Trazado 104098" d="M188.9,74.236l1.772-1.03c-.182-.283-.367-.56-.559-.833L188.335,73.4q.288.41.56.832Z" fill="#b8b8b8"/>
              <path id="Trazado_104099" data-name="Trazado 104099" d="M188.335,73.4l1.773-1.031c-.209-.295-.421-.584-.638-.87l-1.777,1.032q.333.424.642.869Z" fill="#bdbdbd"/>
              <path id="Trazado_104100" data-name="Trazado 104100" d="M187.693,72.535,189.47,71.5c-.257-.326-.516-.644-.785-.951l-1.772,1.029c.269.309.528.627.78.954Z" fill="#c2c2c2"/>
              <path id="Trazado_104101" data-name="Trazado 104101" d="M186.913,71.581l1.772-1.029c-.34-.39-.691-.765-1.051-1.121L185.86,70.46c.362.356.712.731,1.053,1.121Z" fill="#c7c7c7"/>
              <path id="Trazado_104102" data-name="Trazado 104102" d="M185.86,70.46l1.774-1.029a16.008,16.008,0,0,0-3.219-2.492l-1.773,1.029a16.215,16.215,0,0,1,3.218,2.492Z" fill="#ccc"/>
            </g>
          </g>
        </g>
        <g id="Grupo_55458" data-name="Grupo 55458">
          <g id="Grupo_55457" data-name="Grupo 55457">
            <path id="Trazado_104104" data-name="Trazado 104104" d="M193.947,85.583c-.021,7.2-5.111,10.1-11.373,6.481s-11.318-12.371-11.3-19.568,5.112-10.092,11.371-6.479S193.967,78.392,193.947,85.583Zm-11.366,4.53a9.175,9.175,0,0,0,3.87,1.306l.449,1.143,1.413-.131-.421-1.084c2.614-.474,4.341-2.883,4.355-6.744.015-6.113-4.282-13.561-9.6-16.635a8.7,8.7,0,0,0-4.394-1.32l-.432-1.106-1.417.135.456,1.168c-2.344.668-3.868,3.01-3.879,6.631-.019,6.117,4.284,13.566,9.6,16.637Z" fill="#f54945"/>
          </g>
        </g>
        <g id="Grupo_55459" data-name="Grupo 55459">
          <path id="Trazado_104105" data-name="Trazado 104105" d="M177.816,65.543l-1.417.135.456,1.168,9.6,24.574.449,1.143,1.413-.131-.422-1.084-9.644-24.7Z" fill="#f54945"/>
        </g>
        <path id="Trazado_104106" data-name="Trazado 104106" d="M193.857,83.931q-.039-.406-.1-.816c-.042-.3-.1-.6-.156-.9-.04-.2-.074-.412-.121-.619s-.093-.388-.143-.586c-.066-.263-.134-.531-.211-.8-.048-.156-.1-.314-.147-.472q-.141-.452-.3-.9c-.045-.125-.089-.252-.136-.377-.155-.416-.321-.832-.5-1.242-.022-.049-.043-.095-.064-.144-.163-.369-.337-.737-.518-1.1-.057-.111-.112-.222-.168-.334-.181-.346-.366-.689-.56-1.029-.034-.063-.067-.127-.1-.19-.23-.394-.471-.781-.717-1.164-.069-.109-.143-.214-.217-.322-.182-.275-.371-.545-.561-.812-.106-.143-.208-.284-.316-.424-.166-.223-.34-.442-.513-.658q-.216-.27-.437-.534c-.143-.166-.288-.328-.433-.49-.248-.275-.5-.545-.758-.807-.159-.162-.315-.322-.478-.478-.129-.121-.256-.24-.385-.357-.211-.194-.426-.379-.644-.561-.126-.107-.254-.215-.382-.318-.238-.19-.477-.368-.721-.543-.113-.078-.224-.166-.338-.244-.355-.245-.713-.477-1.079-.688-.244-.139-.479-.264-.718-.385l-.212-.1c-.175-.086-.353-.166-.528-.242-.067-.028-.134-.059-.2-.086-.165-.067-.323-.127-.486-.184-.045-.016-.09-.037-.137-.051-.2-.07-.407-.133-.607-.187-.03-.008-.062-.014-.093-.024a8.831,8.831,0,0,0-.929-.2h-.013c-.256-.041-.506-.062-.75-.078l-.159-.008c-.221-.008-.44-.006-.652.006-.038,0-.079.008-.117.01-.17.013-.34.033-.507.06-.054.008-.1.016-.156.026a5.728,5.728,0,0,0-.568.131l-.023.007c-.173.051-.342.114-.508.178l-.153.065c-.14.062-.274.128-.408.2-.047.025-.1.047-.141.074l1.773-1.031c.022-.01.039-.022.063-.035s.047-.022.07-.036c.139-.074.278-.14.42-.2.028-.013.051-.027.078-.039s.046-.015.068-.023c.166-.067.331-.129.505-.18l.026-.008.006,0c.182-.052.371-.093.565-.131.022,0,.042-.009.065-.013s.059-.006.087-.01c.17-.027.343-.049.519-.062.024,0,.051-.008.077-.008s.02,0,.029,0c.214-.012.438-.012.659,0,.02,0,.043,0,.064,0s.057.006.086.008c.249.013.5.037.757.076h0l.007,0a8.616,8.616,0,0,1,.938.2l.051.01a.126.126,0,0,1,.031.01q.3.081.615.189c.037.012.076.027.113.043.17.059.339.123.512.191a.611.611,0,0,0,.064.026c.041.017.083.039.124.056.179.078.359.161.542.248.067.034.134.065.2.1.236.121.477.246.719.387.366.209.725.441,1.081.687.117.078.228.166.345.25.24.172.475.348.712.533.129.106.259.215.388.325.216.179.429.365.638.556.129.119.257.237.384.358.08.076.163.146.239.224s.159.174.242.256c.258.264.512.533.762.811.075.088.159.166.236.252s.123.154.188.228c.15.178.3.36.446.543.094.117.192.231.287.35.074.1.145.2.223.3.1.142.211.283.313.429.073.1.148.194.22.293.114.166.224.338.34.508.074.111.15.223.223.338.031.045.061.088.091.133q.3.474.586.959c.012.021.024.043.035.066.038.065.073.131.11.2.13.229.262.457.387.69.056.107.109.217.162.324s.12.232.178.348c.047.1.1.195.147.293.128.263.248.531.366.8.02.05.046.1.067.148.007.014.013.025.019.039.144.338.284.676.415,1.016.024.062.044.125.067.187.045.125.09.25.135.373.06.17.124.34.181.51.044.133.079.264.123.4.049.159.1.315.143.471.028.1.059.192.085.287.05.172.084.344.13.516.048.195.1.389.142.584.015.066.034.133.05.2.029.139.043.275.071.414.058.305.112.608.155.91.013.082.031.164.042.246.025.188.036.371.056.557.013.137.03.275.04.412.031.42.051.838.051,1.25-.012,3.576-1.272,6.088-3.307,7.272l-1.773,1.031c2.035-1.184,3.3-3.7,3.306-7.274,0-.412-.018-.83-.05-1.252C193.888,84.2,193.87,84.064,193.857,83.931Z" fill="#e92e2d"/>
      </g>
      <g id="Grupo_55469" data-name="Grupo 55469" transform="translate(-125 -68)">
        <g id="Grupo_55468" data-name="Grupo 55468" style="isolation: isolate">
          <g id="Grupo_55461" data-name="Grupo 55461">
            <path id="Trazado_104107" data-name="Trazado 104107" d="M410.164,265.784l-2.326-1.352-5.5-3.905,2.325,1.35Z" fill="#e92e2d"/>
          </g>
          <g id="Grupo_55462" data-name="Grupo 55462">
            <path id="Trazado_104108" data-name="Trazado 104108" d="M395.219,269.974l-2.326-1.352,5.989-10.541,2.325,1.351Z" fill="#e92e2d"/>
          </g>
          <g id="Grupo_55463" data-name="Grupo 55463">
            <path id="Trazado_104109" data-name="Trazado 104109" d="M410.554,243l-2.33-1.354,3.7,2.011,2.326,1.352Z" fill="#992e2b"/>
          </g>
          <g id="Grupo_55464" data-name="Grupo 55464">
            <path id="Trazado_104110" data-name="Trazado 104110" d="M404.81,253.1l-2.325-1.35,5.74-10.109,2.33,1.354Z" fill="#e92e2d"/>
          </g>
          <g id="Grupo_55465" data-name="Grupo 55465">
            <path id="Trazado_104111" data-name="Trazado 104111" d="M401.207,259.432l-2.325-1.351L393.142,254l2.321,1.353Z" fill="#e92e2d"/>
          </g>
          <g id="Grupo_55466" data-name="Grupo 55466">
            <path id="Trazado_104112" data-name="Trazado 104112" d="M395.463,255.357,393.142,254l3.834-6.159L399.3,249.2Z" fill="#e92e2d"/>
          </g>
          <g id="Grupo_55467" data-name="Grupo 55467">
            <path id="Trazado_104113" data-name="Trazado 104113" d="M399.3,249.2l5.509,3.907,5.745-10.1,3.692,2.008-5.989,10.54L414,259.624l-3.838,6.16-5.5-3.907-5.745,10.106-3.7-2.01,5.988-10.542-5.745-4.075Z" fill="#f54945"/>
          </g>
        </g>
      </g>
      <g id="Grupo_55504" data-name="Grupo 55504" transform="translate(96 -11)">
        <g id="Grupo_55472" data-name="Grupo 55472" style="isolation: isolate">
          <g id="Grupo_55471" data-name="Grupo 55471" clip-path="url(#clip-path-8)">
            <g id="Grupo_55470" data-name="Grupo 55470" style="isolation: isolate">
              <path id="Trazado_104114" data-name="Trazado 104114" d="M48.381,183.12l1.4-.815a11.272,11.272,0,0,1-2.274-1.762l-1.4.815a11.421,11.421,0,0,0,2.276,1.762Z" fill="#c43a37"/>
              <path id="Trazado_104115" data-name="Trazado 104115" d="M46.1,181.358l1.4-.815c-.257-.252-.505-.515-.745-.793l-1.4.815q.36.412.743.793Z" fill="#bf3936"/>
              <path id="Trazado_104116" data-name="Trazado 104116" d="M45.362,180.565l1.4-.815c-.189-.218-.374-.443-.554-.671l-1.4.814c.177.229.362.453.552.672Z" fill="#ba3734"/>
              <path id="Trazado_104117" data-name="Trazado 104117" d="M44.81,179.893l1.4-.814c-.154-.2-.305-.407-.452-.618l-1.4.815c.146.209.3.416.454.617Z" fill="#b53633"/>
              <path id="Trazado_104118" data-name="Trazado 104118" d="M44.356,179.276l1.4-.815c-.136-.193-.268-.388-.394-.588l-1.4.815c.127.2.258.4.4.588Z" fill="#b03532"/>
              <path id="Trazado_104119" data-name="Trazado 104119" d="M43.961,178.688l1.4-.815c-.122-.187-.239-.38-.352-.576l-1.4.815c.113.193.229.386.351.576Z" fill="#ac3330"/>
              <path id="Trazado_104120" data-name="Trazado 104120" d="M43.61,178.112l1.4-.815c-.111-.189-.219-.381-.321-.572l-1.4.811c.1.2.21.386.321.576Z" fill="#a7322f"/>
              <path id="Trazado_104121" data-name="Trazado 104121" d="M43.289,177.536l1.4-.811c-.1-.193-.2-.387-.295-.58l-1.4.812c.093.2.193.387.3.579Z" fill="#a2302e"/>
              <path id="Trazado_104122" data-name="Trazado 104122" d="M42.994,176.957l1.4-.812c-.1-.2-.183-.393-.269-.594l-1.4.813c.084.2.174.4.268.593Z" fill="#9d2f2c"/>
              <path id="Trazado_104123" data-name="Trazado 104123" d="M42.726,176.364l1.4-.813c-.087-.2-.172-.406-.249-.611l-1.4.814c.078.205.162.411.251.61Z" fill="#982d2b"/>
              <path id="Trazado_104124" data-name="Trazado 104124" d="M42.475,175.754l1.4-.814c-.084-.213-.16-.43-.232-.645l-1.4.815q.106.322.232.644Z" fill="#932c29"/>
              <path id="Trazado_104125" data-name="Trazado 104125" d="M42.243,175.11l1.4-.815c-.077-.23-.148-.463-.212-.693l-1.4.814c.064.231.137.461.212.694Z" fill="#8e2a28"/>
              <path id="Trazado_104126" data-name="Trazado 104126" d="M42.031,174.416l1.4-.814c-.072-.262-.137-.523-.193-.785l-1.4.816c.054.258.116.52.191.783Z" fill="#892927"/>
              <path id="Trazado_104127" data-name="Trazado 104127" d="M41.84,173.633l1.4-.816c-.068-.317-.121-.631-.163-.944l-1.4.813c.039.312.093.631.163.947Z" fill="#842725"/>
              <path id="Trazado_104128" data-name="Trazado 104128" d="M41.677,172.686l1.4-.813a9.978,9.978,0,0,1-.086-1.335c0-2.149.763-3.661,1.987-4.372l-1.4.815c-1.224.711-1.981,2.223-1.987,4.371a9.957,9.957,0,0,0,.087,1.334Z" fill="#7f2624"/>
            </g>
          </g>
        </g>
        <g id="Grupo_55473" data-name="Grupo 55473">
          <path id="Trazado_104130" data-name="Trazado 104130" d="M45.555,178.159l1.4-.815-1.316-2.426-1.4.814Z" fill="#afb5ba"/>
        </g>
        <g id="Grupo_55474" data-name="Grupo 55474">
          <path id="Trazado_104131" data-name="Trazado 104131" d="M46.972,174.438l1.4-.812-2.734,1.293-1.4.814Z" fill="#9d2f2c"/>
        </g>
        <g id="Grupo_55475" data-name="Grupo 55475">
          <path id="Trazado_104132" data-name="Trazado 104132" d="M46.972,174.438l1.4-.812-2.651-4.494-1.4.814Z" fill="#b3b9be"/>
        </g>
        <g id="Grupo_55476" data-name="Grupo 55476">
          <path id="Trazado_104133" data-name="Trazado 104133" d="M48.381,176.825l1.4-.814-2.826,1.334-1.4.815Z" fill="#9a9fa3"/>
        </g>
        <g id="Grupo_55477" data-name="Grupo 55477">
          <path id="Trazado_104134" data-name="Trazado 104134" d="M48.381,176.825l1.4-.814-1.408-2.385-1.4.813Z" fill="#b73633"/>
        </g>
        <g id="Grupo_55478" data-name="Grupo 55478">
          <path id="Trazado_104135" data-name="Trazado 104135" d="M51.113,181.456l1.4-.816-2.733-4.629-1.4.814Z" fill="#b3b9be"/>
        </g>
        <g id="Grupo_55479" data-name="Grupo 55479">
          <path id="Trazado_104136" data-name="Trazado 104136" d="M44.32,169.946l1.4-.814,1.37-.828-1.4.813Z" fill="#787c80"/>
        </g>
        <g id="Grupo_55480" data-name="Grupo 55480">
          <path id="Trazado_104137" data-name="Trazado 104137" d="M45.692,169.116l-1.372.83,2.651,4.492,1.409,2.387,2.732,4.631,1.37-.83-2.649-4.49-1.405-2.385Z" fill="#f54945"/>
        </g>
        <g id="Grupo_55481" data-name="Grupo 55481">
          <path id="Trazado_104138" data-name="Trazado 104138" d="M46.972,174.438l-2.733,1.295,1.316,2.426,2.826-1.334Z" fill="#f54945"/>
        </g>
        <g id="Grupo_55484" data-name="Grupo 55484" style="isolation: isolate">
          <g id="Grupo_55483" data-name="Grupo 55483" clip-path="url(#clip-path-9)">
            <g id="Grupo_55482" data-name="Grupo 55482" style="isolation: isolate">
              <path id="Trazado_104139" data-name="Trazado 104139" d="M41.677,172.686l1.4-.813a9.978,9.978,0,0,1-.086-1.335c0-2.149.763-3.661,1.987-4.372l-1.4.815c-1.224.711-1.981,2.223-1.987,4.371a9.957,9.957,0,0,0,.087,1.334Z" fill="#7f2624"/>
            </g>
          </g>
        </g>
        <g id="Grupo_55487" data-name="Grupo 55487" style="isolation: isolate">
          <g id="Grupo_55486" data-name="Grupo 55486" clip-path="url(#clip-path-10)">
            <g id="Grupo_55485" data-name="Grupo 55485" style="isolation: isolate">
              <path id="Trazado_104141" data-name="Trazado 104141" d="M53.231,183.592l1.4-.812a.359.359,0,0,0-.038.021l-1.4.813a.287.287,0,0,0,.038-.022Z" fill="#982d2b"/>
              <path id="Trazado_104142" data-name="Trazado 104142" d="M53.193,183.614l1.4-.813a2.776,2.776,0,0,1-.343.166l-1.4.815a3.283,3.283,0,0,0,.342-.168Z" fill="#9d2f2c"/>
              <path id="Trazado_104143" data-name="Trazado 104143" d="M52.851,183.782l1.4-.815a3.25,3.25,0,0,1-.359.127l-1.4.817c.124-.038.244-.08.361-.129Z" fill="#a2302e"/>
              <path id="Trazado_104144" data-name="Trazado 104144" d="M52.49,183.911l1.4-.817a2.981,2.981,0,0,1-.384.088l-1.4.816c.131-.023.258-.054.383-.087Z" fill="#a7322f"/>
              <path id="Trazado_104145" data-name="Trazado 104145" d="M52.107,184l1.4-.816a3.623,3.623,0,0,1-.412.051l-1.4.812a3.594,3.594,0,0,0,.413-.047Z" fill="#ac3330"/>
              <path id="Trazado_104146" data-name="Trazado 104146" d="M51.694,184.045l1.4-.812c-.147.008-.3.01-.45,0l-1.4.812a3.723,3.723,0,0,0,.449,0Z" fill="#b03532"/>
              <path id="Trazado_104147" data-name="Trazado 104147" d="M51.245,184.049l1.4-.812a4.753,4.753,0,0,1-.509-.053l-1.4.814a4.5,4.5,0,0,0,.508.051Z" fill="#b53633"/>
              <path id="Trazado_104148" data-name="Trazado 104148" d="M50.737,184l1.4-.814a4.89,4.89,0,0,1-.6-.129l-1.4.817c.2.052.4.1.6.126Z" fill="#ba3734"/>
              <path id="Trazado_104149" data-name="Trazado 104149" d="M50.136,183.872l1.4-.817a6.21,6.21,0,0,1-.8-.275l-1.4.812a6.547,6.547,0,0,0,.8.28Z" fill="#bf3936"/>
              <path id="Trazado_104150" data-name="Trazado 104150" d="M49.335,183.592l1.4-.812a7.968,7.968,0,0,1-.953-.475l-1.4.815a7.521,7.521,0,0,0,.954.472Z" fill="#c43a37"/>
            </g>
          </g>
        </g>
        <g id="Grupo_55488" data-name="Grupo 55488">
          <path id="Trazado_104152" data-name="Trazado 104152" d="M48.429,173.751l1.4-.812L47.092,168.3l-1.4.813Z" fill="#b73633"/>
        </g>
        <g id="Grupo_55489" data-name="Grupo 55489">
          <path id="Trazado_104153" data-name="Trazado 104153" d="M49.834,176.135l1.4-.814-1.407-2.383-1.4.813Z" fill="#b73633"/>
        </g>
        <g id="Grupo_55490" data-name="Grupo 55490">
          <path id="Trazado_104154" data-name="Trazado 104154" d="M52.483,180.626l1.4-.814-2.65-4.49-1.4.814Z" fill="#b73633"/>
        </g>
        <g id="Grupo_55491" data-name="Grupo 55491">
          <path id="Trazado_104155" data-name="Trazado 104155" d="M51.113,181.456l1.4-.816,1.37-.828-1.4.814Z" fill="#7b2523"/>
        </g>
        <g id="Grupo_55492" data-name="Grupo 55492">
          <path id="Trazado_104156" data-name="Trazado 104156" d="M52.567,174.842l1.4-.812-2.734,1.291-1.4.814Z" fill="#9a9fa3"/>
        </g>
        <g id="Grupo_55493" data-name="Grupo 55493">
          <path id="Trazado_104157" data-name="Trazado 104157" d="M51.247,172.417l1.4-.814-2.822,1.336-1.4.813Z" fill="#9d2f2c"/>
        </g>
        <g id="Grupo_55494" data-name="Grupo 55494">
          <path id="Trazado_104158" data-name="Trazado 104158" d="M52.567,174.842l1.4-.812L52.649,171.6l-1.4.814Z" fill="#b33532"/>
        </g>
        <g id="Grupo_55497" data-name="Grupo 55497" style="isolation: isolate">
          <g id="Grupo_55496" data-name="Grupo 55496" clip-path="url(#clip-path-11)">
            <g id="Grupo_55495" data-name="Grupo 55495" style="isolation: isolate">
              <path id="Trazado_104159" data-name="Trazado 104159" d="M53.231,183.592l1.4-.812c1.223-.713,1.982-2.223,1.989-4.373a10.079,10.079,0,0,0-.089-1.332l-1.4.814a10.086,10.086,0,0,1,.088,1.332c-.007,2.149-.766,3.662-1.99,4.371Z" fill="#7d8185"/>
              <path id="Trazado_104160" data-name="Trazado 104160" d="M55.133,177.889l1.4-.814c-.039-.313-.1-.629-.161-.946l-1.4.817c.067.314.122.631.162.943Z" fill="#82868a"/>
              <path id="Trazado_104161" data-name="Trazado 104161" d="M54.971,176.946l1.4-.817c-.056-.259-.118-.519-.191-.781l-1.4.817c.072.257.137.521.192.781Z" fill="#868b8f"/>
              <path id="Trazado_104162" data-name="Trazado 104162" d="M54.779,176.165l1.4-.817c-.064-.23-.136-.463-.212-.693l-1.4.814c.077.231.148.461.212.7Z" fill="#8b9094"/>
              <path id="Trazado_104163" data-name="Trazado 104163" d="M54.567,175.469l1.4-.814c-.073-.215-.148-.43-.23-.643l-1.4.815c.083.213.159.427.23.642Z" fill="#909599"/>
              <path id="Trazado_104164" data-name="Trazado 104164" d="M54.337,174.827l1.4-.815c-.08-.2-.164-.408-.251-.611l-1.4.814c.089.2.173.407.251.612Z" fill="#959a9e"/>
              <path id="Trazado_104165" data-name="Trazado 104165" d="M54.086,174.215l1.4-.814c-.086-.2-.175-.4-.27-.592l-1.4.814q.144.294.271.592Z" fill="#9a9fa3"/>
              <path id="Trazado_104166" data-name="Trazado 104166" d="M53.815,173.623l1.4-.814c-.094-.193-.192-.387-.295-.58l-1.4.814c.1.192.2.387.293.58Z" fill="#9ea4a8"/>
              <path id="Trazado_104167" data-name="Trazado 104167" d="M53.522,173.043l1.4-.814c-.1-.191-.21-.383-.32-.572l-1.4.814c.111.19.217.379.319.572Z" fill="#a3a9ad"/>
              <path id="Trazado_104168" data-name="Trazado 104168" d="M53.2,172.471l1.4-.814c-.114-.2-.23-.387-.351-.576l-1.4.812c.121.191.24.381.353.578Z" fill="#a8aeb3"/>
              <path id="Trazado_104169" data-name="Trazado 104169" d="M52.85,171.893l1.4-.812c-.127-.2-.259-.4-.4-.59l-1.4.814c.137.193.268.389.395.588Z" fill="#adb3b8"/>
              <path id="Trazado_104170" data-name="Trazado 104170" d="M52.455,171.3l1.4-.814c-.147-.209-.3-.416-.453-.616l-1.4.815q.233.3.452.615Z" fill="#b2b8bd"/>
              <path id="Trazado_104171" data-name="Trazado 104171" d="M52,170.69l1.4-.815q-.269-.345-.553-.673l-1.4.814c.192.217.374.441.554.674Z" fill="#b6bcc2"/>
              <path id="Trazado_104172" data-name="Trazado 104172" d="M51.449,170.016l1.4-.814q-.363-.417-.745-.795l-1.4.816c.256.25.5.516.745.793Z" fill="#bbc1c7"/>
              <path id="Trazado_104173" data-name="Trazado 104173" d="M50.7,169.223l1.4-.816a11.564,11.564,0,0,0-2.279-1.764l-1.4.814a11.32,11.32,0,0,1,2.278,1.766Z" fill="#c0c6cc"/>
            </g>
          </g>
        </g>
        <g id="Grupo_55498" data-name="Grupo 55498">
          <path id="Trazado_104175" data-name="Trazado 104175" d="M55.221,179.221c-.015,4.324-3.077,6.072-6.84,3.9a14.974,14.974,0,0,1-6.791-11.768c.011-4.324,3.07-6.068,6.836-3.9A14.978,14.978,0,0,1,55.221,179.221Zm-9.666-1.062,2.826-1.334,2.732,4.631,1.37-.831-2.649-4.49,2.733-1.293-1.32-2.426-2.818,1.334-2.737-4.634-1.372.83,2.652,4.492-2.734,1.295,1.317,2.426Z" fill="#f0f8ff"/>
        </g>
        <g id="Grupo_55501" data-name="Grupo 55501" style="isolation: isolate">
          <g id="Grupo_55500" data-name="Grupo 55500" clip-path="url(#clip-path-12)">
            <g id="Grupo_55499" data-name="Grupo 55499" style="isolation: isolate">
              <path id="Trazado_104176" data-name="Trazado 104176" d="M48.426,167.457l1.4-.814a8.492,8.492,0,0,0-.955-.477l-1.4.817a8.077,8.077,0,0,1,.957.474Z" fill="#c0c6cc"/>
              <path id="Trazado_104177" data-name="Trazado 104177" d="M47.469,166.983l1.4-.817a6.484,6.484,0,0,0-.8-.275l-1.4.813a6.4,6.4,0,0,1,.8.279Z" fill="#bbc1c7"/>
              <path id="Trazado_104178" data-name="Trazado 104178" d="M46.666,166.7l1.4-.813a5.26,5.26,0,0,0-.6-.129l-1.4.815a5.129,5.129,0,0,1,.6.127Z" fill="#b6bcc2"/>
              <path id="Trazado_104179" data-name="Trazado 104179" d="M46.067,166.577l1.4-.815a4.8,4.8,0,0,0-.508-.051l-1.4.815a4.487,4.487,0,0,1,.507.051Z" fill="#b2b8bd"/>
              <path id="Trazado_104180" data-name="Trazado 104180" d="M45.56,166.526l1.4-.815a4.244,4.244,0,0,0-.452,0l-1.4.815a3.761,3.761,0,0,1,.451,0Z" fill="#adb3b8"/>
              <path id="Trazado_104181" data-name="Trazado 104181" d="M45.109,166.53l1.4-.815c-.139.01-.277.024-.411.047l-1.4.817a3.459,3.459,0,0,1,.412-.049Z" fill="#a8aeb3"/>
              <path id="Trazado_104182" data-name="Trazado 104182" d="M44.7,166.579l1.4-.817a3.76,3.76,0,0,0-.384.09l-1.4.814a2.715,2.715,0,0,1,.382-.087Z" fill="#a3a9ad"/>
              <path id="Trazado_104183" data-name="Trazado 104183" d="M44.315,166.666l1.4-.814a3.388,3.388,0,0,0-.359.125l-1.4.816a2.985,2.985,0,0,1,.359-.127Z" fill="#9ea4a8"/>
              <path id="Trazado_104184" data-name="Trazado 104184" d="M43.956,166.793l1.4-.816c-.116.051-.229.107-.34.168l-1.4.814a3.618,3.618,0,0,1,.343-.166Z" fill="#9a9fa3"/>
              <path id="Trazado_104185" data-name="Trazado 104185" d="M43.613,166.959l1.4-.814-.038.021-1.4.815.036-.022Z" fill="#959a9e"/>
            </g>
          </g>
        </g>
        <g id="Grupo_55502" data-name="Grupo 55502">
          <path id="Trazado_104187" data-name="Trazado 104187" d="M57.136,180.327c-.016,5.543-3.94,7.779-8.763,4.994s-8.719-9.539-8.7-15.078,3.941-7.778,8.762-4.993S57.151,174.788,57.136,180.327Zm-8.755,2.793c3.763,2.173,6.825.425,6.84-3.9a14.978,14.978,0,0,0-6.8-11.764c-3.766-2.173-6.825-.429-6.836,3.9a14.974,14.974,0,0,0,6.791,11.768Z" fill="#f54945"/>
        </g>
        <g id="Grupo_55503" data-name="Grupo 55503">
          <path id="Trazado_104188" data-name="Trazado 104188" d="M52.567,174.842l-1.32-2.426-2.818,1.334,1.405,2.385Z" fill="#f54945"/>
        </g>
        <path id="Trazado_104189" data-name="Trazado 104189" d="M57.069,179.071c-.022-.217-.047-.434-.079-.653s-.072-.445-.116-.668c-.03-.168-.059-.337-.1-.5-.029-.143-.068-.284-.1-.424-.052-.215-.107-.43-.171-.647-.033-.115-.07-.228-.1-.344-.076-.236-.154-.474-.24-.71-.033-.1-.067-.19-.1-.286-.12-.322-.25-.642-.389-.963-.014-.029-.026-.062-.041-.091-.127-.287-.264-.573-.4-.858-.046-.088-.088-.176-.134-.265-.138-.268-.28-.53-.43-.789-.025-.049-.052-.1-.078-.147-.177-.305-.364-.605-.557-.9-.049-.078-.1-.157-.155-.235-.145-.218-.3-.433-.447-.642-.079-.11-.158-.217-.239-.324-.126-.168-.258-.334-.389-.5-.114-.142-.23-.283-.346-.419s-.22-.252-.331-.379c-.19-.209-.383-.412-.576-.614-.127-.127-.252-.255-.382-.379-.1-.089-.189-.179-.285-.267-.166-.149-.33-.293-.5-.434-.1-.082-.2-.166-.3-.246-.178-.144-.36-.279-.543-.412-.089-.064-.179-.133-.269-.2-.273-.186-.55-.365-.831-.528s-.538-.293-.805-.418l-.195-.089c-.258-.116-.512-.219-.762-.3a.289.289,0,0,1-.039-.012c-.219-.074-.432-.129-.644-.179-.121-.03-.239-.055-.356-.077-.153-.029-.308-.054-.46-.072-.087-.008-.178-.019-.267-.027-.189-.01-.375-.016-.555-.008-.043,0-.088,0-.132,0a4.369,4.369,0,0,0-.646.08c-.051.01-.1.021-.148.033a4.255,4.255,0,0,0-.486.141c-.049.019-.1.033-.145.051a4.065,4.065,0,0,0-.572.273c.466-.271.93-.545,1.4-.814a.464.464,0,0,1,.048-.028,4.131,4.131,0,0,1,.438-.215l.088-.029c.046-.019.1-.035.145-.053.075-.025.151-.058.23-.08s.169-.039.256-.058a1.5,1.5,0,0,1,.147-.035c.029-.006.057-.016.087-.02a4.28,4.28,0,0,1,.528-.061h.032c.043,0,.088,0,.13,0,.137-.005.274-.011.416,0,.045,0,.093.009.142.013.087.006.177.016.268.026s.158.011.239.025.146.033.218.045c.117.021.237.047.357.076.067.016.129.024.195.043.146.039.3.086.448.137a.174.174,0,0,0,.039.011c.18.063.36.129.541.2.074.031.145.068.216.1s.136.061.2.092c.262.127.53.26.8.418s.559.34.833.529c.086.059.169.123.254.186.188.133.375.273.558.42.1.078.2.16.295.242.167.141.332.285.5.435.1.088.2.182.293.272.063.059.125.113.185.172s.122.133.186.2q.3.3.589.631c.058.062.122.123.179.189s.1.118.144.174c.117.137.231.28.346.424.074.09.149.174.218.266.061.076.115.156.174.232.081.109.162.219.242.33.054.076.113.151.166.227.092.129.176.259.263.392.059.088.12.172.176.26l.068.1c.154.242.305.488.451.738a.339.339,0,0,0,.027.043c.033.062.064.121.1.183q.146.252.284.51c.043.078.078.16.118.237.053.1.1.2.15.292.036.073.074.143.109.213.1.2.183.4.273.6.019.045.042.09.063.137l.012.025c.112.262.221.524.32.785.018.049.033.1.051.145.038.1.07.191.1.287l.142.393c.032.1.058.2.092.3.037.123.075.242.109.367.025.073.048.147.069.223.037.135.065.268.1.4s.074.293.108.439c.011.053.028.1.04.16.024.111.036.221.057.332.042.229.083.455.118.682.008.064.022.131.033.195.018.152.028.3.044.445.007.1.022.2.027.295.025.325.041.649.038.969-.008,2.752-.978,4.69-2.549,5.6l-1.4.814c1.568-.91,2.54-2.847,2.548-5.6,0-.317-.013-.641-.039-.969C57.089,179.262,57.078,179.166,57.069,179.071Z" fill="#e92e2d"/>
      </g>
      <g id="Grupo_55514" data-name="Grupo 55514" transform="translate(150 -24)">
        <g id="Grupo_55509" data-name="Grupo 55509">
          <g id="Grupo_55508" data-name="Grupo 55508">
            <g id="Grupo_55506" data-name="Grupo 55506">
              <g id="Grupo_55505" data-name="Grupo 55505">
                <path id="Trazado_104190" data-name="Trazado 104190" d="M86.895,325.732c-.025,8.163-5.8,11.455-12.9,7.354S61.146,319.047,61.171,310.88s5.8-11.451,12.9-7.354S86.915,317.571,86.895,325.732ZM74,330.872a10.423,10.423,0,0,0,4.394,1.48l.509,1.3,1.6-.148-.48-1.23c2.968-.539,4.929-3.271,4.944-7.653.018-6.937-4.86-15.388-10.9-18.876a9.916,9.916,0,0,0-4.987-1.5l-.491-1.253-1.606.153.518,1.325c-2.661.758-4.391,3.416-4.4,7.523-.022,6.94,4.862,15.4,10.9,18.88Z" fill="#e92e2d"/>
              </g>
            </g>
            <g id="Grupo_55507" data-name="Grupo 55507">
              <path id="Trazado_104191" data-name="Trazado 104191" d="M68.589,302.991l-1.605.152.518,1.325,10.888,27.883.51,1.3,1.6-.148-.479-1.229L69.08,304.244Z" fill="#e92e2d"/>
            </g>
          </g>
        </g>
        <g id="Grupo_55513" data-name="Grupo 55513">
          <g id="Grupo_55511" data-name="Grupo 55511">
            <g id="Grupo_55510" data-name="Grupo 55510">
              <path id="Trazado_104192" data-name="Trazado 104192" d="M85.872,326.389c-.023,8.165-5.8,11.455-12.9,7.353s-12.843-14.039-12.819-22.2,5.8-11.453,12.9-7.355S85.893,318.227,85.872,326.389Zm-12.9,5.139a10.365,10.365,0,0,0,4.392,1.48l.509,1.3,1.6-.147L79,332.928c2.965-.541,4.929-3.272,4.943-7.656.018-6.935-4.86-15.385-10.9-18.875a9.867,9.867,0,0,0-4.985-1.495l-.491-1.257-1.606.154.516,1.326c-2.66.758-4.39,3.416-4.4,7.523-.02,6.94,4.86,15.394,10.9,18.88Z" fill="#f54945"/>
            </g>
          </g>
          <g id="Grupo_55512" data-name="Grupo 55512">
            <path id="Trazado_104193" data-name="Trazado 104193" d="M67.567,303.646l-1.606.153.517,1.326,10.889,27.883.509,1.3,1.6-.146L79,332.928,68.058,304.9Z" fill="#f54945"/>
          </g>
        </g>
      </g>
    </g>
  </g>
</svg>
