<svg xmlns="http://www.w3.org/2000/svg" width="86.55" height="86.695" viewBox="0 0 86.55 86.695">
  <g id="Grupo_54895" data-name="Grupo 54895" transform="translate(-494.327 -5448)">
    <circle id="Elipse_4055" data-name="Elipse 4055" cx="37.457" cy="37.457" r="37.457" transform="translate(500.208 5454.331)" fill="#59ffcc"/>
    <g id="redes-sociales" transform="translate(494.327 5448)">
      <g id="Grupo_54876" data-name="Grupo 54876" transform="translate(24.426 1.266)">
        <path id="Trazado_101397" data-name="Trazado 101397" d="M171.9,7.489a.514.514,0,0,0-.587.274,7.066,7.066,0,0,1-6.363,3.992H153.9a9.218,9.218,0,0,0-9.217,9.218v9.213h32.091V24.269a9.4,9.4,0,0,1,.982-4.14A8.973,8.973,0,0,0,171.9,7.489Z" transform="translate(-144.685 -7.474)" fill="#7a402b"/>
      </g>
      <g id="Grupo_54877" data-name="Grupo 54877" transform="translate(50.089 1.266)">
        <path id="Trazado_101398" data-name="Trazado 101398" d="M297.79,7.489a.514.514,0,0,0-.587.274,7.074,7.074,0,0,1-.962,1.474,8.991,8.991,0,0,1,2.373,10.892,9.4,9.4,0,0,0-.982,4.14l.005,5.916h5.032V24.269a9.4,9.4,0,0,1,.982-4.14,8.973,8.973,0,0,0-5.861-12.64Z" transform="translate(-296.242 -7.474)" fill="#523838"/>
      </g>
      <g id="Grupo_54878" data-name="Grupo 54878" transform="translate(3.787 42.553)">
        <path id="Trazado_101399" data-name="Trazado 101399" d="M70.863,260.982a.918.918,0,0,1-.918-.918v-8.757H49.713v8.757a.918.918,0,0,1-.918.918,26,26,0,0,0-26,26v.816a1.418,1.418,0,0,0,1.418,1.418H95.443a1.418,1.418,0,0,0,1.418-1.418v-.816A26,26,0,0,0,70.863,260.982Z" transform="translate(-22.797 -251.306)" fill="#ffcbbe"/>
      </g>
      <g id="Grupo_54879" data-name="Grupo 54879" transform="translate(45.926 42.553)">
        <path id="Trazado_101400" data-name="Trazado 101400" d="M277.582,260.982a.918.918,0,0,1-.918-.918v-8.757h-5.01v12.461a.918.918,0,0,0,.918.918,26,26,0,0,1,25.956,24.529h3.634a1.418,1.418,0,0,0,1.418-1.418v-.816A26,26,0,0,0,277.582,260.982Z" transform="translate(-271.654 -251.306)" fill="#eaac9d"/>
      </g>
      <path id="Trazado_101401" data-name="Trazado 101401" d="M156.578,133.675h-.461v-5.169a3.5,3.5,0,0,0-3.495-3.495H127.5a3.5,3.5,0,0,0-3.495,3.495v5.169h-.461a3.75,3.75,0,0,0-3.75,3.75v1.433a6.027,6.027,0,0,0,5.864,6.024,21.47,21.47,0,0,0,4.494,6.781l1.217,1.24a12.175,12.175,0,0,0,17.38,0l1.217-1.24a21.468,21.468,0,0,0,4.493-6.781,6.027,6.027,0,0,0,5.864-6.024v-1.433A3.75,3.75,0,0,0,156.578,133.675Z" transform="translate(-99.587 -103.843)" fill="#ffddce"/>
      <path id="Trazado_101402" data-name="Trazado 101402" d="M243.633,133.675h-.461v-5.169a3.5,3.5,0,0,0-3.495-3.495h-1.553l.01,11.612a21.473,21.473,0,0,1-6.147,15.04l-1.217,1.24a12.112,12.112,0,0,1-6.172,3.383,12.162,12.162,0,0,0,11.209-3.383l1.217-1.24a21.469,21.469,0,0,0,4.493-6.781,6.027,6.027,0,0,0,5.864-6.024v-1.433A3.75,3.75,0,0,0,243.633,133.675Z" transform="translate(-186.642 -103.843)" fill="#ffcbbe"/>
      <g id="Grupo_54882" data-name="Grupo 54882" transform="translate(1.266 26.548)">
        <g id="Grupo_54881" data-name="Grupo 54881">
          <g id="Grupo_54880" data-name="Grupo 54880">
            <path id="Trazado_101403" data-name="Trazado 101403" d="M18.856,162.089h1.3a.337.337,0,0,0,.337-.337v-4.63a.337.337,0,0,0-.337-.337h-1.3a8.119,8.119,0,0,0-8.119,8.119v1.182a.225.225,0,0,1-.225.225H8.244a.337.337,0,0,0-.337.337v4.63a.337.337,0,0,0,.337.337h2.269a.225.225,0,0,1,.225.225v9.129a.337.337,0,0,0,.337.337H15.7a.337.337,0,0,0,.337-.337v-9.129a.225.225,0,0,1,.225-.225h2.269a.337.337,0,0,0,.337-.337v-4.63a.337.337,0,0,0-.337-.337H16.266a.225.225,0,0,1-.225-.225V164.9A2.815,2.815,0,0,1,18.856,162.089Z" transform="translate(-7.907 -156.785)" fill="#4278c3"/>
          </g>
        </g>
      </g>
      <g id="Grupo_54883" data-name="Grupo 54883" transform="translate(6.028 26.548)">
        <path id="Trazado_101404" data-name="Trazado 101404" d="M43.52,156.784h-1.3a8.153,8.153,0,0,0-1.465.134.334.334,0,0,1,.069.2v4.63a.337.337,0,0,1-.337.337h-1.3a2.815,2.815,0,0,0-2.815,2.815v1.182a.225.225,0,0,0,.225.225H38.86a.337.337,0,0,1,.337.337v4.63a.337.337,0,0,1-.337.337H36.591a.225.225,0,0,0-.225.225v9.13a.337.337,0,0,1-.337.337h3.035a.337.337,0,0,0,.337-.337v-9.129a.224.224,0,0,1,.225-.225H41.9a.337.337,0,0,0,.337-.337v-4.63a.337.337,0,0,0-.337-.337H39.627a.224.224,0,0,1-.225-.225V164.9a2.815,2.815,0,0,1,2.815-2.815h1.3a.337.337,0,0,0,.337-.337v-4.63a.337.337,0,0,0-.337-.337Z" transform="translate(-36.03 -156.784)" fill="#335995"/>
      </g>
      <g id="Grupo_54884" data-name="Grupo 54884" transform="translate(3.787 52.96)">
        <path id="Trazado_101405" data-name="Trazado 101405" d="M77,312.766a9.993,9.993,0,0,1-9.936,8.932H52.59a9.993,9.993,0,0,1-9.936-8.932A26.007,26.007,0,0,0,22.8,338.033v.816a1.418,1.418,0,0,0,1.418,1.418H95.442a1.418,1.418,0,0,0,1.418-1.418v-.816A26.007,26.007,0,0,0,77,312.766Z" transform="translate(-22.796 -312.766)" fill="#dd5790"/>
      </g>
      <g id="Grupo_54886" data-name="Grupo 54886" transform="translate(20.96 65.988)">
        <g id="Grupo_54885" data-name="Grupo 54885">
          <path id="Trazado_101406" data-name="Trazado 101406" d="M146.6,403.382a10.8,10.8,0,0,1-1.16-.063.179.179,0,0,1-.109-.3l0,0a10.828,10.828,0,0,0,1.854-12.5.362.362,0,0,0-.627-.033,10.823,10.823,0,0,1-7.785,4.923.121.121,0,0,1-.135-.115,5.891,5.891,0,0,0-11.1-2.411.242.242,0,0,1-.214.131h-2.817a.241.241,0,0,0-.216.348,4.089,4.089,0,0,0,1.272,1.489.12.12,0,0,1-.019.207l-1.192.554a.241.241,0,0,0-.048.408,4.043,4.043,0,0,0,2.52.879.241.241,0,0,1,.231.185,5.9,5.9,0,0,0,3.17,3.846.366.366,0,0,1,.2.235,10.829,10.829,0,0,0,20.049,2.182.362.362,0,0,0-.439-.509A10.8,10.8,0,0,1,146.6,403.382Z" transform="translate(-124.215 -389.708)" fill="#4278c3"/>
        </g>
      </g>
      <g id="Grupo_54888" data-name="Grupo 54888" transform="translate(34.927 66.59)">
        <g id="Grupo_54887" data-name="Grupo 54887">
          <path id="Trazado_101407" data-name="Trazado 101407" d="M218.552,405.782a10.813,10.813,0,0,1-4.591.493.179.179,0,0,1-.109-.3l0,0a10.828,10.828,0,0,0,1.854-12.5.362.362,0,0,0-.627-.033,10.838,10.838,0,0,1-3.66,3.525,10.8,10.8,0,0,1-2.955,9.012l0,0a.179.179,0,0,0,.109.3,10.815,10.815,0,0,0,4.591-.493.362.362,0,0,1,.439.51,10.849,10.849,0,0,1-6.9,5.475,10.84,10.84,0,0,0,12.292-5.475A.362.362,0,0,0,218.552,405.782Z" transform="translate(-206.7 -393.266)" fill="#335995"/>
        </g>
      </g>
      <g id="Grupo_54889" data-name="Grupo 54889" transform="translate(56.212 52.96)">
        <path id="Trazado_101408" data-name="Trazado 101408" d="M334.183,312.766a9.937,9.937,0,0,1-1.781,4.713,26.012,26.012,0,0,1,16.588,22.788h3.634a1.418,1.418,0,0,0,1.418-1.418v-.816A26.007,26.007,0,0,0,334.183,312.766Z" transform="translate(-332.402 -312.766)" fill="#da387d"/>
      </g>
      <g id="Grupo_54890" data-name="Grupo 54890" transform="translate(66.383 44.216)">
        <path id="Trazado_101409" data-name="Trazado 101409" d="M406.775,280.029h-9.7a4.6,4.6,0,0,1-4.6-4.6v-9.7a4.6,4.6,0,0,1,4.6-4.6h9.7a4.6,4.6,0,0,1,4.6,4.6v9.7A4.6,4.6,0,0,1,406.775,280.029Z" transform="translate(-392.473 -261.129)" fill="#bed8fb"/>
      </g>
      <g id="Grupo_54891" data-name="Grupo 54891" transform="translate(66.61 44.442)">
        <path id="Trazado_101410" data-name="Trazado 101410" d="M409.321,262.464a4.576,4.576,0,0,1,.226,1.422V275.67a2.532,2.532,0,0,1-2.532,2.532H395.231a4.576,4.576,0,0,1-1.422-.226,4.585,4.585,0,0,0,4.358,3.162H407.9a4.584,4.584,0,0,0,4.584-4.584v-9.732A4.585,4.585,0,0,0,409.321,262.464Z" transform="translate(-393.809 -262.464)" fill="#9dc6fb"/>
      </g>
      <g id="Grupo_54892" data-name="Grupo 54892" transform="translate(72.321 50.154)">
        <circle id="Elipse_4148" data-name="Elipse 4148" cx="3.512" cy="3.512" r="3.512" fill="#4278c3"/>
      </g>
      <g id="Grupo_54893" data-name="Grupo 54893" transform="translate(72.415 50.248)">
        <path id="Trazado_101411" data-name="Trazado 101411" d="M432.309,296.752a3.5,3.5,0,0,1-4.213,4.213,3.511,3.511,0,1,0,4.213-4.213Z" transform="translate(-428.096 -296.752)" fill="#335995"/>
      </g>
      <g id="Grupo_54894" data-name="Grupo 54894" transform="translate(0 0)">
        <path id="Trazado_101412" data-name="Trazado 101412" d="M3.259,174.756a1.6,1.6,0,0,0,1.6,1.6h4.63a1.6,1.6,0,0,0,1.6-1.6v-8.088h1.227a1.6,1.6,0,0,0,1.6-1.6v-4.63a1.6,1.6,0,0,0-1.6-1.6H11.1v-.14a1.551,1.551,0,0,1,1.549-1.549h1.3a1.6,1.6,0,0,0,1.6-1.6v-4.63a1.6,1.6,0,0,0-1.6-1.6h-1.3a9.4,9.4,0,0,0-9.385,9.385v.14H2.032a1.6,1.6,0,0,0-1.6,1.6v4.63a1.6,1.6,0,0,0,1.6,1.6H3.259Zm-.3-10.62v-2.772H4.3a1.492,1.492,0,0,0,1.491-1.491v-1.182a6.86,6.86,0,0,1,6.853-6.853h.374v2.772h-.374a4.086,4.086,0,0,0-4.081,4.081v1.182a1.492,1.492,0,0,0,1.491,1.491h1.339v2.772H10.054a1.492,1.492,0,0,0-1.491,1.491v8.2H5.791v-8.2A1.492,1.492,0,0,0,4.3,164.136Z" transform="translate(-0.429 -124.025)"/>
        <path id="Trazado_101413" data-name="Trazado 101413" d="M215.731,237.064a6.584,6.584,0,0,0,4.423-1.7,1.266,1.266,0,0,0-1.7-1.878,4.064,4.064,0,0,1-5.45,0,1.266,1.266,0,1,0-1.7,1.878A6.582,6.582,0,0,0,215.731,237.064Z" transform="translate(-175.254 -193.676)"/>
        <path id="Trazado_101414" data-name="Trazado 101414" d="M59.174,379.914a9.506,9.506,0,0,1-1.916.426,12.079,12.079,0,0,0,.6-12.123,1.628,1.628,0,0,0-2.819-.133,9.607,9.607,0,0,1-1.2,1.523,9.436,9.436,0,0,1-4.566,2.622,7.159,7.159,0,0,0-12.99-2.2H34.051a1.507,1.507,0,0,0-1.349,2.18,5.343,5.343,0,0,0,.409.684,1.508,1.508,0,0,0-.051,2.4,5.36,5.36,0,0,0,2.537,1.1,7.138,7.138,0,0,0,3.26,3.773c.109.356.235.7.375,1.042H18a.152.152,0,0,1-.152-.152v-.816a24.536,24.536,0,0,1,4.8-14.648,1.266,1.266,0,1,0-2.039-1.5,27.051,27.051,0,0,0-5.3,16.149v.816A2.687,2.687,0,0,0,18,383.736H40.648a12.092,12.092,0,0,0,20.488-1.524,1.628,1.628,0,0,0-1.962-2.3Zm-8.757,6.258a9.573,9.573,0,0,1-9.229-7.061,1.632,1.632,0,0,0-.873-1.046,4.614,4.614,0,0,1-2.489-3.019,1.505,1.505,0,0,0-1.457-1.135l-.125,0a1.381,1.381,0,0,0,.007-1.35h.617a1.5,1.5,0,0,0,1.335-.81,4.625,4.625,0,0,1,8.718,1.891,1.388,1.388,0,0,0,1.556,1.305,12.119,12.119,0,0,0,7.173-3.573q.281-.29.543-.6a9.55,9.55,0,0,1-2.224,9.647v0l0,0a1.445,1.445,0,0,0,.881,2.444,12.12,12.12,0,0,0,2.824-.025,9.534,9.534,0,0,1-7.255,3.331Z" transform="translate(-12.796 -302.009)"/>
        <circle id="Elipse_4149" data-name="Elipse 4149" cx="1.818" cy="1.818" r="1.818" transform="matrix(0.987, -0.16, 0.16, 0.987, 31.062, 29.872)"/>
        <circle id="Elipse_4150" data-name="Elipse 4150" cx="1.818" cy="1.818" r="1.818" transform="matrix(0.987, -0.16, 0.16, 0.987, 45.703, 29.874)"/>
        <path id="Trazado_101415" data-name="Trazado 101415" d="M136.584,42.949h-9.732A5.857,5.857,0,0,0,121,48.8v5.6a27.126,27.126,0,0,0-12.916-3.441V47.71a22.6,22.6,0,0,0,3.534-5.473,7.277,7.277,0,0,0,6.272-7.206V33.569a5.013,5.013,0,0,0-4.211-4.942l-.013-10.566a8.192,8.192,0,0,1,.852-3.583A10.24,10.24,0,0,0,107.827.051,1.788,1.788,0,0,0,105.8,1a5.762,5.762,0,0,1-5.223,3.277H89.528a10.509,10.509,0,0,0-4.84,1.182,1.266,1.266,0,0,0,1.171,2.245,7.86,7.86,0,0,1,3.669-.9h11.044a8.39,8.39,0,0,0,7.2-4.142,7.71,7.71,0,0,1,4.473,10.693,10.736,10.736,0,0,0-1.111,4.7v2.389a4.731,4.731,0,0,0-2.215-.549H83.8a4.731,4.731,0,0,0-2.225.554V14.763a7.862,7.862,0,0,1,.9-3.675,1.266,1.266,0,1,0-2.245-1.172,10.513,10.513,0,0,0-1.186,4.847l0,13.864a5.013,5.013,0,0,0-4.211,4.942v1.462A7.277,7.277,0,0,0,81.1,42.237a22.614,22.614,0,0,0,4.219,6.225v2.5a27.258,27.258,0,0,0-17.706,6.831,1.266,1.266,0,1,0,1.677,1.9,24.685,24.685,0,0,1,9.23-5.145,11.226,11.226,0,0,0,10.943,8.61h14.475a11.226,11.226,0,0,0,10.944-8.614A24.57,24.57,0,0,1,121,57.351v1.18a5.857,5.857,0,0,0,5.85,5.85h1.378a24.57,24.57,0,0,1,4.24,13.844v.816a.152.152,0,0,1-.152.152h-23.5a1.266,1.266,0,1,0,0,2.532h23.5A2.687,2.687,0,0,0,135,79.041v-.816a27.093,27.093,0,0,0-3.771-13.844h5.353a5.857,5.857,0,0,0,5.85-5.85V48.8a5.857,5.857,0,0,0-5.85-5.85ZM81.991,39.772a4.771,4.771,0,0,1-4.628-4.741V33.569A2.475,2.475,0,0,1,79.836,31.1h.472a1.266,1.266,0,0,0,1.266-1.266V24.661A2.231,2.231,0,0,1,83.8,22.433H108.92a2.231,2.231,0,0,1,2.229,2.228V29.83a1.266,1.266,0,0,0,1.266,1.266h.472a2.475,2.475,0,0,1,2.473,2.473v1.462a4.771,4.771,0,0,1-4.628,4.741,1.266,1.266,0,0,0-1.138.779,20.118,20.118,0,0,1-4.228,6.381l-1.217,1.24a10.909,10.909,0,0,1-15.573,0l-1.217-1.24a20.121,20.121,0,0,1-4.228-6.381,1.266,1.266,0,0,0-1.138-.779Zm21.95,20.853H89.466a8.7,8.7,0,0,1-8.484-6.683,24.77,24.77,0,0,1,4.688-.449,2.187,2.187,0,0,0,2.185-2.185v-.371a13.436,13.436,0,0,0,17.7-.6v.974a2.187,2.187,0,0,0,2.185,2.185,24.882,24.882,0,0,1,4.688.445,8.7,8.7,0,0,1-8.485,6.686Zm35.96-2.094a3.322,3.322,0,0,1-3.318,3.318h-9.732a3.322,3.322,0,0,1-3.318-3.318V48.8a3.322,3.322,0,0,1,3.318-3.318h9.732A3.322,3.322,0,0,1,139.9,48.8Z" transform="translate(-55.884 0.001)"/>
        <path id="Trazado_101416" data-name="Trazado 101416" d="M424.842,288.721a4.778,4.778,0,1,0,4.778,4.778A4.784,4.784,0,0,0,424.842,288.721Zm0,7.024a2.246,2.246,0,1,1,2.246-2.246A2.248,2.248,0,0,1,424.842,295.745Z" transform="translate(-349.009 -239.833)"/>
        <circle id="Elipse_4151" data-name="Elipse 4151" cx="1.424" cy="1.424" r="1.424" transform="translate(79.506 47.037)"/>
        <circle id="Elipse_4152" data-name="Elipse 4152" cx="1.424" cy="1.424" r="1.424" transform="translate(26.161 69.648)"/>
      </g>
    </g>
  </g>
</svg>
