<svg xmlns="http://www.w3.org/2000/svg" width="95" height="86.696" viewBox="0 0 95 86.696">
  <g id="Grupo_54934" data-name="Grupo 54934" transform="translate(-669 -5455.183)">
    <g id="Grupo_54933" data-name="Grupo 54933">
      <circle id="Elipse_4056" data-name="Elipse 4056" cx="42.5" cy="42.5" r="42.5" transform="translate(669 5455.183)" fill="#59ffcc"/>
    </g>
    <g id="telefono-inteligente" transform="translate(673.374 5460.489)">
      <g id="Grupo_54896" data-name="Grupo 54896" transform="translate(14.736 9.683)">
        <path id="Trazado_101417" data-name="Trazado 101417" d="M21.054,60.916H70.571v61.661H21.054Z" transform="translate(-21.054 -60.916)" fill="#f4fbff"/>
      </g>
      <g id="Grupo_54897" data-name="Grupo 54897" transform="translate(56.89 9.683)">
        <path id="Trazado_101418" data-name="Trazado 101418" d="M286.551,60.916V121.2a3.166,3.166,0,0,1-.318,1.379H293.6V60.916Z" transform="translate(-286.233 -60.916)" fill="#e4f6ff"/>
      </g>
      <g id="Grupo_54898" data-name="Grupo 54898" transform="translate(14.736 1.194)">
        <path id="Trazado_101419" data-name="Trazado 101419" d="M67.386,7.512H24.238A3.184,3.184,0,0,0,21.054,10.7V18.14H70.571V10.7a3.184,3.184,0,0,0-3.184-3.184Z" transform="translate(-21.054 -7.512)" fill="#335995"/>
      </g>
      <g id="Grupo_54899" data-name="Grupo 54899" transform="translate(14.736 68.931)">
        <path id="Trazado_101420" data-name="Trazado 101420" d="M21.054,433.625v8.08a3.184,3.184,0,0,0,3.184,3.184H67.386a3.184,3.184,0,0,0,3.184-3.184v-8.08Z" transform="translate(-21.054 -433.625)" fill="#335995"/>
      </g>
      <g id="Grupo_54901" data-name="Grupo 54901" transform="translate(50.871 26.044)">
        <g id="Grupo_54900" data-name="Grupo 54900">
          <path id="Trazado_101421" data-name="Trazado 101421" d="M262.1,163.842a4.889,4.889,0,0,0-4.437,2.429.1.1,0,0,1-.17,0,4.892,4.892,0,1,0-6.545,6.769,18.2,18.2,0,0,1,3.471,2.377l.305.27a17.53,17.53,0,0,1,2.478,2.71l.22.3a.2.2,0,0,0,.314,0l.22-.3a17.522,17.522,0,0,1,2.478-2.71l.305-.27a18.2,18.2,0,0,1,3.471-2.377,4.893,4.893,0,0,0-2.107-9.2Z" transform="translate(-248.368 -163.838)" fill="#dd5790"/>
        </g>
      </g>
      <g id="Grupo_54903" data-name="Grupo 54903" transform="translate(57.692 26.055)">
        <g id="Grupo_54902" data-name="Grupo 54902">
          <path id="Trazado_101422" data-name="Trazado 101422" d="M298.282,163.9a4.882,4.882,0,0,1-1.29,7.607,18.2,18.2,0,0,0-3.471,2.377l-.305.27a17.518,17.518,0,0,0-1.939,2.018,17.524,17.524,0,0,1,2.009,2.278l.22.3a.2.2,0,0,0,.314,0l.22-.3a17.52,17.52,0,0,1,2.478-2.71l.305-.27a18.2,18.2,0,0,1,3.471-2.377,4.892,4.892,0,0,0-2.011-9.192Z" transform="translate(-291.277 -163.905)" fill="#da387d"/>
        </g>
      </g>
      <g id="Grupo_54904" data-name="Grupo 54904" transform="translate(29.738 5.334)">
        <circle id="Elipse_4153" data-name="Elipse 4153" cx="1.191" cy="1.191" r="1.191" transform="translate(0)" fill="#335995"/>
      </g>
      <g id="Grupo_54905" data-name="Grupo 54905" transform="translate(14.736 68.931)">
        <path id="Trazado_101423" data-name="Trazado 101423" d="M63.525,433.625v1.035a3.184,3.184,0,0,1-3.184,3.184H21.054v3.861a3.184,3.184,0,0,0,3.184,3.184H67.386a3.184,3.184,0,0,0,3.184-3.184v-8.08H63.525Z" transform="translate(-21.054 -433.625)" fill="#21386b"/>
      </g>
      <g id="Grupo_54906" data-name="Grupo 54906" transform="translate(37.846 72.835)">
        <circle id="Elipse_4154" data-name="Elipse 4154" cx="1.648" cy="1.648" r="1.648"/>
      </g>
      <g id="Grupo_54907" data-name="Grupo 54907" transform="translate(57.208 1.194)">
        <path id="Trazado_101424" data-name="Trazado 101424" d="M292.092,7.512h-3.861V18.14h7.045V10.7a3.184,3.184,0,0,0-3.184-3.184Z" transform="translate(-288.231 -7.512)" fill="#21386b"/>
      </g>
      <g id="Grupo_54908" data-name="Grupo 54908" transform="translate(70.275 6.866)">
        <circle id="Elipse_4155" data-name="Elipse 4155" cx="7.344" cy="7.344" r="7.344" fill="#ffe07d"/>
      </g>
      <g id="Grupo_54909" data-name="Grupo 54909" transform="translate(71.025 7.616)">
        <path id="Trazado_101425" data-name="Trazado 101425" d="M384.98,47.913a7.345,7.345,0,0,1-9.829,9.829,7.344,7.344,0,1,0,9.829-9.829Z" transform="translate(-375.151 -47.913)" fill="#ffd064"/>
      </g>
      <g id="Grupo_54911" data-name="Grupo 54911" transform="translate(24.809 42.495)">
        <g id="Grupo_54910" data-name="Grupo 54910" transform="translate(0)">
          <path id="Trazado_101426" data-name="Trazado 101426" d="M98.151,267.331a4.889,4.889,0,0,0-4.437,2.429.1.1,0,0,1-.17,0A4.892,4.892,0,1,0,87,276.529a18.2,18.2,0,0,1,3.471,2.377l.305.27a17.531,17.531,0,0,1,2.478,2.71l.22.3a.2.2,0,0,0,.314,0l.22-.3a17.523,17.523,0,0,1,2.478-2.71l.305-.27a18.2,18.2,0,0,1,3.471-2.377,4.893,4.893,0,0,0-2.107-9.2Z" transform="translate(-84.422 -267.327)" fill="#dd5790"/>
        </g>
      </g>
      <g id="Grupo_54913" data-name="Grupo 54913" transform="translate(37.912 49.963)">
        <g id="Grupo_54912" data-name="Grupo 54912" transform="translate(0)">
          <path id="Trazado_101427" data-name="Trazado 101427" d="M180.575,314.312a4.889,4.889,0,0,0-4.437,2.429.1.1,0,0,1-.17,0,4.892,4.892,0,1,0-6.545,6.769,18.2,18.2,0,0,1,3.471,2.377l.305.27a17.527,17.527,0,0,1,2.478,2.71l.22.3a.2.2,0,0,0,.314,0l.22-.3a17.519,17.519,0,0,1,2.478-2.71l.305-.27a18.2,18.2,0,0,1,3.471-2.377,4.893,4.893,0,0,0-2.107-9.2Z" transform="translate(-166.846 -314.308)" fill="#dd5790"/>
        </g>
      </g>
      <g id="Grupo_54915" data-name="Grupo 54915" transform="translate(31.413 42.524)">
        <g id="Grupo_54914" data-name="Grupo 54914" transform="translate(0)">
          <path id="Trazado_101428" data-name="Trazado 101428" d="M133.406,267.508a4.882,4.882,0,0,1-1.6,7.231,18.2,18.2,0,0,0-3.471,2.377l-.305.27a17.538,17.538,0,0,0-2.062,2.171,17.54,17.54,0,0,1,2.226,2.481l.22.3a.2.2,0,0,0,.314,0l.22-.3a17.519,17.519,0,0,1,2.478-2.71l.305-.27a18.2,18.2,0,0,1,3.471-2.377,4.892,4.892,0,0,0-1.793-9.174Z" transform="translate(-125.967 -267.508)" fill="#da387d"/>
        </g>
      </g>
      <g id="Grupo_54917" data-name="Grupo 54917" transform="translate(44.516 49.992)">
        <g id="Grupo_54916" data-name="Grupo 54916">
          <path id="Trazado_101429" data-name="Trazado 101429" d="M215.831,314.49a4.882,4.882,0,0,1-1.6,7.231,18.2,18.2,0,0,0-3.471,2.377l-.305.27a17.538,17.538,0,0,0-2.062,2.171,17.542,17.542,0,0,1,2.226,2.481l.22.3a.2.2,0,0,0,.314,0l.22-.3a17.518,17.518,0,0,1,2.478-2.71l.305-.27a18.2,18.2,0,0,1,3.471-2.377,4.892,4.892,0,0,0-1.793-9.174Z" transform="translate(-208.392 -314.49)" fill="#da387d"/>
        </g>
      </g>
      <g id="Grupo_54921" data-name="Grupo 54921" transform="translate(72.186 33.108)">
        <g id="Grupo_54920" data-name="Grupo 54920">
          <g id="Grupo_54919" data-name="Grupo 54919">
            <g id="Grupo_54918" data-name="Grupo 54918">
              <path id="Trazado_101430" data-name="Trazado 101430" d="M398.568,215.436a1.911,1.911,0,0,0-1.09-.337c-.99,0-4.805.008-4.805.008a.2.2,0,0,1-.2-.226c.089-.666.187-1.3.245-1.941a5.287,5.287,0,0,0-.578-3.382,2.392,2.392,0,0,0-3-1.118c-.21.075-.3.165-.272.406.1.942.2,1.886.259,2.832a1.611,1.611,0,0,1-.142.807c-.91,1.77-1.851,3.524-2.767,5.29a.2.2,0,0,1-.177.107c-1.516,0-2.052,0-2.726-.01a.853.853,0,0,0-.863.853v7.25a.852.852,0,0,0,.863.852c1.241-.018,10.113,0,12.586-.021a1.772,1.772,0,0,0,1.726-1.957,3.085,3.085,0,0,0-.1-.449.2.2,0,0,1,.114-.234,2.049,2.049,0,0,0,1.118-2.5.2.2,0,0,1,.085-.211,1.761,1.761,0,0,0,.853-1.469,1.944,1.944,0,0,0-.588-1.419l-.027-.024a.2.2,0,0,1-.03-.274l0-.006A2.01,2.01,0,0,0,398.568,215.436Z" transform="translate(-382.456 -208.274)" fill="#bed8fb"/>
            </g>
          </g>
        </g>
      </g>
      <g id="Grupo_54925" data-name="Grupo 54925" transform="translate(20.266 18.567)">
        <g id="Grupo_54924" data-name="Grupo 54924">
          <g id="Grupo_54923" data-name="Grupo 54923">
            <g id="Grupo_54922" data-name="Grupo 54922">
              <path id="Trazado_101431" data-name="Trazado 101431" d="M71.955,123.965a1.911,1.911,0,0,0-1.09-.337c-.99,0-4.805.008-4.805.008a.2.2,0,0,1-.2-.226c.09-.666.187-1.3.245-1.941a5.287,5.287,0,0,0-.578-3.382,2.392,2.392,0,0,0-3-1.118c-.21.075-.3.165-.272.406.1.942.2,1.886.259,2.832a1.61,1.61,0,0,1-.142.807c-.91,1.77-1.85,3.524-2.767,5.29a.2.2,0,0,1-.177.107c-1.516,0-2.052,0-2.726-.01a.853.853,0,0,0-.863.853v7.25a.852.852,0,0,0,.863.852c1.241-.018,10.113,0,12.586-.021a1.772,1.772,0,0,0,1.726-1.957,3.081,3.081,0,0,0-.1-.449.2.2,0,0,1,.114-.234,2.049,2.049,0,0,0,1.118-2.5.2.2,0,0,1,.085-.211,1.761,1.761,0,0,0,.853-1.469A1.944,1.944,0,0,0,72.5,127.1l-.027-.024a.2.2,0,0,1-.03-.274l0-.006a2.01,2.01,0,0,0-.493-2.827Z" transform="translate(-55.843 -116.803)" fill="#bed8fb"/>
            </g>
          </g>
        </g>
      </g>
      <g id="Grupo_54927" data-name="Grupo 54927" transform="translate(72.186 39.932)">
        <g id="Grupo_54926" data-name="Grupo 54926">
          <path id="Trazado_101432" data-name="Trazado 101432" d="M399.114,254.672l-.028-.024a.2.2,0,0,1-.03-.274l0-.006a2.01,2.01,0,0,0-.493-2.827,1.911,1.911,0,0,0-1.09-.337h-.239a1.992,1.992,0,0,1-.366.976l0,.006a.2.2,0,0,0,.03.274l.028.024a1.945,1.945,0,0,1,.588,1.419,1.761,1.761,0,0,1-.853,1.469.2.2,0,0,0-.085.211,2.049,2.049,0,0,1-1.118,2.5.2.2,0,0,0-.115.234,3.1,3.1,0,0,1,.1.449,1.772,1.772,0,0,1-1.726,1.957c-2.029.02-8.366.009-11.261.014v1.342a.852.852,0,0,0,.863.852c1.241-.018,10.113,0,12.586-.021a1.772,1.772,0,0,0,1.726-1.957,3.092,3.092,0,0,0-.1-.449.2.2,0,0,1,.114-.234,2.049,2.049,0,0,0,1.118-2.5.2.2,0,0,1,.085-.211,1.761,1.761,0,0,0,.853-1.469A1.945,1.945,0,0,0,399.114,254.672Z" transform="translate(-382.455 -251.203)" fill="#9dc6fb"/>
        </g>
      </g>
      <g id="Grupo_54929" data-name="Grupo 54929" transform="translate(20.266 25.392)">
        <g id="Grupo_54928" data-name="Grupo 54928">
          <path id="Trazado_101433" data-name="Trazado 101433" d="M72.5,163.2l-.028-.024a.2.2,0,0,1-.03-.274l0-.006a2.01,2.01,0,0,0-.493-2.827,1.911,1.911,0,0,0-1.09-.337h-.239a1.992,1.992,0,0,1-.366.976l0,.006a.2.2,0,0,0,.03.274l.028.024a1.944,1.944,0,0,1,.588,1.419,1.761,1.761,0,0,1-.853,1.469.2.2,0,0,0-.085.211,2.049,2.049,0,0,1-1.118,2.5.2.2,0,0,0-.114.234,3.091,3.091,0,0,1,.1.449,1.772,1.772,0,0,1-1.726,1.957c-2.029.02-8.366.009-11.261.014v1.342a.853.853,0,0,0,.863.852c1.241-.018,10.113,0,12.586-.021a1.772,1.772,0,0,0,1.726-1.957,3.083,3.083,0,0,0-.1-.449.2.2,0,0,1,.114-.234,2.049,2.049,0,0,0,1.118-2.5.2.2,0,0,1,.085-.211,1.761,1.761,0,0,0,.853-1.469A1.944,1.944,0,0,0,72.5,163.2Z" transform="translate(-55.842 -159.732)" fill="#9dc6fb"/>
        </g>
      </g>
      <g id="Grupo_54930" data-name="Grupo 54930" transform="translate(35.938 39.133)">
        <circle id="Elipse_4156" data-name="Elipse 4156" cx="7.344" cy="7.344" r="7.344" transform="translate(0)" fill="#ffe07d"/>
      </g>
      <g id="Grupo_54931" data-name="Grupo 54931" transform="translate(36.688 39.883)">
        <path id="Trazado_101434" data-name="Trazado 101434" d="M168.978,250.894a7.345,7.345,0,0,1-9.829,9.829,7.344,7.344,0,1,0,9.829-9.829Z" transform="translate(-159.149 -250.894)" fill="#ffd064"/>
      </g>
      <g id="Grupo_54932" data-name="Grupo 54932" transform="translate(13.542 0)">
        <path id="Trazado_101435" data-name="Trazado 101435" d="M69.377,31.66a1.194,1.194,0,0,0-1.555.66A3.714,3.714,0,0,1,66.141,34.2a19.248,19.248,0,0,0-3.7,2.535l-.3.27a18.752,18.752,0,0,0-2.062,2.143A18.752,18.752,0,0,0,58.015,37l-.305-.27a19.232,19.232,0,0,0-3.7-2.535,3.7,3.7,0,1,1,4.947-5.116,1.292,1.292,0,0,0,2.234,0,3.7,3.7,0,0,1,3.356-1.837,3.648,3.648,0,0,1,2.115.785,1.194,1.194,0,0,0,1.476-1.878,6.031,6.031,0,0,0-2.694-1.206V4.379A4.383,4.383,0,0,0,61.069,0H17.921a4.384,4.384,0,0,0-4.378,4.378V15.687a1.194,1.194,0,1,0,2.388,0V13.016H63.059V25a6.072,6.072,0,0,0-2.982,1.646,6.087,6.087,0,1,0-7.2,9.655,16.9,16.9,0,0,1,3.245,2.219,17.158,17.158,0,0,1,2.833,3.094,1.389,1.389,0,0,0,2.235,0l.22-.3a16.381,16.381,0,0,1,1.644-1.9V67.736H15.93V21.459a1.194,1.194,0,1,0-2.388,0V77.011a4.384,4.384,0,0,0,4.378,4.378H48.715a1.194,1.194,0,1,0,0-2.388H17.921a1.992,1.992,0,0,1-1.99-1.99V70.125H63.059v6.886A1.992,1.992,0,0,1,61.069,79H54.745a1.194,1.194,0,1,0,0,2.388h6.323a4.384,4.384,0,0,0,4.378-4.378V37.41A19.167,19.167,0,0,1,67.273,36.3a6.108,6.108,0,0,0,2.764-3.083,1.194,1.194,0,0,0-.66-1.554ZM15.93,10.628V4.379a1.992,1.992,0,0,1,1.99-1.99H61.069a1.992,1.992,0,0,1,1.99,1.99v6.249Z" transform="translate(-13.542 0)"/>
        <path id="Trazado_101436" data-name="Trazado 101436" d="M154.555,33.535h-7.426a1.194,1.194,0,1,0,0,2.388h7.426a1.194,1.194,0,1,0,0-2.388Z" transform="translate(-124.889 -28.204)"/>
        <circle id="Elipse_4157" data-name="Elipse 4157" cx="1.191" cy="1.191" r="1.191" transform="translate(16.196 5.334)"/>
        <path id="Trazado_101437" data-name="Trazado 101437" d="M371.459,52.757a8.538,8.538,0,1,0-8.538-8.538A8.548,8.548,0,0,0,371.459,52.757Zm0-14.688a6.15,6.15,0,1,1-6.15,6.15A6.157,6.157,0,0,1,371.459,38.069Z" transform="translate(-307.383 -30.009)"/>
        <path id="Trazado_101438" data-name="Trazado 101438" d="M394.577,213.673a3.139,3.139,0,0,0-.489-1.709,3.209,3.209,0,0,0-1.161-3.825,3.093,3.093,0,0,0-1.762-.548h-.009l-3.663.007c.037-.286.071-.574.1-.863a6.5,6.5,0,0,0-.75-4.117A3.585,3.585,0,0,0,382.425,201a1.509,1.509,0,0,0-1.059,1.66c.09.83.191,1.81.255,2.782a.677.677,0,0,1-.012.182c-.505.982-2.171,4.147-2.486,4.75-1.066.007-1.538,0-2.108-.01a2.047,2.047,0,0,0-2.071,2.046v7.25a2.047,2.047,0,0,0,2.048,2.046h.026c.563-.008,11.242-.007,12.58-.021a2.967,2.967,0,0,0,2.913-3.146,3.163,3.163,0,0,0,1.193-2.815A2.82,2.82,0,0,0,394.577,213.673Zm-2.69.463a1.392,1.392,0,0,0-.605,1.491c.2.859-.252,1.052-.423,1.125a1.4,1.4,0,0,0-.8,1.644c.156.4.027.854-.486.9-1.326.013-11.38.012-12.242.018v-6.559c.551.006,1.141.007,2.395.006a1.39,1.39,0,0,0,1.237-.752c.4-.779,2.259-4.3,2.769-5.294a2.811,2.811,0,0,0,.272-1.432c-.048-.731-.115-1.46-.184-2.13a1.285,1.285,0,0,1,.988.716,4.057,4.057,0,0,1,.4,2.646c-.042.461-.107.926-.175,1.419a1.5,1.5,0,0,0,1.319,2.051s3.817-.006,4.807-.009a.805.805,0,0,1,.615,1.266,1.394,1.394,0,0,0,.2,1.881.756.756,0,0,1,.21.548.571.571,0,0,1-.3.463Z" transform="translate(-317.493 -168.852)"/>
        <path id="Trazado_101439" data-name="Trazado 101439" d="M52.511,118.9h-.022c-1.047,0-1.52,0-2.086-.01a2.005,2.005,0,0,0-1.463.591,2.032,2.032,0,0,0-.608,1.456v7.25a2.047,2.047,0,0,0,2.048,2.046h.026c.565-.008,11.244-.007,12.58-.021a2.967,2.967,0,0,0,2.913-3.146,3.163,3.163,0,0,0,1.193-2.815,2.822,2.822,0,0,0,.874-2.052,3.142,3.142,0,0,0-.489-1.71,3.21,3.21,0,0,0-1.162-3.825,3.093,3.093,0,0,0-1.762-.548h-.009l-3.663.007c.037-.286.071-.574.1-.863a6.493,6.493,0,0,0-.75-4.117,3.585,3.585,0,0,0-4.415-1.617,1.509,1.509,0,0,0-1.06,1.66c.09.828.19,1.806.255,2.781a.678.678,0,0,1-.012.182C54.49,115.134,52.825,118.3,52.511,118.9Zm4.61-3.657a2.811,2.811,0,0,0,.272-1.432c-.048-.733-.116-1.461-.184-2.13a1.285,1.285,0,0,1,.988.716,4.058,4.058,0,0,1,.4,2.646c-.042.46-.107.924-.175,1.416a1.5,1.5,0,0,0,1.318,2.054s3.817-.006,4.807-.009a.715.715,0,0,1,.409.127h0a.82.82,0,0,1,.208,1.137,1.4,1.4,0,0,0,.2,1.882c.259.186.3.866-.09,1.011a1.392,1.392,0,0,0-.605,1.491c.2.859-.252,1.052-.423,1.125a1.4,1.4,0,0,0-.8,1.645c.156.4.027.853-.486.9-1.324.013-11.378.012-12.242.018v-6.559c.551.006,1.141.007,2.395.006a1.389,1.389,0,0,0,1.237-.751C54.755,119.76,56.609,116.237,57.12,115.243Z" transform="translate(-42.801 -91.92)"/>
        <circle id="Elipse_4158" data-name="Elipse 4158" cx="1.191" cy="1.191" r="1.191" transform="translate(60.115 12.248) rotate(-13.3)"/>
        <circle id="Elipse_4159" data-name="Elipse 4159" cx="1.191" cy="1.191" r="1.191" transform="translate(64.899 13.158) rotate(-45)"/>
        <path id="Trazado_101440" data-name="Trazado 101440" d="M410.235,99.282a1.209,1.209,0,0,0,1.209-1.209V96.764a1.209,1.209,0,1,0-2.418,0v1.309A1.209,1.209,0,0,0,410.235,99.282Z" transform="translate(-346.159 -80.365)"/>
        <path id="Trazado_101441" data-name="Trazado 101441" d="M96.577,238.663a8.535,8.535,0,0,0-7.057,3.739,6.091,6.091,0,0,0-2.208,1.417,6.087,6.087,0,1,0-7.2,9.655,16.887,16.887,0,0,1,3.244,2.219,17.167,17.167,0,0,1,2.834,3.094,1.4,1.4,0,0,0,1.117.564h0a1.4,1.4,0,0,0,1.118-.565l.219-.3a16.386,16.386,0,0,1,1.479-1.734,6.054,6.054,0,0,0,3.09,4.188,16.883,16.883,0,0,1,3.244,2.219,17.165,17.165,0,0,1,2.834,3.094,1.389,1.389,0,0,0,2.235,0,17.149,17.149,0,0,1,2.833-3.093,16.9,16.9,0,0,1,3.244-2.219,6.087,6.087,0,0,0-2.624-11.443c-.062,0-.124,0-.186,0a8.533,8.533,0,0,0-8.222-10.832Zm0,2.388a6.15,6.15,0,1,1-6.15,6.15A6.157,6.157,0,0,1,96.577,241.051Zm-7.2,13.125a18.751,18.751,0,0,0-2.062,2.143,18.765,18.765,0,0,0-2.062-2.144l-.305-.27a19.217,19.217,0,0,0-3.7-2.535,3.7,3.7,0,1,1,4.947-5.117,1.287,1.287,0,0,0,1.864.4c-.011.181-.019.363-.019.546a8.551,8.551,0,0,0,2.478,6.008l-.013.009s-.57.46-.826.688Zm15.514-2.291a3.7,3.7,0,0,1,1.591,6.953,19.232,19.232,0,0,0-3.7,2.535l-.305.27a18.75,18.75,0,0,0-2.062,2.143,18.764,18.764,0,0,0-2.062-2.143l-.305-.27a19.231,19.231,0,0,0-3.7-2.535,3.685,3.685,0,0,1-1.947-3.372,3.641,3.641,0,0,1,.1-.762,8.527,8.527,0,0,0,11.084-2.644,3.7,3.7,0,0,1,1.3-.176Z" transform="translate(-66.837 -200.724)"/>
        <circle id="Elipse_4160" data-name="Elipse 4160" cx="1.191" cy="1.191" r="1.191" transform="translate(25.795 44.515) rotate(-13.3)"/>
        <circle id="Elipse_4161" data-name="Elipse 4161" cx="1.191" cy="1.191" r="1.191" transform="translate(30.563 45.418) rotate(-45)"/>
        <path id="Trazado_101442" data-name="Trazado 101442" d="M194.232,302.264a1.209,1.209,0,0,0,1.209-1.209v-1.309a1.209,1.209,0,0,0-2.418,0v1.309A1.209,1.209,0,0,0,194.232,302.264Z" transform="translate(-164.492 -251.081)"/>
      </g>
    </g>
  </g>
</svg>
