<svg xmlns="http://www.w3.org/2000/svg" width="85" height="85.107" viewBox="0 0 85 85.107">
  <g id="Grupo_55308" data-name="Grupo 55308" transform="translate(-838 -5455.183)">
    <circle id="Elipse_4057" data-name="Elipse 4057" cx="42.5" cy="42.5" r="42.5" transform="translate(838 5455.183)" fill="#59ffcc"/>
    <g id="me-gusta" transform="translate(825.7 5460.077)">
      <g id="Grupo_54935" data-name="Grupo 54935" transform="translate(18.78 27.462)">
        <path id="Trazado_101443" data-name="Trazado 101443" d="M90.4,175.291H32.18a7.063,7.063,0,0,0-7.063,7.063V208.1a7.063,7.063,0,0,0,7.063,7.063H50.659a2.041,2.041,0,0,1,1.629.811l7.748,10.266a1.57,1.57,0,0,0,2.506,0l7.748-10.266a2.04,2.04,0,0,1,1.629-.811H90.4A7.063,7.063,0,0,0,97.46,208.1V182.354A7.063,7.063,0,0,0,90.4,175.291Z" transform="translate(-25.117 -175.291)" fill="#f4fbff"/>
      </g>
      <g id="Grupo_54937" data-name="Grupo 54937" transform="translate(35.083 1.177)">
        <g id="Grupo_54936" data-name="Grupo 54936">
          <circle id="Elipse_4162" data-name="Elipse 4162" cx="19.868" cy="19.868" r="19.868" fill="#ffe07d"/>
        </g>
      </g>
      <g id="Grupo_54939" data-name="Grupo 54939" transform="translate(38.292 4.385)">
        <g id="Grupo_54938" data-name="Grupo 54938">
          <path id="Trazado_101444" data-name="Trazado 101444" d="M177.15,27.988a19.87,19.87,0,0,1-27.488,27.489A19.87,19.87,0,1,0,177.15,27.988Z" transform="translate(-149.662 -27.988)" fill="#ffd064"/>
        </g>
      </g>
      <g id="Grupo_54941" data-name="Grupo 54941" transform="translate(47.908 27.462)">
        <g id="Grupo_54940" data-name="Grupo 54940">
          <path id="Trazado_101445" data-name="Trazado 101445" d="M218.086,175.547c-2.28,0-4.552-.105-6.624-.254a.389.389,0,0,0-.418.426,7.083,7.083,0,0,0,14.082,0,.389.389,0,0,0-.418-.426C222.638,175.441,220.366,175.547,218.086,175.547Z" transform="translate(-211.043 -175.291)" fill="#335995"/>
        </g>
      </g>
      <g id="Grupo_54943" data-name="Grupo 54943" transform="translate(52.06 27.462)">
        <g id="Grupo_54942" data-name="Grupo 54942">
          <path id="Trazado_101446" data-name="Trazado 101446" d="M247.056,175.292c-1.026.074-2.1.137-3.2.182a7.086,7.086,0,0,1-6.313,5.939,7.087,7.087,0,0,0,9.933-5.695A.389.389,0,0,0,247.056,175.292Z" transform="translate(-237.541 -175.291)" fill="#21386b"/>
        </g>
      </g>
      <g id="Grupo_54945" data-name="Grupo 54945" transform="translate(55.903 10.283)">
        <g id="Grupo_54944" data-name="Grupo 54944">
          <path id="Trazado_101447" data-name="Trazado 101447" d="M277.861,65.679a5.459,5.459,0,0,0-5.283,2.455.271.271,0,0,1-.457,0,5.46,5.46,0,1,0-7.133,7.793,17.993,17.993,0,0,1,3.572,2.4l.6.535a19.561,19.561,0,0,1,2.765,3.025.522.522,0,0,0,.84,0,19.561,19.561,0,0,1,2.765-3.025l.6-.535a17.993,17.993,0,0,1,3.572-2.4,5.461,5.461,0,0,0-1.849-10.248Z" transform="translate(-262.074 -65.636)" fill="#dd5790"/>
        </g>
      </g>
      <g id="Grupo_54947" data-name="Grupo 54947" transform="translate(63.478 10.285)">
        <g id="Grupo_54946" data-name="Grupo 54946">
          <path id="Trazado_101448" data-name="Trazado 101448" d="M323.366,70.5a5.47,5.47,0,0,0-4.731-4.808,5.6,5.6,0,0,0-1.124-.023,5.453,5.453,0,0,1-1.1,8.885,17.992,17.992,0,0,0-3.572,2.4l-.6.535a19.541,19.541,0,0,0-1.807,1.838A19.576,19.576,0,0,1,312.7,81.9a.522.522,0,0,0,.84,0,19.561,19.561,0,0,1,2.765-3.025l.6-.535a17.993,17.993,0,0,1,3.572-2.4A5.461,5.461,0,0,0,323.366,70.5Z" transform="translate(-310.423 -65.652)" fill="#da387d"/>
        </g>
      </g>
      <g id="Grupo_54949" data-name="Grupo 54949" transform="translate(33.449 10.283)">
        <g id="Grupo_54948" data-name="Grupo 54948">
          <path id="Trazado_101449" data-name="Trazado 101449" d="M134.537,65.679a5.459,5.459,0,0,0-5.283,2.455.271.271,0,0,1-.457,0,5.46,5.46,0,1,0-7.133,7.793,17.992,17.992,0,0,1,3.572,2.4l.6.535a19.561,19.561,0,0,1,2.765,3.025.522.522,0,0,0,.84,0,19.562,19.562,0,0,1,2.765-3.025l.6-.535a17.994,17.994,0,0,1,3.572-2.4,5.461,5.461,0,0,0-1.849-10.248Z" transform="translate(-118.75 -65.636)" fill="#dd5790"/>
        </g>
      </g>
      <g id="Grupo_54951" data-name="Grupo 54951" transform="translate(41.024 10.285)">
        <g id="Grupo_54950" data-name="Grupo 54950" transform="translate(0)">
          <path id="Trazado_101450" data-name="Trazado 101450" d="M180.041,70.5a5.47,5.47,0,0,0-4.731-4.808,5.6,5.6,0,0,0-1.124-.023,5.453,5.453,0,0,1-1.1,8.885,17.993,17.993,0,0,0-3.572,2.4l-.6.535a19.543,19.543,0,0,0-1.807,1.838,19.576,19.576,0,0,1,2.281,2.572.522.522,0,0,0,.84,0,19.561,19.561,0,0,1,2.765-3.025l.6-.535a17.993,17.993,0,0,1,3.572-2.4,5.461,5.461,0,0,0,2.881-5.44Z" transform="translate(-167.098 -65.652)" fill="#da387d"/>
        </g>
      </g>
      <g id="Grupo_54952" data-name="Grupo 54952" transform="translate(24.916 45.385)">
        <path id="Trazado_101451" data-name="Trazado 101451" d="M116.367,306.169H72.505a8.224,8.224,0,0,1-8.224-8.224v-.03a8.224,8.224,0,0,1,8.224-8.224h43.862a8.224,8.224,0,0,1,8.224,8.224v.03A8.224,8.224,0,0,1,116.367,306.169Z" transform="translate(-64.281 -289.69)" fill="#bed8fb"/>
      </g>
      <path id="Trazado_101452" data-name="Trazado 101452" d="M127.038,297.287a8.186,8.186,0,0,1,1.19,4.264v.03A8.224,8.224,0,0,1,120,309.806H76.142a8.188,8.188,0,0,1-4.264-1.19,8.22,8.22,0,0,0,7.034,3.96h43.862A8.224,8.224,0,0,0,131,304.351v-.03a8.219,8.219,0,0,0-3.96-7.034Z" transform="translate(-45.772 -250.712)" fill="#9dc6fb"/>
      <g id="Grupo_54953" data-name="Grupo 54953" transform="translate(19.19 27.855)">
        <path id="Trazado_101453" data-name="Trazado 101453" d="M94.933,177.8v25.641a9.147,9.147,0,0,1-9.147,9.147H27.734a7.065,7.065,0,0,0,6.653,4.69H52.866a2.041,2.041,0,0,1,1.629.811l7.748,10.266a1.57,1.57,0,0,0,2.506,0L72.5,218.092a2.04,2.04,0,0,1,1.629-.811H92.6a7.063,7.063,0,0,0,7.063-7.063V184.471A7.065,7.065,0,0,0,94.933,177.8Z" transform="translate(-27.734 -177.802)" fill="#e4f6ff"/>
      </g>
      <g id="Grupo_54954" data-name="Grupo 54954" transform="translate(17.603 0)">
        <path id="Trazado_101454" data-name="Trazado 101454" d="M84.06,26.285H75.337a21.01,21.01,0,0,0,.66-5.24c0-.3-.007-.61-.02-.914A6.642,6.642,0,0,0,72.38,9.25a21.112,21.112,0,0,0-4.375-4.713,1.177,1.177,0,1,0-1.461,1.846,18.769,18.769,0,0,1,2.929,2.9,6.576,6.576,0,0,0-3.294,1.893,6.638,6.638,0,0,0-11.227,2.853,6.638,6.638,0,0,0-11.227-2.853,6.574,6.574,0,0,0-3.3-1.894A18.712,18.712,0,0,1,62.314,3.86,1.177,1.177,0,1,0,63.242,1.7,21.063,21.063,0,0,0,37.522,9.25a6.642,6.642,0,0,0-3.595,10.883c-.013.3-.021.609-.021.913a21.01,21.01,0,0,0,.66,5.24H25.843a8.249,8.249,0,0,0-8.24,8.24v6.529a1.177,1.177,0,1,0,2.354,0V34.525a5.892,5.892,0,0,1,5.886-5.886h9.481a21.045,21.045,0,0,0,39.255,0H84.06a5.892,5.892,0,0,1,5.886,5.886V60.271a5.892,5.892,0,0,1-5.886,5.886H65.581a3.234,3.234,0,0,0-2.568,1.279L55.265,77.7a.392.392,0,0,1-.626,0L46.89,67.436a3.234,3.234,0,0,0-2.568-1.279H25.843a5.892,5.892,0,0,1-5.886-5.886V46.791a1.177,1.177,0,1,0-2.354,0v13.48a8.249,8.249,0,0,0,8.24,8.24h18.48a.868.868,0,0,1,.689.343l7.748,10.266a2.747,2.747,0,0,0,4.385,0l7.748-10.266a.867.867,0,0,1,.689-.343H84.06a8.249,8.249,0,0,0,8.24-8.24V34.525a8.25,8.25,0,0,0-8.24-8.24ZM57.107,15.261a4.291,4.291,0,0,1,3.7-3.766,4.449,4.449,0,0,1,.547-.034,4.267,4.267,0,0,1,3.6,1.96,1.448,1.448,0,0,0,2.433,0,4.283,4.283,0,1,1,5.595,6.112,19.112,19.112,0,0,0-3.8,2.559l-.6.535a20.807,20.807,0,0,0-2.4,2.523,20.788,20.788,0,0,0-2.4-2.523l-.6-.535a19.11,19.11,0,0,0-3.8-2.559,4.28,4.28,0,0,1-2.261-4.272ZM54.952,39.737A18.714,18.714,0,0,1,36.279,21.868a16.071,16.071,0,0,1,2.876,1.987l.6.535a18.423,18.423,0,0,1,2.6,2.843,1.7,1.7,0,0,0,2.735,0,18.422,18.422,0,0,1,2.6-2.843l.221-.2a1.177,1.177,0,0,0-1.562-1.762l-.221.2a20.8,20.8,0,0,0-2.4,2.523,20.774,20.774,0,0,0-2.4-2.523l-.6-.535a19.113,19.113,0,0,0-3.8-2.559,4.284,4.284,0,1,1,5.595-6.112,1.448,1.448,0,0,0,2.433,0A4.283,4.283,0,1,1,50.776,19.4,1.177,1.177,0,1,0,52.008,21.4a6.592,6.592,0,0,0,2.944-3.938,6.609,6.609,0,0,0,3.316,4.15,16.821,16.821,0,0,1,3.341,2.239l.6.535a18.425,18.425,0,0,1,2.6,2.843,1.7,1.7,0,0,0,2.735,0,18.422,18.422,0,0,1,2.6-2.843l.6-.535a16.063,16.063,0,0,1,2.876-1.987A18.713,18.713,0,0,1,54.952,39.737Z" transform="translate(-17.603 0)"/>
        <path id="Trazado_101455" data-name="Trazado 101455" d="M218.289,167.78c-2.322.167-4.522.251-6.539.251s-4.217-.085-6.539-.251a1.566,1.566,0,0,0-1.672,1.727,8.261,8.261,0,0,0,16.423,0,1.566,1.566,0,0,0-1.672-1.727Zm-6.539,6.733a5.894,5.894,0,0,1-5.69-4.316c2.005.126,3.915.189,5.69.189s3.685-.063,5.69-.189A5.9,5.9,0,0,1,211.75,174.513Z" transform="translate(-174.401 -141.491)"/>
        <path id="Trazado_101456" data-name="Trazado 101456" d="M151.384,318.013c.084.014,2.173.022,3.128.017a1.177,1.177,0,1,0-.013-2.354c-.6,0-1.223.006-1.739.007v-7.168a1.177,1.177,0,0,0-2.354,0v8.339A1.177,1.177,0,0,0,151.384,318.013Z" transform="translate(-129.599 -259.188)"/>
        <path id="Trazado_101457" data-name="Trazado 101457" d="M264.093,318.038a1.177,1.177,0,0,0,1.177-1.177v-1.846l2.791,2.693a1.177,1.177,0,1,0,1.635-1.694l-3.619-3.491,3.3-3.035a1.177,1.177,0,0,0-1.593-1.733l-2.516,2.312v-1.551a1.177,1.177,0,0,0-2.354,0v8.346A1.177,1.177,0,0,0,264.093,318.038Z" transform="translate(-224.484 -259.189)"/>
        <path id="Trazado_101458" data-name="Trazado 101458" d="M212.835,318.037a1.177,1.177,0,0,0,1.177-1.177v-8.346a1.177,1.177,0,0,0-2.354,0v8.346A1.177,1.177,0,0,0,212.835,318.037Z" transform="translate(-181.256 -259.188)"/>
        <path id="Trazado_101459" data-name="Trazado 101459" d="M336.888,318.447h3.484a1.177,1.177,0,0,0,0-2.354h-2.307v-1.78h2.05a1.177,1.177,0,0,0,0-2.354h-2.05v-1.78h2.307a1.177,1.177,0,1,0,0-2.354h-3.484A1.177,1.177,0,0,0,335.711,309v8.269A1.177,1.177,0,0,0,336.888,318.447Z" transform="translate(-285.874 -259.598)"/>
        <path id="Trazado_101460" data-name="Trazado 101460" d="M66.183,301.007h43.832a9.417,9.417,0,1,0,0-18.833H66.183a9.417,9.417,0,0,0,0,18.833Zm0-16.479h43.832a7.062,7.062,0,1,1,0,14.125H66.183a7.062,7.062,0,1,1,0-14.125Z" transform="translate(-50.63 -237.967)"/>
      </g>
    </g>
  </g>
</svg>
