<svg xmlns="http://www.w3.org/2000/svg" width="101.999" height="90.027" viewBox="0 0 101.999 90.027">
  <g id="Grupo_55309" data-name="Grupo 55309" transform="translate(-998 -5455.183)">
    <circle id="Elipse_4058" data-name="Elipse 4058" cx="42.5" cy="42.5" r="42.5" transform="translate(1006 5455.183)" fill="#59ffcc"/>
    <g id="colaboracion" transform="translate(998 5408.899)">
      <g id="Grupo_54979" data-name="Grupo 54979" transform="translate(1.478 58.515)">
        <g id="Grupo_54955" data-name="Grupo 54955" transform="translate(30.793 6.705)">
          <path id="Trazado_101461" data-name="Trazado 101461" d="M170.92,121.365l2.874-10.424,19.733-3.05,9.209-9.209a1.936,1.936,0,0,1,2.737,0l17.618,17.672a1.936,1.936,0,0,1,0,2.737l-10.82,10.82a11.769,11.769,0,0,0-1.944,2.566L206,140.19a22.666,22.666,0,0,1-3.745,4.944l-12.721,12.719L161.985,130.3Z" transform="translate(-161.985 -98.116)" fill="#b46e59"/>
        </g>
        <g id="Grupo_54956" data-name="Grupo 54956" transform="translate(55.692 22.966)">
          <path id="Trazado_101462" data-name="Trazado 101462" d="M323.178,181.718l-1.972-1.978a1.949,1.949,0,0,1-.513,1.848L309.73,192.551a11.878,11.878,0,0,0-1.961,2.589l-4.362,7.779a22.868,22.868,0,0,1-3.778,4.987l-12.659,12.657,2.654,2.654L302.346,210.5a22.679,22.679,0,0,0,3.745-4.944l4.324-7.712a11.774,11.774,0,0,1,1.944-2.566l10.82-10.82A1.936,1.936,0,0,0,323.178,181.718Z" transform="translate(-286.971 -179.74)" fill="#a55e4d"/>
        </g>
        <g id="Grupo_54957" data-name="Grupo 54957" transform="translate(2.585 3.251)">
          <path id="Trazado_101463" data-name="Trazado 101463" d="M99.143,130.038,79.454,110.349a3.971,3.971,0,0,1-1.02-1.753l-2.6-9.413-5.084-2.692a9.981,9.981,0,0,0-6.068-1.062l-3.2.453a9.98,9.98,0,0,1-8.454-2.825L41.316,81.344a1.935,1.935,0,0,0-2.737,0L20.96,99.016a1.936,1.936,0,0,0,0,2.737l16.4,16.4A11.77,11.77,0,0,1,39.3,120.72l4.324,7.712a22.665,22.665,0,0,0,3.745,4.944L60.094,146.1,80.759,125.43l11.5,11.5a2.943,2.943,0,0,0,4.161,0l2.727-2.727a2.943,2.943,0,0,0,0-4.161Z" transform="translate(-20.393 -80.777)" fill="#ffcbbe"/>
        </g>
        <g id="Grupo_54958" data-name="Grupo 54958" transform="translate(55.75 47.593)">
          <path id="Trazado_101464" data-name="Trazado 101464" d="M301.7,320.46l2.663-2.663a2.988,2.988,0,0,0,0-4.226l-10.215-10.215-6.889,6.889,10.215,10.215A2.989,2.989,0,0,0,301.7,320.46Z" transform="translate(-287.26 -303.356)" fill="#ffcbbe"/>
        </g>
        <g id="Grupo_54959" data-name="Grupo 54959" transform="translate(48.861 54.481)">
          <path id="Trazado_101465" data-name="Trazado 101465" d="M265.53,353.444l2.663-2.663a2.988,2.988,0,0,0,0-4.226l-8.622-8.622-6.889,6.889,8.622,8.622A2.988,2.988,0,0,0,265.53,353.444Z" transform="translate(-252.682 -337.933)" fill="#ffcbbe"/>
        </g>
        <g id="Grupo_54960" data-name="Grupo 54960" transform="translate(41.973 61.37)">
          <path id="Trazado_101466" data-name="Trazado 101466" d="M229.5,386.572l2.663-2.663a2.988,2.988,0,0,0,0-4.226l-7.172-7.172L218.1,379.4l7.172,7.172A2.988,2.988,0,0,0,229.5,386.572Z" transform="translate(-218.104 -372.511)" fill="#ffcbbe"/>
        </g>
        <g id="Grupo_54961" data-name="Grupo 54961" transform="translate(54.065 22.743)">
          <path id="Trazado_101467" data-name="Trazado 101467" d="M306.071,208.388,286.382,188.7a3.971,3.971,0,0,1-1.02-1.753l-1.6-5.82-4.956-2.507,2.382,8.719a6.486,6.486,0,0,0,1.667,2.874l20.686,20.712a2.943,2.943,0,0,1,0,4.161l2.535-2.535A2.943,2.943,0,0,0,306.071,208.388Z" transform="translate(-278.801 -178.619)" fill="#ffa68d"/>
        </g>
        <g id="Grupo_54962" data-name="Grupo 54962" transform="translate(61.293 47.755)">
          <path id="Trazado_101468" data-name="Trazado 101468" d="M326.677,314.257l-9.97-9.97a.392.392,0,0,0-.555,0l-.236.236a2.839,2.839,0,0,0,0,4.015l8.24,8.24a2.943,2.943,0,0,1,0,4.161l2.521-2.521A2.943,2.943,0,0,0,326.677,314.257Z" transform="translate(-315.085 -304.172)" fill="#ffa68d"/>
        </g>
        <g id="Grupo_54963" data-name="Grupo 54963" transform="translate(54.404 54.644)">
          <path id="Trazado_101469" data-name="Trazado 101469" d="M290.507,347.242l-8.377-8.377a.392.392,0,0,0-.555,0l-.236.236a2.839,2.839,0,0,0,0,4.015l6.843,6.843a2.94,2.94,0,0,1,.682,3.088l1.644-1.644A2.943,2.943,0,0,0,290.507,347.242Z" transform="translate(-280.508 -338.75)" fill="#ffa68d"/>
        </g>
        <g id="Grupo_54964" data-name="Grupo 54964" transform="translate(47.371 61.532)">
          <path id="Trazado_101470" data-name="Trazado 101470" d="M253.9,380.369l-6.927-6.927a.392.392,0,0,0-.555,0l-.381.381a2.839,2.839,0,0,0,0,4.015L251.4,383.2a2.943,2.943,0,0,1,.649,3.182l1.852-1.852A2.943,2.943,0,0,0,253.9,380.369Z" transform="translate(-245.202 -373.327)" fill="#ffa68d"/>
        </g>
        <g id="Grupo_54965" data-name="Grupo 54965" transform="translate(28.924 51.395)">
          <path id="Trazado_101471" data-name="Trazado 101471" d="M163.953,323.317l2.663,2.663a2.988,2.988,0,0,1,0,4.226l-6.062,6.062a3.621,3.621,0,0,1-5.121,0l-1.768-1.768a3.621,3.621,0,0,1,0-5.121l6.062-6.062A2.988,2.988,0,0,1,163.953,323.317Z" transform="translate(-152.605 -322.441)" fill="#b46e59"/>
        </g>
        <g id="Grupo_54966" data-name="Grupo 54966" transform="translate(22.122 45.956)">
          <path id="Trazado_101472" data-name="Trazado 101472" d="M128.272,296.017l2.663,2.663a2.988,2.988,0,0,1,0,4.226l-4.464,4.465a3.829,3.829,0,0,1-5.416,0l-1.473-1.473a3.829,3.829,0,0,1,0-5.416l4.464-4.464A2.988,2.988,0,0,1,128.272,296.017Z" transform="translate(-118.46 -295.142)" fill="#b46e59"/>
        </g>
        <g id="Grupo_54967" data-name="Grupo 54967" transform="translate(31.791 53.321)">
          <path id="Trazado_101473" data-name="Trazado 101473" d="M178.174,337.917l-6.133,6.133a3.565,3.565,0,0,1-5.042,0l8.851-8.851a2.94,2.94,0,0,0,.682-3.087l1.644,1.644A2.943,2.943,0,0,1,178.174,337.917Z" transform="translate(-166.998 -332.112)" fill="#a55e4d"/>
        </g>
        <g id="Grupo_54968" data-name="Grupo 54968" transform="translate(24.758 47.674)">
          <path id="Trazado_101474" data-name="Trazado 101474" d="M141.563,309.779l-4.538,4.538a3.771,3.771,0,0,1-5.333,0l7.37-7.37a2.943,2.943,0,0,0,.649-3.182l1.852,1.852a2.942,2.942,0,0,1,0,4.161Z" transform="translate(-131.692 -303.766)" fill="#a55e4d"/>
        </g>
        <g id="Grupo_54969" data-name="Grupo 54969" transform="translate(15.233 41.314)">
          <path id="Trazado_101475" data-name="Trazado 101475" d="M91.449,272.713l2.663,2.663a2.988,2.988,0,0,1,0,4.226l-2.218,2.218a3.829,3.829,0,0,1-5.416,0L85,280.347a3.829,3.829,0,0,1,0-5.416l2.218-2.219a2.988,2.988,0,0,1,4.226,0Z" transform="translate(-83.883 -271.838)" fill="#b46e59"/>
        </g>
        <g id="Grupo_54970" data-name="Grupo 54970" transform="translate(17.869 43.032)">
          <path id="Trazado_101476" data-name="Trazado 101476" d="M104.739,286.475l-2.292,2.292a3.771,3.771,0,0,1-5.333,0l5.124-5.124a2.943,2.943,0,0,0,.649-3.182l1.852,1.852a2.943,2.943,0,0,1,0,4.161Z" transform="translate(-97.114 -280.461)" fill="#a55e4d"/>
        </g>
        <g id="Grupo_54971" data-name="Grupo 54971" transform="translate(35.899 59.733)">
          <path id="Trazado_101477" data-name="Trazado 101477" d="M197.427,365.173l2.663,2.663a2.988,2.988,0,0,1,0,4.226l-4.464,4.464a3.829,3.829,0,0,1-5.416,0l-1.473-1.473a3.829,3.829,0,0,1,0-5.416l4.464-4.464A2.988,2.988,0,0,1,197.427,365.173Z" transform="translate(-187.615 -364.298)" fill="#b46e59"/>
        </g>
        <g id="Grupo_54972" data-name="Grupo 54972" transform="translate(38.535 61.451)">
          <path id="Trazado_101478" data-name="Trazado 101478" d="M210.718,378.934l-4.538,4.538a3.771,3.771,0,0,1-5.333,0l7.37-7.37a2.943,2.943,0,0,0,.649-3.181l1.852,1.852A2.942,2.942,0,0,1,210.718,378.934Z" transform="translate(-200.847 -372.921)" fill="#a55e4d"/>
        </g>
        <g id="Grupo_54973" data-name="Grupo 54973" transform="translate(18.327 3.251)">
          <path id="Trazado_101479" data-name="Trazado 101479" d="M139.116,99.184l-5.084-2.692a9.981,9.981,0,0,0-6.068-1.062l-3.2.453a9.98,9.98,0,0,1-8.454-2.825L104.594,81.344a1.935,1.935,0,0,0-2.737,0l-2.442,2.45a1.934,1.934,0,0,1,2.659.071l11.713,11.713a9.981,9.981,0,0,0,8.455,2.825l3.2-.453a9.981,9.981,0,0,1,6.068,1.062L136.6,101.7l3.329.407Z" transform="translate(-99.414 -80.777)" fill="#ffa68d"/>
        </g>
        <g id="Grupo_54974" data-name="Grupo 54974" transform="translate(0 0.54)">
          <path id="Trazado_101480" data-name="Trazado 101480" d="M38.742,77.79,18.036,98.5a1.2,1.2,0,0,1-1.69,0L7.767,89.917a1.2,1.2,0,0,1,0-1.69L28.472,67.521a1.2,1.2,0,0,1,1.69,0L38.742,76.1A1.2,1.2,0,0,1,38.742,77.79Z" transform="translate(-7.417 -67.171)" fill="#f4fbff"/>
        </g>
        <g id="Grupo_54975" data-name="Grupo 54975" transform="translate(6.851 0.533)">
          <path id="Trazado_101481" data-name="Trazado 101481" d="M53.933,69.569l6.514,6.514a1.177,1.177,0,0,1,0,1.665l-18.64,18.64L43.9,98.479a1.177,1.177,0,0,0,1.665,0L66.293,77.748a1.177,1.177,0,0,0,0-1.665l-8.6-8.6a1.177,1.177,0,0,0-1.665,0Z" transform="translate(-41.806 -67.134)" fill="#e4f6ff"/>
        </g>
        <g id="Grupo_54976" data-name="Grupo 54976" transform="translate(30.273 11.659)">
          <path id="Trazado_101482" data-name="Trazado 101482" d="M196.261,122.982l-3.482,3.482a3.924,3.924,0,0,1-3.029,1.141l-18.014-1.173a4.16,4.16,0,0,0-4,2.311l-1.776,3.6a5.163,5.163,0,0,1-.852,1.234l-5.3,5.694a1.584,1.584,0,0,0,.505,2.522l2.245,1.017a7.074,7.074,0,0,0,6.71-1.265l4.317-3.563a1.962,1.962,0,0,1,1.691-.4l12.777,2.954a11.294,11.294,0,0,0,11.533-4.167l5.157-6.782Z" transform="translate(-159.377 -122.982)" fill="#b46e59"/>
        </g>
        <g id="Grupo_54977" data-name="Grupo 54977" transform="translate(67.369 0)">
          <path id="Trazado_101483" data-name="Trazado 101483" d="M366.641,95.783,345.936,75.077a1.2,1.2,0,0,1,0-1.69l8.579-8.579a1.2,1.2,0,0,1,1.69,0l20.705,20.706a1.2,1.2,0,0,1,0,1.69l-8.579,8.579A1.2,1.2,0,0,1,366.641,95.783Z" transform="translate(-345.586 -64.458)" fill="#f4fbff"/>
        </g>
        <g id="Grupo_54978" data-name="Grupo 54978" transform="translate(67.361 6.851)">
          <path id="Trazado_101484" data-name="Trazado 101484" d="M374.8,110.974l-6.514,6.514a1.177,1.177,0,0,1-1.665,0l-18.64-18.64-2.091,2.091a1.177,1.177,0,0,0,0,1.665l20.731,20.731a1.177,1.177,0,0,0,1.665,0l8.6-8.6a1.177,1.177,0,0,0,0-1.665Z" transform="translate(-345.547 -98.848)" fill="#e4f6ff"/>
        </g>
      </g>
      <g id="Grupo_54980" data-name="Grupo 54980" transform="translate(0.001 57.036)">
        <path id="Trazado_101485" data-name="Trazado 101485" d="M318.035,301.024a1.471,1.471,0,0,0,1.04-2.512l-2.11-2.111a1.471,1.471,0,0,0-2.081,2.081l2.11,2.111A1.467,1.467,0,0,0,318.035,301.024Z" transform="translate(-251.809 -248.371)"/>
        <circle id="Elipse_4163" data-name="Elipse 4163" cx="1.772" cy="1.772" r="1.772" transform="translate(9.696 21.931)"/>
        <path id="Trazado_101486" data-name="Trazado 101486" d="M101.225,78.543,88.286,65.6a1.471,1.471,0,0,0-2.081,2.081L98.936,80.415,90.748,88.6,70.433,68.289,78.621,60.1l2.706,2.706a1.471,1.471,0,1,0,2.08-2.081l-2.914-2.914a2.648,2.648,0,0,0-3.745,0l-8.6,8.6A2.639,2.639,0,0,0,67.53,69.2l-3.419,3.419a2.443,2.443,0,0,1-1.893.713L44.2,72.156a5.611,5.611,0,0,0-4.8,2.147,8.463,8.463,0,0,1-1.668-1.3l-3.27-3.27a2.65,2.65,0,0,0-.612-2.779l-8.6-8.605a2.648,2.648,0,0,0-3.745,0L.775,79.083a2.652,2.652,0,0,0,0,3.745l8.605,8.6a2.648,2.648,0,0,0,3.745,0l19.44-19.44,3.093,3.093a11.4,11.4,0,0,0,2.34,1.8l-.986,2a3.69,3.69,0,0,1-.609.882L31.1,85.46a3.055,3.055,0,0,0,.975,4.865l2.245,1.017a8.265,8.265,0,0,0,2.83.489,8.5,8.5,0,0,0,5.424-1.959L46.89,86.31a.5.5,0,0,1,.423-.1L60.09,89.163c.131.03.262.058.393.084l.2.73a5.455,5.455,0,0,0,1.4,2.4l19.689,19.689a1.473,1.473,0,0,1,0,2.081l-2.727,2.727a1.471,1.471,0,0,1-2.081,0l-2.2-2.2h0l-2.307-2.307a1.471,1.471,0,1,0-2.081,2.081l2.947,2.947a1.473,1.473,0,0,1,0,2.081L70.6,122.2a1.471,1.471,0,0,1-2.081,0L58.268,111.955a1.471,1.471,0,1,0-2.081,2.081l8.655,8.655a1.473,1.473,0,0,1,0,2.08L62.114,127.5a1.473,1.473,0,0,1-2.081,0l-8.654-8.654a1.461,1.461,0,0,0-2.222.167l-.96-.96h0a4.391,4.391,0,0,0-1.666-1.043,4.4,4.4,0,0,0-1.046-4.568l-2.727-2.727h0a4.4,4.4,0,0,0-4.571-1.045A4.379,4.379,0,0,0,37.147,107l-2.727-2.727a4.42,4.42,0,0,0-5.5-.593,4.384,4.384,0,0,0-.9-1.323l-2.727-2.727h0A4.379,4.379,0,0,0,22.3,98.345c-.077-.081-3.947-3.957-3.947-3.957a1.471,1.471,0,0,0-2.081,2.081l2.975,2.975c-.07.062-.14.121-.207.187l-2.293,2.292a5.248,5.248,0,0,0,0,7.413l1.556,1.555a5.207,5.207,0,0,0,3.707,1.535l.093,0c0,.031,0,.062,0,.093a5.207,5.207,0,0,0,1.535,3.707l1.556,1.556a5.226,5.226,0,0,0,3.707,1.533h.01a5.021,5.021,0,0,0,1.471,3.655l1.846,1.846a5,5,0,0,0,3.562,1.475l.091,0s0,.005,0,.008A5.207,5.207,0,0,0,37.416,130l1.556,1.556a5.24,5.24,0,0,0,7.3.113l3.347,3.347a4.414,4.414,0,0,0,6.242,0l2.727-2.727a4.392,4.392,0,0,0,1.044-1.668,4.4,4.4,0,0,0,4.568-1.043l2.727-2.727a4.379,4.379,0,0,0,1.012-1.585,4.411,4.411,0,0,0,4.743-.984l2.727-2.727a4.378,4.378,0,0,0,1.018-1.6,4.405,4.405,0,0,0,4.7-1l2.727-2.727a4.419,4.419,0,0,0,0-6.242l-4.733-4.733L81.9,100.3a10.311,10.311,0,0,1,1.7-2.246l6.478-6.478a2.636,2.636,0,0,0,2.545-.686l8.605-8.6a2.651,2.651,0,0,0,0-3.745Zm-89.973,10.6L3.064,80.956,23.379,60.641l8.189,8.189Zm10.761,20.34a2.284,2.284,0,0,1-1.626-.674l-1.556-1.555a2.3,2.3,0,0,1,0-3.252l2.293-2.292a1.471,1.471,0,0,1,2.081,0l2.727,2.727a1.473,1.473,0,0,1,0,2.08l-2.293,2.293a2.285,2.285,0,0,1-1.626.673Zm5.263,6.215-1.556-1.556a2.3,2.3,0,0,1,0-3.252l4.538-4.538a1.473,1.473,0,0,1,2.081,0l2.727,2.727a1.473,1.473,0,0,1,0,2.08L30.525,115.7A2.3,2.3,0,0,1,27.276,115.7Zm10,7.033a2.1,2.1,0,0,1-2.962,0l-1.846-1.846a2.1,2.1,0,0,1,0-2.962l6.133-6.133a1.478,1.478,0,0,1,2.08,0h0L43.4,114.52a1.471,1.471,0,0,1,0,2.081Zm5.407,7.417a2.284,2.284,0,0,1-1.626-.674L39.5,127.921a2.3,2.3,0,0,1,0-3.251l4.539-4.539a1.478,1.478,0,0,1,2.08,0h0l2.727,2.727a1.473,1.473,0,0,1,0,2.081l-4.538,4.538A2.286,2.286,0,0,1,42.679,130.151Zm13.824.059-2.727,2.727a1.471,1.471,0,0,1-2.081,0l-3.344-3.344,2.573-2.573a4.4,4.4,0,0,0,1.288-3.182l4.293,4.293a1.471,1.471,0,0,1,0,2.079ZM81.517,95.976a13.253,13.253,0,0,0-2.187,2.887l-2.371,4.229L64.164,90.3a2.505,2.505,0,0,1-.545-.823,12.755,12.755,0,0,0,3.684-.743,1.471,1.471,0,0,0-1-2.768,9.8,9.8,0,0,1-5.55.332L47.975,83.343a3.456,3.456,0,0,0-2.958.7L40.7,87.6a5.572,5.572,0,0,1-5.243,1.025l-2.168-.983c-.057,0-.089-.158-.036-.18l.093-.1,5.21-5.594a6.619,6.619,0,0,0,1.094-1.586l1.776-3.6a2.682,2.682,0,0,1,2.586-1.493l18.014,1.173A5.4,5.4,0,0,0,66.192,74.7l3.243-3.243,18.3,18.3Z" transform="translate(-0.001 -57.036)"/>
      </g>
    </g>
  </g>
</svg>
