<svg xmlns="http://www.w3.org/2000/svg" xmlns:xlink="http://www.w3.org/1999/xlink" width="67" height="67" viewBox="0 0 67 67">
  <defs>
    <clipPath id="clip-path">
      <rect id="Rectángulo_5225" data-name="Rectángulo 5225" width="67" height="67" transform="translate(198 6569.183)" fill="#ffcf19" stroke="#707070" stroke-width="1"/>
    </clipPath>
  </defs>
  <g id="Enmascarar_grupo_93" data-name="Enmascarar grupo 93" transform="translate(-198 -6569.183)" clip-path="url(#clip-path)">
    <g id="usuario-verificado" transform="translate(198 6569.183)">
      <g id="Grupo_54996" data-name="Grupo 54996">
        <path id="Trazado_101642" data-name="Trazado 101642" d="M42.832,66.019h4.131a1.963,1.963,0,0,0,1.96-2.067l-.545-10.3H41.661Z" fill="#fed2a4"/>
        <path id="Trazado_101643" data-name="Trazado 101643" d="M51.54,63.952,51,53.65H45.761l.545,10.3a1.963,1.963,0,0,1-1.96,2.067H49.58A1.963,1.963,0,0,0,51.54,63.952Z" fill="#ffbd86"/>
        <path id="Trazado_101644" data-name="Trazado 101644" d="M16.412,66.019H9.722a1.963,1.963,0,0,1-1.96-2.067l.545-10.3h9.334Z" fill="#fed2a4"/>
        <path id="Trazado_101645" data-name="Trazado 101645" d="M13.683,24.142H44.052V52.066H13.683Z" fill="#7a6d79"/>
        <path id="Trazado_101646" data-name="Trazado 101646" d="M40.385,24.142h5.234V52.066H40.385Z" fill="#685e68"/>
        <path id="Trazado_101647" data-name="Trazado 101647" d="M34.769,35.611V40.4a.654.654,0,0,0,.51.638l13.08,2.952a5.235,5.235,0,0,1,4.07,4.749l.22,3.223a1.309,1.309,0,0,1-.776,1.286l-8.264,3.661a1.309,1.309,0,0,0-.779,1.2v7.913H16.412V58.105a1.308,1.308,0,0,0-.779-1.2L7.369,53.248a1.308,1.308,0,0,1-.775-1.286l.22-3.223a5.235,5.235,0,0,1,4.07-4.749l13.08-2.952a.654.654,0,0,0,.51-.638V35.611Z" fill="#ade194"/>
        <path id="Trazado_101648" data-name="Trazado 101648" d="M35.279,41.038a.654.654,0,0,1-.51-.638V35.611H24.475V40.4a.654.654,0,0,1-.51.638l-.738.166v1.38a6.395,6.395,0,1,0,12.79,0V41.2Z" fill="#f6a96c"/>
        <path id="Trazado_101649" data-name="Trazado 101649" d="M29.651,1.112a16.167,16.167,0,0,0-2.617.083A15.972,15.972,0,0,0,13.683,16.949v6.438H45.619l-1.309-6.438c0-8.819-5.841-15.837-14.66-15.837Z" fill="#7a6d79"/>
        <path id="Trazado_101650" data-name="Trazado 101650" d="M29.651.981a16.062,16.062,0,0,0-2.617.215A15.971,15.971,0,0,1,40.385,16.95v6.438h5.234V16.95A15.968,15.968,0,0,0,29.651.981Z" fill="#685e68"/>
        <path id="Trazado_101651" data-name="Trazado 101651" d="M42.593,19.511H40.521v7.753h2.072a3.876,3.876,0,0,0,0-7.753Z" fill="#f6a96c"/>
        <path id="Trazado_101652" data-name="Trazado 101652" d="M16.651,27.264h2.072V19.511H16.651a3.876,3.876,0,0,0,0,7.753Z" fill="#f6a96c"/>
        <path id="Trazado_101653" data-name="Trazado 101653" d="M38.007,11.568A9.754,9.754,0,0,1,36.3,14,9.981,9.981,0,0,1,28.81,17.13a.261.261,0,0,1-.265-.262V14.093a.261.261,0,0,0-.488-.131c-1,1.755-3.72,4.949-9.743,3.3a.263.263,0,0,0-.331.216,11.892,11.892,0,0,0-.132,1.766v8.281a11.8,11.8,0,0,0,9.837,11.637,11.983,11.983,0,0,0,1.963.032c6.517,0,10.491-5.152,10.491-11.669V19.247c0-3.026.169-5.654-1.7-7.743a.262.262,0,0,0-.434.064Z" fill="#fed2a4"/>
        <g id="Grupo_54994" data-name="Grupo 54994">
          <path id="Trazado_101654" data-name="Trazado 101654" d="M38.44,11.373a.263.263,0,0,0-.434.064A10.15,10.15,0,0,1,36.3,14a11.749,11.749,0,0,1,1.23,5.251v8.281a11.8,11.8,0,0,1-9.837,11.637A11.805,11.805,0,0,0,41.452,27.528V19.247a11.755,11.755,0,0,0-3.011-7.874Z" fill="#ffbd86"/>
        </g>
        <path id="Trazado_101655" data-name="Trazado 101655" d="M50.168,37.133l1.7-.551,1.475-.343a.743.743,0,0,1,.891.369l1.707,3.08a.743.743,0,0,0,.324.324l3.342,1.707a.743.743,0,0,1,.369.891l-1.156,3.57a.744.744,0,0,0,0,.458l1.156,3.57a.743.743,0,0,1-.369.891l-3.342,1.707a.743.743,0,0,0-.324.324L54.5,56.342a.743.743,0,0,1-.891.369l-1.737-.474-1.7-.551a.744.744,0,0,0-.458,0l-3.57,1.156a.743.743,0,0,1-.891-.369L43.541,53.13a.744.744,0,0,0-.324-.324L39.876,51.1a.743.743,0,0,1-.369-.891l1.156-3.57a.744.744,0,0,0,0-.458l-1.156-3.57a.743.743,0,0,1,.369-.891l3.342-1.707a.744.744,0,0,0,.324-.324l1.707-3.342a.743.743,0,0,1,.891-.369l3.57,1.156A.744.744,0,0,0,50.168,37.133Z" fill="#eef5f6"/>
        <g id="Grupo_54995" data-name="Grupo 54995">
          <path id="Trazado_101656" data-name="Trazado 101656" d="M59.216,46.638a.744.744,0,0,1,0-.458l1.156-3.57A.743.743,0,0,0,60,41.719l-3.342-1.707a.743.743,0,0,1-.324-.324L54.63,36.346a.743.743,0,0,0-.891-.369l-1.868.6,1.587,3.106a.743.743,0,0,0,.324.324l3.342,1.707a.743.743,0,0,1,.369.891l-1.156,3.57a.744.744,0,0,0,0,.458l1.156,3.57a.743.743,0,0,1-.369.891l-3.342,1.707a.743.743,0,0,0-.324.324l-1.587,3.106,1.868.6a.743.743,0,0,0,.891-.369l1.707-3.342a.744.744,0,0,1,.324-.324L60,51.1a.743.743,0,0,0,.369-.891Z" fill="#deecf1"/>
        </g>
      </g>
      <g id="Grupo_54997" data-name="Grupo 54997">
        <circle id="Elipse_4174" data-name="Elipse 4174" cx="0.981" cy="0.981" r="0.981" transform="translate(28.67 52.655)"/>
        <path id="Trazado_101657" data-name="Trazado 101657" d="M29.652,57.111a.981.981,0,1,0,.981.981A.981.981,0,0,0,29.652,57.111Z"/>
        <circle id="Elipse_4175" data-name="Elipse 4175" cx="0.981" cy="0.981" r="0.981" transform="translate(28.67 61.566)"/>
        <path id="Trazado_101658" data-name="Trazado 101658" d="M26.651,33.075a7.619,7.619,0,0,0,2.914.583,8.492,8.492,0,0,0,3-.573.981.981,0,0,0-.691-1.837,5.876,5.876,0,0,1-4.479.011.981.981,0,0,0-.745,1.816Z"/>
        <path id="Trazado_101659" data-name="Trazado 101659" d="M24.138,25.032a.981.981,0,0,0,.981-.981v-1.51a.981.981,0,0,0-1.963,0v1.51A.981.981,0,0,0,24.138,25.032Z"/>
        <path id="Trazado_101660" data-name="Trazado 101660" d="M35.087,25.032a.981.981,0,0,0,.981-.981v-1.51a.981.981,0,0,0-1.963,0v1.51A.981.981,0,0,0,35.087,25.032Z"/>
        <path id="Trazado_101661" data-name="Trazado 101661" d="M49.58,67a2.944,2.944,0,0,0,2.94-3.1l-.346-6.533,1.262.408a1.718,1.718,0,0,0,2.067-.856l.751-1.47a.981.981,0,0,0-1.748-.893l-.659,1.289L50.47,54.752a1.715,1.715,0,0,0-1.062,0L46.03,55.845l-1.615-3.161a1.715,1.715,0,0,0-.751-.751L40.5,50.318,41.6,46.94a1.715,1.715,0,0,0,0-1.062L40.5,42.5l3.161-1.615a1.715,1.715,0,0,0,.751-.751l1.615-3.161,3.377,1.093a1.715,1.715,0,0,0,1.062,0l3.377-1.093,1.615,3.161a1.714,1.714,0,0,0,.751.751L59.375,42.5l-1.093,3.377a1.715,1.715,0,0,0,0,1.062l1.093,3.377-1.458.745a.981.981,0,0,0,.893,1.748l1.639-.837a1.717,1.717,0,0,0,.856-2.067l-1.132-3.5,1.132-3.5a1.718,1.718,0,0,0-.856-2.067l-3.273-1.672L55.5,35.9a1.718,1.718,0,0,0-2.067-.856l-3.5,1.132L46.6,35.094V26.143s0-.009,0-.013a4.845,4.845,0,0,0,0-5.484v-3.7A16.95,16.95,0,0,0,18.754,3.967a.981.981,0,0,0,1.263,1.5,14.987,14.987,0,0,1,24.621,11.48v2.033a4.828,4.828,0,0,0-2.045-.453h-.182a12.754,12.754,0,0,0-3.24-7.812,1.244,1.244,0,0,0-2.053.3h0a8.721,8.721,0,0,1-7.591,5.092v-2.02a1.243,1.243,0,0,0-2.322-.618c-2.234,3.915-6.367,3.461-8.632,2.842a1.245,1.245,0,0,0-1.56,1.017c-.059.394-.1.794-.12,1.195h-.242a4.826,4.826,0,0,0-1.986.426V16.95a14.906,14.906,0,0,1,2.58-8.41.981.981,0,1,0-1.624-1.1A16.863,16.863,0,0,0,12.7,16.95v3.614a4.841,4.841,0,0,0,0,5.647V42.574l-2.034.459a6.255,6.255,0,0,0-4.833,5.639L5.615,51.9a2.3,2.3,0,0,0,1.357,2.25l.325.144-.131,2.435a.981.981,0,0,0,.928,1.033h.053a.981.981,0,0,0,.979-.929l.091-1.689,6.018,2.666a.327.327,0,0,1,.195.3v6.931H9.722A.981.981,0,0,1,8.742,64L8.9,61.067a.981.981,0,0,0-1.96-.105L6.782,63.9A2.945,2.945,0,0,0,9.722,67ZM45.488,23.387a2.9,2.9,0,0,1-2.895,2.895h-.16v-5.79h.16A2.9,2.9,0,0,1,45.488,23.387ZM18.833,19.247c0-.279.011-.559.032-.837,4.426.957,7.149-.6,8.7-2.179v.637a1.243,1.243,0,0,0,1.264,1.243,10.7,10.7,0,0,0,9.545-5.268,10.8,10.8,0,0,1,2.1,6.4v8.281a10.819,10.819,0,1,1-21.637,0Zm16.2,22.742v.6a5.413,5.413,0,1,1-10.827,0v-.6A1.626,1.626,0,0,0,25.456,40.4v-.8a12.787,12.787,0,0,0,8.331.021V40.4a1.626,1.626,0,0,0,1.248,1.588ZM16.87,20.492v5.79h-.219a2.895,2.895,0,1,1,0-5.79Zm-2.206,7.326a4.828,4.828,0,0,0,1.986.426h.24a12.8,12.8,0,0,0,6.6,10.48v1.414l-8.829,1.993V27.819ZM46.442,57.775l3.5-1.132.235.076L50.56,64a.982.982,0,0,1-.98,1.033H43.814V58.106a.327.327,0,0,1,.195-.3l.792-.351a1.714,1.714,0,0,0,1.105.405,1.746,1.746,0,0,0,.536-.085ZM42.7,53.646l1.08,2.114-.569.252a2.292,2.292,0,0,0-1.363,2.094v6.932H17.393V58.105a2.292,2.292,0,0,0-1.363-2.094L7.767,52.351a.328.328,0,0,1-.194-.321l.22-3.223A4.279,4.279,0,0,1,11.1,44.948l11.145-2.515v.152a7.376,7.376,0,1,0,14.753,0v-.152l1.538.347c.011.044.022.088.036.132l1.132,3.5-1.132,3.5a1.717,1.717,0,0,0,.856,2.067ZM44.375,35.9,42.7,39.173l-3.273,1.672a1.753,1.753,0,0,0-.153.089l-3.525-.8v-1.38a12.8,12.8,0,0,0,6.663-10.513h.18a4.826,4.826,0,0,0,2.045-.453v7.727a1.738,1.738,0,0,0-.263.38Z"/>
        <path id="Trazado_101662" data-name="Trazado 101662" d="M53.2,43.334l-3.99,4.111-2.58-2.29a.981.981,0,1,0-1.3,1.468l3.282,2.913a.982.982,0,0,0,1.356-.05L54.606,44.7A.981.981,0,0,0,53.2,43.334Z"/>
      </g>
    </g>
  </g>
</svg>
