<svg xmlns="http://www.w3.org/2000/svg" xmlns:xlink="http://www.w3.org/1999/xlink" width="67" height="67" viewBox="0 0 67 67">
  <defs>
    <clipPath id="clip-path">
      <rect id="Rectángulo_5226" data-name="Rectángulo 5226" width="67" height="67" transform="translate(513 6569.183)" fill="#ffcf19" stroke="#707070" stroke-width="1"/>
    </clipPath>
  </defs>
  <g id="Enmascarar_grupo_94" data-name="Enmascarar grupo 94" transform="translate(-513 -6569.183)" clip-path="url(#clip-path)">
    <g id="red-social" transform="translate(513 6569.183)">
      <path id="Trazado_101663" data-name="Trazado 101663" d="M61.151,20.9V55.375L33.5,57.809,5.849,55.375V20.9a8.523,8.523,0,0,1,8.523-8.523H52.628A8.523,8.523,0,0,1,61.151,20.9Z" fill="#f9f7f8"/>
      <path id="Trazado_101664" data-name="Trazado 101664" d="M8.636,57.81,5.85,55.376V20.9a8.523,8.523,0,0,1,8.523-8.523h4.554A8.523,8.523,0,0,0,10.4,20.9V55.376Z" fill="#dedbee"/>
      <path id="Trazado_101665" data-name="Trazado 101665" d="M61.151,52.663v2.713L33.5,57.809,5.849,55.375V52.663Z" fill="#dedbee"/>
      <path id="Trazado_101666" data-name="Trazado 101666" d="M61.15,55.376H5.85a4.868,4.868,0,0,0,0,9.737h55.3a4.868,4.868,0,0,0,0-9.737Z" fill="#f9f7f8"/>
      <path id="Trazado_101667" data-name="Trazado 101667" d="M11.8,63.687a4.852,4.852,0,0,0,3.442,1.425H5.849a4.868,4.868,0,0,1,0-9.736h9.389A4.868,4.868,0,0,0,11.8,63.687Z" fill="#dedbee"/>
      <path id="Trazado_101668" data-name="Trazado 101668" d="M38.783,60.244H28.217a3.474,3.474,0,0,1-3.474-3.474V55.376H42.257V56.77a3.474,3.474,0,0,1-3.474,3.474Z" fill="#dedbee"/>
      <path id="Trazado_101669" data-name="Trazado 101669" d="M11.084,46.769V20.9a3.288,3.288,0,0,1,3.288-3.288H52.627A3.288,3.288,0,0,1,55.916,20.9V46.769a3.373,3.373,0,0,1-3.373,3.373H14.457a3.372,3.372,0,0,1-3.373-3.373Z" fill="#685e68"/>
      <path id="Trazado_101670" data-name="Trazado 101670" d="M17.56,50.141h-3.1a3.373,3.373,0,0,1-3.372-3.372V20.9a3.288,3.288,0,0,1,3.288-3.288h3.1A3.288,3.288,0,0,0,14.188,20.9V46.769a3.373,3.373,0,0,0,3.372,3.372Z" fill="#554e56"/>
      <path id="Trazado_101671" data-name="Trazado 101671" d="M27.313,32.594H6.86a3.572,3.572,0,0,1-3.572-3.572V5.459A3.572,3.572,0,0,1,6.86,1.887H27.313a3.572,3.572,0,0,1,3.572,3.572V29.022a3.571,3.571,0,0,1-3.571,3.572Z" fill="#f9f7f8"/>
      <path id="Trazado_101672" data-name="Trazado 101672" d="M9.421,32.595H6.859a3.572,3.572,0,0,1-3.571-3.572V5.46A3.572,3.572,0,0,1,6.859,1.888H9.421A3.572,3.572,0,0,0,5.849,5.46V29.023A3.572,3.572,0,0,0,9.421,32.595Z" fill="#dedbee"/>
      <path id="Trazado_101673" data-name="Trazado 101673" d="M27.313,46.529H6.86a3.572,3.572,0,0,1-3.572-3.572V40.241A3.572,3.572,0,0,1,6.86,36.67H27.313a3.572,3.572,0,0,1,3.572,3.572v2.717a3.571,3.571,0,0,1-3.571,3.572Z" fill="#62dbfb"/>
      <path id="Trazado_101674" data-name="Trazado 101674" d="M9.421,46.529H6.859a3.571,3.571,0,0,1-3.571-3.571V40.241a3.572,3.572,0,0,1,3.571-3.572H9.421a3.572,3.572,0,0,0-3.572,3.572v2.717A3.572,3.572,0,0,0,9.421,46.529Z" fill="#01d0fb"/>
      <path id="Trazado_101675" data-name="Trazado 101675" d="M60.164,19.437H38.487a3.572,3.572,0,0,1-3.572-3.572V6.673A3.572,3.572,0,0,1,38.487,3.1H60.164a3.572,3.572,0,0,1,3.572,3.572v9.193a3.572,3.572,0,0,1-3.572,3.572Z" fill="#fe646f"/>
      <path id="Trazado_101676" data-name="Trazado 101676" d="M41.048,19.438H38.488a3.572,3.572,0,0,1-3.572-3.572V6.673A3.572,3.572,0,0,1,38.488,3.1h2.561a3.571,3.571,0,0,0-3.571,3.571v9.193A3.572,3.572,0,0,0,41.048,19.438Z" fill="#fd4755"/>
      <path id="Trazado_101677" data-name="Trazado 101677" d="M60.164,46.529H38.487a3.572,3.572,0,0,1-3.572-3.572V27.339a3.572,3.572,0,0,1,3.572-3.572H60.164a3.572,3.572,0,0,1,3.572,3.572V42.958a3.572,3.572,0,0,1-3.572,3.571Z" fill="#f9f7f8"/>
      <path id="Trazado_101678" data-name="Trazado 101678" d="M41.048,46.53H38.488a3.572,3.572,0,0,1-3.572-3.572V27.34a3.571,3.571,0,0,1,3.572-3.571h2.561a3.571,3.571,0,0,0-3.571,3.571V42.958A3.572,3.572,0,0,0,41.048,46.53Z" fill="#dedbee"/>
      <path id="Trazado_101679" data-name="Trazado 101679" d="M18.735,4.491h-3.3a8.544,8.544,0,0,0-8.544,8.544v7.407H27.279V13.034A8.544,8.544,0,0,0,18.735,4.491Z" fill="#ab695d"/>
      <path id="Trazado_101680" data-name="Trazado 101680" d="M20.677,4.712a8.549,8.549,0,0,0-6.6,8.322v7.8H6.894v-7.8a8.544,8.544,0,0,1,8.544-8.544h3.3a8.583,8.583,0,0,1,1.942.221Z" fill="#935b50"/>
      <path id="Trazado_101681" data-name="Trazado 101681" d="M25.339,22.841H8.833a2.4,2.4,0,0,1,0-4.8H25.339a2.4,2.4,0,0,1,0,4.8Z" fill="#ffb09e"/>
      <path id="Trazado_101682" data-name="Trazado 101682" d="M24.555,14.939v7.489a7.469,7.469,0,1,1-14.938.094V14.939c0-.021,0-3.755,0-3.775a14.365,14.365,0,0,0,14.938,3.775Z" fill="#ffdfcf"/>
      <path id="Trazado_101683" data-name="Trazado 101683" d="M19.312,29.649a7.387,7.387,0,0,1-2.169.342,7.469,7.469,0,0,1-7.526-7.469V11.165a14.361,14.361,0,0,0,4.465,3.2v8.157a7.472,7.472,0,0,0,5.229,7.128Z" fill="#ffcebf"/>
      <g id="Grupo_54998" data-name="Grupo 54998">
        <path id="Trazado_101684" data-name="Trazado 101684" d="M62.132,54.478V47.063a4.559,4.559,0,0,0,2.585-4.105V27.339a4.559,4.559,0,0,0-2.585-4.105V20.9c0-.3-.015-.609-.044-.912a4.558,4.558,0,0,0,2.629-4.125V6.673A4.558,4.558,0,0,0,60.164,2.12H38.487a4.558,4.558,0,0,0-4.553,4.553V11.4H31.866V5.459A4.558,4.558,0,0,0,27.313.906H6.86A4.558,4.558,0,0,0,2.307,5.459V29.022a4.558,4.558,0,0,0,2.561,4.093v3.032a4.558,4.558,0,0,0-2.561,4.093v2.717a4.558,4.558,0,0,0,2.561,4.093v7.427A5.849,5.849,0,0,0,5.85,66.094h55.3a5.849,5.849,0,0,0,.982-11.616ZM25.725,56.357H41.275v.413a2.5,2.5,0,0,1-2.493,2.493H28.218a2.5,2.5,0,0,1-2.493-2.493v-.413Zm37.03-13.4a2.593,2.593,0,0,1-2.59,2.59H38.487a2.593,2.593,0,0,1-2.59-2.59V27.339a2.593,2.593,0,0,1,2.59-2.59H60.164a2.593,2.593,0,0,1,2.59,2.59V42.958Zm-2.59-20.172H56.9V20.9a4.218,4.218,0,0,0-.028-.484h3.282c.01.161.017.323.017.484v1.883h0ZM35.9,6.673a2.593,2.593,0,0,1,2.59-2.59H60.164a2.593,2.593,0,0,1,2.59,2.59v9.193a2.593,2.593,0,0,1-2.59,2.59H38.487a2.593,2.593,0,0,1-2.59-2.59Zm-1.963,6.689v2.5a4.565,4.565,0,0,0,.066.767H31.866V13.362ZM4.269,5.459a2.593,2.593,0,0,1,2.59-2.59H27.313a2.593,2.593,0,0,1,2.59,2.59V29.023a2.593,2.593,0,0,1-2.59,2.59H6.86a2.593,2.593,0,0,1-2.59-2.59ZM6.831,33.575H10.1v2.113H6.831ZM4.269,40.241a2.593,2.593,0,0,1,2.59-2.59H27.313a2.593,2.593,0,0,1,2.59,2.59v2.717a2.593,2.593,0,0,1-2.59,2.59H6.86a2.593,2.593,0,0,1-2.59-2.59Zm2.59,7.27h3.307a4.36,4.36,0,0,0,4.289,3.611h3.12a.981.981,0,1,0,0-1.963h-3.12a2.394,2.394,0,0,1-2.271-1.649H27.313a4.558,4.558,0,0,0,4.553-4.553V40.241a4.558,4.558,0,0,0-4.553-4.553H12.065V33.576H27.313a4.558,4.558,0,0,0,4.553-4.553V18.6h2.979a4.549,4.549,0,0,0,3.641,1.823h16.4a2.307,2.307,0,0,1,.052.484v1.883H38.487a4.558,4.558,0,0,0-4.553,4.553V42.958a4.558,4.558,0,0,0,4.553,4.553H54.815a2.394,2.394,0,0,1-2.271,1.649H21.47a.981.981,0,0,0,0,1.963H52.544a4.36,4.36,0,0,0,4.289-3.612h3.336v6.883H6.831V47.51H6.86ZM61.15,64.131H5.85a3.887,3.887,0,0,1,0-7.774H23.762v.413a4.461,4.461,0,0,0,4.456,4.456H38.782a4.461,4.461,0,0,0,4.456-4.456v-.413H61.15a3.887,3.887,0,0,1,0,7.774Z"/>
        <path id="Trazado_101685" data-name="Trazado 101685" d="M8.735,23.82a8.453,8.453,0,0,0,8.351,7.153h.065a8.506,8.506,0,0,0,8.271-7.152,3.377,3.377,0,0,0,2.838-5.08V13.034a9.536,9.536,0,0,0-9.524-9.525h-3.3a9.462,9.462,0,0,0-3.545.683.981.981,0,0,0,.732,1.821,7.508,7.508,0,0,1,2.813-.541h3.3A7.57,7.57,0,0,1,26.3,13.034V17.2a3.367,3.367,0,0,0-.76-.133V14.939A.982.982,0,0,0,24.255,14a12.983,12.983,0,0,1-10.091-.691,13.444,13.444,0,0,1-3.8-2.79.981.981,0,0,0-1.725.631c0,.029,0,3.747,0,3.784v2.127a3.385,3.385,0,0,0-.76.131V13.034A7.558,7.558,0,0,1,10.5,7.3.981.981,0,1,0,9.223,5.816a9.519,9.519,0,0,0-3.31,7.218v5.7A3.383,3.383,0,0,0,8.735,23.82Zm18.023-3.378a1.414,1.414,0,0,1-1.221,1.4V19.038A1.42,1.42,0,0,1,26.758,20.442ZM10.6,14.939v-1.56a16.329,16.329,0,0,0,2.61,1.651,14.96,14.96,0,0,0,10.365,1.2v6.2a6.552,6.552,0,0,1-6.438,6.581A6.488,6.488,0,0,1,10.6,22.522Zm-1.963,6.9a1.416,1.416,0,0,1,0-2.806v2.806Z"/>
        <path id="Trazado_101686" data-name="Trazado 101686" d="M14.9,20.419a.981.981,0,0,0,.981-.981V17.746a.981.981,0,0,0-1.963,0v1.691A.981.981,0,0,0,14.9,20.419Z"/>
        <path id="Trazado_101687" data-name="Trazado 101687" d="M19.27,20.419a.981.981,0,0,0,.981-.981V17.746a.981.981,0,0,0-1.963,0v1.691A.981.981,0,0,0,19.27,20.419Z"/>
        <path id="Trazado_101688" data-name="Trazado 101688" d="M17.086,25.421a4.12,4.12,0,0,0,2.922-1.209.981.981,0,1,0-1.388-1.388,2.173,2.173,0,0,1-3.069,0,.981.981,0,0,0-1.388,1.388,4.12,4.12,0,0,0,2.922,1.209Z"/>
        <path id="Trazado_101689" data-name="Trazado 101689" d="M6.894,41.029H20.814a.981.981,0,0,0,0-1.963H6.894a.981.981,0,0,0,0,1.963Z"/>
        <path id="Trazado_101690" data-name="Trazado 101690" d="M6.894,44.133h6.891a.981.981,0,1,0,0-1.963H6.894a.981.981,0,0,0,0,1.963Z"/>
        <path id="Trazado_101691" data-name="Trazado 101691" d="M38.42,8.408H52.339a.981.981,0,0,0,0-1.963H38.42a.981.981,0,0,0,0,1.963Z"/>
        <path id="Trazado_101692" data-name="Trazado 101692" d="M38.42,11.511h6.891a.981.981,0,0,0,0-1.963H38.42a.981.981,0,0,0,0,1.963Z"/>
        <path id="Trazado_101693" data-name="Trazado 101693" d="M60.231,14.739H46.312a.981.981,0,0,0,0,1.963H60.231a.981.981,0,0,0,0-1.963Z"/>
        <path id="Trazado_101694" data-name="Trazado 101694" d="M52.359,12.617a.981.981,0,0,0,.981.981h6.891a.981.981,0,0,0,0-1.963H53.34A.981.981,0,0,0,52.359,12.617Z"/>
        <path id="Trazado_101695" data-name="Trazado 101695" d="M38.42,28.861h8.948a.981.981,0,0,0,0-1.963H38.42a.981.981,0,0,0,0,1.963Z"/>
        <path id="Trazado_101696" data-name="Trazado 101696" d="M60.231,34.671H38.42a.981.981,0,0,0,0,1.963H60.231a.981.981,0,0,0,0-1.963Z"/>
        <path id="Trazado_101697" data-name="Trazado 101697" d="M60.231,38.218H38.42a.981.981,0,0,0,0,1.963H60.231a.981.981,0,0,0,0-1.963Z"/>
        <path id="Trazado_101698" data-name="Trazado 101698" d="M38.42,31.978h3.446a.981.981,0,0,0,0-1.963H38.42a.981.981,0,0,0,0,1.963Z"/>
      </g>
    </g>
  </g>
</svg>
