<svg xmlns="http://www.w3.org/2000/svg" xmlns:xlink="http://www.w3.org/1999/xlink" width="67" height="67" viewBox="0 0 67 67">
  <defs>
    <clipPath id="clip-path">
      <rect id="Rectángulo_5227" data-name="Rectángulo 5227" width="67" height="67" transform="translate(828 6569.183)" fill="#ffcf19" stroke="#707070" stroke-width="1"/>
    </clipPath>
  </defs>
  <g id="Enmascarar_grupo_95" data-name="Enmascarar grupo 95" transform="translate(-828 -6569.183)" clip-path="url(#clip-path)">
    <g id="estadisticas" transform="translate(828 6569.183)">
      <g id="Grupo_55003" data-name="Grupo 55003">
        <g id="Grupo_54999" data-name="Grupo 54999">
          <path id="Trazado_101699" data-name="Trazado 101699" d="M66.018,13.821v25.9a12.633,12.633,0,0,1-.092,1.529A12.839,12.839,0,0,1,53.178,52.559H13.821A12.84,12.84,0,0,1,.982,39.719v-25.9A12.84,12.84,0,0,1,13.821.981H53.178a12.84,12.84,0,0,1,12.84,12.84Z" fill="#685e68"/>
          <path id="Trazado_101700" data-name="Trazado 101700" d="M17.869,52.559H13.821A12.84,12.84,0,0,1,.982,39.72v-25.9A12.84,12.84,0,0,1,13.821.981h4.048A12.84,12.84,0,0,0,5.03,13.821v25.9A12.84,12.84,0,0,0,17.869,52.559Z" fill="#554e56"/>
          <path id="Trazado_101701" data-name="Trazado 101701" d="M59.989,13.54V40a6.523,6.523,0,0,1-6.529,6.528H17.834A6.527,6.527,0,0,1,11.307,40V13.54A6.529,6.529,0,0,1,16.754,7.1a6.443,6.443,0,0,1,1.08-.09H53.459a6.53,6.53,0,0,1,6.529,6.529Z" fill="#f9f7f8"/>
          <circle id="Elipse_4176" data-name="Elipse 4176" cx="2.217" cy="2.217" r="2.217" transform="translate(3.791 24.554)" fill="#554e56"/>
        </g>
        <g id="Grupo_55000" data-name="Grupo 55000">
          <path id="Trazado_101702" data-name="Trazado 101702" d="M40.547,35.567a13.782,13.782,0,0,1-21.878-.828l3.367-6.061,7.889-1.89L37.2,29.676Z" fill="#80e29d"/>
          <path id="Trazado_101703" data-name="Trazado 101703" d="M43.7,26.789a13.725,13.725,0,0,1-3.158,8.779L29.925,26.789Z" fill="#ffdf7d"/>
          <path id="Trazado_101704" data-name="Trazado 101704" d="M29.925,13.009v13.78L18.669,34.74A13.781,13.781,0,0,1,29.925,13.009Z" fill="#62dbfb"/>
          <path id="Trazado_101705" data-name="Trazado 101705" d="M46.9,23.593H33.121V9.813A13.78,13.78,0,0,1,46.9,23.593Z" fill="#fe646f"/>
        </g>
        <g id="Grupo_55002" data-name="Grupo 55002">
          <path id="Trazado_101706" data-name="Trazado 101706" d="M57.858,44.54A3.177,3.177,0,0,0,54.6,47.715V46.549a3.176,3.176,0,1,0-6.352,0V45.043a3.176,3.176,0,1,0-6.351,0V32.608a3.176,3.176,0,1,0-6.352,0V49.983h0v3.46l-3.377-3.377a3.72,3.72,0,1,0-5.26,5.262l7.936,7.935a9.377,9.377,0,0,0,6.937,2.751h9.766a9.406,9.406,0,0,0,9.406-9.406V47.766a3.21,3.21,0,0,0-3.092-3.226Z" fill="#ffdfcf"/>
          <g id="Grupo_55001" data-name="Grupo 55001">
            <path id="Trazado_101707" data-name="Trazado 101707" d="M39.8,29.619a3.181,3.181,0,0,0-2.1,2.989v21.4a5.348,5.348,0,0,0-1.246.343l-.913-.913V32.608A3.18,3.18,0,0,1,39.8,29.619Z" fill="#ffcebf"/>
            <path id="Trazado_101708" data-name="Trazado 101708" d="M46.15,42.054a3.181,3.181,0,0,0-2.1,2.989v1.412a1.686,1.686,0,0,1-1.686,1.686h-.473v-3.1a3.18,3.18,0,0,1,4.256-2.989Z" fill="#ffcebf"/>
            <path id="Trazado_101709" data-name="Trazado 101709" d="M52.5,43.56a3.181,3.181,0,0,0-2.1,2.989,1.591,1.591,0,0,1-1.591,1.591h-.568V46.549A3.18,3.18,0,0,1,52.5,43.56Z" fill="#ffcebf"/>
            <path id="Trazado_101710" data-name="Trazado 101710" d="M58.853,44.726a3.184,3.184,0,0,0-2.019,2.284l0,.007a1.407,1.407,0,0,1-1.372,1.123H54.6v-.425a3.18,3.18,0,0,1,4.256-2.989Z" fill="#ffcebf"/>
            <path id="Trazado_101711" data-name="Trazado 101711" d="M41.7,66.015a9.376,9.376,0,0,1-6.864-2.752L26.9,55.327a3.72,3.72,0,0,1,4.117-6.04,3.718,3.718,0,0,0-1.145,6.04l7.936,7.936A13.082,13.082,0,0,0,41.7,66.015Z" fill="#ffcebf"/>
          </g>
        </g>
      </g>
      <g id="Grupo_55004" data-name="Grupo 55004">
        <path id="Trazado_101712" data-name="Trazado 101712" d="M53.179,0H13.821A13.837,13.837,0,0,0,0,13.821v25.9A13.837,13.837,0,0,0,13.821,53.541H24.908a4.678,4.678,0,0,0,1.3,2.481l7.937,7.934A10.433,10.433,0,0,0,41.5,67c.1,0,.2,0,.3,0h9.745a10.387,10.387,0,0,0,7.844-3.578.981.981,0,0,0-1.482-1.287,8.425,8.425,0,0,1-6.362,2.9H41.778q-.04,0-.079,0a8.339,8.339,0,0,1-6.166-2.466L27.6,54.635a2.739,2.739,0,1,1,3.872-3.874l3.377,3.376a.981.981,0,0,0,1.675-.694V32.608a2.195,2.195,0,1,1,4.389,0V48.14a.981.981,0,0,0,1.963,0v-3.1h0a2.195,2.195,0,0,1,4.389,0v3.1a.981.981,0,0,0,1.963,0V46.559s0-.007,0-.01a2.195,2.195,0,0,1,4.389,0v1.166a.981.981,0,0,0,1.963,0,2.195,2.195,0,0,1,2.254-2.193,2.234,2.234,0,0,1,2.135,2.245v8.842a8.392,8.392,0,0,1-.363,2.451.981.981,0,0,0,1.877.573,10.355,10.355,0,0,0,.448-3.024V50.416A13.715,13.715,0,0,0,67,39.72v-25.9A13.837,13.837,0,0,0,53.179,0ZM26.4,36.022a.981.981,0,0,0-1.388,0L23.3,37.736a12.9,12.9,0,0,1-3.228-2.787l9.805-6.926,4.736,3.915a4.176,4.176,0,0,0-.055.67v6.113a12.814,12.814,0,0,1-9.41-.059L26.4,37.41a.982.982,0,0,0,0-1.388ZM38.717,28.45a4.151,4.151,0,0,0-3.287,1.616l-2.779-2.3H42.685a12.831,12.831,0,0,1-.471,2.591,4.192,4.192,0,0,0-.559-.693A4.134,4.134,0,0,0,38.717,28.45ZM55.069,44.556a4.154,4.154,0,0,0-6.229-1.264,4.155,4.155,0,0,0-5.965-1.779v-7.64a14.761,14.761,0,0,0,1.811-7.086.981.981,0,0,0-.981-.981h-12.8v-12.8a.981.981,0,0,0-.981-.981,14.709,14.709,0,0,0-10.057,3.957.981.981,0,1,0,1.338,1.436,12.745,12.745,0,0,1,7.737-3.394V26.279l-10,7.067a12.792,12.792,0,0,1-.023-13.089.981.981,0,1,0-1.687-1,14.759,14.759,0,0,0,4.649,19.9l-1.755,1.755H16.145a.981.981,0,0,0,0,1.963H20.53a.982.982,0,0,0,.694-.287l2.436-2.436a14.777,14.777,0,0,0,10.9.655v4.741H17.835A5.553,5.553,0,0,1,12.288,40V13.54a5.553,5.553,0,0,1,5.547-5.547H53.46a5.553,5.553,0,0,1,5.547,5.547V40a5.509,5.509,0,0,1-1.293,3.558,4.1,4.1,0,0,0-2.645,1Zm9.968-4.837a11.758,11.758,0,0,1-3.107,8.006,4.242,4.242,0,0,0-2.162-3.645A7.465,7.465,0,0,0,60.97,40V13.54a7.519,7.519,0,0,0-7.51-7.51H17.835a7.519,7.519,0,0,0-7.51,7.51V40a7.519,7.519,0,0,0,7.51,7.51H34.56v3.563l-1.7-1.7a4.7,4.7,0,0,0-7.892,2.206H13.821A11.872,11.872,0,0,1,1.963,39.72v-25.9A11.872,11.872,0,0,1,13.821,1.963H53.179A11.872,11.872,0,0,1,65.037,13.821Z"/>
        <path id="Trazado_101713" data-name="Trazado 101713" d="M6.008,23.572a3.2,3.2,0,1,0,3.2,3.2A3.2,3.2,0,0,0,6.008,23.572Zm0,4.433A1.235,1.235,0,1,1,7.243,26.77,1.236,1.236,0,0,1,6.008,28.005Z"/>
        <path id="Trazado_101714" data-name="Trazado 101714" d="M47.882,23.593a14.67,14.67,0,0,0-1.509-6.5l1.911-1.911h5.5a.981.981,0,1,0,0-1.963H47.877a.982.982,0,0,0-.694.287l-1.83,1.83A14.758,14.758,0,0,0,33.121,8.832a.981.981,0,0,0-.981.981v13.78a.981.981,0,0,0,.981.981H46.9a.981.981,0,0,0,.982-.981ZM34.1,22.611V10.832a12.81,12.81,0,0,1,9.833,5.925l-2.491,2.491a.981.981,0,0,0,1.388,1.388l2.059-2.059a12.7,12.7,0,0,1,.99,4.036H34.1Z"/>
        <path id="Trazado_101715" data-name="Trazado 101715" d="M47.877,12.125H52.5a.981.981,0,1,0,0-1.963H47.877a.981.981,0,0,0,0,1.963Z"/>
        <path id="Trazado_101716" data-name="Trazado 101716" d="M12.852,38.652a.981.981,0,0,0,.981.981h4.623a.981.981,0,1,0,0-1.963H13.833a.981.981,0,0,0-.981.981Z"/>
        <path id="Trazado_101717" data-name="Trazado 101717" d="M51.013,37.67H48.327a.981.981,0,0,0,0,1.963h2.686a.981.981,0,0,0,0-1.963Z"/>
        <path id="Trazado_101718" data-name="Trazado 101718" d="M55.3,34.552H48.327a.981.981,0,0,0,0,1.963H55.3a.981.981,0,0,0,0-1.963Z"/>
        <path id="Trazado_101719" data-name="Trazado 101719" d="M55.3,31.433H48.327a.981.981,0,0,0,0,1.963H55.3a.981.981,0,1,0,0-1.963Z"/>
        <path id="Trazado_101720" data-name="Trazado 101720" d="M55.3,28.315H48.327a.981.981,0,0,0,0,1.963H55.3a.981.981,0,0,0,0-1.963Z"/>
      </g>
    </g>
  </g>
</svg>
