<svg xmlns="http://www.w3.org/2000/svg" xmlns:xlink="http://www.w3.org/1999/xlink" width="67" height="67" viewBox="0 0 67 67">
  <defs>
    <clipPath id="clip-path">
      <rect id="Rectángulo_5228" data-name="Rectángulo 5228" width="67" height="67" transform="translate(1143 6569.183)" fill="#ffcf19" stroke="#707070" stroke-width="1"/>
    </clipPath>
  </defs>
  <g id="Enmascarar_grupo_96" data-name="Enmascarar grupo 96" transform="translate(-1143 -6569.183)" clip-path="url(#clip-path)">
    <g id="lealtad" transform="translate(1143 6569.183)">
      <g id="Grupo_55010" data-name="Grupo 55010">
        <path id="Trazado_101721" data-name="Trazado 101721" d="M34.047,14.491l-.547.547-.547-.547a9.779,9.779,0,0,0-13.83,13.83L29.455,38.653a5.72,5.72,0,0,0,8.089,0L47.877,28.321a9.779,9.779,0,0,0-13.83-13.83Z" fill="#fe646f"/>
        <path id="Trazado_101722" data-name="Trazado 101722" d="M36.592,39.42a5.721,5.721,0,0,1-7.137-.768L19.123,28.321A9.78,9.78,0,0,1,29.13,12.127,9.781,9.781,0,0,0,25.3,28.321L35.636,38.652A5.567,5.567,0,0,0,36.592,39.42Z" fill="#fd4755"/>
        <g id="Grupo_55006" data-name="Grupo 55006">
          <path id="Trazado_101723" data-name="Trazado 101723" d="M59.845,42.788a3.436,3.436,0,0,0-3.527,3.434V44.961a3.435,3.435,0,0,0-6.87,0V43.332a3.435,3.435,0,1,0-6.87,0V29.882a3.435,3.435,0,0,0-6.87,0V48.675h0v3.742l-3.652-3.652a4.024,4.024,0,1,0-5.69,5.691l8.584,8.583a10.142,10.142,0,0,0,7.5,2.975H53.016A10.173,10.173,0,0,0,63.189,55.84V46.278a3.472,3.472,0,0,0-3.344-3.49Z" fill="#ffdfcf"/>
          <g id="Grupo_55005" data-name="Grupo 55005">
            <path id="Trazado_101724" data-name="Trazado 101724" d="M40.311,26.65a3.44,3.44,0,0,0-2.268,3.233V53.034A5.779,5.779,0,0,0,36.7,53.4l-.987-.987V29.883a3.439,3.439,0,0,1,4.6-3.233Z" fill="#ffcebf"/>
            <path id="Trazado_101725" data-name="Trazado 101725" d="M47.182,40.1a3.44,3.44,0,0,0-2.268,3.233v1.527a1.823,1.823,0,0,1-1.823,1.823h-.512v-3.35a3.439,3.439,0,0,1,4.6-3.233Z" fill="#ffcebf"/>
            <path id="Trazado_101726" data-name="Trazado 101726" d="M54.05,41.728a3.44,3.44,0,0,0-2.268,3.233,1.721,1.721,0,0,1-1.721,1.721h-.614V44.961a3.439,3.439,0,0,1,4.6-3.233Z" fill="#ffcebf"/>
            <path id="Trazado_101727" data-name="Trazado 101727" d="M60.921,42.989a3.444,3.444,0,0,0-2.183,2.47l0,.008a1.521,1.521,0,0,1-1.484,1.215h-.934v-.46a3.439,3.439,0,0,1,4.6-3.233Z" fill="#ffcebf"/>
            <path id="Trazado_101728" data-name="Trazado 101728" d="M42.373,66.015a10.14,10.14,0,0,1-7.423-2.977l-8.583-8.583a4.023,4.023,0,0,1,4.453-6.533,4.022,4.022,0,0,0-1.238,6.533l8.583,8.583a14.139,14.139,0,0,0,4.209,2.977Z" fill="#ffcebf"/>
          </g>
        </g>
        <g id="Grupo_55009" data-name="Grupo 55009">
          <g id="Grupo_55007" data-name="Grupo 55007">
            <path id="Trazado_101729" data-name="Trazado 101729" d="M55.884,24.445l.036-.348a2.347,2.347,0,0,1,2.414-2.106l3.793.129a2.347,2.347,0,0,1,2.255,2.585l-.089.865a2.347,2.347,0,0,1-2.734,2.073L57.82,27a2.347,2.347,0,0,1-1.936-2.553Z" fill="#fee45a"/>
            <path id="Trazado_101730" data-name="Trazado 101730" d="M54.41,15.7l-.143-.319a2.347,2.347,0,0,1,1.038-3.031l3.349-1.785A2.347,2.347,0,0,1,61.9,11.677l.355.793a2.347,2.347,0,0,1-1.331,3.162l-3.562,1.311A2.347,2.347,0,0,1,54.41,15.7Z" fill="#fee45a"/>
            <path id="Trazado_101731" data-name="Trazado 101731" d="M49.018,8.656l-.284-.2a2.347,2.347,0,0,1-.617-3.144l2.008-3.221a2.347,2.347,0,0,1,3.367-.66l.7.509a2.347,2.347,0,0,1,.428,3.4L52.2,8.255a2.347,2.347,0,0,1-3.178.4Z" fill="#fee45a"/>
          </g>
          <g id="Grupo_55008" data-name="Grupo 55008">
            <path id="Trazado_101732" data-name="Trazado 101732" d="M11.116,24.445,11.08,24.1a2.347,2.347,0,0,0-2.414-2.106l-3.793.129a2.347,2.347,0,0,0-2.255,2.585l.089.865A2.347,2.347,0,0,0,5.44,27.643L9.18,27a2.347,2.347,0,0,0,1.936-2.553Z" fill="#fee45a"/>
            <path id="Trazado_101733" data-name="Trazado 101733" d="M12.589,15.7l.143-.319a2.347,2.347,0,0,0-1.038-3.031L8.345,10.566A2.347,2.347,0,0,0,5.1,11.677l-.355.793a2.347,2.347,0,0,0,1.331,3.162l3.562,1.311A2.347,2.347,0,0,0,12.589,15.7Z" fill="#fee45a"/>
            <path id="Trazado_101734" data-name="Trazado 101734" d="M17.981,8.656l.284-.2a2.347,2.347,0,0,0,.617-3.144L16.874,2.086a2.347,2.347,0,0,0-3.367-.66l-.7.509a2.347,2.347,0,0,0-.428,3.4L14.8,8.255A2.347,2.347,0,0,0,17.981,8.656Z" fill="#fee45a"/>
          </g>
        </g>
      </g>
      <g id="Grupo_55011" data-name="Grupo 55011">
        <path id="Trazado_101735" data-name="Trazado 101735" d="M59.872,41.807a4.375,4.375,0,0,0-3.067,1.126,4.412,4.412,0,0,0-6.745-1.367,4.413,4.413,0,0,0-6.5-1.905V34.028l5.012-5.014A10.761,10.761,0,0,0,33.5,13.652a10.677,10.677,0,0,0-8.971-2.9A.981.981,0,1,0,24.8,12.7a8.733,8.733,0,0,1,7.455,2.488l.546.547a.981.981,0,0,0,.694.288h0a.982.982,0,0,0,.694-.287l.547-.547A8.8,8.8,0,1,1,47.183,27.626l-3.624,3.625V29.883a4.417,4.417,0,0,0-4.417-4.417,4.422,4.422,0,0,0-4.417,4.417v9.3a4.722,4.722,0,0,1-4.577-1.226L19.817,27.626a8.8,8.8,0,0,1,1.667-13.749.982.982,0,1,0-1.015-1.68,10.761,10.761,0,0,0-2.04,16.817L28.761,39.347A6.661,6.661,0,0,0,34.726,41.2v8.849L32.748,48.07a5.005,5.005,0,1,0-7.077,7.08l8.585,8.583A11.044,11.044,0,0,0,42.131,67c.112,0,.225,0,.337,0H53.015A11.167,11.167,0,0,0,64.169,55.84V54.4a.981.981,0,0,0-1.963,0V55.84a9.2,9.2,0,0,1-9.192,9.192H42.423a9.114,9.114,0,0,1-6.78-2.687l-8.584-8.583a3.042,3.042,0,0,1,4.3-4.3l3.652,3.652a.981.981,0,0,0,1.675-.694V29.883a2.453,2.453,0,0,1,4.19-1.733,2.428,2.428,0,0,1,.717,1.733v16.8a.981.981,0,1,0,1.963,0v-3.35s0,0,0,0a2.454,2.454,0,0,1,4.907,0v3.349a.981.981,0,1,0,1.963,0V44.966s0,0,0,0a2.454,2.454,0,1,1,4.907,0v1.26a.981.981,0,1,0,1.963,0,2.454,2.454,0,0,1,2.521-2.453,2.5,2.5,0,0,1,2.386,2.509v4.2a.981.981,0,1,0,1.963,0v-4.2a4.472,4.472,0,0,0-4.3-4.471Z"/>
        <path id="Trazado_101736" data-name="Trazado 101736" d="M64.556,22.277a3.34,3.34,0,0,0-2.4-1.139l-3.793-.129A3.338,3.338,0,0,0,54.943,24l-.036.348h0a3.338,3.338,0,0,0,2.745,3.62l3.74.645a3.306,3.306,0,0,0,.562.048A3.327,3.327,0,0,0,65.27,25.67l.089-.865a3.34,3.34,0,0,0-.8-2.528ZM63.406,24.6l-.089.865a1.366,1.366,0,0,1-1.591,1.206l-3.74-.645a1.369,1.369,0,0,1-1.126-1.485L56.9,24.2a1.37,1.37,0,0,1,1.4-1.225l3.793.129a1.366,1.366,0,0,1,1.312,1.5Z"/>
        <path id="Trazado_101737" data-name="Trazado 101737" d="M53.372,15.783l.143.319a3.34,3.34,0,0,0,3.045,1.966,3.3,3.3,0,0,0,1.142-.2l3.562-1.311a3.329,3.329,0,0,0,1.888-4.484l-.355-.793a3.328,3.328,0,0,0-4.6-1.576l-3.349,1.785a3.338,3.338,0,0,0-1.472,4.3Zm2.4-2.566,3.349-1.785A1.366,1.366,0,0,1,61,12.078l.355.793a1.365,1.365,0,0,1-.774,1.84l-3.562,1.311a1.369,1.369,0,0,1-1.718-.723l-.143-.319a1.37,1.37,0,0,1,.6-1.763Z"/>
        <path id="Trazado_101738" data-name="Trazado 101738" d="M48.16,9.246l.284.2a3.338,3.338,0,0,0,4.508-.567L55.38,5.967a3.329,3.329,0,0,0-.608-4.827l-.7-.509a3.329,3.329,0,0,0-4.775.936L47.285,4.787a3.338,3.338,0,0,0,.874,4.458Zm.791-3.42,2.008-3.221a1.366,1.366,0,0,1,1.959-.384l.7.509a1.365,1.365,0,0,1,.249,1.98L51.443,7.627a1.369,1.369,0,0,1-1.849.233l-.284-.205a1.369,1.369,0,0,1-.359-1.829Z"/>
        <path id="Trazado_101739" data-name="Trazado 101739" d="M12.092,24.345,12.056,24A3.338,3.338,0,0,0,8.632,21.01l-3.793.129a3.328,3.328,0,0,0-3.2,3.667l.089.865a3.328,3.328,0,0,0,3.877,2.94l3.74-.645a3.338,3.338,0,0,0,2.745-3.62ZM9.013,26.031l-3.74.645A1.366,1.366,0,0,1,3.682,25.47L3.594,24.6a1.365,1.365,0,0,1,1.312-1.5L8.7,22.972h.046A1.37,1.37,0,0,1,10.1,24.2l.036.348a1.369,1.369,0,0,1-1.126,1.485Z"/>
        <path id="Trazado_101740" data-name="Trazado 101740" d="M12.156,11.485,8.807,9.7a3.328,3.328,0,0,0-4.6,1.576l-.355.793a3.329,3.329,0,0,0,1.888,4.484L9.3,17.865a3.3,3.3,0,0,0,1.142.2A3.341,3.341,0,0,0,13.485,16.1l.143-.319a3.338,3.338,0,0,0-1.472-4.3Zm-.319,3.5-.143.319a1.369,1.369,0,0,1-1.718.723L6.414,14.712a1.365,1.365,0,0,1-.774-1.84L6,12.078a1.366,1.366,0,0,1,1.889-.647l3.349,1.785A1.369,1.369,0,0,1,11.837,14.98Z"/>
        <path id="Trazado_101741" data-name="Trazado 101741" d="M18.556,9.451l.284-.2a3.338,3.338,0,0,0,.875-4.458L17.707,1.567A3.328,3.328,0,0,0,12.932.631l-.7.509a3.329,3.329,0,0,0-.608,4.827l2.429,2.916a3.337,3.337,0,0,0,4.507.567Zm-3-1.824L13.128,4.711a1.365,1.365,0,0,1,.249-1.98l.7-.509a1.366,1.366,0,0,1,1.959.384l2.008,3.221a1.37,1.37,0,0,1-.359,1.829l-.284.2a1.37,1.37,0,0,1-1.849-.233Z"/>
      </g>
    </g>
  </g>
</svg>
