<svg xmlns="http://www.w3.org/2000/svg" width="191.85" height="191.85" viewBox="0 0 191.85 191.85">
  <g id="Grupo_54408" data-name="Grupo 54408" transform="translate(-53.294 -42.57)">
    <path id="Trazado_100622" data-name="Trazado 100622" d="M245.144,138.49a95.92,95.92,0,0,1-95.66,95.93h-.47a95.925,95.925,0,1,1,96.13-95.93Z" fill="#ffb240"/>
    <g id="Grupo_54407" data-name="Grupo 54407">
      <g id="Grupo_54402" data-name="Grupo 54402">
        <path id="Trazado_100623" data-name="Trazado 100623" d="M215.564,207.78a95.626,95.626,0,0,1-66.08,26.64h-.47a95.631,95.631,0,0,1-69.77-30.33c5.08-13.65,14.29-21.8,23.26-27.01,1.02-.6,2.08-1.16,3.16-1.68,1.32-.64,2.67-1.23,4.02-1.77,2.21-.89,4.44-1.66,6.58-2.34,3.57-1.13,6.92-2.02,9.58-2.8,3.6-1.04,5.95-1.9,5.95-2.91V131.76h29.99v33.82c0,1.27,3.641,2.3,8.81,3.76,2.851.81,6.16,1.75,9.581,2.94,1.75.6,3.539,1.28,5.3,2.04,1.471.63,2.931,1.32,4.35,2.08q1.155.615,2.28,1.29C201.514,183.4,211.014,192.44,215.564,207.78Z" fill="#ffd7b5"/>
      </g>
      <path id="Trazado_100624" data-name="Trazado 100624" d="M215.564,207.78a96.566,96.566,0,0,1-8.44,7.2c-2.42,1.84-4.94,3.56-7.53,5.16a95.481,95.481,0,0,1-50.11,14.28h-.47a95.393,95.393,0,0,1-50.16-14.28q-3.885-2.4-7.51-5.16a94.238,94.238,0,0,1-9.45-8.18c-.9-.88-1.78-1.79-2.65-2.71.31-.84.64-1.65.98-2.45a50.282,50.282,0,0,1,4.431-8.18,47.4,47.4,0,0,1,3.969-5.16,52.918,52.918,0,0,1,9.14-8.18c1.57-1.12,3.161-2.12,4.74-3.04,1.02-.6,2.08-1.16,3.16-1.68.32-.15.64-.3.96-.44,1.01-.48,2.031-.92,3.06-1.33q.81-.33,1.62-.63c1.67-.63,3.34-1.2,4.96-1.71.52-.17,1.04-.33,1.55-.48,2.98-.91,5.76-1.65,8.03-2.32l13.97,6.47,9.19,4.26,9.31-4.26,12.28-5.62c2.21.63,4.7,1.34,7.3,2.18.75.24,1.511.49,2.281.76,1.289.44,2.609.93,3.919,1.46.46.19.92.38,1.38.58.48.21.96.42,1.44.64.98.45,1.96.93,2.91,1.44q1.155.615,2.28,1.29c1.24.75,2.48,1.56,3.7,2.43a52.55,52.55,0,0,1,9.141,8.18,47.525,47.525,0,0,1,3.969,5.16,49.6,49.6,0,0,1,4.43,8.18,51.859,51.859,0,0,1,1.92,5.16C215.364,207.12,215.464,207.45,215.564,207.78Z" fill="#451378"/>
      <path id="Trazado_100625" data-name="Trazado 100625" d="M199.594,220.14a95.291,95.291,0,0,1-16.649,8.18H115.494a95.567,95.567,0,0,1-16.64-8.18Z" fill="#6a9dc4"/>
      <path id="Trazado_100626" data-name="Trazado 100626" d="M215.564,207.78a96.566,96.566,0,0,1-8.44,7.2H91.344a94.238,94.238,0,0,1-9.45-8.18h133.37C215.364,207.12,215.464,207.45,215.564,207.78Z" fill="#6a9dc4"/>
      <path id="Trazado_100627" data-name="Trazado 100627" d="M213.344,201.64H80.224a50.282,50.282,0,0,1,4.431-8.18H208.914A49.6,49.6,0,0,1,213.344,201.64Z" fill="#6a9dc4"/>
      <path id="Trazado_100628" data-name="Trazado 100628" d="M204.945,188.3H88.624a52.918,52.918,0,0,1,9.14-8.18H195.8A52.55,52.55,0,0,1,204.945,188.3Z" fill="#6a9dc4"/>
      <path id="Trazado_100629" data-name="Trazado 100629" d="M125.844,168.49l13.97,6.47h-33.19c1.01-.48,2.031-.92,3.06-1.33,2.21-.89,4.44-1.66,6.58-2.34.52-.17,1.04-.33,1.55-.48C120.794,169.9,123.574,169.16,125.844,168.49Z" fill="#6a9dc4"/>
      <path id="Trazado_100630" data-name="Trazado 100630" d="M186.914,174.96h-28.6l12.28-5.62c2.21.63,4.7,1.34,7.3,2.18.75.24,1.511.49,2.281.76,1.75.6,3.539,1.28,5.3,2.04C185.954,174.53,186.434,174.74,186.914,174.96Z" fill="#6a9dc4"/>
      <path id="Trazado_100631" data-name="Trazado 100631" d="M184.094,173.74l-22.31,25.19-12.56-10.63-10.98,10.63L111.3,173c1.67-.63,3.34-1.2,4.96-1.71.52-.17,1.04-.33,1.55-.48,2.98-.91,5.76-1.65,8.03-2.32l13.97,6.47,9.19,4.26,9.31-4.26,12.28-5.62c2.21.63,4.7,1.34,7.3,2.18.75.24,1.511.49,2.281.76C181.464,172.72,182.784,173.21,184.094,173.74Z" fill="#46134b" opacity="0.3" style="mix-blend-mode: multiply;isolation: isolate"/>
      <path id="Trazado_100632" data-name="Trazado 100632" d="M161.784,137.68v19.1a24.771,24.771,0,0,1-13.69,5.4c-8.32.53-13.51-2.97-16.3-5.81V139.35l29.3-2.74Z" fill="#ffc6a6"/>
      <path id="Trazado_100633" data-name="Trazado 100633" d="M109.978,79.144s-7.217,37.787,3.213,55.914c5.216,9.064,19.916,18.723,33.588,18.978s26.314-8.891,32.862-16.844c13.1-15.907,3.245-58.048,3.245-58.048S153.6,58.294,109.978,79.144Z" fill="#ffd7b5"/>
      <g id="Grupo_54403" data-name="Grupo 54403">
        <path id="Trazado_100634" data-name="Trazado 100634" d="M182.957,104.222s8.1-11.477,14-1.4c4.191,7.159-3.653,22.643-13.618,15.975Z" fill="#ffd7b5"/>
      </g>
      <path id="Trazado_100635" data-name="Trazado 100635" d="M188.845,104.341l-2.4,11.723s3.491,1.347,4.791-1.253a3.931,3.931,0,0,0-.448-4.434s4.608-.506,4.413-4.212S189.536,100.973,188.845,104.341Z" fill="#ffac7e"/>
      <g id="Grupo_54404" data-name="Grupo 54404">
        <path id="Trazado_100636" data-name="Trazado 100636" d="M110.783,104.321s-8.1-11.477-14-1.4c-4.192,7.159,3.652,22.643,13.617,15.975Z" fill="#ffd7b5"/>
      </g>
      <path id="Trazado_100637" data-name="Trazado 100637" d="M105.143,104.341l2.4,11.723s-3.491,1.347-4.791-1.253a3.931,3.931,0,0,1,.448-4.434s-4.608-.506-4.413-4.212S104.453,100.973,105.143,104.341Z" fill="#ffac7e"/>
      <path id="Trazado_100638" data-name="Trazado 100638" d="M107.544,76.31s-.54,55.753.281,67.546,34.46,21.176,38.795,21.176,39.549-8.846,39.549-23.052V76.31h-7.833v40.1l-14.7,6.876s-2.387-7.876-17.783-7.876-17.094,7.67-17.094,7.67l-13.543-6.67V75.238Z" fill="#46134b"/>
      <g id="Grupo_54406" data-name="Grupo 54406">
        <g id="Grupo_54405" data-name="Grupo 54405">
          <path id="Trazado_100639" data-name="Trazado 100639" d="M134.641,102.572a3.921,3.921,0,1,1-3.921-3.949A3.935,3.935,0,0,1,134.641,102.572Z" fill="#46134b"/>
          <path id="Trazado_100640" data-name="Trazado 100640" d="M166.781,102.572a3.921,3.921,0,1,1-3.921-3.949A3.935,3.935,0,0,1,166.781,102.572Z" fill="#46134b"/>
        </g>
      </g>
      <path id="Trazado_100641" data-name="Trazado 100641" d="M127.776,115.034c-1.66,2.541-5.324,3.087-8.186,1.218s-3.837-5.442-2.177-7.984,5.324-3.087,8.185-1.218S129.435,112.493,127.776,115.034Z" fill="#ff918b"/>
      <path id="Trazado_100642" data-name="Trazado 100642" d="M165.845,115.034c1.659,2.541,5.324,3.087,8.186,1.218s3.836-5.442,2.177-7.984-5.324-3.087-8.186-1.218S164.186,112.493,165.845,115.034Z" fill="#ff918b"/>
      <path id="Trazado_100643" data-name="Trazado 100643" d="M122.193,98.164a2,2,0,0,1-1.53-3.279c.22-.262,5.516-6.373,15.971-3.937a2,2,0,0,1-.907,3.9c-7.979-1.86-11.856,2.449-12.017,2.634A2.014,2.014,0,0,1,122.193,98.164Z" fill="#46134b"/>
      <path id="Trazado_100644" data-name="Trazado 100644" d="M165.023,96.361a14.332,14.332,0,0,1-9.226-3.4,2,2,0,0,1,2.534-3.1A10.261,10.261,0,0,0,169.968,91.1a2,2,0,1,1,2.117,3.393A13.894,13.894,0,0,1,165.023,96.361Z" fill="#46134b"/>
      <path id="Trazado_100645" data-name="Trazado 100645" d="M140.14,121.478l12.26-1.743s-.451,5.117-5.426,5.824S140.14,121.478,140.14,121.478Z" fill="#fff"/>
    </g>
    <path id="Trazado_100646" data-name="Trazado 100646" d="M119.393,124.557c-1.876-.8-6.433,18.227-3.753,20.64S121.269,125.362,119.393,124.557Z" fill="#5e3162"/>
    <path id="Trazado_100647" data-name="Trazado 100647" d="M127.729,129.284c-1.948-.61-4.555,18.785-1.645,20.913S129.677,129.9,127.729,129.284Z" fill="#5e3162"/>
    <path id="Trazado_100648" data-name="Trazado 100648" d="M138.692,134.83c-1.971-.53-3.777,18.956-.781,20.963S140.664,135.359,138.692,134.83Z" fill="#5e3162"/>
    <path id="Trazado_100649" data-name="Trazado 100649" d="M173.96,125.558c1.877-.805,6.433,18.226,3.753,20.639S172.084,126.362,173.96,125.558Z" fill="#5e3162"/>
    <path id="Trazado_100650" data-name="Trazado 100650" d="M165.624,130.284c1.948-.61,4.556,18.785,1.645,20.913S163.676,130.9,165.624,130.284Z" fill="#5e3162"/>
    <path id="Trazado_100651" data-name="Trazado 100651" d="M154.661,135.83c1.971-.529,3.777,18.956.781,20.963S152.689,136.359,154.661,135.83Z" fill="#5e3162"/>
    <path id="Trazado_100652" data-name="Trazado 100652" d="M145.663,116.341a4.923,4.923,0,0,1-3.213-.853,2.123,2.123,0,0,1-.644-2c1.2-8.132,3.426-20.077,3.448-20.2a.5.5,0,1,1,.983.183c-.022.119-2.241,12.047-3.442,20.161a1.119,1.119,0,0,0,.322,1.111c1.275,1.143,5.47.369,6.978-.026a.5.5,0,0,1,.254.968A20.845,20.845,0,0,1,145.663,116.341Z" fill="#ffb38d"/>
    <path id="Trazado_100653" data-name="Trazado 100653" d="M109.361,77.163s7.529-25.51,37.632-25.51c31.087,0,36.6,27.464,36.6,27.464Z" fill="#ad3320"/>
    <path id="Trazado_100654" data-name="Trazado 100654" d="M107.433,91.415s15.485-6.86,39.56-6.86,39.176,6.86,39.176,6.86,1.527-8.633,1.527-12.846S170.864,66.82,145.8,66.82s-40.357,7.316-41.244,9.754S107.433,91.415,107.433,91.415Z" fill="#d43e20"/>
    <path id="Trazado_100655" data-name="Trazado 100655" d="M114.093,85.63c2.81-.639.767-10.1-1.66-9.392S111.283,86.268,114.093,85.63Z" fill="#ad3320"/>
    <path id="Trazado_100656" data-name="Trazado 100656" d="M123.386,82.842c2.81-.639.767-10.1-1.66-9.392S120.576,83.48,123.386,82.842Z" fill="#ad3320"/>
    <path id="Trazado_100657" data-name="Trazado 100657" d="M133.166,81.071c2.825-.569,1.015-10.075-1.428-9.429S130.342,81.641,133.166,81.071Z" fill="#ad3320"/>
    <path id="Trazado_100658" data-name="Trazado 100658" d="M142.688,79.369c2.852-.41,1.578-10-.9-9.5S139.835,79.779,142.688,79.369Z" fill="#ad3320"/>
    <path id="Trazado_100659" data-name="Trazado 100659" d="M179.225,85.63c-2.81-.639-.766-10.1,1.661-9.392S182.035,86.268,179.225,85.63Z" fill="#ad3320"/>
    <path id="Trazado_100660" data-name="Trazado 100660" d="M169.933,82.842c-2.811-.639-.767-10.1,1.66-9.392S172.743,83.48,169.933,82.842Z" fill="#ad3320"/>
    <path id="Trazado_100661" data-name="Trazado 100661" d="M160.152,81.071c-2.825-.569-1.015-10.075,1.429-9.429S162.977,81.641,160.152,81.071Z" fill="#ad3320"/>
    <path id="Trazado_100662" data-name="Trazado 100662" d="M150.631,79.369c-2.853-.41-1.578-10,.9-9.5S153.483,79.779,150.631,79.369Z" fill="#ad3320"/>
    <path id="Trazado_100663" data-name="Trazado 100663" d="M177.894,171.52l-17.06,19.39L149,183.09l-10.76,7.82-20.43-20.1c2.98-.91,5.76-1.65,8.03-2.32L149,179.22l21.59-9.88C172.8,169.97,175.294,170.68,177.894,171.52Z" fill="#fff"/>
  </g>
</svg>
