<svg xmlns="http://www.w3.org/2000/svg" width="191.85" height="202.951" viewBox="0 0 191.85 202.951">
  <g id="Grupo_54422" data-name="Grupo 54422" transform="translate(-53.294 -256.739)">
    <path id="Trazado_100687" data-name="Trazado 100687" d="M245.144,363.76a95.926,95.926,0,0,1-92.43,95.86c-1.16.05-2.32.07-3.49.07q-1.68,0-3.36-.06a95.929,95.929,0,1,1,99.28-95.87Z" fill="#6a9dc4"/>
    <path id="Trazado_100688" data-name="Trazado 100688" d="M200.886,369.439c-15.973-4.108-14.385-21.17-8.369-40.569s-5.917-39.447-15.2-45.382c-14.779-9.446-45.77-9.706-60.549-.26-9.285,5.934-21.218,25.983-15.2,45.382s8,38.571-8.369,40.568-25.213,25.149-20.363,39.159c5.4,15.606,14.851,34.951,54.795,10.148,9.578-5.947,15.658-16.638,19.376-29.446,3.712,12.923,9.809,23.719,19.452,29.707,39.944,24.8,54.336,7.976,57.795-5.148C230.013,391.731,222.28,374.94,200.886,369.439Z" fill="#c746ac"/>
    <path id="Trazado_100689" data-name="Trazado 100689" d="M124.783,352.058s.574,21.045-19.135,29.075S91.8,412.707,124.785,425.21s77.833-5.217,73.327-30.883-33.591-6.883-30.818-44.216Z" fill="#46134b" opacity="0.2" style="mix-blend-mode: multiply;isolation: isolate"/>
    <g id="Grupo_54421" data-name="Grupo 54421">
      <g id="Grupo_54416" data-name="Grupo 54416">
        <path id="Trazado_100690" data-name="Trazado 100690" d="M215.574,433.03a95.491,95.491,0,0,1-62.86,26.59c-1.98.01-3.95.01-5.93.01h-.92a95.636,95.636,0,0,1-66.64-30.28c5.08-13.68,14.3-21.84,23.28-27.06,1.02-.6,2.08-1.16,3.16-1.68,1.32-.64,2.67-1.23,4.02-1.77,2.21-.89,4.44-1.66,6.58-2.34,3.13-.99,6.08-1.8,8.56-2.5,4.16-1.19,6.97-2.11,6.97-3.21V356.97h29.99v33.82c0,1.64,6.04,2.87,13.61,5.16,1.54.46,3.15.97,4.781,1.54,1.75.6,3.539,1.28,5.3,2.04,1.471.63,2.931,1.32,4.35,2.08q1.155.615,2.28,1.29C201.524,408.61,211.034,417.67,215.574,433.03Z" fill="#ffd7b5"/>
      </g>
      <path id="Trazado_100691" data-name="Trazado 100691" d="M161.784,362.89v19.1a24.771,24.771,0,0,1-13.69,5.4c-8.32.53-13.51-2.97-16.3-5.81V364.56l29.3-2.74Z" fill="#ffc6a6"/>
      <path id="Trazado_100692" data-name="Trazado 100692" d="M115.167,300.033S105,340,114.9,359.173c4.951,9.586,19.045,15.487,32.024,15.758s24.841-5.09,31.057-13.5c12.432-16.824-.907-61.4-.907-61.4S156.574,277.979,115.167,300.033Z" fill="#ffd7b5"/>
      <g id="Grupo_54417" data-name="Grupo 54417">
        <path id="Trazado_100693" data-name="Trazado 100693" d="M112.831,333.831s-7.642-10.825-13.206-1.323c-3.953,6.753,3.445,21.358,12.845,15.069Z" fill="#ffd7b5"/>
      </g>
      <g id="Grupo_54418" data-name="Grupo 54418">
        <path id="Trazado_100694" data-name="Trazado 100694" d="M180.909,333.738s7.642-10.825,13.206-1.323c3.954,6.753-3.445,21.357-12.845,15.068Z" fill="#ffd7b5"/>
      </g>
      <g id="Grupo_54420" data-name="Grupo 54420">
        <g id="Grupo_54419" data-name="Grupo 54419">
          <path id="Trazado_100695" data-name="Trazado 100695" d="M134.641,327.782a3.921,3.921,0,1,1-3.921-3.949A3.935,3.935,0,0,1,134.641,327.782Z" fill="#46134b"/>
          <path id="Trazado_100696" data-name="Trazado 100696" d="M166.781,327.782a3.921,3.921,0,1,1-3.921-3.949A3.936,3.936,0,0,1,166.781,327.782Z" fill="#46134b"/>
        </g>
      </g>
      <ellipse id="Elipse_4069" data-name="Elipse 4069" cx="5.495" cy="6.188" rx="5.495" ry="6.188" transform="matrix(0.547, -0.837, 0.837, 0.547, 112.408, 336.079)" fill="#ff918b"/>
      <ellipse id="Elipse_4070" data-name="Elipse 4070" cx="6.188" cy="5.495" rx="6.188" ry="5.495" transform="matrix(0.837, -0.547, 0.547, 0.837, 164.841, 333.642)" fill="#ff918b"/>
      <path id="Trazado_100697" data-name="Trazado 100697" d="M145.611,340.11a3.9,3.9,0,0,1-3.758-2.118c-.525-1.051.22-1.8,1.009-2.6a6.637,6.637,0,0,0,2.182-3.744c.754-4.464-1.026-11.968-1.044-12.044a.5.5,0,0,1,.973-.234c.075.316,1.846,7.778,1.057,12.445a7.589,7.589,0,0,1-2.457,4.28c-.811.819-1,1.092-.825,1.451,1.505,3.01,6.206.753,6.254.728a.5.5,0,0,1,.441.9A9.219,9.219,0,0,1,145.611,340.11Z" fill="#ffb38d"/>
      <path id="Trazado_100698" data-name="Trazado 100698" d="M124.659,321.535a1,1,0,0,1-.679-1.731c.149-.137,3.737-3.349,10.839-2.068a1,1,0,0,1-.356,1.969c-6.063-1.1-9.01,1.464-9.133,1.574A1,1,0,0,1,124.659,321.535Z" fill="#b364aa"/>
      <path id="Trazado_100699" data-name="Trazado 100699" d="M167.294,320.486a1,1,0,0,1-.673-.26c-.134-.119-3.08-2.669-9.133-1.573a1,1,0,0,1-.356-1.968c7.106-1.282,10.69,1.928,10.84,2.066a1,1,0,0,1-.678,1.735Z" fill="#b364aa"/>
      <path id="Trazado_100700" data-name="Trazado 100700" d="M107.512,333.85l2.268,11.057s-3.292,1.271-4.519-1.181a3.709,3.709,0,0,1,.423-4.183s-4.347-.477-4.163-3.972S106.861,330.673,107.512,333.85Z" fill="#ffac7e"/>
      <path id="Trazado_100701" data-name="Trazado 100701" d="M186.462,333.85l-2.268,11.057s3.293,1.271,4.519-1.181a3.709,3.709,0,0,0-.423-4.183s4.347-.477,4.163-3.972S187.114,330.673,186.462,333.85Z" fill="#ffac7e"/>
    </g>
    <path id="Trazado_100702" data-name="Trazado 100702" d="M168.782,290.231c-10.4-2.139-38.062,0-38.062,0l-20.148,9.827-.792,14.827s3.365-.052,8.661-.12l2.153-8.465,1.192,8.423,1.345-.017,3.669-11.267.851,11.215c7.058-.079,15.4-.158,23.5-.2l.981-15.437,1.617,15.424c1.772-.007,3.523-.013,5.238-.016L166.78,297.2l1.393,17.24c8.154.039,14.353.167,16.022.449C190.372,315.925,179.187,292.37,168.782,290.231Z" fill="#c746ac"/>
    <path id="Trazado_100703" data-name="Trazado 100703" d="M147.7,348.363c-5.75,0-8.655-2.888-8.806-3.043a1,1,0,0,1,1.427-1.4c.171.172,4.057,3.923,12.06,1.792a1,1,0,0,1,.514,1.934A20.233,20.233,0,0,1,147.7,348.363Z" fill="#cc574a"/>
    <path id="Trazado_100704" data-name="Trazado 100704" d="M137.8,276.272s2.169-18.505-10.739-19.533a82.883,82.883,0,0,0-4.427,7.982s12.576,3.918,10.333,14.714Z" fill="#ff8b40"/>
    <path id="Trazado_100705" data-name="Trazado 100705" d="M195.614,293.92a40.527,40.527,0,0,1-4.97,8.18s-48.75-11.92-90.51,11.72c0,0-7.61-2.97-8.09-13.38-.24-5.32,2.64-10.87,8.58-15.38,5.45-4.14,13.49-7.4,24.031-8.79,17.529-2.31,46.819-20.56,66.609-5.91C200.6,277.28,198.734,287.05,195.614,293.92Z" fill="#ffb240"/>
    <path id="Trazado_100706" data-name="Trazado 100706" d="M195.614,293.92a40.527,40.527,0,0,1-4.97,8.18s-48.75-11.92-90.51,11.72c0,0-7.61-2.97-8.09-13.38-.24-5.32,2.64-10.87,8.58-15.38-1.31,7.13-.42,15.91,12.23,15.23C131.724,299.27,170.534,275.9,195.614,293.92Z" fill="#ff8b40"/>
    <path id="Trazado_100707" data-name="Trazado 100707" d="M215.574,433.03a95.6,95.6,0,0,1-62.86,26.59c-1.98.01-3.95.01-5.93.01h-.92a95.624,95.624,0,0,1-66.64-30.28c5.08-13.68,14.3-21.84,23.28-27.06,1.02-.6,2.08-1.16,3.16-1.68,1.32-.64,2.67-1.23,4.02-1.77,2.21-.89,4.44-1.66,6.58-2.34.931-.3,1.85-.57,2.74-.84.01-.01.01-.01.02,0a.254.254,0,0,1,.07-.02c2.07-.62,4.01-1.16,5.73-1.64.75,5.46,4.64,22.87,23.98,23.36,15.96.4,23.48-13.13,26.59-21.41,1.36.41,2.781.85,4.22,1.35a.175.175,0,0,1,.05.01l.511.18c1.75.6,3.539,1.28,5.3,2.04,1.471.63,2.931,1.32,4.35,2.08q1.155.615,2.28,1.29C201.524,408.61,211.034,417.67,215.574,433.03Z" fill="#ff8b40"/>
    <path id="Trazado_100708" data-name="Trazado 100708" d="M185.2,452.71a95.85,95.85,0,0,1-32.49,6.91c-1.98.01-3.95.01-5.93.01h-.92a95.353,95.353,0,0,1-34.82-7.84l7.55-24.97s13.47,47.03,59.561,16.9A49.612,49.612,0,0,1,185.2,452.71Z" fill="#46134b" opacity="0.2" style="mix-blend-mode: multiply;isolation: isolate"/>
    <path id="Trazado_100709" data-name="Trazado 100709" d="M124.675,456.52a95.876,95.876,0,0,1-45.451-27.17s4.5-25.93,5.951-27.09c1.4-1.12,31.919-6.28,33.829-6.6.01-.01.01-.01.02,0a.226.226,0,0,1,.07-.02Z" fill="#451378"/>
    <path id="Trazado_100710" data-name="Trazado 100710" d="M215.574,433.03a95.564,95.564,0,0,1-43.87,24l7.91-59.73a.175.175,0,0,1,.05.01c1.37.26,30.22,5.82,31.65,6.95C212.764,405.42,215.574,433.03,215.574,433.03Z" fill="#451378"/>
    <path id="Trazado_100711" data-name="Trazado 100711" d="M152.636,426.08a3.417,3.417,0,1,0-3.417,3.417A3.416,3.416,0,0,0,152.636,426.08Z" fill="#fff"/>
  </g>
</svg>
