<svg xmlns="http://www.w3.org/2000/svg" width="191.85" height="199.516" viewBox="0 0 191.85 199.516">
  <g id="Grupo_54415" data-name="Grupo 54415" transform="translate(-279.075 -34.904)">
    <path id="Trazado_100664" data-name="Trazado 100664" d="M470.925,138.49a95.938,95.938,0,0,1-95.9,95.93h-.23a95.925,95.925,0,1,1,96.13-95.93Z" fill="#6a9dc4"/>
    <path id="Trazado_100665" data-name="Trazado 100665" d="M404.469,131.76c15.962,0,18.744-51.541,8.982-60.15,1.772-26.316-17.96-37.269-28.908-24.178-14.614-22-28.292-11.428-24.738,4.221-17.729-7.629-24.172,4.636-19.849,13.368-11.306,3.744-6.983,21.529-4.157,26.761-9,48.023,16.129,43.319,16.129,43.319l56.581-9.568Z" fill="#46134b"/>
    <g id="Grupo_54414" data-name="Grupo 54414">
      <g id="Grupo_54409" data-name="Grupo 54409">
        <path id="Trazado_100666" data-name="Trazado 100666" d="M443.045,206.1a95.607,95.607,0,0,1-68.02,28.32h-.23a95.6,95.6,0,0,1-68.14-28.63c4.93-14.68,14.52-23.29,23.86-28.71,1.02-.6,2.08-1.16,3.16-1.68,1.32-.64,2.67-1.23,4.02-1.77,2.21-.89,4.44-1.66,6.58-2.34,8.39-2.66,15.53-3.95,15.53-5.71V131.76H389.8v33.82c0,1.97,8.76,3.35,18.39,6.7,1.75.6,3.54,1.28,5.3,2.04,1.47.63,2.93,1.32,4.35,2.08q1.155.615,2.28,1.29C429.185,183.19,438.325,191.78,443.045,206.1Z" fill="#ffd7b5"/>
      </g>
      <path id="Trazado_100667" data-name="Trazado 100667" d="M389.8,137.68v19.1c-3.4,2.65-7.98,7.882-13.69,8.252-8.32.529-13.51-5.822-16.3-8.662V139.35l29.3-2.74Z" fill="#ffc6a6"/>
      <path id="Trazado_100668" data-name="Trazado 100668" d="M339.865,74.823s-4.851,38.967,5.051,58.14c4.951,9.586,16.905,23.686,29.884,23.957s22.98-13.289,29.2-21.7c12.432-16.824,5.081-60.4,5.081-60.4S381.272,52.769,339.865,74.823Z" fill="#ffd7b5"/>
      <g id="Grupo_54410" data-name="Grupo 54410">
        <path id="Trazado_100669" data-name="Trazado 100669" d="M338.793,104.321s-8.1-11.477-14-1.4c-4.192,7.159,3.652,22.643,13.617,15.975Z" fill="#ffd7b5"/>
      </g>
      <g id="Grupo_54411" data-name="Grupo 54411">
        <path id="Trazado_100670" data-name="Trazado 100670" d="M410.968,104.222s8.1-11.477,14-1.4c4.191,7.159-3.652,22.643-13.618,15.975Z" fill="#ffd7b5"/>
      </g>
      <g id="Grupo_54413" data-name="Grupo 54413">
        <g id="Grupo_54412" data-name="Grupo 54412">
          <path id="Trazado_100671" data-name="Trazado 100671" d="M362.651,102.572a3.921,3.921,0,1,1-3.92-3.949A3.935,3.935,0,0,1,362.651,102.572Z" fill="#46134b"/>
          <path id="Trazado_100672" data-name="Trazado 100672" d="M394.791,102.572a3.921,3.921,0,1,1-3.921-3.949A3.935,3.935,0,0,1,394.791,102.572Z" fill="#46134b"/>
        </g>
      </g>
      <path id="Trazado_100673" data-name="Trazado 100673" d="M353.786,113.034c-1.659,2.541-5.324,3.087-8.186,1.218s-3.836-5.443-2.177-7.984,5.324-3.087,8.185-1.219S355.445,110.492,353.786,113.034Z" fill="#ff918b"/>
      <path id="Trazado_100674" data-name="Trazado 100674" d="M395.855,113.034c1.659,2.541,5.324,3.087,8.186,1.218s3.836-5.443,2.177-7.984-5.324-3.087-8.185-1.219S394.2,110.492,395.855,113.034Z" fill="#ff918b"/>
      <path id="Trazado_100675" data-name="Trazado 100675" d="M373.621,114.9a3.9,3.9,0,0,1-3.758-2.118c-1.812-3.625,1.988-18.023,2.15-18.634a.5.5,0,0,1,.967.257c-1.081,4.062-3.587,15.2-2.222,17.93,1.505,3.009,6.207.751,6.254.729a.5.5,0,1,1,.441.9A9.227,9.227,0,0,1,373.621,114.9Z" fill="#ffb38d"/>
      <path id="Trazado_100676" data-name="Trazado 100676" d="M350.2,98.174a2,2,0,0,1-1.528-3.289c.22-.262,5.519-6.375,15.972-3.937a2,2,0,1,1-.908,3.9c-8.1-1.887-11.968,2.574-12.006,2.62A2,2,0,0,1,350.2,98.174Z" fill="#46134b"/>
      <path id="Trazado_100677" data-name="Trazado 100677" d="M399.064,98.174a2,2,0,0,1-1.52-.7c-.183-.208-4.061-4.484-12.016-2.632a2,2,0,0,1-.907-3.9c10.449-2.436,15.75,3.675,15.97,3.937a2,2,0,0,1-1.527,3.289Z" fill="#46134b"/>
      <path id="Trazado_100678" data-name="Trazado 100678" d="M385.075,118.86s-1.97,8.44-10.44,8.44-10.44-8.44-10.44-8.44Z" fill="#ad3320"/>
      <path id="Trazado_100679" data-name="Trazado 100679" d="M333.154,104.341l2.4,11.723s-3.491,1.347-4.791-1.253a3.932,3.932,0,0,1,.448-4.434s-4.608-.506-4.413-4.212S332.463,100.973,333.154,104.341Z" fill="#ffac7e"/>
      <path id="Trazado_100680" data-name="Trazado 100680" d="M416.856,104.341l-2.4,11.723s3.491,1.347,4.791-1.253a3.932,3.932,0,0,0-.448-4.434s4.608-.506,4.413-4.212S417.546,100.973,416.856,104.341Z" fill="#ffac7e"/>
    </g>
    <path id="Trazado_100681" data-name="Trazado 100681" d="M336.534,85.47s-3.956,24.181,3.567,34.476c.4-6.377,1.477-30.153,1.477-30.153s7.929-7.205,7.026-16.032c21.794,11.889,53.856,19.454,50.459-.72,5.018,9.006,8.441,14.77,8.441,14.77l2.847,30.984c3.962-2.684,7.194-14.454,3.324-27.742-3.427-11.765-.227-19.093-.227-19.093L401.037,55.749,354.81,61.333l-12.332,5.584-5.889,7.745Z" fill="#46134b"/>
    <path id="Trazado_100682" data-name="Trazado 100682" d="M443.045,206.1a95.607,95.607,0,0,1-68.02,28.32h-.23a95.6,95.6,0,0,1-68.14-28.63,50.075,50.075,0,0,1,17.32-24.33,59.682,59.682,0,0,1,6.54-4.38c1.02-.6,2.08-1.16,3.16-1.68,1.32-.64,2.67-1.23,4.02-1.77,2.21-.89,4.44-1.66,6.58-2.34,3.98-1.26,7.69-2.22,10.48-3.06,3.08-.93,5.05-1.73,5.05-2.65v-2.54c3.94,3.03,11.03,8.49,11.74,9.11,1,.86,3.09,7.55,3.09,7.55s1.3-6.42,2.93-7.88c1.09-.98,7.87-5.49,12.23-8.35v2.11c0,.8,1.45,1.5,3.83,2.29,3.45,1.13,8.85,2.42,14.56,4.41,1.75.6,3.54,1.28,5.3,2.04,1.47.63,2.93,1.32,4.35,2.08q1.155.615,2.28,1.29c.53.32,1.07.66,1.6,1.01A50.728,50.728,0,0,1,443.045,206.1Z" fill="#d43e20"/>
    <path id="Trazado_100683" data-name="Trazado 100683" d="M393.625,167.87,374.8,188.3l-20.04-20.07c3.08-.93,5.05-1.73,5.05-2.65v-2.54c3.94,3.03,11.03,8.49,11.74,9.11,1,.86,3.09,7.55,3.09,7.55s1.3-6.42,2.93-7.88c1.09-.98,7.87-5.49,12.23-8.35v2.11C389.8,166.38,391.245,167.08,393.625,167.87Z" fill="#ad3320"/>
    <path id="Trazado_100684" data-name="Trazado 100684" d="M443.045,206.1a95.607,95.607,0,0,1-68.02,28.32h-.23a95.6,95.6,0,0,1-68.14-28.63,50.075,50.075,0,0,1,17.32-24.33c5.32,14.23,20.78,46.86,50.98,46.86,30.41,0,42.85-34.8,46.76-49.62A50.728,50.728,0,0,1,443.045,206.1Z" fill="#ad3320"/>
    <path id="Trazado_100685" data-name="Trazado 100685" d="M382.985,118.86c-.56,1.29-2.28,3.02-7.39,3.34-6.2.39-8.79-2.06-9.7-3.34Z" fill="#fff"/>
    <path id="Trazado_100686" data-name="Trazado 100686" d="M368.955,129.247l5.593,1.876,5.767-1.876s-.224,5.306-5.767,9.248A14.189,14.189,0,0,1,368.955,129.247Z" fill="#46134b"/>
  </g>
</svg>
