<svg xmlns="http://www.w3.org/2000/svg" width="191.85" height="191.86" viewBox="0 0 191.85 191.86">
  <g id="Grupo_54447" data-name="Grupo 54447" transform="translate(-504.856 -267.83)">
    <path id="Trazado_100764" data-name="Trazado 100764" d="M696.706,363.76a95.934,95.934,0,0,1-92.52,95.87c-1.13.04-2.26.06-3.4.06-1.18,0-2.36-.02-3.53-.07a95.927,95.927,0,1,1,99.45-95.86Z" fill="#6a9dc4"/>
    <path id="Trazado_100765" data-name="Trazado 100765" d="M643.677,334.731c6.6-24.9,3.769-37.331-7.824-43.093-5.062-13.061-13.761-9-13.761-9-6.187-16.5-17.249-13.565-22.071-11.3-4.822-2.264-15.883-5.2-22.071,11.3,0,0-8.7-4.06-13.76,9-11.593,5.762-14.428,18.192-7.825,43.093s-29.4,20.291-25.034,41.8h19.24l3.05-9.773,1.471,9.773h3.181l2.207-9.773,1.561,9.773h9.948l-.569-3.841,2.119,3.841h55.409l4.684-14.984v14.984h11.951l.745-8.62,4.2,8.62h18.183C673.075,355.022,637.074,359.631,643.677,334.731Z" fill="#d43e20"/>
    <g id="Grupo_54446" data-name="Grupo 54446">
      <g id="Grupo_54441" data-name="Grupo 54441">
        <path id="Trazado_100766" data-name="Trazado 100766" d="M669.116,431.08a95.571,95.571,0,0,1-64.93,28.55h-3.24c-1.23,0-2.46,0-3.69-.01a95.6,95.6,0,0,1-64.56-28.29c4.9-14.88,14.57-23.58,23.97-29.04,1.02-.6,2.08-1.16,3.16-1.68,1.32-.64,2.67-1.23,4.02-1.77,1.19-.48,2.38-.92,3.57-1.34,1.01-.35,2.02-.69,3.01-1,8.39-2.66,15.53-3.95,15.53-5.71V356.97h29.99v33.82c0,1.97,8.76,3.35,18.39,6.7.81.28,1.63.57,2.45.89.95.36,1.9.74,2.85,1.15,1.47.63,2.93,1.32,4.35,2.08q1.155.615,2.28,1.29C655.286,408.37,664.376,416.9,669.116,431.08Z" fill="#ffd7b5"/>
      </g>
      <path id="Trazado_100767" data-name="Trazado 100767" d="M615.945,362.89v19.1a24.771,24.771,0,0,1-13.69,5.4c-8.32.53-13.51-2.97-16.3-5.81V364.56l29.3-2.74Z" fill="#ffc6a6"/>
      <path id="Trazado_100768" data-name="Trazado 100768" d="M567.407,300.033s-6.58,35.966,2.93,55.14c4.754,9.586,18.157,23.8,30.621,24.073s23.991-13.4,29.96-21.817c11.94-16.824,2.959-57.4,2.959-57.4S607.174,277.979,567.407,300.033Z" fill="#ffd7b5"/>
      <g id="Grupo_54442" data-name="Grupo 54442">
        <path id="Trazado_100769" data-name="Trazado 100769" d="M564.943,329.531s-8.1-11.477-14-1.4c-4.192,7.159,3.652,22.643,13.617,15.975Z" fill="#ffd7b5"/>
      </g>
      <g id="Grupo_54443" data-name="Grupo 54443">
        <path id="Trazado_100770" data-name="Trazado 100770" d="M637.118,329.432s8.1-11.477,14-1.4c4.192,7.159-3.652,22.643-13.618,15.975Z" fill="#ffd7b5"/>
      </g>
      <g id="Grupo_54445" data-name="Grupo 54445">
        <g id="Grupo_54444" data-name="Grupo 54444">
          <path id="Trazado_100771" data-name="Trazado 100771" d="M588.8,327.782a3.921,3.921,0,1,1-3.921-3.949A3.936,3.936,0,0,1,588.8,327.782Z" fill="#46134b"/>
          <path id="Trazado_100772" data-name="Trazado 100772" d="M620.941,327.782a3.921,3.921,0,1,1-3.921-3.949A3.935,3.935,0,0,1,620.941,327.782Z" fill="#46134b"/>
        </g>
      </g>
      <path id="Trazado_100773" data-name="Trazado 100773" d="M585.936,344.244c-1.659,2.541-5.324,3.087-8.186,1.219s-3.836-5.443-2.177-7.985,5.324-3.087,8.186-1.218S587.595,341.7,585.936,344.244Z" fill="#ff918b"/>
      <path id="Trazado_100774" data-name="Trazado 100774" d="M616.005,344.244c1.659,2.541,5.324,3.087,8.186,1.219s3.836-5.443,2.177-7.985-5.324-3.087-8.186-1.218S614.346,341.7,616.005,344.244Z" fill="#ff918b"/>
      <path id="Trazado_100775" data-name="Trazado 100775" d="M599.771,340.11a3.9,3.9,0,0,1-3.757-2.118c-.412-.823.3-1.717,1.211-2.848a7.663,7.663,0,0,0,1.939-3.47c.6-5.31-.987-12-1-12.071a.5.5,0,1,1,.971-.234c.068.28,1.65,6.931,1.025,12.418a8.48,8.48,0,0,1-2.151,3.982c-.487.607-1.223,1.526-1.1,1.776,1.505,3.01,6.207.753,6.254.728a.5.5,0,0,1,.441.9A9.211,9.211,0,0,1,599.771,340.11Z" fill="#ffb38d"/>
      <path id="Trazado_100776" data-name="Trazado 100776" d="M576.352,322.384a1,1,0,0,1-.764-1.645c.2-.241,5.114-5.909,14.98-3.607a1,1,0,1,1-.454,1.947c-8.684-2.019-12.956,2.9-13,2.949A1,1,0,0,1,576.352,322.384Z" fill="#ad3320"/>
      <path id="Trazado_100777" data-name="Trazado 100777" d="M625.214,322.384a1,1,0,0,1-.763-.353c-.179-.209-4.381-4.958-13-2.952a1,1,0,1,1-.454-1.947c9.864-2.3,14.776,3.364,14.981,3.607a1,1,0,0,1-.764,1.645Z" fill="#ad3320"/>
      <path id="Trazado_100778" data-name="Trazado 100778" d="M559.3,329.551l2.4,11.723s-3.491,1.347-4.791-1.253a3.931,3.931,0,0,1,.448-4.434s-4.608-.506-4.413-4.212S558.613,326.183,559.3,329.551Z" fill="#ffac7e"/>
      <path id="Trazado_100779" data-name="Trazado 100779" d="M643.006,329.551l-2.4,11.723s3.491,1.347,4.791-1.253a3.931,3.931,0,0,0-.448-4.434s4.608-.506,4.413-4.212S643.7,326.183,643.006,329.551Z" fill="#ffac7e"/>
    </g>
    <path id="Trazado_100780" data-name="Trazado 100780" d="M593.812,344.4l11.7,1.44S598.151,350.406,593.812,344.4Z" fill="#ad3320"/>
    <path id="Trazado_100781" data-name="Trazado 100781" d="M561.708,313.721s-2.349,27.2,8.023,51.192a364.6,364.6,0,0,1,0-62.83s34.189,13.445,62.231,12.677c2.689,13.829,2.689,47.06,2.689,47.06s6.426-27.107,4.942-52.065-12.406-21.117-12.406-21.117l-41.232-2.689-20.765,8.972-3.482,6.778" fill="#d43e20"/>
    <path id="Trazado_100782" data-name="Trazado 100782" d="M669.116,431.08a95.576,95.576,0,0,1-62.75,28.45c-.54.03-1.09.06-1.64.08-.18.01-.36.01-.54.02h-3.98c-.51,0-1.03,0-1.54-.01-.47.01-.94,0-1.41,0a95.6,95.6,0,0,1-64.56-28.29,50.377,50.377,0,0,1,10.86-18.67c.23-.25.46-.49.69-.73a52.673,52.673,0,0,1,6.69-5.88c.28-.2.55-.41.83-.6,1.62-1.16,3.27-2.21,4.9-3.16,1.02-.6,2.08-1.16,3.16-1.68.11-.05.22-.11.34-.16.33-.16.67-.32,1.01-.46.88-.41,1.78-.79,2.67-1.15,1.19-.48,2.38-.92,3.57-1.34l35.97,25.16,33.4-24.28c.95.36,1.9.74,2.85,1.15,1.47.63,2.93,1.32,4.35,2.08a1,1,0,0,1,.14.08c.31.16.63.34.94.51.4.23.8.46,1.2.7a57.7,57.7,0,0,1,6.29,4.39c.27.2.53.42.79.64a50.221,50.221,0,0,1,5.93,5.77c.22.25.44.51.65.76A50.759,50.759,0,0,1,669.116,431.08Z" fill="#ffb240"/>
    <path id="Trazado_100783" data-name="Trazado 100783" d="M645.066,402.2l-41.69,35.08-43.21-36.83c.33-.16.67-.32,1.01-.46l42.21,35.98,40.74-34.28C644.436,401.85,644.756,402.03,645.066,402.2Z" fill="#fff"/>
    <path id="Trazado_100784" data-name="Trazado 100784" d="M653.346,407.93l-50.43,42.43-51.98-44.31c.28-.2.55-.41.83-.6l51.15,43.6,49.64-41.76C652.826,407.49,653.086,407.71,653.346,407.93Z" fill="#fff"/>
    <path id="Trazado_100785" data-name="Trazado 100785" d="M544.246,411.93l55.96,47.7c-.51,0-1.03,0-1.54-.01l-55.11-46.96C543.786,412.41,544.016,412.17,544.246,411.93Z" fill="#fff"/>
    <path id="Trazado_100786" data-name="Trazado 100786" d="M659.926,414.46l-53.56,45.07c-.54.03-1.09.06-1.64.08l54.55-45.91C659.5,413.95,659.716,414.21,659.926,414.46Z" fill="#fff"/>
    <path id="Trazado_100787" data-name="Trazado 100787" d="M579.589,290.231s12.3,22.459,58.349,21.092C613.1,309.44,579.589,290.231,579.589,290.231Z" fill="#ad3320"/>
    <path id="Trazado_100788" data-name="Trazado 100788" d="M592.747,286.392s11.985,17.006,47.24,21.925C624.409,303.4,592.747,286.392,592.747,286.392Z" fill="#ad3320"/>
  </g>
</svg>
