<svg xmlns="http://www.w3.org/2000/svg" width="191.85" height="200.484" viewBox="0 0 191.85 200.484">
  <g id="Grupo_54440" data-name="Grupo 54440" transform="translate(-279.075 -259.206)">
    <path id="Trazado_100740" data-name="Trazado 100740" d="M470.925,363.76a95.922,95.922,0,0,1-92.51,95.87c-1.13.04-2.27.06-3.41.06-1.17,0-2.34-.02-3.51-.07a95.927,95.927,0,1,1,99.43-95.86Z" fill="#ffb240"/>
    <path id="Trazado_100741" data-name="Trazado 100741" d="M421.972,297.16c5.543-9.755-2.106-18.623-9.588-15.962,1.829-10.642-9.811-11.972-9.811-11.972s-3.878-11.085-14.741-4.877c-4.585-8.062-9.69-4.853-12.244-2.347-2.553-2.506-7.659-5.715-12.243,2.347-10.863-6.208-14.741,4.877-14.741,4.877s-11.64,1.33-9.811,11.972c-7.482-2.661-15.131,6.207-9.589,15.962-7.981,2.66-8.2,15.962-.665,21.041-3.325,9.07,8.646,12.434,8.646,12.434l38.4-21.471,38.4,21.471s11.971-3.364,8.646-12.434C430.175,313.122,429.953,299.82,421.972,297.16Z" fill="#6a9dc4"/>
    <g id="Grupo_54439" data-name="Grupo 54439">
      <g id="Grupo_54434" data-name="Grupo 54434">
        <path id="Trazado_100742" data-name="Trazado 100742" d="M443.065,431.36a95.6,95.6,0,0,1-64.65,28.27H374.8c-1.1,0-2.2,0-3.3-.01a95.55,95.55,0,0,1-64.85-28.57c4.79-14.33,14.03-22.89,23.15-28.33.24-.15.48-.29.72-.43,1.02-.6,2.08-1.16,3.16-1.68,1.32-.64,2.67-1.23,4.02-1.77,2.21-.89,4.44-1.66,6.58-2.34,8.39-2.66,15.53-3.95,15.53-5.71V356.97H389.8v33.82c0,1.97,8.76,3.35,18.39,6.7,1.75.6,3.54,1.28,5.3,2.04,1.47.63,2.93,1.32,4.35,2.08q1.155.615,2.28,1.29c.14.09.29.17.43.26A51.063,51.063,0,0,1,443.065,431.36Z" fill="#98475f"/>
      </g>
      <path id="Trazado_100743" data-name="Trazado 100743" d="M333.088,422.664h85.745l-4.381,20.562L377.235,454.59l-44.147-19.822" fill="#ffb240"/>
      <path id="Trazado_100744" data-name="Trazado 100744" d="M389.8,362.89v19.1a24.772,24.772,0,0,1-13.69,5.4c-8.32.53-13.51-2.97-16.3-5.81V364.56l29.3-2.74Z" fill="#7a2d53"/>
      <path id="Trazado_100745" data-name="Trazado 100745" d="M337.988,300.033S330.771,340,341.2,359.173c5.215,9.586,19.915,15.189,33.587,15.459s26.314-4.791,32.862-13.2c13.1-16.824,3.246-61.4,3.246-61.4S381.607,277.979,337.988,300.033Z" fill="#98475f"/>
      <g id="Grupo_54435" data-name="Grupo 54435">
        <path id="Trazado_100746" data-name="Trazado 100746" d="M338.793,329.531s-8.1-11.477-14-1.4c-4.192,7.159,3.652,22.643,13.617,15.975Z" fill="#98475f"/>
      </g>
      <g id="Grupo_54436" data-name="Grupo 54436">
        <path id="Trazado_100747" data-name="Trazado 100747" d="M410.968,329.432s8.1-11.477,14-1.4c4.191,7.159-3.652,22.643-13.618,15.975Z" fill="#98475f"/>
      </g>
      <g id="Grupo_54438" data-name="Grupo 54438">
        <g id="Grupo_54437" data-name="Grupo 54437">
          <path id="Trazado_100748" data-name="Trazado 100748" d="M362.651,327.782a3.921,3.921,0,1,1-3.92-3.949A3.935,3.935,0,0,1,362.651,327.782Z" fill="#46134b"/>
          <path id="Trazado_100749" data-name="Trazado 100749" d="M394.791,327.782a3.921,3.921,0,1,1-3.921-3.949A3.936,3.936,0,0,1,394.791,327.782Z" fill="#46134b"/>
        </g>
      </g>
      <path id="Trazado_100750" data-name="Trazado 100750" d="M353.786,338.244c-1.659,2.541-5.324,3.087-8.186,1.218s-3.836-5.443-2.177-7.984,5.324-3.087,8.185-1.219S355.445,335.7,353.786,338.244Z" fill="#ff918b"/>
      <path id="Trazado_100751" data-name="Trazado 100751" d="M395.855,338.244c1.659,2.541,5.324,3.087,8.186,1.218s3.836-5.443,2.177-7.984-5.324-3.087-8.185-1.219S394.2,335.7,395.855,338.244Z" fill="#ff918b"/>
      <path id="Trazado_100752" data-name="Trazado 100752" d="M373.621,340.11a3.9,3.9,0,0,1-3.758-2.118c-.488-.977.254-1.863,1.113-2.889a9.262,9.262,0,0,0,2.089-3.5,6.618,6.618,0,0,0-.221-4.27c-.636-2.01-1.293-4.088,2.337-9.412a.5.5,0,1,1,.826.562c-3.356,4.924-2.8,6.685-2.21,8.548a7.621,7.621,0,0,1,.233,4.829,10.043,10.043,0,0,1-2.288,3.886c-.731.873-1.17,1.428-.984,1.8,1.505,3.01,6.207.753,6.254.728a.5.5,0,0,1,.441.9A9.211,9.211,0,0,1,373.621,340.11Z" fill="#7a2d53"/>
      <path id="Trazado_100753" data-name="Trazado 100753" d="M350.2,322.383a.987.987,0,0,1-.473-.12,1,1,0,0,1-.407-1.353c.055-.1,5.6-10.172,15.612-7.837a1,1,0,0,1-.454,1.948c-8.507-1.981-13.2,6.476-13.4,6.837A1,1,0,0,1,350.2,322.383Z" fill="#6a9dc4"/>
      <path id="Trazado_100754" data-name="Trazado 100754" d="M399.064,322.383a1,1,0,0,1-.888-.535c-.174-.333-4.384-8.126-12.875-6.154a1,1,0,1,1-.454-1.947c10.022-2.34,15.053,7.079,15.1,7.175a1,1,0,0,1-.886,1.461Z" fill="#6a9dc4"/>
      <path id="Trazado_100755" data-name="Trazado 100755" d="M333.154,329.551l2.4,11.723s-3.491,1.347-4.791-1.253a3.931,3.931,0,0,1,.448-4.434s-4.608-.506-4.413-4.212S332.463,326.183,333.154,329.551Z" fill="#7a2d53"/>
      <path id="Trazado_100756" data-name="Trazado 100756" d="M416.856,329.551l-2.4,11.723s3.491,1.347,4.791-1.253a3.931,3.931,0,0,0-.448-4.434s4.608-.506,4.413-4.212S417.546,326.183,416.856,329.551Z" fill="#7a2d53"/>
    </g>
    <path id="Trazado_100757" data-name="Trazado 100757" d="M369.322,348.224s-.269,3.715,7.036,3.275,5.486-3.767,5.486-3.767S373.49,346.925,369.322,348.224Z" fill="#6a9dc4"/>
    <path id="Trazado_100758" data-name="Trazado 100758" d="M367.133,347.534s2.447,1.146,8.236.887a33.764,33.764,0,0,0,8.383-1.141,21.415,21.415,0,0,1-4.155-1.656c-1.389-.8-1.995-3.248-4.3-.6-2.55-2.606-3.486.248-4.77,1.255A8.548,8.548,0,0,1,367.133,347.534Z" fill="#88b1d0"/>
    <path id="Trazado_100759" data-name="Trazado 100759" d="M335.577,326.15s4.925-2.088,3.739-8.412c4.893-2.766,6.969-13.145,4-16.556,9.639,3.559,15.918-4.893,16.486-7.711,9.019,11.122,20.733-1.186,20.733-1.186s7.93,15.125,19.906,10.528c-.777,7.859,8.12,6.4,8.12,6.4s-5.042,9.707,2.2,12.263c1.064,5.057,3.592,6.3,3.592,6.3s5.776-14.829,5.035-17.749-16.015-24.717-16.015-24.717L387.953,282.8,374.8,281.757l-29.4,4.745-12.307,12.9Z" fill="#6a9dc4"/>
    <path id="Trazado_100760" data-name="Trazado 100760" d="M327.471,361.748a8.993,8.993,0,1,1,8.994-8.993A9,9,0,0,1,327.471,361.748Zm0-16.986a7.993,7.993,0,1,0,7.994,7.993A8,8,0,0,0,327.471,344.762Z" fill="#fff"/>
    <path id="Trazado_100761" data-name="Trazado 100761" d="M422.214,361.748a8.993,8.993,0,1,1,8.993-8.993A9,9,0,0,1,422.214,361.748Zm0-16.986a7.993,7.993,0,1,0,7.993,7.993A8,8,0,0,0,422.214,344.762Z" fill="#fff"/>
    <path id="Trazado_100762" data-name="Trazado 100762" d="M443.065,431.36a95.6,95.6,0,0,1-64.65,28.27H374.8c-1.1,0-2.2,0-3.3-.01a95.55,95.55,0,0,1-64.85-28.57,50.374,50.374,0,0,1,19.13-25.72q2.01-1.41,4.02-2.61l47.44,45.97,43.31-45.53c1.47.91,2.95,1.9,4.4,2.99A50.353,50.353,0,0,1,443.065,431.36Z" fill="#c746ac"/>
    <path id="Trazado_100763" data-name="Trazado 100763" d="M424.945,406.15l-47.71,48.44-51.46-49.26q2.01-1.41,4.02-2.61l47.44,45.97,43.31-45.53C422.015,404.07,423.495,405.06,424.945,406.15Z" fill="#fff"/>
  </g>
</svg>
