<svg xmlns="http://www.w3.org/2000/svg" width="191.85" height="195.886" viewBox="0 0 191.85 195.886">
  <g id="Grupo_54433" data-name="Grupo 54433" transform="translate(-504.856 -38.534)">
    <path id="Trazado_100712" data-name="Trazado 100712" d="M696.706,138.49a95.933,95.933,0,0,1-95.76,95.93h-.2a95.925,95.925,0,1,1,95.96-95.93Z" fill="#ffb240"/>
    <path id="Trazado_100713" data-name="Trazado 100713" d="M561.708,106.521s-2.132-33.882,3.235-38.5,68.663-6.259,72.175-.144,5.154,32.107,3.483,38.644Z" fill="#46134b"/>
    <path id="Trazado_100714" data-name="Trazado 100714" d="M561.29,98.623s-1.051,41.8,1.419,45.124,4.465-1.662,4.465-1.662,1.663,7.194,4.655,8.752,4.523-2.767,4.523-2.767,9.777,15.673,16.1,1.352,0-42.9,0-42.9Z" fill="#46134b"/>
    <path id="Trazado_100715" data-name="Trazado 100715" d="M641.036,98.623s1.051,41.8-1.419,45.124-4.465-1.662-4.465-1.662-1.662,7.194-4.655,8.752-4.523-2.767-4.523-2.767-9.777,15.673-16.095,1.352,0-42.9,0-42.9Z" fill="#46134b"/>
    <g id="Grupo_54431" data-name="Grupo 54431">
      <g id="Grupo_54426" data-name="Grupo 54426">
        <path id="Trazado_100716" data-name="Trazado 100716" d="M669.106,205.82a95.592,95.592,0,0,1-68.16,28.6h-.2a95.58,95.58,0,0,1-68.03-28.35c4.9-14.85,14.56-23.53,23.95-28.99.29-.17.58-.34.88-.49.74-.43,1.51-.82,2.28-1.19,1.32-.64,2.67-1.23,4.02-1.77,2.21-.89,4.44-1.66,6.58-2.34,8.39-2.66,15.53-3.95,15.53-5.71V131.76h29.99v33.82c0,1.97,8.76,3.35,18.39,6.7,1.75.6,3.54,1.28,5.3,2.04,1.47.63,2.93,1.32,4.35,2.08.23.12.46.25.69.38.54.29,1.06.6,1.59.91A51.1,51.1,0,0,1,669.106,205.82Z" fill="#98475f"/>
      </g>
      <path id="Trazado_100717" data-name="Trazado 100717" d="M615.945,137.68v19.1a24.771,24.771,0,0,1-13.69,5.4c-8.32.53-13.51-2.97-16.3-5.81V139.35l29.3-2.74Z" fill="#7a2d53"/>
      <path id="Trazado_100718" data-name="Trazado 100718" d="M566.015,74.823s-7.355,43.538,2.546,62.711c4.951,9.587,19.41,16.232,32.389,16.5s27.015-7.129,33.231-15.541c12.432-16.824,1.046-63.672,1.046-63.672S607.422,52.769,566.015,74.823Z" fill="#98475f"/>
      <g id="Grupo_54427" data-name="Grupo 54427">
        <path id="Trazado_100719" data-name="Trazado 100719" d="M564.943,104.321s-8.1-11.477-14-1.4c-4.192,7.159,3.652,22.643,13.617,15.975Z" fill="#98475f"/>
      </g>
      <g id="Grupo_54428" data-name="Grupo 54428">
        <path id="Trazado_100720" data-name="Trazado 100720" d="M637.118,104.222s8.1-11.477,14-1.4c4.192,7.159-3.652,22.643-13.618,15.975Z" fill="#98475f"/>
      </g>
      <g id="Grupo_54430" data-name="Grupo 54430">
        <g id="Grupo_54429" data-name="Grupo 54429">
          <path id="Trazado_100721" data-name="Trazado 100721" d="M588.8,102.572c0,2.181-1.756,0-3.921,0s-3.921,2.181-3.921,0a3.921,3.921,0,1,1,7.842,0Z" fill="#46134b"/>
          <path id="Trazado_100722" data-name="Trazado 100722" d="M620.941,102.572c0,2.181-1.755,0-3.921,0s-3.921,2.181-3.921,0a3.921,3.921,0,1,1,7.842,0Z" fill="#46134b"/>
        </g>
      </g>
      <ellipse id="Elipse_4071" data-name="Elipse 4071" cx="5.495" cy="6.188" rx="5.495" ry="6.188" transform="translate(566.569 110.87) rotate(-56.863)" fill="#ff918b"/>
      <path id="Trazado_100723" data-name="Trazado 100723" d="M622.005,113.034c1.659,2.541,5.324,3.087,8.186,1.218s3.836-5.443,2.177-7.984-5.324-3.087-8.185-1.219S620.346,110.492,622.005,113.034Z" fill="#ff918b"/>
      <path id="Trazado_100724" data-name="Trazado 100724" d="M595.257,96.277a2.044,2.044,0,0,1-.456-.052c-8.836-2.059-19.554,0-19.662.014a2,2,0,0,1-.771-3.924c.471-.093,11.651-2.245,21.341.014a2,2,0,0,1-.452,3.948Z" fill="#46134b"/>
      <path id="Trazado_100725" data-name="Trazado 100725" d="M627.845,97.1a1.991,1.991,0,0,1-.82-.178,25.723,25.723,0,0,0-17.105-.148,2,2,0,1,1-1.249-3.8,29.236,29.236,0,0,1,20,.3,2,2,0,0,1-.828,3.822Z" fill="#46134b"/>
      <path id="Trazado_100726" data-name="Trazado 100726" d="M559.3,104.341l2.4,11.723s-3.491,1.347-4.791-1.253a3.932,3.932,0,0,1,.448-4.434s-4.608-.506-4.413-4.212S558.613,100.973,559.3,104.341Z" fill="#7a2d53"/>
      <path id="Trazado_100727" data-name="Trazado 100727" d="M643.006,104.341l-2.4,11.723s3.491,1.347,4.791-1.253a3.931,3.931,0,0,0-.448-4.434s4.608-.506,4.413-4.212S643.7,100.973,643.006,104.341Z" fill="#7a2d53"/>
    </g>
    <g id="Grupo_54432" data-name="Grupo 54432">
      <path id="Trazado_100728" data-name="Trazado 100728" d="M560.133,84.821s66.9,7.92,88.683-.79-8.167-19.389-8.167-19.389S559.9,63.231,560.133,84.821Z" fill="#572aac"/>
      <path id="Trazado_100729" data-name="Trazado 100729" d="M640.646,64.64s-21.11,15.01-64.69,19.2c-4.98.48-10.25.82-15.82.98,0,0-8.15-34.8,27.67-44.2q1.83-.48,3.81-.87C631.806,31.9,640.646,64.64,640.646,64.64Z" fill="#451378"/>
    </g>
    <path id="Trazado_100730" data-name="Trazado 100730" d="M601.275,115.64a.5.5,0,0,1-.228-.945l6.93-3.538-4.488-16.329a.5.5,0,1,1,.964-.264l4.6,16.721a.5.5,0,0,1-.254.577l-7.293,3.723A.49.49,0,0,1,601.275,115.64Z" fill="#7a2d53"/>
    <path id="Trazado_100731" data-name="Trazado 100731" d="M609.3,129.97a13.857,13.857,0,0,1-9.02,1.79c-6.14-.58-9.57-3.2-11.31-5.98a8.894,8.894,0,0,1-1.37-6.42c.82-3.19,6.2.9,12,1.99,4.67.87,12.79-1.46,13.59-.7C614.416,121.8,613.8,127.1,609.3,129.97Z" fill="#7e2a20"/>
    <path id="Trazado_100732" data-name="Trazado 100732" d="M609.3,129.97a13.857,13.857,0,0,1-9.02,1.79c-6.14-.58-9.57-3.2-11.31-5.98C593.806,124.09,603.366,122.11,609.3,129.97Z" fill="#d43e20"/>
    <path id="Trazado_100733" data-name="Trazado 100733" d="M669.106,205.82a95.725,95.725,0,0,1-68.16,28.6h-.2a95.77,95.77,0,0,1-68.03-28.35,50.048,50.048,0,0,1,14.92-22.58,59.7,59.7,0,0,1,9.03-6.41c.29-.17.58-.34.88-.49.98,8.21,6.3,32.65,34.88,36.58l8.36,11.06,9.65-11.25c26.69-4.09,32.88-24.71,34.24-36.2.54.29,1.06.6,1.59.91a58.7,58.7,0,0,1,6.86,4.83A50.2,50.2,0,0,1,669.106,205.82Z" fill="#b5b1ee"/>
    <path id="Trazado_100734" data-name="Trazado 100734" d="M553.656,222.05a95.844,95.844,0,0,1-20.94-15.98,50.048,50.048,0,0,1,14.92-22.58C551.456,190.07,556.836,203.27,553.656,222.05Z" fill="#98475f"/>
    <path id="Trazado_100735" data-name="Trazado 100735" d="M669.106,205.82a96.093,96.093,0,0,1-22.46,16.94c-3.62-20.14,2.61-33.97,6.48-40.24A50.2,50.2,0,0,1,669.106,205.82Z" fill="#98475f"/>
    <path id="Trazado_100736" data-name="Trazado 100736" d="M574.754,177.948l24.377,5.542S588.017,172.61,574.754,177.948Z" fill="#7a2d53"/>
    <path id="Trazado_100737" data-name="Trazado 100737" d="M628.133,177.948l-24.376,5.542S614.871,172.61,628.133,177.948Z" fill="#7a2d53"/>
    <circle id="Elipse_4072" data-name="Elipse 4072" cx="11.238" cy="11.238" r="11.238" transform="translate(598.244 54.714) rotate(-22.5)" fill="#ffbc18"/>
    <path id="Trazado_100738" data-name="Trazado 100738" d="M618.571,60.8a5.644,5.644,0,1,1-5.644-5.644A5.644,5.644,0,0,1,618.571,60.8Z" fill="#ff9e18"/>
    <path id="Trazado_100739" data-name="Trazado 100739" d="M575.956,83.84c-4.98.48-10.25.82-15.82.98,0,0-8.15-34.8,27.67-44.2C579.826,48.75,569.2,64.12,575.956,83.84Z" fill="#46134b" opacity="0.3" style="mix-blend-mode: multiply;isolation: isolate"/>
  </g>
</svg>
