<svg xmlns="http://www.w3.org/2000/svg" width="191.85" height="191.851" viewBox="0 0 191.85 191.851">
  <g id="Grupo_54449" data-name="Grupo 54449" transform="translate(-811.558 -276.27)">
    <path id="Trazado_100789" data-name="Trazado 100789" d="M1003.408,372.19a95.672,95.672,0,0,1-29.58,69.29c-.16.15-.32.31-.49.46a96.06,96.06,0,0,1-13.95,10.94c-.49.32-.99.63-1.49.94a95.5,95.5,0,0,1-50.15,14.3h-.47a95.385,95.385,0,0,1-50.12-14.26c-.5-.3-.99-.61-1.48-.93a94.586,94.586,0,0,1-14.04-11.01c-1.42-1.32-2.8-2.71-4.13-4.13a95.92,95.92,0,1,1,165.9-65.6Z" fill="#ffb240"/>
    <g id="Grupo_54448" data-name="Grupo 54448">
      <path id="Trazado_100790" data-name="Trazado 100790" d="M973.338,441.94a96.06,96.06,0,0,1-13.95,10.94c-.49.32-.99.63-1.49.94a95.5,95.5,0,0,1-50.15,14.3h-.47a95.385,95.385,0,0,1-50.12-14.26c-.5-.3-.99-.61-1.48-.93a94.586,94.586,0,0,1-14.04-11.01c.17-.39.35-.77.53-1.16.16-.34.32-.68.49-1.02l.51-1.02c.18-.33.35-.67.53-1,.54-.99,1.11-1.96,1.69-2.91.2-.32.4-.64.6-.95s.4-.62.61-.93c.85-1.28,1.75-2.53,2.68-3.73.87-1.11,1.77-2.2,2.71-3.25.24-.27.48-.54.73-.81s.49-.53.74-.8c.5-.53,1-1.05,1.52-1.56.22-.22.44-.44.67-.66.12-.12.24-.23.36-.35.43-.41.88-.82,1.32-1.23.27-.24.53-.48.8-.72.54-.47,1.09-.94,1.64-1.4s1.1-.91,1.66-1.35,1.12-.87,1.69-1.3c.35-.26.71-.52,1.07-.78.51-.36,1.02-.72,1.53-1.07a85.768,85.768,0,0,1,8.03-4.86c.03-.01.05-.03.08-.04.22-.12.44-.23.66-.34.65-.33,1.27-.64,1.86-.95.01-.01.03-.01.04-.02.8-.39,1.6-.77,2.4-1.13.31-.14.63-.29.95-.42.38-.17.76-.34,1.13-.49.15-.07.3-.13.45-.19s.3-.12.45-.19c.08-.03.16-.07.25-.1.46-.19.93-.37,1.4-.55.38-.15.76-.29,1.13-.43.12-.05.23-.09.34-.13.44-.16.88-.31,1.32-.46.46-.16.92-.32,1.38-.47.1-.51.19-1.02.27-1.54a108.575,108.575,0,0,0,1.21-15.13v-.01c.07-3.88-.03-6.58-.03-6.58h36.9s-.07,1.86-.06,4.72c.01.58.01,1.2.03,1.86v.02c.03,1.92.1,4.12.26,6.44a82.862,82.862,0,0,0,1.22,10.22c.47.16.95.32,1.43.48.43.15.87.31,1.31.47.1.04.2.07.3.1l1.08.42c.45.17.9.35,1.35.53.11.05.23.09.34.14,1.74.71,3.49,1.5,5.24,2.35.68.33,1.36.68,2.04,1.04.24.12.48.24.72.37.05.02.09.05.14.07,1.21.65,2.41,1.32,3.6,2.04.3.17.59.35.89.54.94.58,1.88,1.18,2.81,1.8.53.36,1.05.72,1.58,1.09.29.2.57.41.86.62.57.41,1.14.84,1.7,1.27.27.2.53.41.8.61,1.97,1.56,3.88,3.22,5.71,4.99.26.25.52.51.77.76.44.44.87.88,1.3,1.33a64.787,64.787,0,0,1,8.28,10.73c.19.3.37.6.55.91s.38.64.56.97c.48.84.93,1.7,1.37,2.57.17.33.33.66.5,1C972.858,440.87,973.108,441.4,973.338,441.94Z" fill="#e4ae7c" fill-rule="evenodd"/>
      <path id="Trazado_100791" data-name="Trazado 100791" d="M926.182,392.91c-2.308,4.414-10.362,8.629-18.7,8.7-8.052.068-16.392-3.862-18.7-8.109.232-3.33.308-6.466.321-8.886H925.9C925.913,386.89,925.98,389.8,926.182,392.91Z" fill="#d67f54" fill-rule="evenodd"/>
      <path id="Trazado_100792" data-name="Trazado 100792" d="M868.411,350.774c-.173-1.9-7.935-4.14-10.522,2.07s2.069,15.008,10.867,15.7,6.211-.862,6.211-.862Z" fill="#e4ae7c" fill-rule="evenodd"/>
      <path id="Trazado_100793" data-name="Trazado 100793" d="M973.338,441.94a96.06,96.06,0,0,1-13.95,10.94c-.49.32-.99.63-1.49.94a95.5,95.5,0,0,1-50.15,14.3h-.47a95.385,95.385,0,0,1-50.12-14.26c-.5-.3-.99-.61-1.48-.93a94.586,94.586,0,0,1-14.04-11.01c.17-.39.35-.77.53-1.16.16-.34.32-.68.49-1.02l.51-1.02c.18-.33.35-.67.53-1,.54-.99,1.11-1.96,1.69-2.91.2-.32.4-.64.6-.95s.4-.62.61-.93c.85-1.28,1.75-2.53,2.68-3.73.87-1.11,1.77-2.2,2.71-3.25.24-.27.48-.54.73-.81s.49-.53.74-.8c.5-.53,1-1.05,1.52-1.56.22-.22.44-.44.67-.66.12-.12.24-.23.36-.35.43-.41.88-.82,1.32-1.23.27-.24.53-.48.8-.72.54-.47,1.09-.94,1.64-1.4s1.1-.91,1.66-1.35,1.12-.87,1.69-1.3c.35-.26.71-.52,1.07-.78.51-.36,1.02-.72,1.53-1.07a85.768,85.768,0,0,1,8.03-4.86c.03-.01.05-.03.08-.04.22-.12.44-.23.66-.34.65-.33,1.27-.64,1.86-.95.01-.01.03-.01.04-.02.8-.39,1.6-.77,2.4-1.13.31-.14.63-.29.95-.42.38-.17.76-.34,1.13-.49.15-.07.3-.13.45-.19l.45-.18v-.01c.08-.03.16-.07.25-.1.46-.19.93-.37,1.4-.55.38-.15.76-.29,1.13-.43.12-.05.23-.09.34-.13.44-.16.88-.31,1.32-.46.46-.16.92-.32,1.38-.47.1-.51.19-1.02.27-1.54,8.03,3.54,23.05,7.45,39.33.47.06.36.13.71.2,1.07.47.16.95.32,1.43.48.43.15.87.31,1.31.47.09.03.19.07.29.11.36.13.72.27,1.09.41.45.17.9.35,1.35.53.11.05.23.09.34.14,1.74.71,3.49,1.5,5.24,2.35.64.34,1.33.68,2.04,1.04.24.12.48.24.72.37.05.02.09.05.14.07,1.21.65,2.41,1.32,3.6,2.04.3.17.59.35.89.54.94.58,1.88,1.18,2.81,1.8.53.36,1.05.72,1.58,1.09.29.2.57.41.86.62.57.41,1.14.84,1.7,1.27.27.2.53.41.8.61,1.97,1.56,3.88,3.22,5.71,4.99.26.25.52.51.77.76.44.44.87.88,1.3,1.33a64.787,64.787,0,0,1,8.28,10.73c.19.3.37.6.55.91s.38.64.56.97c.48.84.93,1.7,1.37,2.57.17.33.33.66.5,1C972.858,440.87,973.108,441.4,973.338,441.94Z" fill="#575756" fill-rule="evenodd"/>
      <path id="Trazado_100794" data-name="Trazado 100794" d="M946.747,350.774c.172-1.9,7.935-4.14,10.523,2.07s-2.071,15.008-10.869,15.7-6.21-.862-6.21-.862Z" fill="#e4ae7c" fill-rule="evenodd"/>
      <path id="Trazado_100795" data-name="Trazado 100795" d="M907.485,392.6c-45.773,1.1-68.883-111.777,0-108.885C976.369,280.824,953.26,393.7,907.485,392.6Z" fill="#e4ae7c" fill-rule="evenodd"/>
      <path id="Trazado_100796" data-name="Trazado 100796" d="M954.455,357.746a.5.5,0,0,1-.993,0,4.827,4.827,0,0,0-.679-2.971,1.187,1.187,0,0,0-.924-.46,2.721,2.721,0,0,0-1.351.416,8.919,8.919,0,0,0-3.4,4.006,18.539,18.539,0,0,0-.846,2.3,3.522,3.522,0,0,1,2.311-.67,2.2,2.2,0,0,1,1.07.386,1.746,1.746,0,0,1,.666.935,3.249,3.249,0,0,1-.684,2.686.495.495,0,1,1-.822-.551,2.358,2.358,0,0,0,.557-1.851.778.778,0,0,0-.295-.416,1.2,1.2,0,0,0-.588-.2,2.727,2.727,0,0,0-2.116.89,1.062,1.062,0,0,1-.505.317.542.542,0,0,1-.716-.48l-.005-.026a1.709,1.709,0,0,1,.013-.579,15.508,15.508,0,0,1,1.052-3.134,9.974,9.974,0,0,1,3.815-4.472,3.678,3.678,0,0,1,1.859-.544,2.141,2.141,0,0,1,1.671.825A5.686,5.686,0,0,1,954.455,357.746Z" fill="#d67f54" fill-rule="evenodd"/>
      <path id="Trazado_100797" data-name="Trazado 100797" d="M861.509,357.746a.5.5,0,1,1-.992,0,5.687,5.687,0,0,1,.9-3.6,2.143,2.143,0,0,1,1.672-.825,3.684,3.684,0,0,1,1.859.544,9.965,9.965,0,0,1,3.813,4.472,15.446,15.446,0,0,1,1.052,3.134,1.717,1.717,0,0,1,.015.579l-.006.026a.543.543,0,0,1-.717.48,1.061,1.061,0,0,1-.5-.317,2.727,2.727,0,0,0-2.117-.89,1.206,1.206,0,0,0-.588.2.767.767,0,0,0-.294.416,2.349,2.349,0,0,0,.556,1.851.494.494,0,1,1-.821.551,3.252,3.252,0,0,1-.686-2.686,1.758,1.758,0,0,1,.667-.935,2.2,2.2,0,0,1,1.069-.386,3.527,3.527,0,0,1,2.313.67,18.731,18.731,0,0,0-.847-2.3,8.929,8.929,0,0,0-3.394-4.006,2.727,2.727,0,0,0-1.352-.416,1.185,1.185,0,0,0-.923.46A4.819,4.819,0,0,0,861.509,357.746Z" fill="#d67f54" fill-rule="evenodd"/>
      <path id="Trazado_100798" data-name="Trazado 100798" d="M857.208,447.85l-.05,6.01c-.5-.3-.99-.61-1.48-.93l.04-5.09a.745.745,0,0,1,1.49.01Z" fill="#383546" fill-rule="evenodd"/>
      <path id="Trazado_100799" data-name="Trazado 100799" d="M959.428,447.85l-.04,5.03c-.49.32-.99.63-1.49.94l.05-5.98a.747.747,0,0,1,.75-.74A.732.732,0,0,1,959.428,447.85Z" fill="#383546" fill-rule="evenodd"/>
      <path id="Trazado_100800" data-name="Trazado 100800" d="M865.164,342.468c.6-2.372,1.61-9.233,1.666-8.162,1.078,20.858,9.248,34.544,16.778,40.538,7.437,5.918-4.136-14.669,23.126-14.393.256,0,.5,0,.751,0s.495,0,.751,0c27.264-.276,15.691,20.311,23.127,14.393,7.53-5.994,15.7-19.68,16.779-40.538.055-1.071,1.063,5.79,1.665,8.162-4.3,25.987-20.807,50.65-42.322,50.133C885.971,393.118,869.466,368.455,865.164,342.468Z" fill="#784928" fill-rule="evenodd"/>
      <path id="Trazado_100801" data-name="Trazado 100801" d="M866.777,350.052c.563-1.629.905-5.025.845-9.4-.084-6.088,8.351-9.086,7.344-17.81-2.956-25.6,16.881-16.928,32.519-16.923v-22.2h0C867.8,282.05,858.654,318.8,866.777,350.052Z" fill="#784928" fill-rule="evenodd"/>
      <path id="Trazado_100802" data-name="Trazado 100802" d="M948.331,349.5a43.9,43.9,0,0,1-.981-8.85c-.234-6.085-8.351-9.086-7.344-17.81,2.955-25.6-16.882-16.928-32.521-16.923v-22.2C946.936,282.06,956.2,318.371,948.331,349.5Z" fill="#784928" fill-rule="evenodd"/>
      <path id="Trazado_100803" data-name="Trazado 100803" d="M892.106,340.209a4.1,4.1,0,1,1-5.732.92A4.09,4.09,0,0,1,892.106,340.209Z" fill="#20201e" fill-rule="evenodd"/>
      <path id="Trazado_100804" data-name="Trazado 100804" d="M923.119,340.209a4.1,4.1,0,1,0,5.734.92A4.092,4.092,0,0,0,923.119,340.209Z" fill="#20201e" fill-rule="evenodd"/>
      <path id="Trazado_100805" data-name="Trazado 100805" d="M887.051,355.091c2.336,1.794,2.438,4.421.227,5.867s-5.9,1.165-8.232-.629-2.438-4.42-.228-5.866S884.715,353.3,887.051,355.091Z" fill="#da9077" fill-rule="evenodd"/>
      <path id="Trazado_100806" data-name="Trazado 100806" d="M928.176,355.091c-2.337,1.794-2.44,4.421-.229,5.867s5.9,1.165,8.233-.629,2.438-4.42.227-5.866S930.512,353.3,928.176,355.091Z" fill="#da9077" fill-rule="evenodd"/>
      <path id="Trazado_100807" data-name="Trazado 100807" d="M893.9,329.077c-.152-.067-.3-.129-.461-.189a11.817,11.817,0,0,0-5.238-.68,11.6,11.6,0,0,0-4.891,1.533c-.74.477-3.63,2.817-2.811,3.68.335.092,3.213-1.379,4.059-1.653a11.437,11.437,0,0,1,3.775-.508,10.133,10.133,0,0,1,3.462.7c.032.006.246.1.291.122,2.415,1.174,2.2,1.929,3.843.8C898.463,331.536,895.853,330.092,893.9,329.077Z" fill="#3f2716" fill-rule="evenodd"/>
      <path id="Trazado_100808" data-name="Trazado 100808" d="M921.072,329.077c.153-.067.3-.129.461-.189a11.817,11.817,0,0,1,5.237-.68,11.6,11.6,0,0,1,4.892,1.533c.74.477,3.63,2.817,2.811,3.68-.334.092-3.213-1.379-4.058-1.653a11.447,11.447,0,0,0-3.776-.508,10.123,10.123,0,0,0-3.461.7c-.033.006-.246.1-.291.122-2.415,1.174-2.2,1.929-3.843.8C916.509,331.536,919.118,330.092,921.072,329.077Z" fill="#3f2716" fill-rule="evenodd"/>
      <path id="Trazado_100809" data-name="Trazado 100809" d="M905.334,377.6a.494.494,0,0,1,.5-.853,4.869,4.869,0,0,0,2.422.6,4.659,4.659,0,0,0,2.377-.6.494.494,0,1,1,.512.846,5.652,5.652,0,0,1-2.889.742A5.864,5.864,0,0,1,905.334,377.6Z" fill="#d67f54" fill-rule="evenodd"/>
      <path id="Trazado_100810" data-name="Trazado 100810" d="M907.112,359.636a.5.5,0,1,1,0-.992,24.081,24.081,0,0,0,3.713-.2c.9-.153,1.568-.4,1.568-.809,0-1.428-1.447-10.3-1.451-10.328a.5.5,0,1,1,.978-.156c0,.027,1.466,8.994,1.466,10.484,0,1.045-1.017,1.551-2.4,1.786A24.783,24.783,0,0,1,907.112,359.636Z" fill="#d67f54" fill-rule="evenodd"/>
      <path id="Trazado_100811" data-name="Trazado 100811" d="M903.2,343.42a13.516,13.516,0,0,0-.41-2.03,14.674,14.674,0,0,0-28.76,3.08c-.02.31-.03.61-.03.92,0,.39.02.78.05,1.17a14.548,14.548,0,0,0,3.83,8.75,5.905,5.905,0,0,0,.42.45,14.567,14.567,0,0,0,9.96,4.29c.14.01.27.01.41.01a14.664,14.664,0,0,0,14.67-14.67A12.783,12.783,0,0,0,903.2,343.42Zm-5.91,10.59a12.165,12.165,0,0,1-8.5,3.57h-.12a12.154,12.154,0,0,1-8.61-3.57.9.9,0,0,1-.09-.1,12.184,12.184,0,1,1,20.68-10.73v.01a8.959,8.959,0,0,1,.17,1.28c.03.3.04.61.04.92A12.136,12.136,0,0,1,897.288,354.01Z" fill="#2e1e11" fill-rule="evenodd"/>
      <path id="Trazado_100812" data-name="Trazado 100812" d="M940.938,344.45a14.592,14.592,0,0,0-4.27-9.43,14.745,14.745,0,0,0-2.11-1.75,14.668,14.668,0,0,0-22.37,8.12,12.389,12.389,0,0,0-.42,2.03,12.783,12.783,0,0,0-.14,1.97,13.562,13.562,0,0,0,.07,1.43,14.5,14.5,0,0,0,.67,3.18c0,.01,0,.01.01.02a14.691,14.691,0,0,0,13.92,10.04c.22,0,.44,0,.66-.02a14.552,14.552,0,0,0,9.71-4.28c.19-.19.38-.39.56-.59a14.5,14.5,0,0,0,3.69-8.62c.03-.38.05-.77.05-1.16C940.968,345.07,940.958,344.76,940.938,344.45Zm-5.87,9.4c-.05.06-.1.11-.15.16a12.2,12.2,0,0,1-8.48,3.57h-.14a12.189,12.189,0,0,1-12.19-12.19c0-.31.01-.62.04-.92a9.1,9.1,0,0,1,.17-1.29v-.01a12.186,12.186,0,1,1,20.75,10.68Z" fill="#2e1e11" fill-rule="evenodd"/>
      <path id="Trazado_100813" data-name="Trazado 100813" d="M874.8,344.19a.989.989,0,0,1,.667,1.862l-8.738,3.147a.989.989,0,0,1-.666-1.862Z" fill="#2e1e11" fill-rule="evenodd"/>
      <path id="Trazado_100814" data-name="Trazado 100814" d="M939.537,346.052a.989.989,0,0,1,.667-1.862l8.737,3.147a.989.989,0,0,1-.667,1.862Z" fill="#2e1e11" fill-rule="evenodd"/>
      <path id="Trazado_100815" data-name="Trazado 100815" d="M902.316,344.249a.99.99,0,0,1-1.69-1.031c.005-.008,1.683-2.856,6.859-2.856s6.856,2.848,6.861,2.856a.99.99,0,0,1-1.691,1.031c0-.006-1.114-1.9-5.17-1.9S902.319,344.243,902.316,344.249Z" fill="#2e1e11" fill-rule="evenodd"/>
      <path id="Trazado_100816" data-name="Trazado 100816" d="M923.012,364.335c-6.234,2.313-25.172,2.267-31.052.279C895.209,376.452,919.852,376.265,923.012,364.335Z" fill="#fff" fill-rule="evenodd"/>
      <path id="Trazado_100817" data-name="Trazado 100817" d="M868.3,306.577c3.023.511,8.846.6,11.836-.5,6.512-3.442,13.675.979,27.352.866,6.256,0,22.879-1.364,28.636-8.128,2.86-3.362,1.357,2.476-4.206,6.266,3.3,1.227,10.78,2.609,14.826,1.661-5.884-14.069-18.31-23.9-39.256-23.022h0C886.619,282.84,874.207,292.6,868.3,306.577Z" fill="#231a11" fill-rule="evenodd"/>
      <path id="Trazado_100818" data-name="Trazado 100818" d="M881.76,404.922a1.488,1.488,0,0,1,2.977,0,53.675,53.675,0,0,0,7.587,26.693c4.125,6.74,9.519,11.424,15.161,11.424,5.754,0,11.235-4.568,15.38-11.343a53.107,53.107,0,0,0,7.368-26.774,1.489,1.489,0,0,1,2.978,0,56.19,56.19,0,0,1-7.81,28.321c-4.669,7.629-11.03,12.774-17.916,12.774-6.789,0-13.054-5.27-17.7-12.855A56.779,56.779,0,0,1,881.76,404.922Z" fill="#d57b19" fill-rule="evenodd"/>
    </g>
  </g>
</svg>
