<svg xmlns="http://www.w3.org/2000/svg" width="277.063" height="234.899" viewBox="0 0 277.063 234.899">
  <g id="Grupo_55021" data-name="Grupo 55021" transform="translate(-120.906 -36.228)">
    <path id="Trazado_101742" data-name="Trazado 101742" d="M339.254,51.969S283.586,24.521,239.07,42.115c-36.944,14.6-22.572,33.536-55.118,32.453s-64.805,37.194-48.623,86.512c8.419,25.658-30.927,46.787-6.06,75.5,30.889,35.661,94.288,8.667,197.287,21.387,54.269,6.7,94.06-47.519,56.936-89.372-27.371-30.858-9.61-37.428-9.272-65.971C374.577,72.354,339.254,51.969,339.254,51.969Z" transform="translate(0 0)" fill="#00ceeb"/>
    <path id="Trazado_101743" data-name="Trazado 101743" d="M250.691,154s36.339-16.451,64.56-4.207c23.42,10.161,13.788,22.019,34.715,22.013s40.838,25.264,29.4,56.6c-5.951,16.3,18.874,30.708,2.293,48.621-20.6,22.251-60.746,3.569-127.175,9.556-35,3.155-59.41-32.517-34.677-58.613,18.235-19.241,6.966-23.837,7.354-42.178C227.57,166.345,250.691,154,250.691,154Z" transform="translate(-40.402 -49.589)" fill="#c05c5d" opacity="0.1"/>
    <g id="Grupo_55012" data-name="Grupo 55012" transform="translate(311.165 78.674)">
      <path id="Trazado_101744" data-name="Trazado 101744" d="M478.186,147.887c4.944.664,2.014-.218.205-5.1s38.236,2.454,40.333-8.082-11.483-26.306-34.382-18.545S470.8,146.9,478.186,147.887Z" transform="translate(-469.878 -114.082)" fill="#fff"/>
      <text id="_SELFIE" data-name="#SELFIE" transform="translate(9.234 21.835) rotate(-3.149)" fill="#5000a1" font-size="18" font-family="SegoeUI, Segoe UI"><tspan x="0" y="0">#SELFIE</tspan></text>
    </g>
    <g id="Grupo_55013" data-name="Grupo 55013" transform="translate(175.622 151.83)">
      <path id="Trazado_101745" data-name="Trazado 101745" d="M253.535,248.326c-1.478-.8-31.527,6.489-31.527,6.489-2.994.794,3.929,24.493,5.478,24.149l12.561-2.785c1.567,2.5,3.79,5.921,3.99,5.521.185-.37.628-3.843.96-6.618l12.242-2.715,1.481-.654C260.2,271.061,255.013,249.124,253.535,248.326Z" transform="translate(-221.266 -248.265)" fill="#ffcf19"/>
      <path id="Trazado_101746" data-name="Trazado 101746" d="M250.767,276.423s-11.3-5.42-10.227-11.774,8.111,2.468,8.111,2.468.074-6.507,2.72-6.807C260.31,259.3,250.767,276.423,250.767,276.423Z" transform="translate(-229.999 -253.723)" fill="#fff"/>
    </g>
    <g id="Grupo_55014" data-name="Grupo 55014" transform="translate(261.926 65.609)">
      <path id="Trazado_101747" data-name="Trazado 101747" d="M418.591,96.777c-1.133-1.4-33.952-6.651-33.952-6.651-3.3-.455-6.271,25.915-4.592,26.217l13.61,2.452c.515,3.131,1.3,7.445,1.665,7.13.336-.29,2.218-3.55,3.7-6.163l13.265,2.39,1.74-.033C415.764,122.085,419.725,98.182,418.591,96.777Z" transform="translate(-379.564 -90.119)" fill="#ffcf19"/>
      <path id="Trazado_101748" data-name="Trazado 101748" d="M407.866,120.1s-8.958-10.067-5.253-15.919,7.018,5.813,7.018,5.813,2.774-6.422,5.522-5.62C424.436,107.079,407.866,120.1,407.866,120.1Z" transform="translate(-389.638 -95.766)" fill="#fff"/>
    </g>
    <g id="Grupo_55015" data-name="Grupo 55015" transform="translate(165.496 90.99)">
      <path id="Trazado_101749" data-name="Trazado 101749" d="M233.492,172.2c-.494-.261-2.033-2.818-2.786-4.107a17.474,17.474,0,1,0-4.146,2.324C229.386,172.7,234.066,172.5,233.492,172.2Z" transform="translate(-202.693 -136.672)" fill="#fff"/>
      <path id="Trazado_101750" data-name="Trazado 101750" d="M228.243,171.517s-10.746-8.432-8.1-14.936,8.047,4.538,8.047,4.538,1.613-6.9,4.5-6.6C242.432,155.553,228.243,171.517,228.243,171.517Z" transform="translate(-210.438 -144.785)" fill="#59ffcc"/>
    </g>
    <g id="Grupo_55016" data-name="Grupo 55016" transform="translate(286.18 116.273)">
      <path id="Trazado_101751" data-name="Trazado 101751" d="M440.091,183.046a16.039,16.039,0,0,0-9.671,28.836,20.359,20.359,0,0,1-2.557,3.769c-.527.278,3.768.466,6.363-1.636a16.04,16.04,0,1,0,5.866-30.968Z" transform="translate(-424.051 -183.046)" fill="#fff"/>
      <path id="Trazado_101752" data-name="Trazado 101752" d="M446.9,215.028s9.863-7.739,7.436-13.709-7.385,4.165-7.385,4.165-1.481-6.337-4.129-6.057C433.875,200.376,446.9,215.028,446.9,215.028Z" transform="translate(-431.16 -190.492)" fill="#59ffcc"/>
    </g>
    <g id="Grupo_55017" data-name="Grupo 55017" transform="translate(208.02 64.378)">
      <path id="Trazado_101753" data-name="Trazado 101753" d="M293.614,100.522s5.812-1.563,6.319-3.006.207-10.134,1.624-9.635,3.833,3.1,2.809,8.005c0,0,5.232.087,7.217,3.417s.248,10.261-.183,10.987-12.331,5.132-14.039,4.005S292.765,100.982,293.614,100.522Z" transform="translate(-286.498 -87.86)" fill="#fff"/>
      <path id="Trazado_101754" data-name="Trazado 101754" d="M280.69,110.934s7.22-2.454,7.822-2.133,4.933,14.947,4.305,15.789-7.067,2.388-7.822,2.133S280.69,110.934,280.69,110.934Z" transform="translate(-280.69 -97.371)" fill="#3e2d4a"/>
    </g>
    <path id="Trazado_101755" data-name="Trazado 101755" d="M489.761,245.46s-1.039,3.5-1.429,3.632-1.818.779-1.818.779l2.427,1.428,1.338,3.364a22.206,22.206,0,0,1,1.19-3.924,9.482,9.482,0,0,1,2.394-1.209s-2.637-.489-3.029-1.052A18.669,18.669,0,0,1,489.761,245.46Z" transform="translate(-166.279 -95.159)" fill="#fff"/>
    <path id="Trazado_101756" data-name="Trazado 101756" d="M489.761,366.615s-1.039,3.5-1.429,3.632-1.818.779-1.818.779l2.427,1.428,1.338,3.363a22.2,22.2,0,0,1,1.19-3.924,9.483,9.483,0,0,1,2.394-1.209s-2.637-.49-3.029-1.053A18.649,18.649,0,0,1,489.761,366.615Z" transform="translate(-166.279 -150.261)" fill="#fff"/>
    <path id="Trazado_101757" data-name="Trazado 101757" d="M349.115,106.849s-1.039,3.5-1.429,3.632-1.818.779-1.818.779l2.427,1.428,1.338,3.364a22.206,22.206,0,0,1,1.19-3.924,9.482,9.482,0,0,1,2.394-1.209s-2.637-.489-3.029-1.053A18.65,18.65,0,0,1,349.115,106.849Z" transform="translate(-102.313 -32.119)" fill="#fff"/>
    <path id="Trazado_101758" data-name="Trazado 101758" d="M231.253,221.273s-1.039,3.5-1.429,3.632-1.818.779-1.818.779l2.427,1.428,1.338,3.364a22.206,22.206,0,0,1,1.19-3.924,9.482,9.482,0,0,1,2.394-1.209s-2.637-.49-3.029-1.053A18.647,18.647,0,0,1,231.253,221.273Z" transform="translate(-48.709 -84.159)" fill="#fff"/>
    <g id="Grupo_55020" data-name="Grupo 55020" transform="translate(145.031 99.425)">
      <path id="Trazado_101759" data-name="Trazado 101759" d="M184.3,261.985s-8.431,39.545,9.531,41.032c20.855,1.727,18.946-33.645,56.184-32.012l2.9,25.511s-17.076.948-22.453,10c-8.551,14.4-25.2,25.245-47.742,18.386-29.835-9.08-12.876-59.331-11.831-80.137.295-5.869,5.658-9.393,10.584-6.534,0,0-3.212-16.138,1.143-16.138,1.8,0,2.3,9.874,2.124,16.8,0,0,3.593-15.278,5.746-14.892,3.672.657-2.251,16.288-1.959,17.49C190.3,248.76,185.387,259.008,184.3,261.985Z" transform="translate(-165.155 -183.957)" fill="#db9e9f"/>
      <path id="Trazado_101760" data-name="Trazado 101760" d="M495.179,202.529s12.086-.472,21.272,12c11.375,15.441,11.361,61.862-51.971,60.412,0,0-5.515-24.01-5.335-23.957s35.551,4.16,43.77-8.675c9.14-14.275,1.934-26.269-8.862-26.932C494.052,215.374,493.012,204.288,495.179,202.529Z" transform="translate(-298.86 -175.058)" fill="#db9e9f"/>
      <path id="Trazado_101761" data-name="Trazado 101761" d="M259.489,371.936s1.1,6.085-5.837,18.537c-1.023,1.837,10.71-5.813,11.79-9.033C265.442,381.439,260.341,373.675,259.489,371.936Z" transform="translate(-205.375 -252.106)" fill="#c05c5d"/>
      <path id="Trazado_101762" data-name="Trazado 101762" d="M514.87,312.717s8.409,4.489,14.7,3.843c.752-.077-7.177,5.51-14.057,6Z" transform="translate(-324.206 -225.173)" fill="#c05c5d"/>
      <g id="Grupo_55018" data-name="Grupo 55018" transform="translate(181.034 18.41)">
        <path id="Trazado_101763" data-name="Trazado 101763" d="M497.207,186.494s.6,24.416,1.258,24.444,12.631,0,12.844-.68.49-23.743-.165-23.861S497.176,185.31,497.207,186.494Z" transform="translate(-497.207 -185.912)" fill="#3e2d4a"/>
        <circle id="Elipse_4177" data-name="Elipse 4177" cx="1.097" cy="1.097" r="1.097" transform="translate(1.199 1.939)" fill="#fff"/>
      </g>
      <path id="Trazado_101764" data-name="Trazado 101764" d="M312.144,210.527s-10.906-34.134,18.393-42.684,33.589,25.015,35.113,37,11.521,13.978,6.426,19.976c-5.819,6.851-21.819,2.693-26.813,6.177s-33.8,7.812-35.106,2.8S313.33,215.652,312.144,210.527Z" transform="translate(-230.993 -158.657)" fill="#3e2d4a"/>
      <path id="Trazado_101765" data-name="Trazado 101765" d="M338.643,188.668s16.033-9.911,25.84,1.576c7.969,9.334,9.221,40.1-13.639,37.767C331.54,226.041,329.075,191.051,338.643,188.668Z" transform="translate(-241.586 -166.948)" fill="#db9e9f"/>
      <path id="Trazado_101766" data-name="Trazado 101766" d="M347.977,229.713s-3.15,31.044,8.3,34.589,17.392-5.569,28.368,10.168.194,82.147.194,82.147l-76.178,2.506s-14.054-75.507-1.4-82.315c20.255-10.9,34.958-3.371,20.026-40.314Z" transform="translate(-227.381 -187.422)" fill="#db9e9f"/>
      <path id="Trazado_101767" data-name="Trazado 101767" d="M373.383,228.34c-1.185,0-2.6-.087-2.838-.1l.035-.544a28.368,28.368,0,0,0,4.055.042c-.069-.9-2.2-5.661-4.317-9.957l.488-.242c1.419,2.876,4.68,9.655,4.335,10.483a.352.352,0,0,1-.214.2A6.492,6.492,0,0,1,373.383,228.34Z" transform="translate(-258.464 -181.885)" fill="#c96e70"/>
      <path id="Trazado_101768" data-name="Trazado 101768" d="M371.162,244.754a1.378,1.378,0,0,1-.721-.208c-1.328-.8-1.831-3.768-1.852-3.894l.538-.089c.131.789.673,2.959,1.6,3.517a.835.835,0,0,0,.734.079c1.159-.385,1-3.056.837-4.052l.539-.087c.067.414.6,4.057-1.2,4.656A1.467,1.467,0,0,1,371.162,244.754Z" transform="translate(-257.677 -192.11)" fill="#c96e70"/>
      <path id="Trazado_101769" data-name="Trazado 101769" d="M357.631,260.863s8.834,3.683,15.557-.967c0,0,.691,5.2.882,6.336A13.013,13.013,0,0,1,357.631,260.863Z" transform="translate(-252.694 -201.15)" fill="#c05c5d"/>
      <path id="Trazado_101770" data-name="Trazado 101770" d="M332.419,229.8s-1.415-5.367-4.682-3.973-1.234,11.107,3.4,10.544C332.812,236.17,334.378,233.5,332.419,229.8Z" transform="translate(-238.37 -185.551)" fill="#db9e9f"/>
      <circle id="Elipse_4178" data-name="Elipse 4178" cx="2.831" cy="2.831" r="2.831" transform="translate(99.368 44.466)" fill="#bf5c5d" opacity="0.38"/>
      <circle id="Elipse_4179" data-name="Elipse 4179" cx="2.831" cy="2.831" r="2.831" transform="translate(119.143 41.635)" fill="#bf5c5d" opacity="0.38"/>
      <ellipse id="Elipse_4180" data-name="Elipse 4180" cx="1.652" cy="2.26" rx="1.652" ry="2.26" transform="translate(118.163 36.699) rotate(-22.945)" fill="#3e2d4a"/>
      <path id="Trazado_101771" data-name="Trazado 101771" d="M381.683,208.009c.113,1.036-1.233.136-2.754.3s-2.64,1.338-2.754.3,1.027-2.011,2.547-2.179S381.569,206.974,381.683,208.009Z" transform="translate(-261.124 -176.825)" fill="#3e2d4a"/>
      <path id="Trazado_101772" data-name="Trazado 101772" d="M351.514,214.181c.348.982-1.169.415-2.611.926s-2.262,1.909-2.611.926.538-2.193,1.98-2.7S351.165,213.2,351.514,214.181Z" transform="translate(-247.502 -179.867)" fill="#3e2d4a"/>
      <path id="Trazado_101773" data-name="Trazado 101773" d="M326.131,303.568s13.9,11.324,27.87,7.727c10.613-2.734,15.03-16.015,15.03-16.015s2.692-2.418,10.771-5.125,11.7,96.433,11.7,96.433H311.439s-6.487-80.559-1.4-82.315S326.131,303.568,326.131,303.568Z" transform="translate(-230.163 -214.887)" fill="#fff"/>
      <path id="Trazado_101774" data-name="Trazado 101774" d="M330.319,204.3s16.965-6.884,19.351-20.817C349.67,183.482,323.762,177.793,330.319,204.3Z" transform="translate(-239.788 -166.163)" fill="#3e2d4a"/>
      <path id="Trazado_101775" data-name="Trazado 101775" d="M363.511,180.715A27.005,27.005,0,0,0,384.586,196.8S382.213,180.333,363.511,180.715Z" transform="translate(-255.368 -165.135)" fill="#3e2d4a"/>
      <path id="Trazado_101776" data-name="Trazado 101776" d="M350.692,230.826a6.718,6.718,0,1,1,6.718-6.718A6.726,6.726,0,0,1,350.692,230.826Zm0-12.891a6.173,6.173,0,1,0,6.173,6.173A6.181,6.181,0,0,0,350.692,217.935Z" transform="translate(-246.482 -181.818)" fill="#c7e2f8"/>
      <path id="Trazado_101777" data-name="Trazado 101777" d="M383.276,224.166a6.718,6.718,0,1,1,6.718-6.718A6.726,6.726,0,0,1,383.276,224.166Zm0-12.892a6.173,6.173,0,1,0,6.173,6.173A6.18,6.18,0,0,0,383.276,211.274Z" transform="translate(-261.301 -178.788)" fill="#c7e2f8"/>
      <rect id="Rectángulo_5387" data-name="Rectángulo 5387" width="5.111" height="0.545" transform="translate(110.607 40.711) rotate(-10.52)" fill="#c7e2f8"/>
      <rect id="Rectángulo_5388" data-name="Rectángulo 5388" width="0.545" height="6.198" transform="translate(91.606 41.249) rotate(-83.915)" fill="#c7e2f8"/>
      <path id="Trazado_101778" data-name="Trazado 101778" d="M332.533,236.373a1.117,1.117,0,0,1-.168-.014c-1.22-.188-2.868-2.456-2.981-4.739-.06-1.214.164-2,.665-2.347a1.146,1.146,0,0,1,1.056-.092l-.219.5a.592.592,0,0,0-.532.045c-.187.13-.491.547-.425,1.867.1,2.061,1.643,4.093,2.52,4.227.158.025.386.008.544-.418l.511.189A1.041,1.041,0,0,1,332.533,236.373Z" transform="translate(-239.842 -187.14)" fill="#c96e70"/>
      <path id="Trazado_101779" data-name="Trazado 101779" d="M354.843,229.055a1.47,1.47,0,0,1-.7-.185c-1.293-.694-1.987-3.2-2.016-3.3l.526-.143c.007.024.661,2.384,1.748,2.966a.889.889,0,0,0,.735.07,1.029,1.029,0,0,0,.638-.572c.529-1.139-.331-3.314-.34-3.336l.506-.2c.039.1.956,2.415.329,3.768a1.569,1.569,0,0,1-.962.86A1.469,1.469,0,0,1,354.843,229.055Z" transform="translate(-250.19 -184.983)" fill="#3e2d4a"/>
      <path id="Trazado_101780" data-name="Trazado 101780" d="M514.49,195.919s-.617-6.952-2.929-7.886c-1.686-.681-.757,7.385-1.515,7.953s-12.023-.663-13.159.757.094,5.112-.379,7.006-.473,4.45,5.491,5.018,10.509,1.231,12.024-.947S514.49,195.919,514.49,195.919Z" transform="translate(-315.771 -168.448)" fill="#db9e9f"/>
      <path id="Trazado_101781" data-name="Trazado 101781" d="M496.611,209.686l-.373-.4c.857-.809,3.857-.954,4.2-.968l.022.545C499.591,208.9,497.213,209.119,496.611,209.686Z" transform="translate(-315.732 -177.693)" fill="#c96e70"/>
      <path id="Trazado_101782" data-name="Trazado 101782" d="M502.017,216.43c-1.194-.357-4.476-1.066-5.32-.083l-.413-.355c1.224-1.426,5.415-.225,5.89-.083Z" transform="translate(-315.753 -180.867)" fill="#c96e70"/>
      <path id="Trazado_101783" data-name="Trazado 101783" d="M438.9,287.755s29.159-2.267,34.292-2.92,8.726,24.289,7.746,27.66-32.338,4.679-38.871,3.372S438.9,287.755,438.9,287.755Z" transform="translate(-289.261 -212.486)" fill="#3e2d4a"/>
      <circle id="Elipse_4181" data-name="Elipse 4181" cx="7.808" cy="7.808" r="7.808" transform="translate(83.826)" fill="#3e2d4a"/>
      <path id="Trazado_101784" data-name="Trazado 101784" d="M252.506,327.491s12.272,29.047,15,25.946c12.766-14.514,26.966-13.533,28.74-15.711s4.357-33.229,0-32.355C293.818,305.857,266.226,306.481,252.506,327.491Z" transform="translate(-204.882 -221.824)" fill="#3e2d4a"/>
      <path id="Trazado_101785" data-name="Trazado 101785" d="M182.31,267.361a.922.922,0,0,1-.615-.286c-2.019-1.833-3.1-9.367-3.141-9.687l.54-.076c.01.076,1.093,7.657,2.967,9.359.046.042.2.177.279.137.635-.315.686-4.43.37-8.067v-.011l.543-.046v0c.149,1.711.742,6.3,1.687,7.083l-.347.42a5.489,5.489,0,0,1-1.143-2.632c-.036,1.8-.248,3.43-.868,3.737A.6.6,0,0,1,182.31,267.361Z" transform="translate(-171.249 -199.974)" fill="#c96e70"/>
      <path id="Trazado_101786" data-name="Trazado 101786" d="M192.184,256.032c-.033-.694-.4-3.088-.4-3.112l.539-.083c.015.1.376,2.447.41,3.169Z" transform="translate(-177.264 -197.939)" fill="#c96e70"/>
      <rect id="Rectángulo_5389" data-name="Rectángulo 5389" width="0.545" height="3.51" transform="translate(11.014 55.285) rotate(-7.343)" fill="#c96e70"/>
      <g id="Grupo_55019" data-name="Grupo 55019" transform="translate(10.755 56.883)">
        <path id="Trazado_101787" data-name="Trazado 101787" d="M197.963,261.937s-11.311-6.042-12.375-4.869c-1.505,1.662,5.708,6.623,5.708,6.623s-6.35.728-.993,8.588" transform="translate(-185.108 -256.678)" fill="#db9e9f"/>
        <path id="Trazado_101788" data-name="Trazado 101788" d="M189.85,272.233c-2.009-2.947-2.644-5.278-1.889-6.929a3.772,3.772,0,0,1,2.445-1.946c-1.467-1.054-5.3-3.972-5.515-5.776a1.087,1.087,0,0,1,.268-.9c1.119-1.233,10.008,3.37,12.7,4.811l-.256.481c-6.871-3.671-11.6-5.414-12.044-4.926a.551.551,0,0,0-.13.466c.184,1.575,4.242,4.684,5.791,5.749l.6.411-.72.085a3.586,3.586,0,0,0-2.644,1.771c-.668,1.466-.047,3.616,1.845,6.392Z" transform="translate(-184.881 -256.478)" fill="#c96e70"/>
      </g>
      <path id="Trazado_101789" data-name="Trazado 101789" d="M365.9,331.769a50.329,50.329,0,0,1-14.945-2.3l.182-.515c.255.09,25.65,8.819,39.391-8.55l.428.339C383.989,329.547,374.1,331.769,365.9,331.769Z" transform="translate(-249.657 -228.669)" fill="#db9e9f"/>
      <path id="Trazado_101790" data-name="Trazado 101790" d="M361.927,352.461a70.069,70.069,0,0,1-17.7-2.223l.154-.523c.286.085,28.793,8.258,47.767-7.422l.347.421C383.117,350.468,371.443,352.461,361.927,352.461Z" transform="translate(-246.6 -238.624)" fill="#e7b880"/>
      <path id="Trazado_101791" data-name="Trazado 101791" d="M357.582,379.275a49.784,49.784,0,0,1-5.516-.3,32.71,32.71,0,0,1-7.777-1.675l.2-.507c.111.045,11.292,4.345,27.983-.047a226.048,226.048,0,0,1,28.521-5.783l.062.542a225.386,225.386,0,0,0-28.445,5.768A59.127,59.127,0,0,1,357.582,379.275Z" transform="translate(-246.626 -251.664)" fill="#db9e9f"/>
      <path id="Trazado_101792" data-name="Trazado 101792" d="M354.317,404.668a49.759,49.759,0,0,1-5.514-.3,32.719,32.719,0,0,1-7.777-1.674l.2-.507c.111.044,11.291,4.344,27.983-.048a225.967,225.967,0,0,1,28.522-5.783l.062.542a225.172,225.172,0,0,0-28.445,5.768A59.11,59.11,0,0,1,354.317,404.668Z" transform="translate(-245.142 -263.213)" fill="#e7b880"/>
      <path id="Trazado_101793" data-name="Trazado 101793" d="M359.612,431.315a51.074,51.074,0,0,1-7.741-.57,32.71,32.71,0,0,1-7.7-1.992l.221-.5c.11.049,11.1,4.8,27.962,1.1a226,226,0,0,1,28.735-4.607l.039.544a225.252,225.252,0,0,0-28.657,4.6A59.969,59.969,0,0,1,359.612,431.315Z" transform="translate(-246.571 -276.125)" fill="#db9e9f"/>
      <path id="Trazado_101794" data-name="Trazado 101794" d="M363.232,454.626a53.126,53.126,0,0,1-11.519-1.216,32.738,32.738,0,0,1-7.55-2.505l.255-.483c.106.056,10.756,5.538,27.824,2.976a225.874,225.874,0,0,1,28.979-2.668l0,.545a225.435,225.435,0,0,0-28.9,2.661A61.153,61.153,0,0,1,363.232,454.626Z" transform="translate(-246.568 -287.802)" fill="#e7b880"/>
      <path id="Trazado_101795" data-name="Trazado 101795" d="M273.35,392.32h45.125s4.44-27.745,0-43.921c-3.91-14.245-1.605-47.118-6.315-45.648s-16.239,2.538-23.2,5.975,6.142,49.575-3.933,58.059S273.35,392.32,273.35,392.32Z" transform="translate(-214.362 -220.619)" fill="#3e2d4a"/>
      <path id="Trazado_101796" data-name="Trazado 101796" d="M456.808,386.526H425.771s-.835-25.237,1.633-41.535c1.947-12.857-14.9-53.648-9.908-53.9,8.711-.436,11.541-2.94,20.688,1.306,7.242,3.363-1.425,45.079,10.453,65C455.777,369.382,456.808,386.526,456.808,386.526Z" transform="translate(-279.498 -214.824)" fill="#3e2d4a"/>
      <path id="Trazado_101797" data-name="Trazado 101797" d="M333.416,204.346l-.14-.527c17.284-4.581,16.225-18.975,16.213-19.12l.543-.048C350.045,184.8,351.138,199.648,333.416,204.346Z" transform="translate(-241.617 -166.928)" fill="#3e2d4a"/>
      <path id="Trazado_101798" data-name="Trazado 101798" d="M313.112,268.3a8.311,8.311,0,0,1-4.25-.918,3.24,3.24,0,0,1-1.537-2.145c-.435-2.051.264-4.861,1.151-8.418,1.211-4.865,2.719-10.92,2.047-17.92l.543-.052c.682,7.093-.84,13.2-2.061,18.1-.869,3.489-1.555,6.245-1.147,8.174a2.68,2.68,0,0,0,1.29,1.794c2.9,1.792,9.359.136,9.424.12l.138.527A25,25,0,0,1,313.112,268.3Z" transform="translate(-229.754 -191.577)" fill="#3e2d4a"/>
      <path id="Trazado_101799" data-name="Trazado 101799" d="M324.244,170.409c-2.658-.483-4.443-1.67-5.305-3.529-1.957-4.221,1.524-10.35,1.674-10.609l.472.272c-.035.061-3.49,6.144-1.651,10.108.783,1.688,2.434,2.771,4.908,3.22Z" transform="translate(-234.825 -154.021)" fill="#3e2d4a"/>
      <path id="Trazado_101800" data-name="Trazado 101800" d="M344.342,164.969l-.526-.143c.734-2.692.556-4.9-.53-6.576a7.173,7.173,0,0,0-4.479-2.856l.082-.539a7.6,7.6,0,0,1,4.85,3.093C344.916,159.755,345.119,162.118,344.342,164.969Z" transform="translate(-244.132 -153.376)" fill="#3e2d4a"/>
      <path id="Trazado_101801" data-name="Trazado 101801" d="M311.616,201.664c-.034-.189-3.192-18.965,9.7-23.588l.184.514c-12.454,4.468-9.376,22.795-9.344,22.98Z" transform="translate(-231.6 -163.938)" fill="#3e2d4a"/>
      <path id="Trazado_101802" data-name="Trazado 101802" d="M455.051,321.469c-.925-11.362-7.06-21.492-7.123-21.593l.466-.285c.062.1,6.265,10.342,7.2,21.832Z" transform="translate(-293.761 -219.203)" fill="#3f1d37"/>
      <path id="Trazado_101803" data-name="Trazado 101803" d="M305.214,346.008a120.119,120.119,0,0,1,1.064-26.327l.538.092a119.5,119.5,0,0,0-1.058,26.189Z" transform="translate(-228.709 -228.34)" fill="#3f1d37"/>
      <path id="Trazado_101804" data-name="Trazado 101804" d="M400.64,212.983l-.527-.137a37.007,37.007,0,0,0-.357-16.863c-3.491-13.261-10.413-17.356-10.483-17.4l.27-.473c.291.166,7.185,4.227,10.739,17.731A37.574,37.574,0,0,1,400.64,212.983Z" transform="translate(-267.084 -163.955)" fill="#3e2d4a"/>
    </g>
  </g>
</svg>
