<svg xmlns="http://www.w3.org/2000/svg" xmlns:xlink="http://www.w3.org/1999/xlink" width="56" height="56" viewBox="0 0 56 56">
  <defs>
    <clipPath id="clip-path">
      <rect id="Rectángulo_5277" data-name="Rectángulo 5277" width="56" height="56" transform="translate(-8393 1488)" fill="#12263f" stroke="#707070" stroke-width="1"/>
    </clipPath>
  </defs>
  <g id="Enmascarar_grupo_50" data-name="Enmascarar grupo 50" transform="translate(8393 -1488)" clip-path="url(#clip-path)">
    <g id="medios-de-comunicacion-social_1_" data-name="medios-de-comunicacion-social (1)" transform="translate(-8393.903 1487.097)">
      <path id="Trazado_100844" data-name="Trazado 100844" d="M24.387,12.1v-.142a5.754,5.754,0,0,0-1.7-4.1,5.264,5.264,0,0,0-7.335-.107,5.264,5.264,0,0,0-7.335.107,5.754,5.754,0,0,0-1.7,4.1V12.1a6.138,6.138,0,0,0,2.058,4.584l6.974,6.2,6.973-6.2A6.136,6.136,0,0,0,24.387,12.1Zm-9.032,8.367L9.581,15.337A4.329,4.329,0,0,1,8.129,12.1v-.142A3.96,3.96,0,0,1,9.3,9.142a3.458,3.458,0,0,1,4.89,0l1.168,1.168,1.168-1.168a3.543,3.543,0,0,1,4.89,0,3.96,3.96,0,0,1,1.168,2.819V12.1a4.331,4.331,0,0,1-1.452,3.234Z" fill="#12263f"/>
      <path id="Trazado_100845" data-name="Trazado 100845" d="M54.194,8.129H29.806V3.613A2.713,2.713,0,0,0,27.1.9H3.613A2.713,2.713,0,0,0,.9,3.613V23.484a2.713,2.713,0,0,0,2.71,2.71h7.706L12.825,28H5.419a2.713,2.713,0,0,0-2.71,2.71V48.774a2.713,2.713,0,0,0,2.71,2.71h9.513l3.877,4.652a2.133,2.133,0,0,0,3.772-1.366V51.484h9.935a2.713,2.713,0,0,0,2.71-2.71V33.419h1.806v3.286A2.133,2.133,0,0,0,40.8,38.071l3.877-4.652h9.513a2.713,2.713,0,0,0,2.71-2.71V10.839a2.713,2.713,0,0,0-2.71-2.71ZM3.613,24.387a.9.9,0,0,1-.9-.9V3.613a.9.9,0,0,1,.9-.9H27.1a.9.9,0,0,1,.9.9V23.484a.9.9,0,0,1-.9.9H17.161v5.092a.338.338,0,0,1-.578.209l-4.419-5.3ZM24.387,28H18.968V26.194h5.419Zm9.032,20.774a.9.9,0,0,1-.9.9H20.774V54.77a.338.338,0,0,1-.578.209l-4.419-5.3H5.419a.9.9,0,0,1-.9-.9V30.71a.9.9,0,0,1,.9-.9h8.91l.866,1.039a2.127,2.127,0,0,0,3.738-1.039h5.453v.9a2.713,2.713,0,0,0,2.71,2.71h6.323ZM55.1,30.71a.9.9,0,0,1-.9.9H43.835l-4.419,5.3a.339.339,0,0,1-.578-.209V31.613H27.1a.9.9,0,0,1-.9-.9V26.194h.9a2.713,2.713,0,0,0,2.71-2.71V9.935H54.194a.9.9,0,0,1,.9.9Z" fill="#12263f"/>
      <path id="Trazado_100846" data-name="Trazado 100846" d="M22.581,38.839a3.578,3.578,0,0,0,.334,1.5,5.96,5.96,0,0,0-1.292-.873,3.613,3.613,0,1,0-5.311,0,5.96,5.96,0,0,0-1.292.873,3.578,3.578,0,0,0,.334-1.5A3.613,3.613,0,1,0,9.129,41.32a5.422,5.422,0,0,0-2.806,4.745v1.806H8.129V46.065a3.605,3.605,0,0,1,5.224-3.229,6.009,6.009,0,0,0-.3,1.3l-.4,3.64,1.795.2.4-3.64a4.143,4.143,0,0,1,8.236,0l.4,3.64,1.795-.2-.4-3.64a5.956,5.956,0,0,0-.3-1.3,3.605,3.605,0,0,1,5.224,3.229v1.806h1.806V46.065a5.422,5.422,0,0,0-2.806-4.745,3.609,3.609,0,1,0-6.226-2.481Zm-12.645,0a1.806,1.806,0,1,1,1.806,1.806A1.808,1.808,0,0,1,9.935,38.839Zm7.226-1.806a1.806,1.806,0,1,1,1.806,1.806A1.808,1.808,0,0,1,17.161,37.032ZM28,38.839a1.806,1.806,0,1,1-1.806-1.806A1.808,1.808,0,0,1,28,38.839Z" fill="#12263f"/>
      <path id="Trazado_100847" data-name="Trazado 100847" d="M47.871,17.161H46.227l.218-1.3a3.534,3.534,0,0,0-3.486-4.115,2.707,2.707,0,0,0-2.629,2.052,7.451,7.451,0,0,1-1.959,3.461l-.266.266a1.793,1.793,0,0,0-1.072-.36H33.419a1.808,1.808,0,0,0-1.806,1.806V28a1.808,1.808,0,0,0,1.806,1.806h3.613a1.8,1.8,0,0,0,1.7-1.216,11.611,11.611,0,0,0,5.17,1.216h3.97a3.617,3.617,0,0,0,3.613-3.613V20.774A3.617,3.617,0,0,0,47.871,17.161ZM33.419,28V18.968h3.613V28Zm16.258-1.806A1.808,1.808,0,0,1,47.871,28H43.9a9.814,9.814,0,0,1-5.063-1.407V19.342l.809-.809a9.259,9.259,0,0,0,2.435-4.3.9.9,0,0,1,.876-.684,1.728,1.728,0,0,1,1.7,2.012L44.1,18.968h3.775a1.808,1.808,0,0,1,1.806,1.806Z" fill="#12263f"/>
    </g>
  </g>
</svg>
