<svg xmlns="http://www.w3.org/2000/svg" xmlns:xlink="http://www.w3.org/1999/xlink" width="56" height="56" viewBox="0 0 56 56">
  <defs>
    <clipPath id="clip-path">
      <rect id="Rectángulo_5270" data-name="Rectángulo 5270" width="56" height="56" transform="translate(256 12124)" fill="#fff" stroke="#707070" stroke-width="1"/>
    </clipPath>
  </defs>
  <g id="Enmascarar_grupo_49" data-name="Enmascarar grupo 49" transform="translate(-256 -12124)" clip-path="url(#clip-path)">
    <g id="medios-de-comunicacion-social" transform="translate(255.097 12123.097)">
      <g id="Grupo_54489" data-name="Grupo 54489">
        <g id="Grupo_54477" data-name="Grupo 54477">
          <path id="Trazado_100831" data-name="Trazado 100831" d="M21.677,50.581v4.191a1.231,1.231,0,0,1-2.177.786l-4.146-4.977H5.419a1.812,1.812,0,0,1-1.806-1.806V30.71A1.812,1.812,0,0,1,5.419,28.9h9.33l1.138,1.364a1.231,1.231,0,0,0,2.177-.786V28.9H25.29V30.71A1.812,1.812,0,0,0,27.1,32.516h7.226V48.774a1.812,1.812,0,0,1-1.806,1.806Z" fill="#e6e9ed"/>
        </g>
        <g id="Grupo_54478" data-name="Grupo 54478">
          <path id="Trazado_100832" data-name="Trazado 100832" d="M27.1,25.29A1.812,1.812,0,0,0,28.9,23.484V9.032h25.29A1.812,1.812,0,0,1,56,10.839V30.71a1.812,1.812,0,0,1-1.806,1.806H44.258l-4.146,4.977a1.231,1.231,0,0,1-2.177-.786V32.516H27.1A1.812,1.812,0,0,1,25.29,30.71V25.29Z" fill="#ffeaa7"/>
        </g>
        <g id="Grupo_54479" data-name="Grupo 54479">
          <path id="Trazado_100833" data-name="Trazado 100833" d="M28.9,9.032V23.484A1.812,1.812,0,0,1,27.1,25.29H18.065v4.191a1.231,1.231,0,0,1-2.177.786L14.75,28.9,11.742,25.29H3.613a1.812,1.812,0,0,1-1.806-1.806V3.613A1.812,1.812,0,0,1,3.613,1.806H27.1A1.812,1.812,0,0,1,28.9,3.613Z" fill="#f0d0b4"/>
        </g>
        <g id="Grupo_54480" data-name="Grupo 54480">
          <path id="Trazado_100834" data-name="Trazado 100834" d="M14.479,42.479a5,5,0,0,0-.524,1.752l-.406,3.64H7.226V46.065a4.518,4.518,0,0,1,4.516-4.516,4.45,4.45,0,0,1,2.737.93Z" fill="#b4dd7f"/>
        </g>
        <g id="Grupo_54481" data-name="Grupo 54481">
          <path id="Trazado_100835" data-name="Trazado 100835" d="M30.71,46.065v1.806H24.387l-.406-3.64a5,5,0,0,0-.524-1.752,4.45,4.45,0,0,1,2.737-.93,4.5,4.5,0,0,1,4.516,4.516Z" fill="#b4dd7f"/>
        </g>
        <g id="Grupo_54482" data-name="Grupo 54482">
          <path id="Trazado_100836" data-name="Trazado 100836" d="M23.981,44.231l.406,3.64H13.548l.406-3.64a5.03,5.03,0,0,1,5.013-4.489,5.081,5.081,0,0,1,3.369,1.283,5.35,5.35,0,0,1,1.12,1.454A5,5,0,0,1,23.981,44.231Z" fill="#fcd770"/>
        </g>
        <g id="Grupo_54483" data-name="Grupo 54483">
          <circle id="Elipse_4073" data-name="Elipse 4073" cx="2.71" cy="2.71" r="2.71" transform="translate(23.484 36.129)" fill="#f0d0b4"/>
        </g>
        <g id="Grupo_54484" data-name="Grupo 54484">
          <circle id="Elipse_4074" data-name="Elipse 4074" cx="2.71" cy="2.71" r="2.71" transform="translate(16.258 34.323)" fill="#f0d0b4"/>
        </g>
        <g id="Grupo_54485" data-name="Grupo 54485">
          <circle id="Elipse_4075" data-name="Elipse 4075" cx="2.71" cy="2.71" r="2.71" transform="translate(9.032 36.129)" fill="#f0d0b4"/>
        </g>
        <g id="Grupo_54486" data-name="Grupo 54486">
          <path id="Trazado_100837" data-name="Trazado 100837" d="M23.484,11.959V12.1a5.259,5.259,0,0,1-1.752,3.911l-6.377,5.663L8.978,16.014A5.259,5.259,0,0,1,7.226,12.1v-.145A4.9,4.9,0,0,1,8.662,8.5a4.361,4.361,0,0,1,6.16,0l.533.533.533-.533a4.361,4.361,0,0,1,6.16,0A4.9,4.9,0,0,1,23.484,11.959Z" fill="#ff826e"/>
        </g>
        <g id="Grupo_54487" data-name="Grupo 54487">
          <path id="Trazado_100838" data-name="Trazado 100838" d="M37.935,27.1V28a.906.906,0,0,1-.9.9H33.419a.906.906,0,0,1-.9-.9V18.968a.906.906,0,0,1,.9-.9h3.613a.906.906,0,0,1,.9.9Z" fill="#b4dd7f"/>
        </g>
        <g id="Grupo_54488" data-name="Grupo 54488">
          <path id="Trazado_100839" data-name="Trazado 100839" d="M50.581,20.774v5.419a2.706,2.706,0,0,1-2.71,2.71H43.906a10.787,10.787,0,0,1-5.97-1.806V18.968l1.075-1.075a8.387,8.387,0,0,0,2.195-3.884,1.8,1.8,0,0,1,1.752-1.364,2.628,2.628,0,0,1,2.592,3.062l-.388,2.357h2.71a2.706,2.706,0,0,1,2.71,2.71Z" fill="#f0d0b4"/>
        </g>
      </g>
      <g id="Grupo_54490" data-name="Grupo 54490">
        <path id="Trazado_100840" data-name="Trazado 100840" d="M24.387,12.1v-.142a5.754,5.754,0,0,0-1.7-4.1,5.264,5.264,0,0,0-7.335-.107,5.264,5.264,0,0,0-7.335.107,5.754,5.754,0,0,0-1.7,4.1V12.1a6.138,6.138,0,0,0,2.058,4.584l6.974,6.2,6.973-6.2A6.136,6.136,0,0,0,24.387,12.1Zm-9.032,8.367L9.581,15.337A4.329,4.329,0,0,1,8.129,12.1v-.142A3.96,3.96,0,0,1,9.3,9.142a3.458,3.458,0,0,1,4.89,0l1.168,1.168,1.168-1.168a3.543,3.543,0,0,1,4.89,0,3.96,3.96,0,0,1,1.168,2.819V12.1a4.331,4.331,0,0,1-1.452,3.234Z"/>
        <path id="Trazado_100841" data-name="Trazado 100841" d="M54.194,8.129H29.806V3.613A2.713,2.713,0,0,0,27.1.9H3.613A2.713,2.713,0,0,0,.9,3.613V23.484a2.713,2.713,0,0,0,2.71,2.71h7.706L12.825,28H5.419a2.713,2.713,0,0,0-2.71,2.71V48.774a2.713,2.713,0,0,0,2.71,2.71h9.513l3.877,4.652a2.133,2.133,0,0,0,3.772-1.366V51.484h9.935a2.713,2.713,0,0,0,2.71-2.71V33.419h1.806v3.286A2.133,2.133,0,0,0,40.8,38.071l3.877-4.652h9.513a2.713,2.713,0,0,0,2.71-2.71V10.839a2.713,2.713,0,0,0-2.71-2.71ZM12.165,24.387H3.613a.9.9,0,0,1-.9-.9V3.613a.9.9,0,0,1,.9-.9H27.1a.9.9,0,0,1,.9.9V23.484a.9.9,0,0,1-.9.9H17.161v5.092a.338.338,0,0,1-.578.209Zm12.222,1.806V28H18.968V26.194Zm9.032,22.581a.9.9,0,0,1-.9.9H20.774V54.77a.338.338,0,0,1-.578.209l-4.419-5.3H5.419a.9.9,0,0,1-.9-.9V30.71a.9.9,0,0,1,.9-.9h8.91l.866,1.039a2.127,2.127,0,0,0,3.738-1.039h5.453v.9a2.713,2.713,0,0,0,2.71,2.71h6.323ZM55.1,30.71a.9.9,0,0,1-.9.9H43.835l-4.419,5.3a.339.339,0,0,1-.578-.209V31.613H27.1a.9.9,0,0,1-.9-.9V26.194h.9a2.713,2.713,0,0,0,2.71-2.71V9.935H54.194a.9.9,0,0,1,.9.9Z"/>
        <path id="Trazado_100842" data-name="Trazado 100842" d="M22.581,38.839a3.578,3.578,0,0,0,.334,1.5,5.96,5.96,0,0,0-1.292-.873,3.613,3.613,0,1,0-5.311,0,5.96,5.96,0,0,0-1.292.873,3.578,3.578,0,0,0,.334-1.5A3.613,3.613,0,1,0,9.129,41.32a5.422,5.422,0,0,0-2.806,4.745v1.806H8.129V46.065a3.605,3.605,0,0,1,5.224-3.229,6.009,6.009,0,0,0-.3,1.3l-.4,3.64,1.795.2.4-3.64a4.143,4.143,0,0,1,8.236,0l.4,3.64,1.795-.2-.4-3.64a5.956,5.956,0,0,0-.3-1.3,3.605,3.605,0,0,1,5.224,3.229v1.806h1.806V46.065a5.422,5.422,0,0,0-2.806-4.745,3.609,3.609,0,1,0-6.226-2.481ZM11.742,40.645a1.806,1.806,0,1,1,1.806-1.806A1.808,1.808,0,0,1,11.742,40.645Zm7.226-1.806a1.806,1.806,0,1,1,1.806-1.806A1.808,1.808,0,0,1,18.968,38.839Zm9.032,0a1.806,1.806,0,1,1-1.806-1.806A1.808,1.808,0,0,1,28,38.839Z"/>
        <path id="Trazado_100843" data-name="Trazado 100843" d="M47.871,17.161H46.227l.218-1.3a3.534,3.534,0,0,0-3.486-4.115,2.707,2.707,0,0,0-2.629,2.052,7.451,7.451,0,0,1-1.959,3.461l-.266.266a1.793,1.793,0,0,0-1.072-.36H33.419a1.808,1.808,0,0,0-1.806,1.806V28a1.808,1.808,0,0,0,1.806,1.806h3.613a1.8,1.8,0,0,0,1.7-1.216,11.611,11.611,0,0,0,5.17,1.216h3.97a3.617,3.617,0,0,0,3.613-3.613V20.774A3.617,3.617,0,0,0,47.871,17.161ZM33.419,28V18.968h3.613V28Zm16.258-1.806A1.808,1.808,0,0,1,47.871,28H43.9a9.814,9.814,0,0,1-5.063-1.407V19.342l.809-.809a9.259,9.259,0,0,0,2.435-4.3.9.9,0,0,1,.876-.684,1.728,1.728,0,0,1,1.7,2.012L44.1,18.968h3.775a1.808,1.808,0,0,1,1.806,1.806Z"/>
      </g>
    </g>
  </g>
</svg>
