<svg xmlns="http://www.w3.org/2000/svg" xmlns:xlink="http://www.w3.org/1999/xlink" width="56" height="56" viewBox="0 0 56 56">
  <defs>
    <clipPath id="clip-path">
      <rect id="Rectángulo_5271" data-name="Rectángulo 5271" width="56" height="56" transform="translate(462 12124)" fill="#12263f" stroke="#707070" stroke-width="1"/>
    </clipPath>
  </defs>
  <g id="Enmascarar_grupo_52" data-name="Enmascarar grupo 52" transform="translate(-462 -12124)" clip-path="url(#clip-path)">
    <g id="legal" transform="translate(460.602 12122.602)">
      <path id="Trazado_100866" data-name="Trazado 100866" d="M53.926,52.612a1.854,1.854,0,0,0-1.852-1.852H33.556A1.854,1.854,0,0,0,31.7,52.612v1.62H28.926a.694.694,0,0,0,0,1.389H56.7a.694.694,0,1,0,0-1.389H53.926Zm-1.389,1.62H33.093v-1.62a.463.463,0,0,1,.463-.463H52.074a.463.463,0,0,1,.463.463Z" fill="#12263f"/>
      <path id="Trazado_100867" data-name="Trazado 100867" d="M28.578,50.488a.692.692,0,0,0,.311-.074l5.525-2.771a.694.694,0,1,0-.623-1.242l-5.525,2.771a.694.694,0,0,0,.312,1.315Z" fill="#12263f"/>
      <path id="Trazado_100868" data-name="Trazado 100868" d="M34.1,43.812a.694.694,0,0,0,.234-1.348l-6.788-2.429a.695.695,0,0,0-.468,1.308l6.788,2.428A.694.694,0,0,0,34.1,43.812Z" fill="#12263f"/>
      <path id="Trazado_100869" data-name="Trazado 100869" d="M47.819,34.33a.694.694,0,0,0,.966.179l5.358-3.683a.695.695,0,0,0-.787-1.145L48,33.364a.694.694,0,0,0-.179.966Z" fill="#12263f"/>
      <path id="Trazado_100870" data-name="Trazado 100870" d="M48.969,37.732a.694.694,0,0,0,.568.8l5.875,1a.694.694,0,1,0,.233-1.369l-5.875-1a.694.694,0,0,0-.8.568Z" fill="#12263f"/>
      <path id="Trazado_100871" data-name="Trazado 100871" d="M5.686,45.349a.694.694,0,0,0,.972.142L28.286,29.374,30.914,32.9l-1.3.968a.694.694,0,0,0-.142.972l3.458,4.64a.694.694,0,0,0,.972.142l14.85-11.065a.694.694,0,0,0,.142-.972l-3.458-4.64a.694.694,0,0,0-.972-.142l-1.3.968L32.929,10.036l1.3-.968A.694.694,0,0,0,34.37,8.1l-3.458-4.64a.694.694,0,0,0-.972-.142L15.091,14.379a.694.694,0,0,0-.142.972l3.458,4.64a.694.694,0,0,0,.972.142l1.3-.968,2.628,3.527L1.678,38.809a.694.694,0,0,0-.142.972ZM44.737,24.332l2.628,3.527L33.63,38.094,31,34.567ZM19.106,18.6l-2.628-3.527L30.214,4.842l2.627,3.527-1.3.968h0Zm2.686-.27,10.023-7.469L42.051,24.6,32.028,32.07Zm2.344,5.47,3.32,4.455L11.025,40.5,7.705,36.05ZM6.592,36.88l3.32,4.455L6.385,43.962l-3.32-4.455Z" fill="#12263f"/>
    </g>
  </g>
</svg>
