<svg xmlns="http://www.w3.org/2000/svg" xmlns:xlink="http://www.w3.org/1999/xlink" width="56" height="56" viewBox="0 0 56 56">
  <defs>
    <clipPath id="clip-path">
      <rect id="Rectángulo_5278" data-name="Rectángulo 5278" width="56" height="56" transform="translate(-8187 1488)" fill="#fff" stroke="#707070" stroke-width="1"/>
    </clipPath>
  </defs>
  <g id="Enmascarar_grupo_51" data-name="Enmascarar grupo 51" transform="translate(8187 -1488)" clip-path="url(#clip-path)">
    <g id="martillo-legal" transform="translate(-8188.877 1486.123)">
      <path id="Trazado_100848" data-name="Trazado 100848" d="M53.676,53.05v2.334H32.669V53.05a1.167,1.167,0,0,1,1.167-1.167H52.509a1.167,1.167,0,0,1,1.167,1.167Z" fill="#6d7486"/>
      <path id="Trazado_100849" data-name="Trazado 100849" d="M37.337,51.883h-3.5a1.167,1.167,0,0,0-1.167,1.167v2.334h3.5V53.05a1.167,1.167,0,0,1,1.167-1.167Z" fill="#b0b5ca"/>
      <path id="Trazado_100850" data-name="Trazado 100850" d="M28.666,28.639,10.974,41.823h0L6.79,36.207,24.48,23.024Z" fill="#fb6771"/>
      <path id="Trazado_100851" data-name="Trazado 100851" d="M10.974,41.822h0L7.231,44.612A1.168,1.168,0,0,1,5.6,44.373L2.808,40.63A1.169,1.169,0,0,1,3.046,39L6.79,36.207Z" fill="#edb740"/>
      <path id="Trazado_100852" data-name="Trazado 100852" d="M26.348,25.592,24.48,23.024,6.79,36.207l1.9,2.545Z" fill="#e75163"/>
      <path id="Trazado_100853" data-name="Trazado 100853" d="M4.913,41.564l3.744-2.789,2.287,3.07.029-.022h0L6.79,36.207,3.046,39a1.169,1.169,0,0,0-.238,1.634l1.726,2.316a1.169,1.169,0,0,1,.38-1.382Z" fill="#d8a43d"/>
      <path id="Trazado_100854" data-name="Trazado 100854" d="M48.042,27.3a1.168,1.168,0,0,1-.238,1.634L34.7,38.694a1.166,1.166,0,0,1-1.633-.238l-2.093-2.808a1.167,1.167,0,0,1,.239-1.633l.936-.7L43.382,24.95l.935-.7a1.168,1.168,0,0,1,1.634.238Z" fill="#6d7486"/>
      <path id="Trazado_100855" data-name="Trazado 100855" d="M37.037,36.944a1.166,1.166,0,0,1-1.633-.238L33.312,33.9a1.166,1.166,0,0,1,.131-1.541l-1.29.961-.936.7a1.167,1.167,0,0,0-.239,1.633l2.093,2.808a1.166,1.166,0,0,0,1.633.238l13.1-9.762a1.191,1.191,0,0,0,.106-.091Z" fill="#b0b5ca"/>
      <path id="Trazado_100856" data-name="Trazado 100856" d="M33.4,7.647A1.166,1.166,0,0,1,33.16,9.28l-.936.7L20.994,18.345l-.936.7a1.166,1.166,0,0,1-1.633-.238L16.333,16a1.169,1.169,0,0,1,.238-1.634L29.673,4.6a1.168,1.168,0,0,1,1.634.238Z" fill="#6d7486"/>
      <path id="Trazado_100857" data-name="Trazado 100857" d="M23.328,16.595l-.936.7a1.166,1.166,0,0,1-1.633-.238l-2.092-2.807A1.168,1.168,0,0,1,18.8,12.7l-2.229,1.661A1.169,1.169,0,0,0,16.333,16L18.426,18.8a1.166,1.166,0,0,0,1.633.238l.936-.7,11.23-8.368.936-.7a1.154,1.154,0,0,0,.105-.089Z" fill="#b0b5ca"/>
      <path id="Trazado_100858" data-name="Trazado 100858" d="M28.666,28.639,24.48,23.024l-3.486-4.679L32.224,9.977,43.382,24.95,32.153,33.319h0Z" fill="#b0b5ca"/>
      <path id="Trazado_100859" data-name="Trazado 100859" d="M34.487,31.568h0L31,26.888l-4.185-5.615L23.334,16.6l-2.34,1.743,3.486,4.679,4.185,5.615,3.486,4.679h0L43.382,24.95l-.005-.007Z" fill="#e2e4ed"/>
      <g id="Grupo_54491" data-name="Grupo 54491">
        <path id="Trazado_100860" data-name="Trazado 100860" d="M31.172,33.175l-.374.279a1.867,1.867,0,0,0-.382,2.613l2.092,2.807a1.856,1.856,0,0,0,1.228.732,1.9,1.9,0,0,0,.274.02,1.854,1.854,0,0,0,1.112-.371l13.1-9.763A1.867,1.867,0,0,0,48.6,26.88l-2.092-2.807a1.867,1.867,0,0,0-2.614-.381l-.374.279L33.2,10.12l.374-.279a1.869,1.869,0,0,0,.382-2.613L31.868,4.42a1.867,1.867,0,0,0-2.613-.382L16.153,13.8a1.87,1.87,0,0,0-.382,2.613l2.092,2.807a1.869,1.869,0,0,0,2.613.382l.374-.279,2.65,3.556L2.628,38.435a1.869,1.869,0,0,0-.382,2.613l2.789,3.743a1.856,1.856,0,0,0,1.228.732,1.887,1.887,0,0,0,.274.02,1.853,1.853,0,0,0,1.112-.37L28.522,29.619Zm13.841-8.454a.468.468,0,0,1,.375.188l2.092,2.807a.467.467,0,0,1-.1.654l-13.1,9.763a.467.467,0,0,1-.654-.1L31.539,35.23a.467.467,0,0,1,.1-.654l13.1-9.763a.464.464,0,0,1,.278-.092ZM18.987,18.385l-2.092-2.807a.467.467,0,0,1,.1-.654l13.1-9.763a.467.467,0,0,1,.654.1l2.092,2.807a.467.467,0,0,1-.1.654l-.935.7L19.64,18.481a.467.467,0,0,1-.653-.1Zm13.094-7.429L42.4,24.807,32.3,32.338,21.974,18.488ZM6.812,44.05a.467.467,0,0,1-.654-.1L3.369,40.212a.467.467,0,0,1,.1-.654l3.182-2.371,3.347,4.492Zm4.3-3.208L7.77,36.35,24.338,24,27.685,28.5Z" fill="#284268"/>
        <path id="Trazado_100861" data-name="Trazado 100861" d="M57.177,54.684h-2.8V53.051a1.87,1.87,0,0,0-1.867-1.867H33.836a1.87,1.87,0,0,0-1.867,1.867v1.634h-2.8a.7.7,0,0,0,0,1.4h28.01a.7.7,0,1,0,0-1.4ZM33.369,53.051a.467.467,0,0,1,.467-.467H52.509a.467.467,0,0,1,.467.467v1.634H33.369Z" fill="#284268"/>
        <path id="Trazado_100862" data-name="Trazado 100862" d="M29.13,50.835,34.7,48.041a.7.7,0,0,0-.628-1.252L28.5,49.583a.7.7,0,1,0,.628,1.252Z" fill="#284268"/>
        <path id="Trazado_100863" data-name="Trazado 100863" d="M34.387,44.177a.7.7,0,0,0,.236-1.36l-6.844-2.449a.7.7,0,0,0-.472,1.319l6.844,2.449a.7.7,0,0,0,.236.041Z" fill="#284268"/>
        <path id="Trazado_100864" data-name="Trazado 100864" d="M48.218,34.616a.7.7,0,0,0,.974.18l5.4-3.714a.7.7,0,0,0-.794-1.154l-5.4,3.714a.7.7,0,0,0-.181.974Z" fill="#284268"/>
        <path id="Trazado_100865" data-name="Trazado 100865" d="M49.378,38.046a.7.7,0,0,0,.573.808l5.924,1.006a.7.7,0,1,0,.234-1.381l-5.924-1.006a.7.7,0,0,0-.808.573Z" fill="#284268"/>
      </g>
    </g>
  </g>
</svg>
