<svg xmlns="http://www.w3.org/2000/svg" xmlns:xlink="http://www.w3.org/1999/xlink" width="56" height="56" viewBox="0 0 56 56">
  <defs>
    <clipPath id="clip-path">
      <rect id="Rectángulo_5272" data-name="Rectángulo 5272" width="56" height="56" transform="translate(670 12124)" fill="#12263f" stroke="#707070" stroke-width="1"/>
    </clipPath>
  </defs>
  <g id="Enmascarar_grupo_58" data-name="Enmascarar grupo 58" transform="translate(-670 -12124)" clip-path="url(#clip-path)">
    <g id="ovni_1_" data-name="ovni (1)" transform="translate(670 12124)">
      <g id="Grupo_54497" data-name="Grupo 54497">
        <g id="Grupo_54496" data-name="Grupo 54496">
          <path id="Trazado_100929" data-name="Trazado 100929" d="M46.12,24.915h-2.8v-.539A2.182,2.182,0,0,0,41.137,22.2h-.566a12.6,12.6,0,0,0-25.141,0h-.566a2.182,2.182,0,0,0-2.179,2.179v.539H9.88A9.891,9.891,0,0,0,0,34.795a.82.82,0,0,0,.82.82h9.223a4.455,4.455,0,0,0,3.547,3.547v2.881a.82.82,0,0,0,.82.82H15.5a3.538,3.538,0,0,0,6.883,0h2.177a3.538,3.538,0,0,0,6.883,0h2.177a3.538,3.538,0,0,0,6.883,0H41.59a.82.82,0,0,0,.82-.82V39.2a4.453,4.453,0,0,0,3.773-3.583h9a.82.82,0,0,0,.82-.82A9.891,9.891,0,0,0,46.12,24.915Zm-31.8-.539a.539.539,0,0,1,.539-.539h5.889a.82.82,0,0,0,0-1.641H17.073a10.958,10.958,0,0,1,21.854,0H24.054a.82.82,0,0,0,0,1.641H41.137a.539.539,0,0,1,.539.539v.539H14.324ZM18.94,43.94a1.9,1.9,0,0,1-1.709-1.077h3.417A1.9,1.9,0,0,1,18.94,43.94Zm9.06,0a1.9,1.9,0,0,1-1.709-1.077h3.417A1.9,1.9,0,0,1,28,43.94Zm9.06,0a1.9,1.9,0,0,1-1.709-1.077h3.417A1.9,1.9,0,0,1,37.06,43.94Zm3.71-2.718H37.88v-.992a.82.82,0,0,0-1.641,0v.992H28.82v-.992a.82.82,0,0,0-1.641,0v.992H19.76v-.992a.82.82,0,0,0-1.641,0v.992H15.23V39.239H40.77ZM41.816,37.6H14.41a2.809,2.809,0,0,1-2.681-1.983H44.5A2.808,2.808,0,0,1,41.816,37.6Zm3.626-3.624H1.681a8.251,8.251,0,0,1,8.2-7.419H46.12a8.251,8.251,0,0,1,8.2,7.419Z" fill="#12263f"/>
        </g>
      </g>
      <g id="Grupo_54499" data-name="Grupo 54499">
        <g id="Grupo_54498" data-name="Grupo 54498">
          <path id="Trazado_100930" data-name="Trazado 100930" d="M28,27.633a2.632,2.632,0,1,0,2.632,2.632A2.635,2.635,0,0,0,28,27.633Zm0,3.624a.992.992,0,1,1,.992-.992A.993.993,0,0,1,28,31.257Z" fill="#12263f"/>
        </g>
      </g>
      <g id="Grupo_54501" data-name="Grupo 54501">
        <g id="Grupo_54500" data-name="Grupo 54500">
          <path id="Trazado_100931" data-name="Trazado 100931" d="M37.06,27.633a2.632,2.632,0,1,0,2.632,2.632A2.635,2.635,0,0,0,37.06,27.633Zm0,3.624a.992.992,0,1,1,.992-.992A.993.993,0,0,1,37.06,31.257Z" fill="#12263f"/>
        </g>
      </g>
      <g id="Grupo_54503" data-name="Grupo 54503">
        <g id="Grupo_54502" data-name="Grupo 54502">
          <path id="Trazado_100932" data-name="Trazado 100932" d="M46.12,27.633a2.632,2.632,0,1,0,2.632,2.632A2.635,2.635,0,0,0,46.12,27.633Zm0,3.624a.992.992,0,1,1,.992-.992A.993.993,0,0,1,46.12,31.257Z" fill="#12263f"/>
        </g>
      </g>
      <g id="Grupo_54505" data-name="Grupo 54505">
        <g id="Grupo_54504" data-name="Grupo 54504">
          <path id="Trazado_100933" data-name="Trazado 100933" d="M18.94,27.633a2.632,2.632,0,1,0,2.632,2.632A2.635,2.635,0,0,0,18.94,27.633Zm0,3.624a.992.992,0,1,1,.992-.992A.993.993,0,0,1,18.94,31.257Z" fill="#12263f"/>
        </g>
      </g>
      <g id="Grupo_54507" data-name="Grupo 54507">
        <g id="Grupo_54506" data-name="Grupo 54506">
          <path id="Trazado_100934" data-name="Trazado 100934" d="M9.88,27.633a2.632,2.632,0,1,0,2.632,2.632A2.635,2.635,0,0,0,9.88,27.633Zm0,3.624a.992.992,0,1,1,.992-.992A.993.993,0,0,1,9.88,31.257Z" fill="#12263f"/>
        </g>
      </g>
    </g>
  </g>
</svg>
