<svg xmlns="http://www.w3.org/2000/svg" xmlns:xlink="http://www.w3.org/1999/xlink" width="56" height="56" viewBox="0 0 56 56">
  <defs>
    <clipPath id="clip-path">
      <rect id="Rectángulo_5288" data-name="Rectángulo 5288" width="56" height="56" transform="translate(-7979 2102)" fill="#fff" stroke="#707070" stroke-width="1"/>
    </clipPath>
  </defs>
  <g id="Enmascarar_grupo_57" data-name="Enmascarar grupo 57" transform="translate(7979 -2102)" clip-path="url(#clip-path)">
    <g id="ovni" transform="translate(-7979 2102)">
      <path id="Trazado_100902" data-name="Trazado 100902" d="M39.778,23.017a11.778,11.778,0,1,0-23.555,0v2.718H39.778V23.017Z" fill="#c0e3f0"/>
      <path id="Trazado_100903" data-name="Trazado 100903" d="M28,11.239c-.369,0-.734.018-1.094.051A11.778,11.778,0,0,1,37.59,23.017v2.718h2.188V23.017A11.778,11.778,0,0,0,28,11.239Z" fill="#a3cfe3"/>
      <path id="Trazado_100904" data-name="Trazado 100904" d="M42.5,26.282V24.376a1.359,1.359,0,0,0-1.359-1.359H14.863A1.359,1.359,0,0,0,13.5,24.376v1.906Z" fill="#feb756"/>
      <path id="Trazado_100905" data-name="Trazado 100905" d="M41.137,23.017H38.949a1.359,1.359,0,0,1,1.359,1.359v1.906H42.5V24.376A1.359,1.359,0,0,0,41.137,23.017Z" fill="#fa8043"/>
      <path id="Trazado_100906" data-name="Trazado 100906" d="M21.658,42.043a2.718,2.718,0,0,1-5.436,0V40.979h5.436Z" fill="#c0e3f0"/>
      <path id="Trazado_100907" data-name="Trazado 100907" d="M19.471,40.979v1.063a2.718,2.718,0,0,1-1.624,2.488,2.718,2.718,0,0,0,3.812-2.488V40.979H19.471Z" fill="#a3cfe3"/>
      <path id="Trazado_100908" data-name="Trazado 100908" d="M30.718,42.043a2.718,2.718,0,0,1-5.436,0V40.979h5.436v1.063Z" fill="#c0e3f0"/>
      <path id="Trazado_100909" data-name="Trazado 100909" d="M28.53,40.979v1.063a2.718,2.718,0,0,1-1.624,2.488,2.718,2.718,0,0,0,3.812-2.488V40.979H28.53Z" fill="#a3cfe3"/>
      <path id="Trazado_100910" data-name="Trazado 100910" d="M39.778,42.043a2.718,2.718,0,0,1-5.436,0V40.979h5.436v1.063Z" fill="#c0e3f0"/>
      <path id="Trazado_100911" data-name="Trazado 100911" d="M37.59,40.979v1.063a2.718,2.718,0,0,1-1.624,2.488,2.718,2.718,0,0,0,3.812-2.488V40.979H37.59Z" fill="#a3cfe3"/>
      <path id="Trazado_100912" data-name="Trazado 100912" d="M14.41,37.37v4.016a.656.656,0,0,0,.656.656H40.934a.656.656,0,0,0,.656-.656V37.37Z" fill="#feb756"/>
      <path id="Trazado_100913" data-name="Trazado 100913" d="M39.4,37.37v4.016a.656.656,0,0,1-.656.656h2.188a.656.656,0,0,0,.656-.656V37.37Z" fill="#fa8043"/>
      <path id="Trazado_100914" data-name="Trazado 100914" d="M45.44,34.795a3.624,3.624,0,0,1-3.624,3.624H14.41a3.624,3.624,0,0,1-3.624-3.624V33.578H45.44v1.217Z" fill="#57555c"/>
      <path id="Trazado_100915" data-name="Trazado 100915" d="M43.253,33.578v1.217a3.624,3.624,0,0,1-3.624,3.624h2.188a3.624,3.624,0,0,0,3.624-3.624V33.578Z" fill="#4b494f"/>
      <path id="Trazado_100916" data-name="Trazado 100916" d="M54.5,34.795a.656.656,0,0,0,.655-.7,9.061,9.061,0,0,0-9.033-8.356H9.88A9.061,9.061,0,0,0,.847,34.091a.656.656,0,0,0,.655.7Z" fill="#4dbbeb"/>
      <g id="Grupo_54494" data-name="Grupo 54494">
        <circle id="Elipse_4076" data-name="Elipse 4076" cx="1.812" cy="1.812" r="1.812" transform="translate(26.188 28.453)" fill="#e4f1fb"/>
        <circle id="Elipse_4077" data-name="Elipse 4077" cx="1.812" cy="1.812" r="1.812" transform="translate(35.248 28.453)" fill="#e4f1fb"/>
        <circle id="Elipse_4078" data-name="Elipse 4078" cx="1.812" cy="1.812" r="1.812" transform="translate(44.308 28.453)" fill="#e4f1fb"/>
        <circle id="Elipse_4079" data-name="Elipse 4079" cx="1.812" cy="1.812" r="1.812" transform="translate(17.129 28.453)" fill="#e4f1fb"/>
        <circle id="Elipse_4080" data-name="Elipse 4080" cx="1.812" cy="1.812" r="1.812" transform="translate(8.068 28.453)" fill="#e4f1fb"/>
      </g>
      <path id="Trazado_100917" data-name="Trazado 100917" d="M55.153,34.091a9.061,9.061,0,0,0-9.033-8.356H43.932a9.061,9.061,0,0,1,9.033,8.356.656.656,0,0,1-.655.7H54.5A.656.656,0,0,0,55.153,34.091Z" fill="#38a1d9"/>
      <g id="Grupo_54495" data-name="Grupo 54495">
        <path id="Trazado_100918" data-name="Trazado 100918" d="M46.12,28.453a1.8,1.8,0,0,0-1.094.37,1.807,1.807,0,0,1,0,2.884,1.811,1.811,0,1,0,1.094-3.254Z" fill="#c9e3f7"/>
        <path id="Trazado_100919" data-name="Trazado 100919" d="M37.06,28.453a1.8,1.8,0,0,0-1.094.37,1.807,1.807,0,0,1,0,2.884,1.811,1.811,0,1,0,1.094-3.254Z" fill="#c9e3f7"/>
        <path id="Trazado_100920" data-name="Trazado 100920" d="M28,28.453a1.8,1.8,0,0,0-1.094.37,1.807,1.807,0,0,1,0,2.884A1.811,1.811,0,1,0,28,28.453Z" fill="#c9e3f7"/>
        <path id="Trazado_100921" data-name="Trazado 100921" d="M18.94,28.453a1.8,1.8,0,0,0-1.094.37,1.807,1.807,0,0,1,0,2.884,1.811,1.811,0,1,0,1.094-3.254Z" fill="#c9e3f7"/>
        <path id="Trazado_100922" data-name="Trazado 100922" d="M9.88,28.453a1.8,1.8,0,0,0-1.094.37,1.807,1.807,0,0,1,0,2.884A1.811,1.811,0,1,0,9.88,28.453Z" fill="#c9e3f7"/>
      </g>
      <path id="Trazado_100923" data-name="Trazado 100923" d="M46.12,24.915h-2.8v-.539A2.182,2.182,0,0,0,41.137,22.2h-.566a12.6,12.6,0,0,0-25.141,0h-.566a2.182,2.182,0,0,0-2.179,2.179v.539H9.88A9.891,9.891,0,0,0,0,34.795a.82.82,0,0,0,.82.82h9.223a4.455,4.455,0,0,0,3.547,3.547v2.881a.82.82,0,0,0,.82.82H15.5a3.538,3.538,0,0,0,6.883,0h2.177a3.538,3.538,0,0,0,6.883,0h2.177a3.538,3.538,0,0,0,6.883,0H41.59a.82.82,0,0,0,.82-.82V39.2a4.453,4.453,0,0,0,3.773-3.583h9a.82.82,0,0,0,.82-.82A9.891,9.891,0,0,0,46.12,24.915Zm-31.8-.539a.539.539,0,0,1,.539-.539h5.889a.82.82,0,0,0,0-1.641H17.073a10.958,10.958,0,0,1,21.854,0H24.054a.82.82,0,0,0,0,1.641H41.137a.539.539,0,0,1,.539.539v.539H14.324ZM18.94,43.94a1.9,1.9,0,0,1-1.709-1.077h3.417A1.9,1.9,0,0,1,18.94,43.94Zm9.06,0a1.9,1.9,0,0,1-1.709-1.077h3.417A1.9,1.9,0,0,1,28,43.94Zm9.06,0a1.9,1.9,0,0,1-1.709-1.077h3.417A1.9,1.9,0,0,1,37.06,43.94Zm.82-2.718v-.992a.82.82,0,0,0-1.641,0v.992H28.82v-.992a.82.82,0,0,0-1.641,0v.992H19.76v-.992a.82.82,0,0,0-1.641,0v.992H15.23V39.239H40.77v1.983ZM41.816,37.6H14.41a2.809,2.809,0,0,1-2.681-1.983H44.5A2.808,2.808,0,0,1,41.816,37.6Zm3.626-3.624H1.681a8.251,8.251,0,0,1,8.2-7.419H46.12a8.251,8.251,0,0,1,8.2,7.419Z"/>
      <path id="Trazado_100924" data-name="Trazado 100924" d="M28,27.633a2.632,2.632,0,1,0,2.632,2.632A2.635,2.635,0,0,0,28,27.633Zm0,3.624a.992.992,0,1,1,.992-.992A.993.993,0,0,1,28,31.257Z"/>
      <path id="Trazado_100925" data-name="Trazado 100925" d="M37.06,27.633a2.632,2.632,0,1,0,2.632,2.632A2.635,2.635,0,0,0,37.06,27.633Zm0,3.624a.992.992,0,1,1,.992-.992A.993.993,0,0,1,37.06,31.257Z"/>
      <path id="Trazado_100926" data-name="Trazado 100926" d="M46.12,27.633a2.632,2.632,0,1,0,2.632,2.632A2.635,2.635,0,0,0,46.12,27.633Zm0,3.624a.992.992,0,1,1,.992-.992A.993.993,0,0,1,46.12,31.257Z"/>
      <path id="Trazado_100927" data-name="Trazado 100927" d="M18.94,27.633a2.632,2.632,0,1,0,2.632,2.632A2.635,2.635,0,0,0,18.94,27.633Zm0,3.624a.992.992,0,1,1,.992-.992A.993.993,0,0,1,18.94,31.257Z"/>
      <path id="Trazado_100928" data-name="Trazado 100928" d="M9.88,27.633a2.632,2.632,0,1,0,2.632,2.632A2.635,2.635,0,0,0,9.88,27.633Zm0,3.624a.992.992,0,1,1,.992-.992A.993.993,0,0,1,9.88,31.257Z"/>
    </g>
  </g>
</svg>
