<svg xmlns="http://www.w3.org/2000/svg" xmlns:xlink="http://www.w3.org/1999/xlink" width="56" height="56" viewBox="0 0 56 56">
  <defs>
    <clipPath id="clip-path">
      <rect id="Rectángulo_5273" data-name="Rectángulo 5273" width="56" height="56" transform="translate(876 12124)" fill="#12263f" stroke="#707070" stroke-width="1"/>
    </clipPath>
  </defs>
  <g id="Enmascarar_grupo_67" data-name="Enmascarar grupo 67" transform="translate(-876 -12124)" clip-path="url(#clip-path)">
    <g id="edificio-de-oficinas" transform="translate(876 12124)">
      <g id="Grupo_54552" data-name="Grupo 54552">
        <g id="Grupo_54551" data-name="Grupo 54551">
          <path id="Trazado_101013" data-name="Trazado 101013" d="M53.266,48.651h-.694V35.105a.82.82,0,0,0-1.641,0V48.651h-17.4v-22.3H50.26a.671.671,0,0,1,.67.67V31.24a.82.82,0,0,0,1.641,0V27.022a2.314,2.314,0,0,0-2.311-2.311H33.529V9.8a2.322,2.322,0,0,0-2.117-2.3V5.856a2.322,2.322,0,0,0-2.131-2.3L8.037,1.887a2.312,2.312,0,0,0-2.492,2.3V5.5a2.311,2.311,0,0,0-2.117,2.3V48.651H2.734a2.734,2.734,0,0,0,0,5.469H53.266a2.734,2.734,0,1,0,0-5.469ZM7.186,4.191a.67.67,0,0,1,.723-.668L29.154,5.188a.674.674,0,0,1,.618.668V7.373L7.186,5.6V4.191ZM5.069,7.807a.67.67,0,0,1,.723-.668l25.478,2a.674.674,0,0,1,.618.668V48.651H29.6V36.907a1.355,1.355,0,0,0-1.354-1.354H20.621a1.355,1.355,0,0,0-1.354,1.354v5.321a.82.82,0,0,0,1.641,0V37.193h7.048V48.651H20.907V46.063a.82.82,0,0,0-1.641,0v2.588H5.069Zm48.2,44.672H2.734a1.094,1.094,0,0,1,0-2.187H53.266a1.094,1.094,0,0,1,0,2.188Z" fill="#12263f"/>
          <path id="Trazado_101014" data-name="Trazado 101014" d="M8.3,17.822h3.32a1.417,1.417,0,0,0,1.416-1.416V13.852a1.417,1.417,0,0,0-1.416-1.416H8.3a1.417,1.417,0,0,0-1.416,1.416v2.555A1.417,1.417,0,0,0,8.3,17.822Zm.225-3.745H11.4v2.1H8.527Z" fill="#12263f"/>
          <path id="Trazado_101015" data-name="Trazado 101015" d="M16.581,17.822H19.9a1.417,1.417,0,0,0,1.416-1.416V13.852A1.417,1.417,0,0,0,19.9,12.436h-3.32a1.417,1.417,0,0,0-1.416,1.416v2.555A1.417,1.417,0,0,0,16.581,17.822Zm.225-3.745h2.87v2.1h-2.87Z" fill="#12263f"/>
          <path id="Trazado_101016" data-name="Trazado 101016" d="M24.86,17.822h3.32A1.417,1.417,0,0,0,29.6,16.406V13.852a1.417,1.417,0,0,0-1.416-1.416H24.86a1.417,1.417,0,0,0-1.416,1.416v2.555a1.417,1.417,0,0,0,1.416,1.416Zm.225-3.745h2.87v2.1h-2.87Z" fill="#12263f"/>
          <path id="Trazado_101017" data-name="Trazado 101017" d="M8.3,25.2h3.32a1.417,1.417,0,0,0,1.416-1.416V21.228a1.417,1.417,0,0,0-1.416-1.416H8.3a1.417,1.417,0,0,0-1.416,1.416v2.555A1.417,1.417,0,0,0,8.3,25.2Zm.225-3.745H11.4v2.1H8.527Z" fill="#12263f"/>
          <path id="Trazado_101018" data-name="Trazado 101018" d="M16.581,25.2H19.9a1.417,1.417,0,0,0,1.416-1.416V21.228A1.417,1.417,0,0,0,19.9,19.812h-3.32a1.417,1.417,0,0,0-1.416,1.416v2.555A1.417,1.417,0,0,0,16.581,25.2Zm.225-3.745h2.87v2.1h-2.87Z" fill="#12263f"/>
          <path id="Trazado_101019" data-name="Trazado 101019" d="M24.86,25.2h3.32A1.417,1.417,0,0,0,29.6,23.782V21.228a1.417,1.417,0,0,0-1.416-1.416H24.86a1.417,1.417,0,0,0-1.416,1.416v2.555A1.417,1.417,0,0,0,24.86,25.2Zm.225-3.745h2.87v2.1h-2.87Z" fill="#12263f"/>
          <path id="Trazado_101020" data-name="Trazado 101020" d="M8.3,32.574h3.32a1.417,1.417,0,0,0,1.416-1.416V28.6a1.417,1.417,0,0,0-1.416-1.416H8.3A1.417,1.417,0,0,0,6.887,28.6v2.555A1.417,1.417,0,0,0,8.3,32.574Zm.225-3.745H11.4v2.1H8.527Z" fill="#12263f"/>
          <path id="Trazado_101021" data-name="Trazado 101021" d="M15.81,35.553H8.462a1.577,1.577,0,0,0-1.575,1.575v2.236a1.577,1.577,0,0,0,1.575,1.575H15.81a1.577,1.577,0,0,0,1.575-1.575V37.128A1.577,1.577,0,0,0,15.81,35.553ZM15.745,39.3H8.527v-2.1h7.217Z" fill="#12263f"/>
          <path id="Trazado_101022" data-name="Trazado 101022" d="M16.581,32.574H19.9a1.417,1.417,0,0,0,1.416-1.416V28.6A1.417,1.417,0,0,0,19.9,27.188h-3.32A1.417,1.417,0,0,0,15.166,28.6v2.555A1.417,1.417,0,0,0,16.581,32.574Zm.225-3.745h2.87v2.1h-2.87Z" fill="#12263f"/>
          <path id="Trazado_101023" data-name="Trazado 101023" d="M24.86,32.574h3.32A1.417,1.417,0,0,0,29.6,31.158V28.6a1.417,1.417,0,0,0-1.416-1.416H24.86A1.417,1.417,0,0,0,23.445,28.6v2.555a1.417,1.417,0,0,0,1.416,1.416Zm.225-3.745h2.87v2.1h-2.87Z" fill="#12263f"/>
          <path id="Trazado_101024" data-name="Trazado 101024" d="M41.625,31.861a1.511,1.511,0,0,0-1.509-1.509h-3.35a1.511,1.511,0,0,0-1.509,1.509v2.657a1.511,1.511,0,0,0,1.509,1.509h3.35a1.511,1.511,0,0,0,1.509-1.509Zm-1.641,2.525H36.9V31.992h3.087Z" fill="#12263f"/>
          <path id="Trazado_101025" data-name="Trazado 101025" d="M40.116,37.922h-3.35a1.511,1.511,0,0,0-1.509,1.509v2.657A1.511,1.511,0,0,0,36.766,43.6h3.35a1.511,1.511,0,0,0,1.509-1.509V39.431A1.511,1.511,0,0,0,40.116,37.922Zm-.132,4.035H36.9V39.563h3.087Z" fill="#12263f"/>
          <path id="Trazado_101026" data-name="Trazado 101026" d="M49.255,31.861a1.511,1.511,0,0,0-1.509-1.509H44.4a1.511,1.511,0,0,0-1.509,1.509v2.657A1.511,1.511,0,0,0,44.4,36.027h3.35a1.511,1.511,0,0,0,1.509-1.509Zm-1.641,2.525H44.528V31.992h3.087Z" fill="#12263f"/>
          <path id="Trazado_101027" data-name="Trazado 101027" d="M47.746,37.922H44.4a1.511,1.511,0,0,0-1.509,1.509v2.657A1.511,1.511,0,0,0,44.4,43.6h3.35a1.511,1.511,0,0,0,1.509-1.509V39.431A1.511,1.511,0,0,0,47.746,37.922Zm-.132,4.035H44.528V39.563h3.087Z" fill="#12263f"/>
        </g>
      </g>
    </g>
  </g>
</svg>
