<svg xmlns="http://www.w3.org/2000/svg" xmlns:xlink="http://www.w3.org/1999/xlink" width="56" height="56" viewBox="0 0 56 56">
  <defs>
    <clipPath id="clip-path">
      <rect id="Rectángulo_5295" data-name="Rectángulo 5295" width="56" height="56" transform="translate(-7773 2716)" fill="#fff" stroke="#707070" stroke-width="1"/>
    </clipPath>
  </defs>
  <g id="Enmascarar_grupo_68" data-name="Enmascarar grupo 68" transform="translate(7773 -2716)" clip-path="url(#clip-path)">
    <g id="edificio-de-oficinas_1_" data-name="edificio-de-oficinas (1)" transform="translate(-7773 2716)">
      <g id="Grupo_54568" data-name="Grupo 54568">
        <g id="Grupo_54564" data-name="Grupo 54564">
          <g id="Grupo_54562" data-name="Grupo 54562">
            <g id="Grupo_54561" data-name="Grupo 54561">
              <g id="Grupo_54560" data-name="Grupo 54560">
                <path id="Trazado_101028" data-name="Trazado 101028" d="M43.708,25.531H25.55V50.487H45.2V27.022a1.491,1.491,0,0,0-1.491-1.491Z" fill="#f7f4f7"/>
                <path id="Trazado_101029" data-name="Trazado 101029" d="M50.26,25.531H43.354a1.491,1.491,0,0,1,1.491,1.491V50.487h6.906V27.022a1.491,1.491,0,0,0-1.491-1.491Z" fill="#edeaed"/>
                <g id="Grupo_54559" data-name="Grupo 54559">
                  <g id="Grupo_54558" data-name="Grupo 54558">
                    <g id="Grupo_54553" data-name="Grupo 54553">
                      <path id="Trazado_101030" data-name="Trazado 101030" d="M23.452,3.918,7.973,2.705A1.491,1.491,0,0,0,6.365,4.191V8.225l17.817,1.4V5.2a1.49,1.49,0,0,0-.731-1.282Z" fill="#edeaed"/>
                    </g>
                    <path id="Trazado_101031" data-name="Trazado 101031" d="M29.218,4.37l-6.361-.5A1.49,1.49,0,0,1,23.672,5.2V9.582l6.92.542V5.856A1.491,1.491,0,0,0,29.218,4.37Z" fill="#d1ccd3"/>
                    <path id="Trazado_101032" data-name="Trazado 101032" d="M25.692,7.876,5.856,6.321A1.491,1.491,0,0,0,4.249,7.807V50.487H26.3V9.075a1.488,1.488,0,0,0-.608-1.2Z" fill="#c1bcc4"/>
                    <path id="Trazado_101033" data-name="Trazado 101033" d="M31.334,8.318l-6.217-.487a1.489,1.489,0,0,1,.672,1.244V50.487h6.92V9.8a1.491,1.491,0,0,0-1.374-1.486Z" fill="#a39ba3"/>
                    <g id="Grupo_54557" data-name="Grupo 54557">
                      <g id="Grupo_54554" data-name="Grupo 54554">
                        <path id="Trazado_101034" data-name="Trazado 101034" d="M11.623,17H8.3a.6.6,0,0,1-.6-.6V13.852a.6.6,0,0,1,.6-.6h3.32a.6.6,0,0,1,.6.6v2.555a.6.6,0,0,1-.6.6Z" fill="#c9e0fd"/>
                        <path id="Trazado_101035" data-name="Trazado 101035" d="M19.9,17h-3.32a.6.6,0,0,1-.6-.6V13.852a.6.6,0,0,1,.6-.6H19.9a.6.6,0,0,1,.6.6v2.555a.6.6,0,0,1-.6.6Z" fill="#c9e0fd"/>
                        <path id="Trazado_101036" data-name="Trazado 101036" d="M26.3,13.256H24.86a.6.6,0,0,0-.6.6v2.555a.6.6,0,0,0,.6.6H26.3Z" fill="#c9e0fd"/>
                      </g>
                      <g id="Grupo_54555" data-name="Grupo 54555">
                        <path id="Trazado_101037" data-name="Trazado 101037" d="M11.623,24.377H8.3a.6.6,0,0,1-.6-.6V21.228a.6.6,0,0,1,.6-.6h3.32a.6.6,0,0,1,.6.6v2.555A.6.6,0,0,1,11.623,24.377Z" fill="#c9e0fd"/>
                        <path id="Trazado_101038" data-name="Trazado 101038" d="M19.9,24.377h-3.32a.6.6,0,0,1-.6-.6V21.228a.6.6,0,0,1,.6-.6H19.9a.6.6,0,0,1,.6.6v2.555A.6.6,0,0,1,19.9,24.377Z" fill="#c9e0fd"/>
                        <path id="Trazado_101039" data-name="Trazado 101039" d="M26.3,20.632H24.86a.6.6,0,0,0-.6.6v2.555a.6.6,0,0,0,.6.6H26.3Z" fill="#c9e0fd"/>
                      </g>
                      <g id="Grupo_54556" data-name="Grupo 54556">
                        <path id="Trazado_101040" data-name="Trazado 101040" d="M11.623,31.753H8.3a.6.6,0,0,1-.6-.6V28.6a.6.6,0,0,1,.6-.6h3.32a.6.6,0,0,1,.6.6v2.555A.6.6,0,0,1,11.623,31.753Z" fill="#c9e0fd"/>
                        <path id="Trazado_101041" data-name="Trazado 101041" d="M15.81,40.118H8.462a.755.755,0,0,1-.755-.755V37.127a.755.755,0,0,1,.755-.755H15.81a.755.755,0,0,1,.755.755v2.236A.755.755,0,0,1,15.81,40.118Z" fill="#c9e0fd"/>
                        <path id="Trazado_101042" data-name="Trazado 101042" d="M19.9,31.753h-3.32a.6.6,0,0,1-.6-.6V28.6a.6.6,0,0,1,.6-.6H19.9a.6.6,0,0,1,.6.6v2.555A.6.6,0,0,1,19.9,31.753Z" fill="#c9e0fd"/>
                        <path id="Trazado_101043" data-name="Trazado 101043" d="M26.3,28.008H24.86a.6.6,0,0,0-.6.6v2.555a.6.6,0,0,0,.6.6H26.3Z" fill="#c9e0fd"/>
                      </g>
                    </g>
                  </g>
                  <path id="Trazado_101044" data-name="Trazado 101044" d="M20.621,36.373a.534.534,0,0,0-.534.534v13.58H26.3V36.373Z" fill="#f7f4f7"/>
                  <path id="Trazado_101045" data-name="Trazado 101045" d="M28.242,36.373H25.789V50.487h2.987V36.906A.534.534,0,0,0,28.242,36.373Z" fill="#edeaed"/>
                </g>
              </g>
            </g>
            <path id="Trazado_101046" data-name="Trazado 101046" d="M46.486,49.472H2.734a1.914,1.914,0,0,0,0,3.828H48.218l.182-.244v-1.67A1.914,1.914,0,0,0,46.486,49.472Z" fill="#efc984"/>
            <path id="Trazado_101047" data-name="Trazado 101047" d="M53.266,49.472H46.3a1.914,1.914,0,0,1,1.914,1.914V53.3h5.048a1.914,1.914,0,0,0,0-3.828Z" fill="#e8ae4d"/>
          </g>
          <g id="Grupo_54563" data-name="Grupo 54563">
            <path id="Trazado_101048" data-name="Trazado 101048" d="M28.776,16.406V13.852a.6.6,0,0,0-.6-.6H25.789V17H28.18A.6.6,0,0,0,28.776,16.406Z" fill="#bcd6f9"/>
            <path id="Trazado_101049" data-name="Trazado 101049" d="M28.776,23.782V21.228a.6.6,0,0,0-.6-.6H25.789v3.745H28.18a.6.6,0,0,0,.6-.6Z" fill="#bcd6f9"/>
            <path id="Trazado_101050" data-name="Trazado 101050" d="M28.776,31.158V28.6a.6.6,0,0,0-.6-.6H25.789v3.745H28.18a.6.6,0,0,0,.6-.6Z" fill="#bcd6f9"/>
          </g>
        </g>
        <g id="Grupo_54567" data-name="Grupo 54567">
          <g id="Grupo_54565" data-name="Grupo 54565">
            <path id="Trazado_101051" data-name="Trazado 101051" d="M40.116,35.206h-3.35a.689.689,0,0,1-.689-.689V31.86a.689.689,0,0,1,.689-.689h3.35a.689.689,0,0,1,.689.689v2.657A.689.689,0,0,1,40.116,35.206Z" fill="#c9e0fd"/>
            <path id="Trazado_101052" data-name="Trazado 101052" d="M40.116,42.777h-3.35a.689.689,0,0,1-.689-.689V39.431a.689.689,0,0,1,.689-.689h3.35a.689.689,0,0,1,.689.689v2.657A.689.689,0,0,1,40.116,42.777Z" fill="#c9e0fd"/>
          </g>
          <g id="Grupo_54566" data-name="Grupo 54566">
            <path id="Trazado_101053" data-name="Trazado 101053" d="M47.746,35.206H44.4a.689.689,0,0,1-.689-.689V31.86a.689.689,0,0,1,.689-.689h3.35a.689.689,0,0,1,.689.689v2.657A.689.689,0,0,1,47.746,35.206Z" fill="#c9e0fd"/>
            <path id="Trazado_101054" data-name="Trazado 101054" d="M47.746,42.777H44.4a.689.689,0,0,1-.689-.689V39.431a.689.689,0,0,1,.689-.689h3.35a.689.689,0,0,1,.689.689v2.657A.689.689,0,0,1,47.746,42.777Z" fill="#c9e0fd"/>
          </g>
        </g>
      </g>
      <g id="Grupo_54570" data-name="Grupo 54570">
        <g id="Grupo_54569" data-name="Grupo 54569">
          <path id="Trazado_101055" data-name="Trazado 101055" d="M53.266,48.651h-.694V35.105a.82.82,0,0,0-1.641,0V48.651h-17.4v-22.3H50.26a.671.671,0,0,1,.67.67V31.24a.82.82,0,0,0,1.641,0V27.022a2.314,2.314,0,0,0-2.311-2.311H33.529V9.8a2.322,2.322,0,0,0-2.117-2.3V5.856a2.322,2.322,0,0,0-2.131-2.3L8.037,1.887a2.312,2.312,0,0,0-2.492,2.3V5.5a2.311,2.311,0,0,0-2.117,2.3V48.651H2.734a2.734,2.734,0,0,0,0,5.469H53.266a2.734,2.734,0,1,0,0-5.469ZM7.186,4.191a.67.67,0,0,1,.723-.668L29.154,5.188a.674.674,0,0,1,.618.668V7.373L7.186,5.6V4.191ZM5.069,7.807a.67.67,0,0,1,.723-.668l25.478,2a.674.674,0,0,1,.618.668V48.651H29.6V36.907a1.355,1.355,0,0,0-1.354-1.354H20.621a1.355,1.355,0,0,0-1.354,1.354v5.321a.82.82,0,0,0,1.641,0V37.193h7.048V48.651H20.907V46.063a.82.82,0,0,0-1.641,0v2.588H5.069Zm48.2,44.672H2.734a1.094,1.094,0,0,1,0-2.187H53.266a1.094,1.094,0,0,1,0,2.188Z"/>
          <path id="Trazado_101056" data-name="Trazado 101056" d="M8.3,17.822h3.32a1.417,1.417,0,0,0,1.416-1.416V13.852a1.417,1.417,0,0,0-1.416-1.416H8.3a1.417,1.417,0,0,0-1.416,1.416v2.555A1.417,1.417,0,0,0,8.3,17.822Zm.225-3.745H11.4v2.1H8.527Z"/>
          <path id="Trazado_101057" data-name="Trazado 101057" d="M16.581,17.822H19.9a1.417,1.417,0,0,0,1.416-1.416V13.852A1.417,1.417,0,0,0,19.9,12.436h-3.32a1.417,1.417,0,0,0-1.416,1.416v2.555A1.417,1.417,0,0,0,16.581,17.822Zm.225-3.745h2.87v2.1h-2.87Z"/>
          <path id="Trazado_101058" data-name="Trazado 101058" d="M24.86,17.822h3.32A1.417,1.417,0,0,0,29.6,16.406V13.852a1.417,1.417,0,0,0-1.416-1.416H24.86a1.417,1.417,0,0,0-1.416,1.416v2.555a1.417,1.417,0,0,0,1.416,1.416Zm.225-3.745h2.87v2.1h-2.87Z"/>
          <path id="Trazado_101059" data-name="Trazado 101059" d="M8.3,25.2h3.32a1.417,1.417,0,0,0,1.416-1.416V21.228a1.417,1.417,0,0,0-1.416-1.416H8.3a1.417,1.417,0,0,0-1.416,1.416v2.555A1.417,1.417,0,0,0,8.3,25.2Zm.225-3.745H11.4v2.1H8.527Z"/>
          <path id="Trazado_101060" data-name="Trazado 101060" d="M16.581,25.2H19.9a1.417,1.417,0,0,0,1.416-1.416V21.228A1.417,1.417,0,0,0,19.9,19.812h-3.32a1.417,1.417,0,0,0-1.416,1.416v2.555A1.417,1.417,0,0,0,16.581,25.2Zm.225-3.745h2.87v2.1h-2.87Z"/>
          <path id="Trazado_101061" data-name="Trazado 101061" d="M24.86,25.2h3.32A1.417,1.417,0,0,0,29.6,23.782V21.228a1.417,1.417,0,0,0-1.416-1.416H24.86a1.417,1.417,0,0,0-1.416,1.416v2.555A1.417,1.417,0,0,0,24.86,25.2Zm.225-3.745h2.87v2.1h-2.87Z"/>
          <path id="Trazado_101062" data-name="Trazado 101062" d="M8.3,32.574h3.32a1.417,1.417,0,0,0,1.416-1.416V28.6a1.417,1.417,0,0,0-1.416-1.416H8.3A1.417,1.417,0,0,0,6.887,28.6v2.555A1.417,1.417,0,0,0,8.3,32.574Zm.225-3.745H11.4v2.1H8.527Z"/>
          <path id="Trazado_101063" data-name="Trazado 101063" d="M15.81,35.553H8.462a1.577,1.577,0,0,0-1.575,1.575v2.236a1.577,1.577,0,0,0,1.575,1.575H15.81a1.577,1.577,0,0,0,1.575-1.575V37.128A1.577,1.577,0,0,0,15.81,35.553ZM15.745,39.3H8.527v-2.1h7.217Z"/>
          <path id="Trazado_101064" data-name="Trazado 101064" d="M16.581,32.574H19.9a1.417,1.417,0,0,0,1.416-1.416V28.6A1.417,1.417,0,0,0,19.9,27.188h-3.32A1.417,1.417,0,0,0,15.166,28.6v2.555A1.417,1.417,0,0,0,16.581,32.574Zm.225-3.745h2.87v2.1h-2.87Z"/>
          <path id="Trazado_101065" data-name="Trazado 101065" d="M24.86,32.574h3.32A1.417,1.417,0,0,0,29.6,31.158V28.6a1.417,1.417,0,0,0-1.416-1.416H24.86A1.417,1.417,0,0,0,23.445,28.6v2.555a1.417,1.417,0,0,0,1.416,1.416Zm.225-3.745h2.87v2.1h-2.87Z"/>
          <path id="Trazado_101066" data-name="Trazado 101066" d="M41.625,31.861a1.511,1.511,0,0,0-1.509-1.509h-3.35a1.511,1.511,0,0,0-1.509,1.509v2.657a1.511,1.511,0,0,0,1.509,1.509h3.35a1.511,1.511,0,0,0,1.509-1.509Zm-1.641,2.525H36.9V31.992h3.087Z"/>
          <path id="Trazado_101067" data-name="Trazado 101067" d="M40.116,37.922h-3.35a1.511,1.511,0,0,0-1.509,1.509v2.657A1.511,1.511,0,0,0,36.766,43.6h3.35a1.511,1.511,0,0,0,1.509-1.509V39.431A1.511,1.511,0,0,0,40.116,37.922Zm-.132,4.035H36.9V39.563h3.087Z"/>
          <path id="Trazado_101068" data-name="Trazado 101068" d="M49.255,31.861a1.511,1.511,0,0,0-1.509-1.509H44.4a1.511,1.511,0,0,0-1.509,1.509v2.657A1.511,1.511,0,0,0,44.4,36.027h3.35a1.511,1.511,0,0,0,1.509-1.509Zm-1.641,2.525H44.528V31.992h3.087Z"/>
          <path id="Trazado_101069" data-name="Trazado 101069" d="M47.746,37.922H44.4a1.511,1.511,0,0,0-1.509,1.509v2.657A1.511,1.511,0,0,0,44.4,43.6h3.35a1.511,1.511,0,0,0,1.509-1.509V39.431A1.511,1.511,0,0,0,47.746,37.922Zm-.132,4.035H44.528V39.563h3.087Z"/>
        </g>
      </g>
    </g>
  </g>
</svg>
