<svg xmlns="http://www.w3.org/2000/svg" xmlns:xlink="http://www.w3.org/1999/xlink" width="56" height="56" viewBox="0 0 56 56">
  <defs>
    <clipPath id="clip-path">
      <rect id="Rectángulo_5274" data-name="Rectángulo 5274" width="56" height="56" transform="translate(1082 12124)" fill="#12263f" stroke="#707070" stroke-width="1"/>
    </clipPath>
  </defs>
  <g id="Enmascarar_grupo_81" data-name="Enmascarar grupo 81" transform="translate(-1082 -12124)" clip-path="url(#clip-path)">
    <g id="edificios-gubernamentales" transform="translate(1082 12124)">
      <g id="Grupo_54652" data-name="Grupo 54652">
        <g id="Grupo_54651" data-name="Grupo 54651">
          <path id="Trazado_101175" data-name="Trazado 101175" d="M38.489,38.032a.82.82,0,0,0-.82.82v1.932a.82.82,0,0,0,1.641,0V38.852A.82.82,0,0,0,38.489,38.032Z" fill="#12263f"/>
        </g>
      </g>
      <g id="Grupo_54654" data-name="Grupo 54654">
        <g id="Grupo_54653" data-name="Grupo 54653">
          <path id="Trazado_101176" data-name="Trazado 101176" d="M41.631,38.032a.82.82,0,0,0-.82.82v1.932a.82.82,0,1,0,1.641,0V38.852A.82.82,0,0,0,41.631,38.032Z" fill="#12263f"/>
        </g>
      </g>
      <g id="Grupo_54656" data-name="Grupo 54656">
        <g id="Grupo_54655" data-name="Grupo 54655">
          <path id="Trazado_101177" data-name="Trazado 101177" d="M38.489,43.437a.82.82,0,0,0-.82.82V46.19a.82.82,0,0,0,1.641,0V44.258A.82.82,0,0,0,38.489,43.437Z" fill="#12263f"/>
        </g>
      </g>
      <g id="Grupo_54658" data-name="Grupo 54658">
        <g id="Grupo_54657" data-name="Grupo 54657">
          <path id="Trazado_101178" data-name="Trazado 101178" d="M41.631,43.437a.82.82,0,0,0-.82.82V46.19a.82.82,0,1,0,1.641,0V44.258A.82.82,0,0,0,41.631,43.437Z" fill="#12263f"/>
        </g>
      </g>
      <g id="Grupo_54660" data-name="Grupo 54660">
        <g id="Grupo_54659" data-name="Grupo 54659">
          <path id="Trazado_101179" data-name="Trazado 101179" d="M14.37,38.032a.82.82,0,0,0-.82.82v1.932a.82.82,0,1,0,1.641,0V38.852A.82.82,0,0,0,14.37,38.032Z" fill="#12263f"/>
        </g>
      </g>
      <g id="Grupo_54662" data-name="Grupo 54662">
        <g id="Grupo_54661" data-name="Grupo 54661">
          <path id="Trazado_101180" data-name="Trazado 101180" d="M17.512,38.032a.82.82,0,0,0-.82.82v1.932a.82.82,0,1,0,1.641,0V38.852A.82.82,0,0,0,17.512,38.032Z" fill="#12263f"/>
        </g>
      </g>
      <g id="Grupo_54664" data-name="Grupo 54664">
        <g id="Grupo_54663" data-name="Grupo 54663">
          <path id="Trazado_101181" data-name="Trazado 101181" d="M14.37,43.437a.82.82,0,0,0-.82.82V46.19a.82.82,0,1,0,1.641,0V44.258A.82.82,0,0,0,14.37,43.437Z" fill="#12263f"/>
        </g>
      </g>
      <g id="Grupo_54666" data-name="Grupo 54666">
        <g id="Grupo_54665" data-name="Grupo 54665">
          <path id="Trazado_101182" data-name="Trazado 101182" d="M17.512,43.437a.82.82,0,0,0-.82.82V46.19a.82.82,0,1,0,1.641,0V44.258A.82.82,0,0,0,17.512,43.437Z" fill="#12263f"/>
        </g>
      </g>
      <g id="Grupo_54668" data-name="Grupo 54668">
        <g id="Grupo_54667" data-name="Grupo 54667">
          <path id="Trazado_101183" data-name="Trazado 101183" d="M26.07,38.032a.82.82,0,0,0-.82.82v1.932a.82.82,0,1,0,1.641,0V38.852A.82.82,0,0,0,26.07,38.032Z" fill="#12263f"/>
        </g>
      </g>
      <g id="Grupo_54670" data-name="Grupo 54670">
        <g id="Grupo_54669" data-name="Grupo 54669">
          <path id="Trazado_101184" data-name="Trazado 101184" d="M29.211,38.032a.82.82,0,0,0-.82.82v1.932a.82.82,0,1,0,1.641,0V38.852A.82.82,0,0,0,29.211,38.032Z" fill="#12263f"/>
        </g>
      </g>
      <g id="Grupo_54672" data-name="Grupo 54672">
        <g id="Grupo_54671" data-name="Grupo 54671">
          <path id="Trazado_101185" data-name="Trazado 101185" d="M49.542,51.406H45.557V47.138a.82.82,0,0,0-1.641,0v4.268h-6.08a2.292,2.292,0,0,0-1.691-2.895v-12.8h7.771v7.595a.82.82,0,1,0,1.641,0V32.761H45.7a1.973,1.973,0,0,0,1.977-1.976c0-2.535,0-2.937-.009-3.343a1.319,1.319,0,0,0-.545-1.059L33.292,16.4a4.576,4.576,0,0,0-2.995-.66v-5.1h7.615a1.229,1.229,0,0,0,1.228-1.228V3.462A1.138,1.138,0,0,0,38,2.325H30.3V2.3a2.3,2.3,0,0,0-4.594,0V4.568a.82.82,0,0,0,1.641,0V2.3a.656.656,0,0,1,1.313,0V15.741H27.344V8.4a.82.82,0,0,0-1.641,0v7.345c-.831.068-1.923-.245-3.1.606L9.045,26.132a1.721,1.721,0,0,0-.712,1.392c0,3.437-.045,3.445.081,3.847a2,2,0,0,0,2.031,1.389V51.406H6.459a2.3,2.3,0,0,0,0,4.594H49.542a2.3,2.3,0,1,0,0-4.594ZM37.5,3.966V9H30.3V3.966h7.2ZM36.292,50.749a.657.657,0,0,1-.656.656H32.026a.656.656,0,1,1,0-1.313h3.609A.657.657,0,0,1,36.292,50.749Zm-6.468.656H28.518V44.969h3v3.54A2.3,2.3,0,0,0,29.825,51.406Zm-5.947-2.9v-3.54h3v6.437H25.57A2.3,2.3,0,0,0,23.877,48.509Zm-6.319,2.9H12.085V35.714H19.25v12.8A2.3,2.3,0,0,0,17.559,51.406ZM12.085,34.074V32.761H19.25v1.313Zm7.674,16.019c.011,0,3.62,0,3.677,0a.656.656,0,0,1-.067,1.309H19.759a.656.656,0,1,1,0-1.313Zm1.132-1.641V32.761h1.346V48.452Zm2.987-5.124V35.714h7.64v7.613Zm0-9.254V32.761h7.64v1.313Zm9.281,14.379V32.761H34.5V48.452H33.158ZM43.916,34.074H36.145V32.761h7.771ZM10.3,31.12a.335.335,0,0,1-.321-.236,7.653,7.653,0,0,1-.008-1.076h8.184a.82.82,0,1,0,0-1.641H9.973c.01-.6-.027-.661.031-.7,14.218-10.135,13.53-10.081,14.472-10.081h6.773c1.093,0,.393,0,14.779,10.235,0,.011.007.586.006.549H21.984a.82.82,0,0,0,0,1.641h24.05a6.6,6.6,0,0,1-.015,1.077.335.335,0,0,1-.321.236H10.3ZM49.542,54.359H6.459a.655.655,0,0,1-.639-.8.664.664,0,0,1,.639-.51H49.542a.656.656,0,1,1,0,1.313Z" fill="#12263f"/>
        </g>
      </g>
    </g>
  </g>
</svg>
