<svg xmlns="http://www.w3.org/2000/svg" xmlns:xlink="http://www.w3.org/1999/xlink" width="56" height="56" viewBox="0 0 56 56">
  <defs>
    <clipPath id="clip-path">
      <rect id="Rectángulo_5275" data-name="Rectángulo 5275" width="56" height="56" transform="translate(1288 12124)" fill="#12263f" stroke="#707070" stroke-width="1"/>
    </clipPath>
  </defs>
  <g id="Enmascarar_grupo_80" data-name="Enmascarar grupo 80" transform="translate(-1288 -12124)" clip-path="url(#clip-path)">
    <g id="mujer_1_" data-name="mujer (1)" transform="translate(1288 12124)">
      <g id="Grupo_54644" data-name="Grupo 54644">
        <g id="Grupo_54643" data-name="Grupo 54643">
          <path id="Trazado_101171" data-name="Trazado 101171" d="M42.934,38.267H35.467V33.018a11.274,11.274,0,0,0,3.479-3.151h1.188a.933.933,0,0,0,.816-.48l2.4-4.321a18.984,18.984,0,0,0,2.384-9.2A15.876,15.876,0,0,0,23.69,1.247c-7.061,2.987-10.765,11.264-8.433,18.845L17.4,27.067H14a3.717,3.717,0,0,0-3,5.939A6.527,6.527,0,0,0,12.2,45.669a6.539,6.539,0,0,0,6.469,5.664h1.867a6.533,6.533,0,0,0,0-13.067h-2.8v1.867h2.8a4.667,4.667,0,1,1,0,9.333H18.667a4.675,4.675,0,0,1-4.573-3.733h4.573V43.867h-5.6a4.667,4.667,0,1,1,0-9.333h5.6V32.667H14a1.867,1.867,0,1,1,0-3.733h4.667a.933.933,0,0,0,.892-1.208l-.018-.055a11.263,11.263,0,0,0,4.725,5.347V39.2h1.867V33.88a10.994,10.994,0,0,0,7.467,0V39.2a.933.933,0,0,0,.933.933h6.4a3.734,3.734,0,0,1-3.6,2.8h-8.4V44.8h8.4a5.606,5.606,0,0,0,5.516-4.667h.084A4.672,4.672,0,0,1,47.6,44.8v9.333H12.134v-2.8H10.267v3.733A.933.933,0,0,0,11.2,56H48.534a.933.933,0,0,0,.933-.933V44.8A6.541,6.541,0,0,0,42.934,38.267ZM17.734,16.8v1.867h.933v4.667a11.171,11.171,0,0,0,.222,2.215l-1.848-6.005A13.673,13.673,0,0,1,24.414,2.966a14.008,14.008,0,0,1,19.453,12.9,17.119,17.119,0,0,1-2.147,8.293l-.954,1.715a11.131,11.131,0,0,0,.3-2.541V18.667H42V16.8H39.315a2.806,2.806,0,0,1-2.723-2.147L34.5,7.215a.933.933,0,0,0-1.8,0l-1.924,6.761A3.733,3.733,0,0,1,27.16,16.8ZM29.867,32.667a9.333,9.333,0,0,1-9.333-9.333V18.667H27.16a5.583,5.583,0,0,0,5.425-4.212L33.6,10.894l1.192,4.237A4.654,4.654,0,0,0,39.2,18.657v4.676A9.333,9.333,0,0,1,29.867,32.667Z" fill="#12263f"/>
        </g>
      </g>
      <g id="Grupo_54646" data-name="Grupo 54646">
        <g id="Grupo_54645" data-name="Grupo 54645">
          <path id="Trazado_101172" data-name="Trazado 101172" d="M25.2,20.767A1.633,1.633,0,1,0,26.834,22.4,1.633,1.633,0,0,0,25.2,20.767ZM24.967,22.4a.233.233,0,0,1,.467,0C25.434,22.657,24.967,22.657,24.967,22.4Z" fill="#12263f"/>
        </g>
      </g>
      <g id="Grupo_54648" data-name="Grupo 54648">
        <g id="Grupo_54647" data-name="Grupo 54647">
          <path id="Trazado_101173" data-name="Trazado 101173" d="M34.534,20.767A1.633,1.633,0,1,0,36.167,22.4,1.633,1.633,0,0,0,34.534,20.767ZM34.3,22.4a.233.233,0,0,1,.467,0C34.767,22.657,34.3,22.657,34.3,22.4Z" fill="#12263f"/>
        </g>
      </g>
      <g id="Grupo_54650" data-name="Grupo 54650">
        <g id="Grupo_54649" data-name="Grupo 54649">
          <path id="Trazado_101174" data-name="Trazado 101174" d="M31.967,27.067a2.1,2.1,0,0,1-4.2,0h-1.4a3.5,3.5,0,0,0,7,0Z" fill="#12263f"/>
        </g>
      </g>
    </g>
  </g>
</svg>
