<svg xmlns="http://www.w3.org/2000/svg" xmlns:xlink="http://www.w3.org/1999/xlink" width="56" height="56" viewBox="0 0 56 56">
  <defs>
    <clipPath id="clip-path">
      <rect id="Rectángulo_5307" data-name="Rectángulo 5307" width="56" height="56" transform="translate(-7361 3932)" fill="#fff" stroke="#707070" stroke-width="1"/>
    </clipPath>
  </defs>
  <g id="Enmascarar_grupo_75" data-name="Enmascarar grupo 75" transform="translate(7361 -3932)" clip-path="url(#clip-path)">
    <g id="mujer" transform="translate(-7361 3932)">
      <path id="Trazado_101148" data-name="Trazado 101148" d="M25.2,39.2H16.8a5.6,5.6,0,0,0-5.6,5.6V55.067H48.534V44.8a5.6,5.6,0,0,0-5.6-5.6Z" fill="#1c9699"/>
      <path id="Trazado_101149" data-name="Trazado 101149" d="M21.268,28.933h0a10.241,10.241,0,0,1-.594-1.049c-.055-.11-.109-.22-.161-.332-.063-.142-.125-.28-.187-.429s-.114-.3-.166-.455c-.041-.118-.086-.233-.122-.354-.08-.266-.148-.537-.208-.811-.021-.1-.037-.2-.056-.3q-.06-.319-.1-.645c-.011-.093-.023-.192-.032-.289-.029-.308-.048-.619-.048-.933v-5.6h7.56A4.667,4.667,0,0,0,31.684,14.2L33.6,7.467l2.093,7.439a3.733,3.733,0,0,0,3.621,2.828h.819v5.6c0,.315-.019.626-.048.933-.008.093-.021.193-.032.289q-.039.326-.1.645c-.019.1-.035.2-.056.3-.06.274-.128.546-.209.812-.035.119-.08.234-.12.352-.053.153-.107.306-.167.456s-.119.287-.187.429c-.051.112-.105.222-.161.332a10.236,10.236,0,0,1-.59,1.05h1.668l.043-.077,2.562-4.612q.249-.448.467-.911t.4-.914A16.382,16.382,0,0,0,44.8,16.289,15.2,15.2,0,0,0,31.536,1.027a14.934,14.934,0,0,0-16.6,14.84l1.593,7.467q.22.462.467.911L19.081,28H14a2.8,2.8,0,1,0,0,5.6h-.933a5.6,5.6,0,0,0-.45,11.178S14,50.4,17.734,50.4H19.6c3.093,0,6.533-2.507,6.533-5.6s-3.44-5.6-6.533-5.6h5.6V32.667A8.007,8.007,0,0,1,22.4,30.8Z" fill="#494035"/>
      <path id="Trazado_101150" data-name="Trazado 101150" d="M34.534,39.2V32.471h0a10.139,10.139,0,0,0,4.527-4.586c.055-.11.109-.22.161-.332q.093-.213.187-.429c.06-.15.114-.3.167-.456.04-.118.084-.233.12-.352.081-.266.15-.538.209-.812.021-.1.037-.2.056-.3.039-.213.073-.427.1-.645.011-.093.023-.192.032-.289.028-.308.048-.619.048-.933v-5.6H39.32A3.733,3.733,0,0,1,35.7,14.905L33.6,7.467,31.684,14.2a4.667,4.667,0,0,1-4.524,3.535H19.6v5.6a10.258,10.258,0,0,0,5.6,9.137h0v5.8H21.467V39.2s2.8,0,3.733,1.867a7.225,7.225,0,0,1,.933,2.8h11.2A4.667,4.667,0,0,0,42,39.2Z" fill="#f2dbc0"/>
      <path id="Trazado_101151" data-name="Trazado 101151" d="M42.934,38.267H35.467V33.018a11.274,11.274,0,0,0,3.479-3.151h1.188a.933.933,0,0,0,.816-.48l2.4-4.321a18.984,18.984,0,0,0,2.384-9.2A15.876,15.876,0,0,0,23.69,1.247c-7.061,2.987-10.765,11.264-8.433,18.845L17.4,27.067H14a3.717,3.717,0,0,0-3,5.939A6.527,6.527,0,0,0,12.2,45.669a6.539,6.539,0,0,0,6.469,5.664h1.867a6.533,6.533,0,0,0,0-13.067h-2.8v1.867h2.8a4.667,4.667,0,1,1,0,9.333H18.667a4.675,4.675,0,0,1-4.573-3.733h4.573V43.867h-5.6a4.667,4.667,0,1,1,0-9.333h5.6V32.667H14a1.867,1.867,0,1,1,0-3.733h4.667a.933.933,0,0,0,.892-1.208l-.018-.055a11.263,11.263,0,0,0,4.725,5.347V39.2h1.867V33.88a10.994,10.994,0,0,0,7.467,0V39.2a.933.933,0,0,0,.933.933h6.4a3.734,3.734,0,0,1-3.6,2.8h-8.4V44.8h8.4a5.606,5.606,0,0,0,5.516-4.667h.084A4.672,4.672,0,0,1,47.6,44.8v9.333H12.134v-2.8H10.267v3.733A.933.933,0,0,0,11.2,56H48.534a.933.933,0,0,0,.933-.933V44.8A6.541,6.541,0,0,0,42.934,38.267ZM17.041,19.543A13.673,13.673,0,0,1,24.414,2.966a14.008,14.008,0,0,1,19.453,12.9,17.119,17.119,0,0,1-2.147,8.293l-.954,1.715a11.131,11.131,0,0,0,.3-2.541V18.667H42V16.8H39.315a2.806,2.806,0,0,1-2.723-2.147L34.5,7.215a.933.933,0,0,0-.9-.681h0a.933.933,0,0,0-.9.678l-1.924,6.761A3.733,3.733,0,0,1,27.16,16.8H17.734v1.867h.933v4.667a11.171,11.171,0,0,0,.222,2.215Zm3.493,3.79V18.667H27.16a5.583,5.583,0,0,0,5.425-4.212L33.6,10.894l1.192,4.237A4.654,4.654,0,0,0,39.2,18.657v4.676a9.333,9.333,0,1,1-18.667,0Z"/>
      <path id="Trazado_101152" data-name="Trazado 101152" d="M25.2,20.767A1.633,1.633,0,1,0,26.834,22.4,1.633,1.633,0,0,0,25.2,20.767ZM24.967,22.4a.233.233,0,0,1,.467,0C25.434,22.657,24.967,22.657,24.967,22.4Z"/>
      <path id="Trazado_101153" data-name="Trazado 101153" d="M34.534,20.767A1.633,1.633,0,1,0,36.167,22.4,1.633,1.633,0,0,0,34.534,20.767ZM34.3,22.4a.233.233,0,0,1,.467,0C34.767,22.657,34.3,22.657,34.3,22.4Z"/>
      <path id="Trazado_101154" data-name="Trazado 101154" d="M29.867,29.167a2.1,2.1,0,0,1-2.1-2.1h-1.4a3.5,3.5,0,0,0,7,0h-1.4A2.1,2.1,0,0,1,29.867,29.167Z"/>
    </g>
  </g>
</svg>
