<svg xmlns="http://www.w3.org/2000/svg" width="272.295" height="269.068" viewBox="0 0 272.295 269.068">
  <g id="_2" data-name="2" transform="translate(-258.238 -46.221)">
    <g id="Grupo_55177" data-name="Grupo 55177" transform="translate(258.238 46.22)">
      <g id="Grupo_55175" data-name="Grupo 55175" transform="translate(30.782 228.432)">
        <path id="Trazado_101924" data-name="Trazado 101924" d="M519.038,209.674c0,11.221-54.065,20.318-120.757,20.318s-120.755-9.1-120.755-20.318,54.063-20.319,120.755-20.319S519.038,198.453,519.038,209.674Z" transform="translate(-277.526 -189.355)" fill="#b3b3b3" fill-rule="evenodd" opacity="0.2"/>
      </g>
      <g id="Grupo_55176" data-name="Grupo 55176">
        <path id="Trazado_101925" data-name="Trazado 101925" d="M374.964,156.708a.059.059,0,0,1,.008-.024c-.03-.013-.059-.021-.089-.035Z" transform="translate(-188.727 19.586)" fill="none"/>
        <path id="Trazado_101926" data-name="Trazado 101926" d="M476.614,237.782c-.5-2.782-.713-5.6-1.4-8.361a27.524,27.524,0,0,1-.533-10.749,37.54,37.54,0,0,0,.026-8.487c-.555-6.8-3.224-13.01-5.193-19.406-2.678-8.7-5.817-17.273-8.323-26.025-1.444-5.035-2.7-10.072-4.987-14.828-1.039-2.161-2.884-3.687-3.894-5.8-2.534-5.3-5.41-10.444-7.643-15.894-3.409-8.34-6.95-16.62-12.44-23.865-2.391-3.154-4.451-6.537-7.381-9.306-5.8-5.479-13.066-7.8-20.485-9.524-7.866-1.827-15.946-1.928-24.007-1.331a4.438,4.438,0,0,1,.726,3.027,70.159,70.159,0,0,0-.227,12.523,117.282,117.282,0,0,1-.5,15.034c-.814,8.393-2.472,16.652-3.881,24.947-.389,2.3-.83,4.815-2.435,6.5-4.871,5.113-8.664,4.636-12.3-1.773-2.965-5.222-3.6-11.127-4.911-16.831-.648-2.82-1.131-5.678-1.688-8.519h0c-1.8-.563-2.092-2.514-3.355-3.618-1.9-1.665-3.621-3.529-6-4.561-.407.289-.819.578-1.227.868h0c-1.341,3.179-2.5,6.417-4.548,9.29-1.7,2.388-4.086,4.178-5.632,6.623A122.884,122.884,0,0,0,325.8,144.1v0c4.856,1.6,9.432,3.872,14.119,5.881,13.928,5.974,27.49,12.849,42.174,16.936,4.486,1.248,4.457,1.293,6.034-3.039,1.4-3.856,2.924-7.67,4.237-11.558.6-1.8,2.113-1.5,3.284-1.633,9.778-1.128,19.628-1.3,29.435-2.046a3.877,3.877,0,0,1,.638,0c6.917.7,6.4,1.229,4.532,6.641-3.348,9.676-7.895,18.763-12.659,27.8-2.3,4.36-3.718,9.188-6.764,13.186-.215.281-.4.584-.589.884-1.412,2.234-2.914,4.272-6.02,2.9a.059.059,0,0,0-.008.024,128.408,128.408,0,0,0,11.058,7.2c6.671,4.1,13.859,7.384,19.968,12.384,2.571,2.1,5.059,4.3,7.528,6.521a13.033,13.033,0,0,0,3.026,1.931,34.381,34.381,0,0,1,6.886,4.864,232.728,232.728,0,0,1,17.081,15.887c.533.554,1.243.97,1.4,1.813v0c.922-.726,2.515-.281,3.048-1.633C475.64,245.43,477.34,241.86,476.614,237.782Z" transform="translate(-217.977 -23.778)" fill="#222b54"/>
        <path id="Trazado_101927" data-name="Trazado 101927" d="M478.529,208.221c-5.878-6.262-12.477-11.748-18.841-17.483a11.235,11.235,0,0,0-2.983-2.03c-3.872-1.655-6.933-4.425-9.919-7.231a71.911,71.911,0,0,0-14.485-9.987c-6-3.353-11.821-7.016-17.659-10.643-.608-.378-1.727-.658-1.283-1.754l-.081-.059c-5.121-2.881-10.3-5.559-16.293-6.2-3.754-.4-7.357-.372-10.455,2.237a3.546,3.546,0,0,1-3.747.753,4.036,4.036,0,0,0-4.186.748,7.945,7.945,0,0,1-2.424,1.272h0c-.362.611-.094,1.674-1.238,1.724.755,1.2-.04,1.751-.978,2.02A6.585,6.585,0,0,0,369,166.846a3.5,3.5,0,0,1-2.311,2.319c-4.295,1.926-7.574,4.978-10.6,8.573-1.649,1.958-4.323,3.067-6.58,4.485-.543.338-.836,1.548-1.851.712A6.788,6.788,0,0,1,341.742,187c-2.991.227-5.19,2.234-7.226,4.06a16.336,16.336,0,0,1-4.753,3.264h0c-1.655,1.789-3.46,3.152-6.122,3.155a14.067,14.067,0,0,0-5.7,1.4,4.313,4.313,0,0,1-2.2.672c-1.141.93-2.707,1.152-3.754,2.241-1.783,2.115-1.776,4.577-1.157,7.036a20.661,20.661,0,0,1,.29,8.182c-.6,4.074.919,7.806,2.328,11.5a13.563,13.563,0,0,0,3.623,5.908c3.867,1.516,7.788.731,11.688.231,2.731-.35,5.217-1.238,6.957-3.581.5-.667.9-1.462,1.727-1.826a8.53,8.53,0,0,0,3.825-2.86c1.471-2.159,3.615-2.649,5.969-2.387,1.272.14,2.534.176,3.806.212,1.748-1.278,2.764-3.229,4.3-4.706.982-1.2,2-2.365,2.943-3.588,2.93-3.794,7.044-3.618,11.068-3.043,7.8,1.111,15.583,2.338,23.316,3.816,6.065,1.157,12.231,2.056,17.834,4.987a23.5,23.5,0,0,1,7.18,5.536,7.759,7.759,0,0,1,1.934,6.494c2.423,2.086,4.836,4.3,7.877,5.33a53.762,53.762,0,0,0,19.9,2.831,79.8,79.8,0,0,0,16.741-2.708c6.479-1.752,10.364-6.023,12.731-11.811A47.525,47.525,0,0,0,480.3,209.7v0C479.493,209.467,479.054,208.776,478.529,208.221Z" transform="translate(-227.122 17.203)" fill="#62c1c5"/>
        <path id="Trazado_101928" data-name="Trazado 101928" d="M440.52,205.476a232.732,232.732,0,0,0-17.081-15.887,34.381,34.381,0,0,0-6.886-4.864,13.032,13.032,0,0,1-3.026-1.931c-2.469-2.22-4.957-4.421-7.528-6.521-6.109-5-13.3-8.28-19.968-12.384a128.408,128.408,0,0,1-11.058-7.2c-.444,1.1.675,1.376,1.283,1.754,5.838,3.628,11.658,7.29,17.659,10.643A71.912,71.912,0,0,1,408.4,179.07c2.986,2.806,6.047,5.576,9.919,7.231a11.235,11.235,0,0,1,2.983,2.03c6.364,5.736,12.964,11.221,18.841,17.483.525.555.964,1.246,1.775,1.475C441.763,206.447,441.053,206.03,440.52,205.476Z" transform="translate(-188.734 19.608)" fill="#222b54"/>
        <path id="Trazado_101929" data-name="Trazado 101929" d="M287.391,135.155c1.428,1.229,1.534,3.979,4.237,3.742h0v0c4.815-.619,9.631-1.238,14.694-1.891-.745,2.116-1.448,3.934-2.027,5.79-.945,3.007-.115,4.491,2.78,5.551,4.951,1.81,10.088,2.142,15.275,2.03a6.055,6.055,0,0,0,5.4-3.206,28.971,28.971,0,0,1,2.577-3.351,3.112,3.112,0,0,0,.252-3.932c-.742-1.147-.362-1.425.847-1.432a87.762,87.762,0,0,1,12.522.536h0v0a2.193,2.193,0,0,1,1.465,1.135c3.856,5.428,9.239,9.593,12.692,15.356h0c4.357,4.317,7.806,9.635,13.608,12.365a2.242,2.242,0,0,1,1.357,1.764c.707-.808,1.227-.065,1.829.2,4.52,1.969,8.672,4.69,13.26,6.526a6.009,6.009,0,0,0,1.44.463,3.405,3.405,0,0,1,.44-.472c2.221-1.693,4.579-2.788,7.486-2.008a2.974,2.974,0,0,0,2.55-.846c2.871-2.25,6.168-2.651,9.66-2.36,6.156.512,11.65,2.85,16.84,6.047a.832.832,0,0,1,.5.847c.03.014.059.022.089.035a2.12,2.12,0,0,1,.11-.23c3.1.466,4.516-1.621,5.972-3.808a48.413,48.413,0,0,0,5.8-11.082c1.337-3.9,3.961-7.175,5.632-10.959,2.833-6.417,5.953-12.7,8.182-19.378,1.361-4.09,1.184-4.649-3.058-5.247a33.572,33.572,0,0,0-8.042.308c-4.028.409-8.067.257-12.1.618-3.738.335-7.459.884-11.213,1.061a3,3,0,0,0-2.938,2.287c-1.451,4.151-3.158,8.209-4.529,12.391-.8,2.435-1.31,2.718-3.76,2.079a162.706,162.706,0,0,1-26.2-9.422c-10.07-4.582-20.241-8.936-30.378-13.364-.694-.3-1.55-.369-1.907-1.2h0a33.621,33.621,0,0,0-6.89-1.179c-12.206-.712-23.489,3.2-34.735,7.062-6.4,2.2-12.558,5.123-19.338,6.109h0C287.377,134.345,287.155,134.95,287.391,135.155Z" transform="translate(-240.923 -1.765)" fill="#f4b37a"/>
        <path id="Trazado_101930" data-name="Trazado 101930" d="M327.706,122.817c10.137,4.429,20.308,8.782,30.378,13.364a162.71,162.71,0,0,0,26.2,9.422c2.45.638,2.962.356,3.76-2.079,1.371-4.181,3.079-8.24,4.529-12.391a3,3,0,0,1,2.938-2.287c3.754-.177,7.475-.726,11.213-1.061,4.03-.361,8.069-.209,12.1-.618a33.573,33.573,0,0,1,8.042-.308c4.242.6,4.419,1.157,3.058,5.247-2.229,6.681-5.35,12.96-8.182,19.378-1.671,3.784-4.295,7.059-5.632,10.959a48.414,48.414,0,0,1-5.8,11.082c-1.455,2.186-2.871,4.274-5.972,3.808a2.12,2.12,0,0,0-.11.23c3.106,1.368,4.607-.67,6.02-2.9.19-.3.373-.6.589-.884,3.045-4,4.464-8.825,6.764-13.186,4.764-9.035,9.311-18.122,12.659-27.8,1.87-5.412,2.384-5.938-4.532-6.641a3.875,3.875,0,0,0-.638,0c-9.807.745-19.657.918-29.435,2.046-1.171.134-2.68-.164-3.284,1.633-1.313,3.888-2.834,7.7-4.237,11.558-1.577,4.331-1.548,4.287-6.034,3.039-14.684-4.087-28.246-10.962-42.174-16.936-4.687-2.009-9.263-4.285-14.119-5.881C326.156,122.448,327.012,122.515,327.706,122.817Z" transform="translate(-217.977 -1.293)" fill="#f4b37a"/>
        <path id="Trazado_101931" data-name="Trazado 101931" d="M388.375,158.407c-5.19-3.2-10.685-5.535-16.84-6.047-3.492-.29-6.789.11-9.66,2.36a2.974,2.974,0,0,1-2.55.846c-2.908-.78-5.265.314-7.486,2.008a3.406,3.406,0,0,0-.44.472,2.638,2.638,0,0,0,.375.024h0A7.946,7.946,0,0,0,354.2,156.8a4.036,4.036,0,0,1,4.186-.748,3.546,3.546,0,0,0,3.747-.753c3.1-2.609,6.7-2.638,10.455-2.237,5.988.637,11.171,3.315,16.293,6.2A.832.832,0,0,0,388.375,158.407Z" transform="translate(-202.722 16.981)" fill="#f4b37a"/>
        <path id="Trazado_101932" data-name="Trazado 101932" d="M356.3,118.87c.048.01.091.021.134.03,2.842-3.168,6.481-5.469,9.36-8.607,2.161-2.351,4.473-4.561,6.775-6.773.479-.463.806-1.574,1.8-.988.865.514.782,1.5.613,2.322-.4,2-.812,4.015-1.393,5.972-.981,3.321-2,6.639-3.192,9.887-.726,1.968-2.172,3.6-2.927,5.6-.2.543-.884.78-1.543.881.085.1.169.207.251.308,1.119,4.765,2.209,9.54,3.055,14.355a41.781,41.781,0,0,0,3.951,11.2,9.76,9.76,0,0,0,3.766,3.675,2.933,2.933,0,0,0,2.672.161,8.337,8.337,0,0,0,5.642-5.334c1.95-5.693,2.388-11.674,3.45-17.526a146.955,146.955,0,0,0,2.019-18.813c.257-5.053-.386-10.053-.145-15.081a72.5,72.5,0,0,0,.279-7.812c-4.135-2.483-8.755-4.133-12.5-7.293-1.414.946-2.748.112-3.755-.568a65.882,65.882,0,0,0-6.141-3.351,8.983,8.983,0,0,1-4.494-5.658,6.588,6.588,0,0,0-3.859-4.252c-2.5-1.138-4.686-.539-5.916,1.894a9.718,9.718,0,0,0-1.02,7.159c1.226,4.513-1.034,7.175-5.651,6.957a3.547,3.547,0,0,1-3.264-1.987c-.448-.883-.863-1.784-1.224-2.705-.87-2.215-1.995-3.876-4.785-4.068a10.2,10.2,0,0,1-6.977-3.674c-.233-.267-.495-.508-.741-.761-4.682-4.769-4.673-4.753-10.252-1.35-3.856,2.349-7.678,4.777-12.139,5.881h0c1.3-.07,1.2.825,1.232,1.7a19.715,19.715,0,0,0,2.359,8.7,36.607,36.607,0,0,0,5.252,7.93c2.972,3.214,3.718,7.373,4.333,11.529.176,1.186.761,2.756,1.706,2.7,3.082-.18,4.033,2.289,5.806,3.853,3.139,2.777,5.586,5.846,6.708,10.011a5.6,5.6,0,0,0,4.719,4.373,9.438,9.438,0,0,0,8.364-3.288c2-2.215,4.317-4.07,6.433-6.144h0C355,119.007,355.691,118.986,356.3,118.87Z" transform="translate(-228.494 -31.896)" fill="#f4b37a"/>
        <path id="Trazado_101933" data-name="Trazado 101933" d="M338.774,100.9c.048-.053.1-.1.147-.153-.043-.01-.086-.021-.134-.03-.611.117-1.3.137-1.24,1.052h0C337.955,101.479,338.367,101.19,338.774,100.9Z" transform="translate(-210.979 -13.744)" fill="#f4b37a"/>
        <path id="Trazado_101934" data-name="Trazado 101934" d="M369.12,91.9c-.241,5.029.4,10.029.145,15.081a146.961,146.961,0,0,1-2.019,18.813c-1.063,5.852-1.5,11.834-3.45,17.526a8.337,8.337,0,0,1-5.642,5.334,2.933,2.933,0,0,1-2.672-.161,9.76,9.76,0,0,1-3.766-3.675,41.781,41.781,0,0,1-3.951-11.2c-.846-4.815-1.936-9.59-3.055-14.355-.081-.1-.166-.206-.251-.308-.1.014-.193.027-.286.037h0c.557,2.841,1.041,5.7,1.688,8.519,1.31,5.7,1.945,11.609,4.911,16.831,3.64,6.409,7.434,6.886,12.3,1.773,1.605-1.684,2.046-4.2,2.435-6.5,1.409-8.3,3.067-16.554,3.881-24.947a117.282,117.282,0,0,0,.5-15.034,70.159,70.159,0,0,1,.227-12.523,4.438,4.438,0,0,0-.726-3.027A72.49,72.49,0,0,1,369.12,91.9Z" transform="translate(-207.027 -23.656)" fill="#f4b37a"/>
        <path id="Trazado_101935" data-name="Trazado 101935" d="M324.251,198.439c4.255,2.407,9.042,3.115,13.653,4.429,2.933.838,5.22,3.043,7.692,4.824,2.528,1.823,5.206,3.447,8.466,3.4.072-.064.145-.121.217-.185,2.413-1.095,4.149-3.094,6.223-4.646,2.284-1.709,4.681-3.176,7.643-3.407,2.123-.163,2.836-2.17,4.193-3.335.161-.1.327-.195.492-.292,1.307-2.783,3.058-5.329,4.109-8.27,2.137-6,3.929-12.108,5.9-18.162.3-.918.311-1.992,1.23-2.63h0c-.361-.916.228-1.779.172-2.678-.032-.01-.059-.022-.091-.032-.586-.4-.942-1.082-1.586-1.393-5.811-2.8-9.307-8.139-13.719-12.477-.049-.081-.1-.158-.152-.239a26.036,26.036,0,0,1-5.53-.217c-2.809-.174-5.393.728-8.083,1.069-.962.121-1.5.972-2.084,1.663a3.206,3.206,0,0,1-.412,2.143,171.022,171.022,0,0,1-4.607,22.52c-.48,1.743-1.116,2.217-3.133,1.582-5.579-1.752-11.312-3.016-16.947-4.6a31.966,31.966,0,0,1-11.084-5.118c-.559-.429-1.176-.814-1.312-1.591v0a6.409,6.409,0,0,1-3.339-3.385c-4.4-9.69-11.262-17.593-18.532-25.123-3.359-3.479-5.155-7.938-8.272-11.508-1.069-1.222-2.027-2.552-3.152-3.72a4.892,4.892,0,0,0-5.471-1.242,4.2,4.2,0,0,1-4.314-.552c-1.72-1.234-2.783-.814-3.849,1.151h0a6.283,6.283,0,0,0,.678,2.415c1.406,2.9,3.862,5.08,5.292,7.948.238.479,1,.927-.051,1.491-2.364,1.275-2.435,2.115-.434,4.049a46.527,46.527,0,0,1,10.57,14.537c1.826,4.154,3.65,8.3,5.717,12.336a20.4,20.4,0,0,0,5.766,7.3c5.6,4.146,10.822,8.723,15.975,13.382a84.421,84.421,0,0,0,11.333,8.524C323.7,198.4,324.032,198.314,324.251,198.439Z" transform="translate(-252.082 0.469)" fill="#cf9766"/>
        <path id="Trazado_101936" data-name="Trazado 101936" d="M340.414,171.641c-1.357,1.165-2.07,3.173-4.193,3.335-2.962.231-5.359,1.7-7.643,3.407-2.073,1.551-3.81,3.551-6.223,4.646-.072.064-.145.121-.217.185.217,0,.436-.014.661-.034h0a16.336,16.336,0,0,0,4.753-3.264c2.036-1.826,4.236-3.833,7.226-4.06a6.788,6.788,0,0,0,5.919-4.066c.065-.148.139-.3.207-.442C340.741,171.446,340.575,171.542,340.414,171.641Z" transform="translate(-220.158 28.346)" fill="#cf9766"/>
        <path id="Trazado_101937" data-name="Trazado 101937" d="M346.843,156.666a2.242,2.242,0,0,0-1.356-1.763c-5.8-2.731-9.252-8.048-13.608-12.365h0c-.19.043-.383.072-.573.1.049.081.1.158.152.239,4.411,4.338,7.908,9.674,13.719,12.477.645.311,1,1,1.586,1.393.032.01.059.022.091.032a.654.654,0,0,0-.01-.112Z" transform="translate(-214.696 11.177)" fill="#cf9766"/>
        <path id="Trazado_101938" data-name="Trazado 101938" d="M314.661,91.962c4.963-1.35,9.006-4.459,13.339-7,2.63-1.543,2.758-1.618,5.3.134a23.376,23.376,0,0,1,3.752,3.457,11,11,0,0,0,7,3.7c2.45.259,3.8,1.684,4.713,3.762.281.651.52,1.321.823,1.963,1.3,2.764,3.251,3.629,6.05,2.683,2.285-.774,3.257-2.727,2.584-5.512a10.59,10.59,0,0,1,.356-6.475c.8-2.1,1.969-3.975,4.344-4.2,2.488-.23,4.477,1.095,6.036,3.005a3.156,3.156,0,0,1,.6,1.119c1.109,3.974,3.915,6.243,7.549,7.809,2.257.972,4.157,2.756,6.757,2.941,1.167-3.083,1.325-6.293,1.553-9.558a48.775,48.775,0,0,0-6.144-27.236c-5.731-10.461-14.684-16.776-26.906-16.318-18.846.705-34.643,8.455-47.182,22.593A25.241,25.241,0,0,0,299,82.626a9.8,9.8,0,0,0,11.117,11c1.192-.148,2.357-.5,3.532-.755h0C313.664,92.211,314.21,92.087,314.661,91.962Z" transform="translate(-233.995 -46.22)" fill="#222b55"/>
        <path id="Trazado_101939" data-name="Trazado 101939" d="M330.541,74.311c.246.254.508.495.741.761a10.2,10.2,0,0,0,6.977,3.674c2.79.192,3.915,1.853,4.785,4.068.361.921.776,1.823,1.224,2.705a3.547,3.547,0,0,0,3.264,1.987c4.617.219,6.877-2.443,5.651-6.957a9.718,9.718,0,0,1,1.02-7.159c1.23-2.434,3.415-3.032,5.916-1.894a6.588,6.588,0,0,1,3.859,4.252,8.983,8.983,0,0,0,4.494,5.658,65.882,65.882,0,0,1,6.141,3.351c1.007.68,2.341,1.515,3.755.568-2.6-.185-4.5-1.969-6.757-2.941-3.634-1.566-6.44-3.835-7.549-7.809a3.156,3.156,0,0,0-.6-1.119c-1.559-1.91-3.548-3.235-6.036-3.005-2.375.22-3.543,2.1-4.344,4.2a10.59,10.59,0,0,0-.356,6.475c.673,2.785-.3,4.738-2.584,5.512-2.8.946-4.751.081-6.05-2.683-.3-.642-.543-1.312-.824-1.963-.913-2.078-2.263-3.5-4.713-3.762a11,11,0,0,1-7-3.7,23.374,23.374,0,0,0-3.752-3.457c-2.544-1.752-2.672-1.677-5.3-.134-4.333,2.538-8.375,5.646-13.339,7-.452.124-1,.249-1.01.911,4.461-1.1,8.283-3.532,12.139-5.881C325.868,69.559,325.858,69.543,330.541,74.311Z" transform="translate(-228.494 -32.189)" fill="#f4b37a"/>
        <path id="Trazado_101940" data-name="Trazado 101940" d="M395.113,200.363a35.314,35.314,0,0,0-10.078-3.92c-10.725-2.459-21.617-3.971-32.482-5.608-4.66-.7-8.758.072-11.486,4.456a2.98,2.98,0,0,1-2.155,1.6c.022,1.642-1.053,3.072-.87,4.764.795,7.365,2.983,13.655,9.673,18.225,9.21,6.294,18.546,8.655,29.116,4.207,3.771-1.588,7.512-3.072,11.81-2.922,7.64.27,11.976-2.9,14.547-10.072a.926.926,0,0,1-.338-.525C402.534,205.446,399.053,202.68,395.113,200.363Z" transform="translate(-210.693 39.823)" fill="#434d70"/>
        <path id="Trazado_101941" data-name="Trazado 101941" d="M400.921,204.843a23.5,23.5,0,0,0-7.18-5.536c-5.6-2.932-11.77-3.83-17.834-4.987-7.734-1.478-15.52-2.705-23.316-3.816-4.023-.575-8.138-.75-11.068,3.043-.945,1.222-1.961,2.392-2.943,3.588a2.98,2.98,0,0,0,2.154-1.6c2.728-4.384,6.826-5.158,11.486-4.456,10.865,1.637,21.757,3.149,32.482,5.608a35.314,35.314,0,0,1,10.078,3.92c3.94,2.317,7.421,5.083,7.737,10.2a.925.925,0,0,0,.338.525A7.759,7.759,0,0,0,400.921,204.843Z" transform="translate(-210.36 39.575)" fill="#434d70"/>
        <path id="Trazado_101942" data-name="Trazado 101942" d="M332,217.284c-2.756-5.35-5.046-10.792-3.961-17.065a12.533,12.533,0,0,0-.334-5.488,12.57,12.57,0,0,1-.34-5.064c.164-1.259.41-2.565,1.9-3.034-2.344-1.827-5.1-1.388-7.764-1.376a4.753,4.753,0,0,1-3.2-.854c-5.484-4.319-11.355-7.346-18.7-5.977-4.382.816-8.939,1.216-12.705,3.754-5.161,3.479-6.87,6.465-4.161,12.692,1.748,4.007,5,6.16,8.34,8.414,3.04,2.048,6.347,3.841,8.41,7.008a6.781,6.781,0,0,0,5.9,3.077c1.77.077,3.548.022,5.321-.006a11.387,11.387,0,0,1,8.382,2.922,16.1,16.1,0,0,0,7.332,3.674c2.617.65,5.42,1.028,7.927-.7A3.253,3.253,0,0,1,332,217.284Z" transform="translate(-244.4 32.366)" fill="#222b54"/>
        <path id="Trazado_101943" data-name="Trazado 101943" d="M313.63,210.164c-1.409-3.7-2.924-7.427-2.328-11.5a20.661,20.661,0,0,0-.29-8.182c-.619-2.459-.626-4.922,1.157-7.036-1.494.469-1.74,1.775-1.9,3.034a12.571,12.571,0,0,0,.34,5.064,12.532,12.532,0,0,1,.334,5.488c-1.085,6.274,1.2,11.716,3.961,17.065a3.253,3.253,0,0,0,2.354,1.977A13.563,13.563,0,0,1,313.63,210.164Z" transform="translate(-227.303 35.554)" fill="#222b54"/>
        <path id="Trazado_101944" data-name="Trazado 101944" d="M277.723,132.618a6.481,6.481,0,0,0,5.223.622,5.482,5.482,0,0,1,5.7,2,50.72,50.72,0,0,1,6.854,9.424,20.415,20.415,0,0,0,3.908,5c5.683,5.485,10.219,11.925,15.008,18.147a28.505,28.505,0,0,1,2.949,5.64,12.917,12.917,0,0,0,4.121,5.3c.035.037.075.072.11.109,2.459-.131,4.919-.227,7.372-.418,3.739-.29,4.939-2.785,2.842-5.859a46.218,46.218,0,0,0-4.5-5.078c-.565-.61-1.357-1.052-1.562-1.955-4.765-4.082-8.535-9.035-12.253-14.03a73.478,73.478,0,0,1-4.8-6.285c-.03,0-.065,0-.1,0-2.8.318-3.522-2.043-4.689-3.75-.351-.515-.433-1.406.662-1.55-6.578-9.826-14.569-18.42-23.126-26.515a7.4,7.4,0,0,0-6.358-2.346,122.286,122.286,0,0,0-14.595,3.525c-1.178.34-1.633.945-1.232,2.373.59,2.1,2.383,3.126,3.544,4.7A77.987,77.987,0,0,0,274.2,134.506C274.376,132.521,275.851,131.57,277.723,132.618Z" transform="translate(-257.713 -7.623)" fill="#cfcfcf"/>
        <path id="Trazado_101945" data-name="Trazado 101945" d="M287.272,130.676c1.167,1.708,1.886,4.068,4.689,3.75.034,0,.069,0,.1,0-.093-.161-.19-.316-.279-.482h0c-2.7.236-2.809-2.514-4.237-3.742-.236-.2-.014-.809.391-1.079h0C286.84,129.27,286.921,130.16,287.272,130.676Z" transform="translate(-241.075 3.185)" fill="#cfcfcf"/>
        <path id="Trazado_101946" data-name="Trazado 101946" d="M272.42,125.44a4.2,4.2,0,0,0,4.314.552,4.892,4.892,0,0,1,5.471,1.242c1.125,1.168,2.083,2.5,3.152,3.72,3.117,3.57,4.912,8.029,8.272,11.508,7.269,7.53,14.137,15.433,18.532,25.123a6.409,6.409,0,0,0,3.339,3.385v0l.468-.024c-.035-.037-.075-.072-.11-.109a12.916,12.916,0,0,1-4.121-5.3,28.508,28.508,0,0,0-2.949-5.64c-4.789-6.223-9.325-12.662-15.008-18.147a20.415,20.415,0,0,1-3.908-5,50.718,50.718,0,0,0-6.854-9.424,5.482,5.482,0,0,0-5.7-2,6.48,6.48,0,0,1-5.223-.622c-1.872-1.049-3.347-.1-3.522,1.888h0C269.637,124.627,270.7,124.207,272.42,125.44Z" transform="translate(-252.082 0.292)" fill="#cfcfcf"/>
        <path id="Trazado_101947" data-name="Trazado 101947" d="M276.055,101.8c2.218,5.057,5.841,8.988,9.837,12.662,2.5,2.3,3.487,2.26,5.672-.4,2.426-2.959,4.748-6.026,7.4-8.771a9.907,9.907,0,0,0,2.561-9.78,7.367,7.367,0,0,0-11.14-4.78,10,10,0,0,0-4.027,4.52c-1.416-1.157-2.687-2.277-4.044-3.286a4.836,4.836,0,0,0-5.4-.509,4.729,4.729,0,0,0-2.391,4.86A16.5,16.5,0,0,0,276.055,101.8Z" transform="translate(-248.543 -20.349)" fill="#fe884a"/>
        <path id="Trazado_101948" data-name="Trazado 101948" d="M268.54,99.089c1.9,1.51,2.943,1.433,4.532-.386a74.767,74.767,0,0,0,6.945-9.132A12.977,12.977,0,0,0,282,83.263c.03-3.7-1.583-6.44-3.993-6.829a8.287,8.287,0,0,0-6.966,1.851c-.854.729-1.586,2.135-2.445,2.2-1.133.08-1.641-1.553-2.475-2.392-1.816-1.824-4.188-2.442-5.94-1.444-1.652.943-2.351,2.938-1.695,5.444,1.649,6.325,5.38,11.481,9.41,16.456A3.976,3.976,0,0,0,268.54,99.089Z" transform="translate(-258.238 -28.373)" fill="#fe894a"/>
        <path id="Trazado_101949" data-name="Trazado 101949" d="M281.558,83.762c2.064,2.437,3.8,2.482,6.125.271,1.583-1.508,3.149-3.039,4.751-4.534,3.612-3.369,4.532-8.107,2.593-11.976a4.056,4.056,0,0,0-3.845-2.467c-2.866-.088-4.612,1.435-6.109,3.8-.544-.693-.922-1.2-1.334-1.684-1.854-2.178-4.157-2.753-6.392-1.605-2,1.026-2.965,3.141-2.17,5.859A33.113,33.113,0,0,0,281.558,83.762Z" transform="translate(-248.309 -35.039)" fill="#fe894a"/>
        <path id="Trazado_101950" data-name="Trazado 101950" d="M337.971,197.938a6.251,6.251,0,0,0-6.377,2.333c-.98,1.2-2.089,2.571-4.022,2.255a4.543,4.543,0,0,1-.164.827c-1.65,4.117,2.206,10.674,6.673,10.72,4.074.043,8.155-.517,12.244-.029.069.008.166-.19.249-.289-4.478-8.363-5.338-10.951-5.4-16.264C340.218,198.434,339.058,198.115,337.971,197.938Z" transform="translate(-217.25 43.925)" fill="#222b54"/>
        <path id="Trazado_101951" data-name="Trazado 101951" d="M331.19,199.769a8.53,8.53,0,0,1-3.825,2.86c1.933.316,3.042-1.055,4.022-2.255a6.251,6.251,0,0,1,6.377-2.333c1.087.177,2.247.5,3.2-.447-1.272-.037-2.534-.072-3.806-.212C334.805,197.12,332.662,197.61,331.19,199.769Z" transform="translate(-217.044 43.822)" fill="#222b54"/>
        <path id="Trazado_101952" data-name="Trazado 101952" d="M332.862,184.1a5.623,5.623,0,0,1-2-.4,22.569,22.569,0,0,1-7.59-4.207,20.109,20.109,0,0,0-10.72-4.813c-3.535-.405-6.564-2.182-9.614-3.856,1.055,1.227,2.177,2.4,3.155,3.69,4.084,5.365,9.51,9.382,14.13,14.205a12.507,12.507,0,0,1,7.225-2.549A9.914,9.914,0,0,0,332.862,184.1Z" transform="translate(-231.602 28.035)" fill="#18898d"/>
        <path id="Trazado_101953" data-name="Trazado 101953" d="M315.964,183.321a14.067,14.067,0,0,1,5.7-1.4c2.662,0,4.467-1.366,6.122-3.155h0a2.179,2.179,0,0,1-1.382.61,9.914,9.914,0,0,1-5.417,2.072,12.507,12.507,0,0,0-7.225,2.549A4.313,4.313,0,0,0,315.964,183.321Z" transform="translate(-225.148 32.765)" fill="#18898d"/>
        <path id="Trazado_101954" data-name="Trazado 101954" d="M323.269,179.5a22.569,22.569,0,0,0,7.59,4.207,5.623,5.623,0,0,0,2,.4c.244-.182.484-.373.721-.576-3.26.046-5.938-1.578-8.466-3.4-2.472-1.781-4.759-3.987-7.692-4.824-4.611-1.313-9.4-2.022-13.653-4.429-.219-.124-.555-.035-.836-.045,3.05,1.674,6.079,3.45,9.614,3.856A20.109,20.109,0,0,1,323.269,179.5Z" transform="translate(-231.602 28.027)" fill="#18898d"/>
        <path id="Trazado_101955" data-name="Trazado 101955" d="M322.408,178.8c-.238.2-.477.394-.721.576a2.179,2.179,0,0,0,1.382-.61C322.844,178.782,322.625,178.793,322.408,178.8Z" transform="translate(-220.427 32.765)" fill="#18898d"/>
        <path id="Trazado_101956" data-name="Trazado 101956" d="M351.746,108.132A81.161,81.161,0,0,0,356.2,92.877c.131-.613.378-1.409-.227-1.775-.7-.423-1.1.4-1.518.809-4.732,4.666-9.264,9.544-14.51,13.667a6.109,6.109,0,0,1-1.406,1.018c2.98.688,4.785,3.01,6.7,5.12.863.956,1.665,1.984,2.482,3C349.708,112.925,350.741,110.456,351.746,108.132Z" transform="translate(-210.386 -19.545)" fill="#cf9766"/>
        <path id="Trazado_101957" data-name="Trazado 101957" d="M345.368,105.887c-1.914-2.11-3.719-4.432-6.7-5.12a1.881,1.881,0,0,1-.356.105c2.376,1.033,4.1,2.9,6,4.561,1.262,1.1,1.559,3.055,3.355,3.618h0c.062-.054.121-.11.184-.166C347.033,107.87,346.231,106.843,345.368,105.887Z" transform="translate(-210.519 -13.715)" fill="#cf9766"/>
        <path id="Trazado_101958" data-name="Trazado 101958" d="M340.021,105.941c5.246-4.124,9.778-9,14.51-13.667.417-.41.815-1.232,1.518-.809.6.365.357,1.162.227,1.775a81.161,81.161,0,0,1-4.451,15.255c-1.005,2.324-2.038,4.793-4.03,6.583l.1.129c.659-.1,1.341-.338,1.543-.881.755-2,2.2-3.634,2.927-5.6,1.191-3.248,2.21-6.566,3.192-9.887.581-1.957.991-3.969,1.393-5.972.169-.827.252-1.808-.613-2.322-.993-.586-1.32.525-1.8.988-2.3,2.212-4.614,4.422-6.775,6.773-2.879,3.138-6.518,5.439-9.36,8.607.069.014.137.03.209.048A6.111,6.111,0,0,0,340.021,105.941Z" transform="translate(-210.464 -19.907)" fill="#cf9766"/>
        <path id="Trazado_101959" data-name="Trazado 101959" d="M344.358,105.854c-.062.056-.121.112-.184.166.093-.01.19-.022.286-.037Z" transform="translate(-207.027 -10.683)" fill="#cf9766"/>
        <path id="Trazado_101960" data-name="Trazado 101960" d="M338.461,100.737c-.046.053-.1.1-.147.153a1.881,1.881,0,0,0,.356-.105C338.6,100.767,338.529,100.751,338.461,100.737Z" transform="translate(-210.519 -13.733)" fill="#cf9766"/>
        <path id="Trazado_101961" data-name="Trazado 101961" d="M345.088,153.424c-1.771,4.936-3.339,9.939-4.872,14.954a52.337,52.337,0,0,1-5.423,12.664c-.137.222-.268.45-.412.666,3.133-1.783,6.408-3.4,8.628-6.36a22.173,22.173,0,0,1,8.283-6.486,5.911,5.911,0,0,0,3.428-3.789,5.723,5.723,0,0,1,3.7-3.838,2.871,2.871,0,0,0,2.1-2.049,125.28,125.28,0,0,1-15.383-5.969C345.115,153.287,345.1,153.356,345.088,153.424Z" transform="translate(-212.863 17.541)" fill="#18898d"/>
        <path id="Trazado_101962" data-name="Trazado 101962" d="M358.781,159.006a5.723,5.723,0,0,0-3.7,3.838,5.911,5.911,0,0,1-3.428,3.789,22.172,22.172,0,0,0-8.283,6.486c-2.22,2.959-5.495,4.577-8.628,6.36a2.253,2.253,0,0,1-.978.889c1.015.836,1.309-.373,1.851-.712,2.257-1.417,4.931-2.526,6.58-4.485,3.023-3.6,6.3-6.647,10.6-8.573a3.5,3.5,0,0,0,2.311-2.319,6.585,6.585,0,0,1,4.952-5.254c.938-.27,1.733-.825.978-2.02-.053-.016-.105-.034-.158-.048A2.871,2.871,0,0,1,358.781,159.006Z" transform="translate(-213.228 19.77)" fill="#18898d"/>
        <path id="Trazado_101963" data-name="Trazado 101963" d="M335.081,181.088a52.336,52.336,0,0,0,5.423-12.664c1.534-5.014,3.1-10.018,4.872-14.954.016-.069.027-.137.043-.207-.093-.042-.19-.081-.284-.123v0h0c-.919.638-.932,1.712-1.23,2.63-1.968,6.053-3.76,12.161-5.9,18.162-1.052,2.941-2.8,5.487-4.109,8.27.257-.15.512-.3.771-.447C334.813,181.538,334.943,181.31,335.081,181.088Z" transform="translate(-213.151 17.495)" fill="#18898d"/>
        <path id="Trazado_101964" data-name="Trazado 101964" d="M334.746,171.069c-.259.148-.514.3-.771.447-.069.147-.142.294-.207.442A2.253,2.253,0,0,0,334.746,171.069Z" transform="translate(-213.228 28.18)" fill="#18898d"/>
        <path id="Trazado_101965" data-name="Trazado 101965" d="M341.041,151.392v0a.654.654,0,0,1,.01.112l.078.029C341.1,151.484,341.075,151.438,341.041,151.392Z" transform="translate(-208.894 16.452)" fill="#fcfcfb"/>
        <path id="Trazado_101966" data-name="Trazado 101966" d="M324.045,132.725a4.918,4.918,0,0,1-.209,1.577c-.886,4.635-1.026,9.392-2.316,13.961a5.566,5.566,0,0,0-.062,2.156c1.614-2.445,4.438-2.2,6.786-2.518a22.31,22.31,0,0,1,8.762.255c-3.509-5.458-8.431-9.754-12.391-14.842A3.217,3.217,0,0,0,324.045,132.725Z" transform="translate(-220.608 5.33)" fill="#222b54"/>
        <path id="Trazado_101967" data-name="Trazado 101967" d="M323.774,133.624c3.96,5.088,8.881,9.384,12.391,14.842.265.07.523.144.785.228h0c-3.454-5.763-8.837-9.928-12.692-15.356a2.194,2.194,0,0,0-1.465-1.135v0a1.453,1.453,0,0,1,.412.83A3.221,3.221,0,0,1,323.774,133.624Z" transform="translate(-219.768 5.019)" fill="#222b54"/>
        <path id="Trazado_101968" data-name="Trazado 101968" d="M328.216,142.349c-2.348.321-5.172.073-6.786,2.518.018.195.043.388.062.581.589-.691,1.122-1.542,2.084-1.663,2.691-.342,5.274-1.243,8.083-1.069a26.036,26.036,0,0,0,5.53.217c-.069-.11-.14-.22-.212-.329A22.31,22.31,0,0,0,328.216,142.349Z" transform="translate(-220.581 10.881)" fill="#222b54"/>
        <path id="Trazado_101969" data-name="Trazado 101969" d="M331.172,142.394c.072.109.144.219.212.329.19-.029.383-.057.573-.1C331.7,142.538,331.437,142.464,331.172,142.394Z" transform="translate(-214.775 11.092)" fill="#5762c9"/>
        <path id="Trazado_101970" data-name="Trazado 101970" d="M321.81,148.366c1.29-4.569,1.43-9.327,2.316-13.961a4.916,4.916,0,0,0,.209-1.577,1.557,1.557,0,0,0-.527-.276c-1.092,5.267-1.108,10.721-2.743,15.9a2.17,2.17,0,0,0,.477,2.442c.018-.045.027-.091.046-.136.049-.083.105-.156.16-.236A5.565,5.565,0,0,1,321.81,148.366Z" transform="translate(-220.898 5.226)" fill="#222b54"/>
        <path id="Trazado_101971" data-name="Trazado 101971" d="M323.248,133.035a1.453,1.453,0,0,0-.412-.83c-.04.184-.075.369-.115.554A1.557,1.557,0,0,1,323.248,133.035Z" transform="translate(-219.811 5.02)" fill="#222b54"/>
        <path id="Trazado_101972" data-name="Trazado 101972" d="M321.347,144.048c-.019.045-.029.091-.046.136a2.44,2.44,0,0,0,.268.209c-.019-.193-.045-.386-.062-.581C321.453,143.892,321.4,143.965,321.347,144.048Z" transform="translate(-220.657 11.937)" fill="#222b54"/>
        <path id="Trazado_101973" data-name="Trazado 101973" d="M332.3,146.446c-8.253-2.47-16.575-3.738-25.157-1.767-1.51.346-2.846,1.258-4.411,1.363.053.051.1.1.153.153a41.869,41.869,0,0,0,3.5,3.7,20.274,20.274,0,0,1,2.092,2.391c1.125,1.59,1.786,3.3.847,5.155-.883,1.746-2.619,1.992-4.373,2.012-1.628.019-3.211.535-4.85.434a10.509,10.509,0,0,1-1.575-.123c3.311,3.158,7.55,4.534,11.8,5.784,5.429,1.593,10.943,2.9,16.4,4.384,2.123.576,2.439.476,3.005-1.639a135.181,135.181,0,0,0,3.1-13.655c.421-2.609.922-5.207,1.376-7.814A3.8,3.8,0,0,1,332.3,146.446Z" transform="translate(-234.231 11.877)" fill="#18898d"/>
        <path id="Trazado_101974" data-name="Trazado 101974" d="M333.165,153.561a135.188,135.188,0,0,1-3.1,13.655c-.567,2.115-.883,2.215-3.005,1.639-5.461-1.484-10.975-2.791-16.4-4.384-4.252-1.25-8.49-2.625-11.8-5.784a2.34,2.34,0,0,1-.875-.377c.136.777.753,1.162,1.312,1.591a31.967,31.967,0,0,0,11.084,5.118c5.635,1.585,11.368,2.849,16.947,4.6,2.017.635,2.652.161,3.133-1.582a171.023,171.023,0,0,0,4.607-22.52,1.548,1.548,0,0,1-.517.228C334.087,148.353,333.586,150.952,333.165,153.561Z" transform="translate(-234.558 12.954)" fill="#18898d"/>
        <path id="Trazado_101975" data-name="Trazado 101975" d="M300.25,159.017c1.639.1,3.222-.415,4.85-.434,1.754-.021,3.49-.267,4.373-2.012.938-1.851.278-3.565-.847-5.155a20.278,20.278,0,0,0-2.092-2.391,41.86,41.86,0,0,1-3.5-3.7c-.049-.049-.1-.1-.153-.153a4.062,4.062,0,0,1-.464.01c.206.9,1,1.345,1.562,1.955a46.213,46.213,0,0,1,4.5,5.078c2.1,3.074.9,5.568-2.842,5.859-2.453.192-4.912.287-7.372.418.136.139.27.271.407.4A10.509,10.509,0,0,0,300.25,159.017Z" transform="translate(-234.383 12.747)" fill="#18898d"/>
        <path id="Trazado_101976" data-name="Trazado 101976" d="M298.443,153.518l-.468.024v0a2.339,2.339,0,0,0,.875.377C298.712,153.789,298.578,153.657,298.443,153.518Z" transform="translate(-234.558 17.721)" fill="#494949"/>
        <path id="Trazado_101977" data-name="Trazado 101977" d="M313.353,143.391c-4.252.155-8.532.338-12.3,2.689.056.056.112.113.171.169,1.566-.105,2.9-1.017,4.411-1.363,8.581-1.971,16.9-.7,25.157,1.767a3.8,3.8,0,0,0,1.915.378c.018-.112.04-.222.059-.335l.01-.046A53.39,53.39,0,0,0,313.353,143.391Z" transform="translate(-232.724 11.669)" fill="#18898d"/>
        <path id="Trazado_101978" data-name="Trazado 101978" d="M320.946,145.469c-.019.113-.041.223-.059.335a1.548,1.548,0,0,0,.517-.228c-.15-.051-.3-.1-.448-.153Z" transform="translate(-220.904 12.897)" fill="#494949"/>
        <path id="Trazado_101979" data-name="Trazado 101979" d="M301.333,145.235c-.059-.056-.115-.113-.171-.169-.1.061-.2.115-.294.179A4.062,4.062,0,0,0,301.333,145.235Z" transform="translate(-232.833 12.684)" fill="#494949"/>
      </g>
    </g>
  </g>
</svg>
