<svg xmlns="http://www.w3.org/2000/svg" width="226.333" height="268.736" viewBox="0 0 226.333 268.736">
  <g id="_3" data-name="3" transform="translate(-67.836 -248.508)">
    <g id="Grupo_55180" data-name="Grupo 55180" transform="translate(67.836 248.508)">
      <g id="Grupo_55178" data-name="Grupo 55178" transform="translate(0 234.199)">
        <path id="Trazado_101980" data-name="Trazado 101980" d="M273.1,438.436c0,9.538-45.95,17.269-102.634,17.269s-102.634-7.73-102.634-17.269,45.95-17.269,102.634-17.269S273.1,428.9,273.1,438.436Z" transform="translate(-67.836 -421.167)" fill="#b3b3b3" fill-rule="evenodd" opacity="0.2"/>
      </g>
      <g id="Grupo_55179" data-name="Grupo 55179" transform="translate(12.125)">
        <path id="Trazado_101981" data-name="Trazado 101981" d="M118.9,385.677c-.019.031-.041.061-.061.09h.237C119.015,385.733,118.957,385.705,118.9,385.677Z" transform="translate(-61.783 -199.617)" fill="none"/>
        <path id="Trazado_101982" data-name="Trazado 101982" d="M251.2,384.478c-3.532-.107-7.068-.612-10.59-.221-7.466.829-14.583,2.7-20.592,7.555a19.649,19.649,0,0,1-1.957,1.252h0c-.857,4.029-4.259,3.723-7.186,4.212a4.65,4.65,0,0,0-1.917.373c-.237.635-.864.857-1.363,1.129-3.22,1.758-5.683,4.388-8.311,6.869-5.681,5.363-11.408,10.686-17.305,15.808a96.211,96.211,0,0,1-9.472,6.865c-2.394,1.615-5.822,1-8.1-1.157-3.923-3.708-7.752-7.528-11.842-11.043-5.743-4.935-11.68-9.651-16.867-15.189-1.827-1.951-3.638-3.934-5.877-6.222h4c.02-.029.042-.058.061-.09a4.071,4.071,0,0,0-2.461-.2c-3.379.465-6.032-1.224-8.708-2.831-.993-.6-1.04-1.649-1.051-2.714-.026-2.075.267-4.229-1.2-6.025h0c-2.4-2.619-4.248-5.655-6.421-8.445-3.424-4.406-6.614-9.039-11.8-11.687a21.886,21.886,0,0,0-7.019-2.12c-8.718.422-13.507,6.059-17.056,13.111-2.116,4.206-1.481,8.746-.444,13.1,1.8,7.569,6.169,13.922,10.191,20.421A72.673,72.673,0,0,0,101,422.283c2.026.5,3.658,1.761,5.371,2.847a117.111,117.111,0,0,0,23.533,11.546,12.521,12.521,0,0,1,5.678,3.656c.305.368.624.676-.163.787,2.39.418,4.38,1.766,6.5,2.808h0c.723.009,1.45.073,2.169.022,3.033-.222,5.639.411,7.148,3.39a1.124,1.124,0,0,0,.373.389,4.412,4.412,0,0,1,2,5.24,4.833,4.833,0,0,0,.72,3.976c.6.89.351,1.984.292,3,2.589,1.96,5.64,2.225,8.727,2.419,3.479.217,4.468-.372,5.708-3.585-2.787-2.314-2.438-4.887-.761-7.691a25.016,25.016,0,0,1,4.079-5.713,7.859,7.859,0,0,1,7.224-2.258c3.544.631,7.117,1.028,10.519,2.281,1.724-.64,3.41.137,5.114.187,6.36.19,12.712.773,19.058-.366a20.153,20.153,0,0,1,5.2-.437q3.428-.362,6.857-.724c3.165-1.729,6.535-3.139,9.338-5.453a245.922,245.922,0,0,0,19-16.958,21.882,21.882,0,0,0,4.756-6.958,31.374,31.374,0,0,0,2-14.527C260.944,393.086,256.877,388.231,251.2,384.478Z" transform="translate(-76.775 -208.559)" fill="#18898d"/>
        <path id="Trazado_101983" data-name="Trazado 101983" d="M96.587,374.611c2.317,1.535,4.932,1.678,7.512,2.125a23.316,23.316,0,0,0,9.57-.627c.665-.16,1.157.237,1.746.256.6-1.138.269-2.364.269-3.54,0-3.068.083-6.13-.212-9.206-.441-4.674,1.485-6.663,6.158-7.223,6.74-.8,13.492-.206,20.236-.355,10.9-.239,21.757.906,32.634,1.365,4.752.2,9.5.477,14.267.533,5.042.061,10.076.647,15.116.932,2.269.128,4.547-.225,6.827.081a10.964,10.964,0,0,1,4.3,1.186,5.062,5.062,0,0,1,2.225,5.491c-.52,3.2-.488,6.461-1.179,9.635h0c2.668-1.238,5.588-.8,8.35-.952a38.559,38.559,0,0,0,11.65-2.5,4.7,4.7,0,0,1,1.055-.149,145.061,145.061,0,0,0-2.873-20.7c-1.994-8.432-4.087-16.867-8.849-24.128A40.034,40.034,0,0,0,213.165,314.7c-7.958-4.863-17.194-5.848-26.431-6.023.593.865,1.739,1.3.376,2.823a35.65,35.65,0,0,1-14.46,9.751c-.845.313-1.71.586-2.518.978-4.962,2.406-9.879,1.525-14.869.012a33.591,33.591,0,0,1-8.908-4.587c-2.417-1.624-4.178-4.094-6.1-6.313-.955-1.1-1.976-2.15-1.706-3.79h0a52.623,52.623,0,0,0-9.1,3.806c-6.725,3.331-12.985,7.517-19.844,10.588a13.8,13.8,0,0,0-2.815,1.946c-4.979,3.976-7,9.675-8.758,15.454a78.537,78.537,0,0,0-3,16.1c-.378,4.336-2.1,8.389-2.964,12.627-.41,2.022-1.181,4.073-.317,6.183C93.463,373.005,95.151,373.659,96.587,374.611Z" transform="translate(-71.576 -227.465)" fill="#fed54c"/>
        <path id="Trazado_101984" data-name="Trazado 101984" d="M247.663,251.02c-1.219-.345-2.417-.764-3.647-1.05-7.487-1.744-15.131-1.081-21.449-1.462-8.433.075-15.633-.246-22.732,1.115-10.723,2.058-15.576,6.849-17.338,16.517-1.529,8.395-.966,16.833.151,25.232.486,3.649.982,7.356,4.107,9.944.475.391.425.777.027,1.226a20.607,20.607,0,0,1-6.009,4.864c-1.165.594-2.12,1.173-2.035,2.633a2.691,2.691,0,0,0,2.3,2.477c4.929,1.29,9.772,1.43,14.332-1.373a29.691,29.691,0,0,0,5.081-3.761,4.147,4.147,0,0,1,3.224-1.2,307.576,307.576,0,0,0,34.716-1.085c8.555-.841,12.19-4.2,13.929-12.65a128.8,128.8,0,0,0,1.922-18.328c.355-5.938,1.154-11.821-1.374-17.623C251.716,253.865,250.49,251.822,247.663,251.02Zm-13.85,37.386a8.516,8.516,0,0,1-5.683,5.841,34.861,34.861,0,0,1-23.213.232,3.579,3.579,0,0,1-2.6-3.14c-.73-5.16-.45-10.344-.307-15.522a2.959,2.959,0,0,1,2.564-3.036,13.6,13.6,0,0,0,10.085-8.2c.6-1.379,1.188-2.766,1.815-4.133a3.177,3.177,0,0,1,3.392-2.159,3.43,3.43,0,0,1,3.033,2.706,14.261,14.261,0,0,1-.083,8.365c-.18.627-.388,1.245-.628,2.01,1.8,0,3.414-.052,5.026.011,4.6.178,6.773,2.288,7.306,6.834A25.129,25.129,0,0,1,233.812,288.406Z" transform="translate(-40.435 -248.508)" fill="#fe884a"/>
        <path id="Trazado_101985" data-name="Trazado 101985" d="M160.035,322.037a43.98,43.98,0,0,0,6.645-6.552c.115-.155.435-.157.661-.231a1.219,1.219,0,0,1,.1-1.19c2.794-4.967,4.018-10.394,4.644-15.991.128-1.124-.014-2.249,1.77-2.1.772.066,1.261-.811,1.514-1.6a34.316,34.316,0,0,0,1.765-10.088,2.526,2.526,0,0,0-1.008-2.371,5.114,5.114,0,0,0-2.6,3.5c-.511,1.582-1.606,1.773-2.969,1.632-1.586-.165-1.408-1.352-1.4-2.437a37.705,37.705,0,0,0-.7-8.613c-.674-2.95-2.158-4.084-5.126-4.3-3.137-.222-6.046.894-9.077,1.249a19.6,19.6,0,0,1-6.777-.571,18.166,18.166,0,0,0-2.652-.49c-5.685-.433-8.617,2.378-8.9,8.508-.052,1.143-.061,2.292,0,3.434a1.737,1.737,0,0,1-1.591,2.018,1.761,1.761,0,0,1-2.258-1.217c-.738-1.847-2.307-3-3.874-4.114h0c-.781.579-1.652,1.175-1.709,2.218-.191,3.509-.023,6.982,1.663,10.194.283.539.625,1.287,1.207,1.234,2.018-.179,1.809,1.126,1.834,2.4.018.9.186,1.792.266,2.69.378,4.37.612,8.768,2.72,12.777a22.422,22.422,0,0,1,.975,2.511c2.381,2.451,4.83,4.838,7.131,7.36C148.13,328.307,154.679,326.724,160.035,322.037Z" transform="translate(-59.076 -240.252)" fill="#f4b37a"/>
        <path id="Trazado_101986" data-name="Trazado 101986" d="M131.867,290.937c.5.765.909,1.675,2.062,1.321,1.131-.347,1.043-1.362,1.042-2.256a21.075,21.075,0,0,1,.449-4.844c1.26-5.4,4.49-7.539,9.951-6.589,1.66.288,3.287.734,4.967.951a15.777,15.777,0,0,0,6.082-.445,23.192,23.192,0,0,1,6.439-.7c3.231.065,5.005,1.449,5.732,4.621a36.226,36.226,0,0,1,.757,8.8c-.014.756.142,1.472,1.043,1.672a1.726,1.726,0,0,0,2.135-.9c.193-.376.349-.769.53-1.148a7.192,7.192,0,0,1,1.035-1.691c.438-.5.887-1.024,1.678-.716a2.152,2.152,0,0,0,.227-.681c-.2-7.205.666-14.407-.766-21.62-1.245-6.264-5.264-9.9-10.507-12.411a24.437,24.437,0,0,0-16.373-1.894c-4.227.973-8.379,2.017-11.924,4.719-6.333,4.828-9.038,11.31-8.986,19.135.027,3.791.076,7.577.406,11.353h0C129.881,287.877,130.873,289.421,131.867,290.937Z" transform="translate(-58.717 -247.347)" fill="#222b55"/>
        <path id="Trazado_101987" data-name="Trazado 101987" d="M131.612,284.741a1.761,1.761,0,0,0,2.258,1.217,1.737,1.737,0,0,0,1.591-2.018c-.057-1.142-.047-2.291,0-3.434.282-6.13,3.215-8.94,8.9-8.508a18.166,18.166,0,0,1,2.652.49,19.6,19.6,0,0,0,6.777.571c3.032-.355,5.94-1.472,9.077-1.249,2.968.213,4.452,1.347,5.126,4.3a37.705,37.705,0,0,1,.7,8.613c-.005,1.085-.183,2.272,1.4,2.438,1.363.141,2.458-.05,2.969-1.632a5.114,5.114,0,0,1,2.6-3.5c-.791-.308-1.24.221-1.678.716a7.192,7.192,0,0,0-1.035,1.691c-.182.378-.338.772-.53,1.148a1.726,1.726,0,0,1-2.135.9c-.9-.2-1.057-.917-1.043-1.672a36.226,36.226,0,0,0-.757-8.8c-.727-3.173-2.5-4.556-5.732-4.621a23.192,23.192,0,0,0-6.439.7,15.777,15.777,0,0,1-6.082.445c-1.681-.217-3.307-.663-4.967-.951-5.461-.95-8.691,1.191-9.951,6.59a21.075,21.075,0,0,0-.449,4.844c0,.894.09,1.909-1.042,2.256-1.153.354-1.559-.556-2.062-1.321-.994-1.516-1.986-3.06-4.022-3.325C129.3,281.742,130.874,282.893,131.612,284.741Z" transform="translate(-58.61 -240.361)" fill="#5d5d5d"/>
        <path id="Trazado_101988" data-name="Trazado 101988" d="M195.45,451.569c5.654-2.933,7.908-7.88,7.76-13.924a13.206,13.206,0,0,0-7.454-12.042,18.644,18.644,0,0,0-4.864-2.258c-.3-.062-.7-.085-.893-.362l-.218.03a111.451,111.451,0,0,1-16.311,1.179c-4.2-.119-8.394-.209-12.565-.743l-.2-.02c.6,1.006-.132,2.044-.29,2.964a27.763,27.763,0,0,0,.307,9.061,30.5,30.5,0,0,1,.132,4.821,2.078,2.078,0,0,1-1.034,1.792c.743,3.147,2.891,4.761,5.936,5.278a80.789,80.789,0,0,0,10.727,1.242,12.676,12.676,0,0,1,8.027,2.77,8.7,8.7,0,0,0,6.651,2.279c1.133-.117,2.264-.247,3.4-.372C193.877,452.183,194.778,451.917,195.45,451.569Z" transform="translate(-47.176 -186.321)" fill="#bebebe"/>
        <path id="Trazado_101989" data-name="Trazado 101989" d="M160.721,423.573c4.171.534,8.362.624,12.565.743a111.451,111.451,0,0,0,16.311-1.179l.218-.03a.7.7,0,0,1-.107-.438,20.153,20.153,0,0,0-5.2.437c-6.345,1.139-12.7.556-19.058.366-1.7-.05-3.39-.827-5.114-.187a1.814,1.814,0,0,1,.184.267Z" transform="translate(-46.991 -186.447)" fill="#bebebe"/>
        <path id="Trazado_101990" data-name="Trazado 101990" d="M134.769,439.029c.492-3.013-.955-5.461-2.309-7.915a10.506,10.506,0,0,1-1.005-5.918c.085-1.435,1.069-2.059,2.344-2.277a6.7,6.7,0,0,1,1.046-.08c-1.9-.789-3.668-1.873-5.614-2.553-.026-.1-.062-.194-.1-.29-4.225-.7-8.392.692-12.608.384a5.646,5.646,0,0,1-2.12-.305,1.909,1.909,0,0,1-1.72.273c-3.694-.465-6.843,1.367-10.191,2.355a4.143,4.143,0,0,0-1.419.775c-5.739,4.764-7.692,11-6.835,18.206a5.325,5.325,0,0,0,3.017,4.025c3.4,1.854,6.731,2.375,10.161.115a25.547,25.547,0,0,1,2.716-1.424,20.405,20.405,0,0,1,8.144-2c3.905-.213,7.706,1.063,11.642.475,2.212-.327,4.1-.8,5.1-2.995C134.933,439.594,134.727,439.29,134.769,439.029Z" transform="translate(-70.618 -187.456)" fill="#bebebe"/>
        <path id="Trazado_101991" data-name="Trazado 101991" d="M120.011,420.234c1.946.68,3.717,1.763,5.614,2.553.308-.005.616,0,.922-.016h0c-2.121-1.042-4.111-2.39-6.5-2.808l-.132-.019C119.949,420.04,119.986,420.131,120.011,420.234Z" transform="translate(-61.399 -187.404)" fill="#bebebe"/>
        <path id="Trazado_101992" data-name="Trazado 101992" d="M195.278,357.815c-3.447.475-6.982.092-10.4.982a.8.8,0,0,1-.8-.144,29.792,29.792,0,0,0-1.024,12.479h0a35.446,35.446,0,0,0,3.727,6.154c.632.781.365,1.057-.392,1.393-1.591.707-3.152,1.474-4.724,2.218-.727,2.391-.434,4.886-.692,7.325a52.938,52.938,0,0,0-.016,6.446c6.037-5.171,13.21-7.77,20.954-8.684,4.029-.476,8.177-.693,12.189.552h0a5.993,5.993,0,0,1-.267-2.492,22.206,22.206,0,0,0-1.922-8.551,98.8,98.8,0,0,1-3.527-9.449c-1.225-3.7-1.636-7.627-3.181-11.233h0C202.18,356.743,198.725,357.341,195.278,357.815Z" transform="translate(-39.676 -210.618)" fill="#f4b37a"/>
        <path id="Trazado_101993" data-name="Trazado 101993" d="M201.887,377.892c-7.744.914-14.917,3.513-20.954,8.684,0,.152.005.3.007.456h0a19.649,19.649,0,0,0,1.957-1.252c6.009-4.855,13.126-6.727,20.592-7.555,3.521-.391,7.057.114,10.59.221h0C210.064,377.2,205.916,377.416,201.887,377.892Z" transform="translate(-39.65 -202.526)" fill="#f4b37a"/>
        <path id="Trazado_101994" data-name="Trazado 101994" d="M191.656,357.465c-2.762.156-5.682-.286-8.35.952h0c-.026.079-.047.157-.072.236a.8.8,0,0,0,.8.144c3.415-.89,6.95-.507,10.4-.982s6.9-1.072,9.929-3h0a4.692,4.692,0,0,0-1.055.149A38.559,38.559,0,0,1,191.656,357.465Z" transform="translate(-38.83 -210.618)" fill="#f4b37a"/>
        <path id="Trazado_101995" data-name="Trazado 101995" d="M133.686,318.325a29.354,29.354,0,0,0,14.409,6.218,18.369,18.369,0,0,0,9.515-1.214,45.848,45.848,0,0,0,12.425-6.486,31.211,31.211,0,0,0,3.455-3.156,2.925,2.925,0,0,0,.842-3.49h0c-2.854-1.451-4.785-3.925-6.892-6.207-3.417,4.357-7.294,8.21-12.425,10.492a10.029,10.029,0,0,1-11.009-1.728,101.11,101.11,0,0,1-7.832-7.76,2.687,2.687,0,0,1-.917-1.716,47.823,47.823,0,0,1-4.716,2.881,18.1,18.1,0,0,0-4.391,2.912h0C127.639,312.981,130.662,315.84,133.686,318.325Z" transform="translate(-59.176 -228.987)" fill="#cf9766"/>
        <path id="Trazado_101996" data-name="Trazado 101996" d="M127.869,311.338c1.919,2.219,3.68,4.689,6.1,6.313a33.591,33.591,0,0,0,8.908,4.587c4.99,1.512,9.907,2.394,14.869-.012.807-.392,1.672-.665,2.518-.978a35.65,35.65,0,0,0,14.46-9.751c1.363-1.525.217-1.957-.376-2.823h0a2.925,2.925,0,0,1-.842,3.49,31.205,31.205,0,0,1-3.455,3.156,45.849,45.849,0,0,1-12.425,6.486,18.37,18.37,0,0,1-9.515,1.214A29.354,29.354,0,0,1,133.7,316.8c-3.023-2.485-6.047-5.344-7.535-9.255C125.893,309.188,126.914,310.235,127.869,311.338Z" transform="translate(-59.187 -227.465)" fill="#cf9766"/>
        <path id="Trazado_101997" data-name="Trazado 101997" d="M141.614,312.753a10.029,10.029,0,0,0,11.009,1.728c5.131-2.281,9.008-6.135,12.425-10.492-.225.073-.545.076-.661.231a43.98,43.98,0,0,1-6.645,6.552c-5.357,4.688-11.905,6.271-17.746-.134-2.3-2.522-4.75-4.909-7.131-7.36a2.687,2.687,0,0,0,.917,1.716A101.11,101.11,0,0,0,141.614,312.753Z" transform="translate(-56.783 -228.987)" fill="#cf9766"/>
        <path id="Trazado_101998" data-name="Trazado 101998" d="M165.613,433.444a24.651,24.651,0,0,1,.613-9.575c-2.775-.334-5.389-1.489-8.2-1.687a12.856,12.856,0,0,1-2.145-.29c-3.536-.855-6.062.746-8.148,3.352a24.94,24.94,0,0,0-3.514,5.66c-.747,1.723-.943,3.352.539,4.83a1.18,1.18,0,0,1,.465,1.278c3.985,2.786,8.118,5.123,13.042,6.012,2.576.464,4.936.6,7.318-.488C166.546,439.509,166.036,436.469,165.613,433.444Z" transform="translate(-52.94 -186.792)" fill="#f4b37a"/>
        <path id="Trazado_101999" data-name="Trazado 101999" d="M144.885,435.855c-1.481-1.479-1.286-3.108-.539-4.83a24.94,24.94,0,0,1,3.514-5.66c2.086-2.606,4.612-4.206,8.148-3.352a12.856,12.856,0,0,0,2.145.29c2.811.2,5.424,1.354,8.2,1.687.02-.08.037-.159.058-.239-3.4-1.253-6.975-1.651-10.519-2.281a7.859,7.859,0,0,0-7.224,2.258,25.016,25.016,0,0,0-4.079,5.713c-1.677,2.8-2.027,5.377.761,7.691A1.18,1.18,0,0,0,144.885,435.855Z" transform="translate(-53.066 -186.913)" fill="#f4b37a"/>
        <path id="Trazado_102000" data-name="Trazado 102000" d="M160.9,440.163a30.5,30.5,0,0,0-.132-4.821,27.763,27.763,0,0,1-.307-9.061c.159-.92.886-1.957.29-2.964-.081-.009-.161-.018-.243-.029a24.651,24.651,0,0,0-.613,9.575c.423,3.025.933,6.065-.03,9.091A2.078,2.078,0,0,0,160.9,440.163Z" transform="translate(-47.226 -186.212)" fill="#f4b37a"/>
        <path id="Trazado_102001" data-name="Trazado 102001" d="M160.536,423.38a1.814,1.814,0,0,0-.184-.267c-.022.08-.038.159-.058.239C160.374,423.363,160.454,423.371,160.536,423.38Z" transform="translate(-47.007 -186.274)" fill="#f4b37a"/>
        <path id="Trazado_102002" data-name="Trazado 102002" d="M92.65,361.922c5.347,1.207,9.424,4.324,12.86,8.452,3.194,3.837,6.109,7.878,8.981,11.956.473.67,1.119,1.194,1.6,1.861a1.059,1.059,0,0,0,.994-1c.136-3.331.465-6.684-.661-9.934h-5.24c1.15-4.157,3.426-7.789,4.624-11.835.039-.815.567-1.639.045-2.443a36.869,36.869,0,0,1-14.933.255,8.8,8.8,0,0,1-2.724-.9,9.44,9.44,0,0,0-6.1-1.6c-.7,1.705-1.7,3.315-1.715,5.248h0A2.714,2.714,0,0,1,92.65,361.922Z" transform="translate(-71.924 -209.953)" fill="#f4b37a"/>
        <path id="Trazado_102003" data-name="Trazado 102003" d="M109.2,374.473c2.173,2.79,4.026,5.826,6.421,8.445h0a2.641,2.641,0,0,0,.468-.046c-.479-.667-1.124-1.191-1.6-1.861-2.872-4.077-5.787-8.118-8.981-11.956-3.436-4.128-7.513-7.245-12.86-8.452a2.714,2.714,0,0,0-2.265.062h0a21.886,21.886,0,0,1,7.02,2.12C102.586,365.433,105.776,370.067,109.2,374.473Z" transform="translate(-71.924 -208.633)" fill="#f4b37a"/>
        <path id="Trazado_102004" data-name="Trazado 102004" d="M97.745,358.5a8.8,8.8,0,0,0,2.724.9,36.869,36.869,0,0,0,14.933-.255c-.028-.042-.058-.085-.091-.129h0c-.589-.019-1.081-.416-1.746-.256a23.316,23.316,0,0,1-9.57.627c-2.58-.448-5.2-.59-7.512-2.125-1.435-.952-3.124-1.606-4.834-.362A9.44,9.44,0,0,1,97.745,358.5Z" transform="translate(-71.473 -210.118)" fill="#f4b37a"/>
        <path id="Trazado_102005" data-name="Trazado 102005" d="M137.1,429.615a1.821,1.821,0,0,0-.274-1.725c-1.4-1.5-2.615-3.159-4.143-4.522a4.7,4.7,0,0,0-3.086-.825,23.518,23.518,0,0,1-3.6-.149c-.151-.05-.3-.109-.445-.164a2.806,2.806,0,0,1-1.179.317c-1.877.363-2.238.848-2.371,2.77a9.626,9.626,0,0,0,1.458,5.658,11.508,11.508,0,0,1,1.833,7.182,1.669,1.669,0,0,1-.225.856,2.483,2.483,0,0,0,2.676.994A51.536,51.536,0,0,1,135.16,439a5.019,5.019,0,0,0,3.35-1.024C137.734,435.24,136.406,432.6,137.1,429.615Z" transform="translate(-60.662 -186.589)" fill="#f4b37a"/>
        <path id="Trazado_102006" data-name="Trazado 102006" d="M137.28,435.049a4.833,4.833,0,0,1-.72-3.976,4.412,4.412,0,0,0-2-5.24,1.124,1.124,0,0,1-.373-.389c-1.51-2.979-4.115-3.612-7.148-3.39-.719.052-1.446-.012-2.169-.022h0a.979.979,0,0,1-.258.273c.149.056.294.114.445.164a23.518,23.518,0,0,0,3.6.149,4.7,4.7,0,0,1,3.086.825c1.527,1.363,2.747,3.026,4.143,4.522a1.821,1.821,0,0,1,.274,1.725c-.7,2.987.629,5.625,1.405,8.361C137.631,437.034,137.885,435.939,137.28,435.049Z" transform="translate(-59.723 -186.666)" fill="#f4b37a"/>
        <path id="Trazado_102007" data-name="Trazado 102007" d="M123.6,431.041a9.626,9.626,0,0,1-1.458-5.658c.133-1.922.494-2.406,2.371-2.77a2.806,2.806,0,0,0,1.179-.317q-.336-.122-.665-.256a6.7,6.7,0,0,0-1.046.08c-1.275.218-2.258.842-2.344,2.277a10.507,10.507,0,0,0,1.005,5.918c1.354,2.454,2.8,4.9,2.309,7.915-.042.26.164.564.256.849a1.669,1.669,0,0,0,.225-.856A11.508,11.508,0,0,0,123.6,431.041Z" transform="translate(-60.8 -186.657)" fill="#f4b37a"/>
        <path id="Trazado_102008" data-name="Trazado 102008" d="M124.79,422.3a.979.979,0,0,0,.258-.273c-.307.013-.614.011-.922.016Q124.455,422.178,124.79,422.3Z" transform="translate(-59.898 -186.661)" fill="#f4b37a"/>
        <path id="Trazado_102009" data-name="Trazado 102009" d="M189.138,426.362c5.693,3.156,7.306,11.3,5.858,16.367-1.154,4.045-3.289,7.341-7.108,9.355a3.552,3.552,0,0,0-1.531,1.483,20.468,20.468,0,0,0,9.934-4.395,10.015,10.015,0,0,0,3.287-3.751c1.59-3.394,1.527-6.958,1.705-10.568.213-4.38-3.314-9.171-7.329-10.6a41.269,41.269,0,0,0-5.007-1.434c-.514-.111-.589-.279-.4-.7-1.8,1.008-3.783.922-5.731,1.061A39.514,39.514,0,0,1,189.138,426.362Z" transform="translate(-38.978 -186.626)" fill="#e9e9e9"/>
        <path id="Trazado_102010" data-name="Trazado 102010" d="M183.116,423.186c1.948-.138,3.932-.053,5.731-1.061q-3.428.364-6.857.724C182.374,422.944,182.747,423.061,183.116,423.186Z" transform="translate(-39.273 -186.626)" fill="#e9e9e9"/>
        <path id="Trazado_102011" data-name="Trazado 102011" d="M188.157,451.806c3.818-2.014,5.953-5.31,7.108-9.355,1.447-5.064-.165-13.21-5.858-16.367a39.514,39.514,0,0,0-6.318-3.177c-.342.024-.682.057-1.019.1.189.277.589.3.893.362a18.644,18.644,0,0,1,4.864,2.258,13.206,13.206,0,0,1,7.454,12.042c.148,6.044-2.107,10.991-7.76,13.924-.671.349-1.572.614-.894,1.693A3.552,3.552,0,0,1,188.157,451.806Z" transform="translate(-39.245 -186.348)" fill="#e9e9e9"/>
        <path id="Trazado_102012" data-name="Trazado 102012" d="M183.116,423c-.369-.125-.742-.241-1.126-.336a.7.7,0,0,0,.107.438C182.434,423.052,182.774,423.02,183.116,423Z" transform="translate(-39.274 -186.436)" fill="#e9e9e9"/>
        <path id="Trazado_102013" data-name="Trazado 102013" d="M126.731,424.111a2.911,2.911,0,0,1,2.147.633,5.841,5.841,0,0,0-2.443-2.435A10.257,10.257,0,0,0,124,421.122a123.589,123.589,0,0,1-26.317-13.107c-1.011-.655-2.051-1.263-3.047-1.942a16.27,16.27,0,0,0,4.92,5.108c2.477,1.85,3.9,4.8,6.317,6.637,2.93,2.225,5.456,4.878,8.323,7.15.049-.034.1-.095.148-.1C118.48,424.715,122.6,424.389,126.731,424.111Z" transform="translate(-70.408 -192.348)" fill="#00656b"/>
        <path id="Trazado_102014" data-name="Trazado 102014" d="M124,421.122a10.257,10.257,0,0,1,2.435,1.188,5.841,5.841,0,0,1,2.443,2.435c.06.052.119.1.178.163.787-.111.468-.419.163-.787a12.521,12.521,0,0,0-5.678-3.656,117.111,117.111,0,0,1-23.533-11.546c-1.713-1.087-3.345-2.348-5.371-2.847,1,.68,2.036,1.287,3.047,1.942A123.589,123.589,0,0,0,124,421.122Z" transform="translate(-70.408 -192.348)" fill="#00656b"/>
        <path id="Trazado_102015" data-name="Trazado 102015" d="M123.785,420.151c-.016-.047-.028-.1-.046-.144a2.911,2.911,0,0,0-2.147-.633c-4.128.278-8.251.6-12.387.758-.05,0-.1.064-.148.1a5.646,5.646,0,0,0,2.12.305C115.393,420.842,119.56,419.453,123.785,420.151Z" transform="translate(-65.269 -187.61)" fill="#00656b"/>
        <path id="Trazado_102016" data-name="Trazado 102016" d="M119.927,419.982l.132.019c-.058-.06-.118-.111-.178-.163C119.9,419.883,119.911,419.934,119.927,419.982Z" transform="translate(-61.411 -187.442)" fill="#494949"/>
        <path id="Trazado_102017" data-name="Trazado 102017" d="M136.186,401.767c5.173.429,10.358.343,15.536.374,7.052.043,14.063.564,21.09,1.141,7.991.658,16.026.49,24.047.408.178-.126.354-.251.524-.384a4.723,4.723,0,0,1,2.6-.582c2.823-.095,5.043-1.069,6.267-3.684a.787.787,0,0,1-.42-.83,106.174,106.174,0,0,1,.65-12.509,1.986,1.986,0,0,1,.184-.5,4.84,4.84,0,0,1,.583-.661q.621-4.354,1.24-8.708c-.153-.342-.3-.688-.425-1.043a32.138,32.138,0,0,1,.727-11.431c.077-.387.217-.822.666-.937a.859.859,0,0,1-.062-.127,53.852,53.852,0,0,1,.77-8.779c.511-3.935-.922-6.142-4.866-6.729-3.645-.543-7.33-.122-10.992-.465-6.9-.646-13.826-.807-20.747-1.016-5.6-.17-11.184-.658-16.784-.846-5.355-.179-10.7-.84-16.06-.732-8.493.168-17.007-.463-25.479.407-4.5.463-6.09,2.63-5.53,7.14a94.8,94.8,0,0,1,.217,10.661,2.028,2.028,0,0,1-.582,1.654c-.041.005-.081.014-.125.022.945.686.416,1.633.3,2.511-.06.252-.128.5-.2.751a29.128,29.128,0,0,1,.039,4.115,48.672,48.672,0,0,0,.311,6.683,2.372,2.372,0,0,1,.522.289c1.256,3.19.951,6.495.643,9.776-.075.77-.507,1.4-1.3,1.325a6.723,6.723,0,0,1,1.07,4.642,4.249,4.249,0,0,0,2.671,4.623,12.716,12.716,0,0,0,6.044,1.614c1.05-.019,2.191-.319,3.122.5a2.3,2.3,0,0,1-.118.217c.06.029.118.056.176.09C127.062,401.083,131.626,401.392,136.186,401.767Z" transform="translate(-65.211 -214.593)" fill="#cfcfcf"/>
        <path id="Trazado_102018" data-name="Trazado 102018" d="M119.4,388.056a12.716,12.716,0,0,1-6.044-1.614,4.249,4.249,0,0,1-2.671-4.623,6.723,6.723,0,0,0-1.07-4.642,1.962,1.962,0,0,1-.627-.182c1.464,1.8,1.171,3.95,1.2,6.025.011,1.065.058,2.116,1.051,2.714,2.676,1.607,5.329,3.3,8.708,2.831a4.071,4.071,0,0,1,2.461.2,2.3,2.3,0,0,0,.118-.217C121.593,387.738,120.452,388.037,119.4,388.056Z" transform="translate(-65.293 -202.712)" fill="#cfcfcf"/>
        <path id="Trazado_102019" data-name="Trazado 102019" d="M176.957,388.172a4.723,4.723,0,0,0-2.6.582c-.17.133-.346.258-.524.384l.538-.007a4.65,4.65,0,0,1,1.917-.373c2.927-.488,6.329-.183,7.186-4.212a.856.856,0,0,1-.248-.058C182,387.1,179.779,388.077,176.957,388.172Z" transform="translate(-42.182 -200.041)" fill="#cfcfcf"/>
        <path id="Trazado_102020" data-name="Trazado 102020" d="M109.264,363.757c.043-.008.084-.016.125-.022a2.028,2.028,0,0,0,.582-1.654,94.8,94.8,0,0,0-.217-10.661c-.56-4.51,1.025-6.678,5.53-7.14,8.472-.869,16.987-.239,25.479-.407,5.357-.107,10.7.553,16.06.732,5.6.189,11.182.677,16.784.846,6.92.209,13.85.37,20.747,1.016,3.662.343,7.348-.077,10.992.465,3.943.587,5.377,2.794,4.866,6.729a53.852,53.852,0,0,0-.77,8.779.859.859,0,0,0,.062.127.983.983,0,0,1,.229-.028h0c.69-3.174.659-6.432,1.179-9.635a5.062,5.062,0,0,0-2.225-5.491,10.964,10.964,0,0,0-4.3-1.186c-2.28-.307-4.558.046-6.827-.081-5.04-.285-10.074-.871-15.116-.932-4.764-.056-9.515-.335-14.267-.533-10.877-.458-21.731-1.6-32.634-1.365-6.744.149-13.5-.448-20.236.355-4.673.56-6.6,2.549-6.158,7.223.294,3.076.213,6.138.212,9.206,0,1.176.33,2.4-.269,3.54h0A1.934,1.934,0,0,1,109.264,363.757Z" transform="translate(-65.257 -214.742)" fill="#cfcfcf"/>
        <path id="Trazado_102021" data-name="Trazado 102021" d="M181.279,374.459a1.986,1.986,0,0,0-.184.5,106.174,106.174,0,0,0-.65,12.509.787.787,0,0,0,.42.83c.049-.1.1-.208.145-.317.031-.029.065-.053.1-.08a52.938,52.938,0,0,1,.016-6.446c.258-2.439-.035-4.933.692-7.325.016-.11.031-.222.047-.332A4.84,4.84,0,0,0,181.279,374.459Z" transform="translate(-39.824 -203.851)" fill="#cfcfcf"/>
        <path id="Trazado_102022" data-name="Trazado 102022" d="M183.551,357.491c-.449.115-.589.551-.666.937a32.138,32.138,0,0,0-.727,11.431c.128.355.271.7.425,1.043.035-.241.068-.483.1-.723h0a29.792,29.792,0,0,1,1.024-12.479A.78.78,0,0,1,183.551,357.491Z" transform="translate(-39.304 -209.664)" fill="#cfcfcf"/>
        <path id="Trazado_102023" data-name="Trazado 102023" d="M181,384.2c-.031.027-.065.052-.1.08-.046.11-.1.213-.145.317a.856.856,0,0,0,.248.058h0C181,384.5,181,384.347,181,384.2Z" transform="translate(-39.714 -200.146)" fill="#cfcfcf"/>
        <path id="Trazado_102024" data-name="Trazado 102024" d="M183.275,357.706c.024-.079.046-.157.072-.236a.983.983,0,0,0-.229.028A.782.782,0,0,0,183.275,357.706Z" transform="translate(-38.871 -209.671)" fill="#cfcfcf"/>
        <path id="Trazado_102025" data-name="Trazado 102025" d="M109.553,360.878c.114-.878.643-1.824-.3-2.511l-.079.015c.522.8-.005,1.628-.045,2.443a4.721,4.721,0,0,1,.227.8C109.425,361.381,109.493,361.13,109.553,360.878Z" transform="translate(-65.244 -209.351)" fill="#cfcfcf"/>
        <path id="Trazado_102026" data-name="Trazado 102026" d="M109.494,380.123c.794.075,1.226-.555,1.3-1.325.308-3.281.613-6.585-.643-9.776a2.372,2.372,0,0,0-.522-.289c.015.077.023.156.039.232h0c1.126,3.25.8,6.6.661,9.934a1.059,1.059,0,0,1-.994,1c.014.018.03.035.043.054C109.42,380.006,109.454,380.065,109.494,380.123Z" transform="translate(-65.17 -205.657)" fill="#cfcfcf"/>
        <path id="Trazado_102027" data-name="Trazado 102027" d="M109.5,377.016c-.014-.019-.03-.037-.043-.054a2.641,2.641,0,0,1-.468.046h0a1.964,1.964,0,0,0,.627.182C109.577,377.132,109.543,377.073,109.5,377.016Z" transform="translate(-65.293 -202.724)" fill="#cfcfcf"/>
        <path id="Trazado_102028" data-name="Trazado 102028" d="M109.093,358.283h0c.033.043.062.087.091.129l.079-.015A1.941,1.941,0,0,0,109.093,358.283Z" transform="translate(-65.256 -209.381)" fill="#cfcfcf"/>
        <path id="Trazado_102029" data-name="Trazado 102029" d="M116.8,386.234a150.277,150.277,0,0,0,15.665,15.4c4.14,3.478,8.36,6.889,12.182,10.744,1.991,2.009,4.138,3.866,6.2,5.806a5.82,5.82,0,0,0,7.422.549c5.1-3.729,10.381-7.2,14.877-11.756,5.076-5.142,10.78-9.632,15.886-14.767a25.911,25.911,0,0,1,4.5-3.1,7.626,7.626,0,0,1-1.639.153c-7.886,0-15.835.553-23.634-.511-8.238-1.123-16.468-.891-24.694-1.034-7.294-.125-14.519-.887-21.775-1.346a2.513,2.513,0,0,1-2-.629h-.237C118.857,386.744,117.7,385.937,116.8,386.234Z" transform="translate(-62.508 -199.594)" fill="#fed54c"/>
        <path id="Trazado_102030" data-name="Trazado 102030" d="M189.365,392.209c-5.107,5.135-10.811,9.625-15.886,14.767-4.5,4.555-9.776,8.027-14.877,11.756a5.82,5.82,0,0,1-7.422-.549c-2.066-1.94-4.213-3.8-6.2-5.806-3.822-3.855-8.042-7.266-12.182-10.744a150.277,150.277,0,0,1-15.665-15.4c.9-.3,2.056.51,2.76-.491h-4c2.239,2.288,4.05,4.271,5.877,6.222,5.187,5.538,11.124,10.255,16.867,15.189,4.09,3.514,7.919,7.334,11.842,11.043,2.277,2.154,5.705,2.773,8.1,1.157a96.211,96.211,0,0,0,9.472-6.865c5.9-5.122,11.625-10.445,17.305-15.808,2.627-2.481,5.091-5.111,8.311-6.869.5-.271,1.126-.494,1.363-1.129a4.247,4.247,0,0,1-1.156.426A25.911,25.911,0,0,0,189.365,392.209Z" transform="translate(-62.835 -199.594)" fill="#fed54c"/>
        <path id="Trazado_102031" data-name="Trazado 102031" d="M169.322,388.282c-7.026-.576-14.038-1.1-21.09-1.141-5.179-.031-10.363.054-15.536-.374-4.56-.374-9.125-.684-13.685-1.024a2.513,2.513,0,0,0,2,.629c7.256.458,14.481,1.221,21.775,1.346,8.225.142,16.456-.09,24.694,1.034,7.8,1.065,15.748.51,23.634.511a7.627,7.627,0,0,0,1.639-.153c.21-.137.415-.275.617-.419C185.348,388.772,177.313,388.94,169.322,388.282Z" transform="translate(-61.721 -199.594)" fill="#fed54c"/>
        <path id="Trazado_102032" data-name="Trazado 102032" d="M173.375,388.337a4.247,4.247,0,0,0,1.156-.426l-.538.007C173.79,388.062,173.585,388.2,173.375,388.337Z" transform="translate(-42.344 -198.821)" fill="#fed54c"/>
        <path id="Trazado_102033" data-name="Trazado 102033" d="M221.141,268.814c-1.611-.062-3.226-.011-5.026-.011.24-.765.448-1.384.628-2.01a14.261,14.261,0,0,0,.083-8.365,3.43,3.43,0,0,0-3.033-2.706,3.177,3.177,0,0,0-3.392,2.159c-.627,1.367-1.215,2.754-1.815,4.133a13.6,13.6,0,0,1-10.085,8.2,2.959,2.959,0,0,0-2.564,3.036c-.144,5.177-.423,10.362.307,15.522a3.579,3.579,0,0,0,2.6,3.14,34.861,34.861,0,0,0,23.213-.232,8.516,8.516,0,0,0,5.683-5.841,25.129,25.129,0,0,0,.7-10.195C227.913,271.1,225.74,268.991,221.141,268.814Z" transform="translate(-34.365 -245.944)" fill="#fefefe"/>
        <path id="Trazado_102034" data-name="Trazado 102034" d="M181.5,373.838c-.016.11-.031.222-.047.332.077-.161.148-.323.218-.486C181.615,373.735,181.558,373.785,181.5,373.838Z" transform="translate(-39.464 -203.892)" fill="#fdfdfc"/>
        <path id="Trazado_102035" data-name="Trazado 102035" d="M182.6,367.983c-.023-.38-.054-.758-.095-1.138-.034.24-.066.482-.1.723C182.466,367.708,182.536,367.845,182.6,367.983Z" transform="translate(-39.126 -206.33)" fill="#fdfdfc"/>
        <path id="Trazado_102036" data-name="Trazado 102036" d="M109.616,368.755c-.08-.033-.163-.061-.244-.085a2.357,2.357,0,0,0,.283.317h0C109.639,368.911,109.631,368.833,109.616,368.755Z" transform="translate(-65.156 -205.679)" fill="#fefdfd"/>
        <path id="Trazado_102037" data-name="Trazado 102037" d="M99.05,441.808a21.481,21.481,0,0,1,.608-5.689,25.232,25.232,0,0,1,5.652-10.807,23.139,23.139,0,0,1,4.859-4.155c.567-.361,1.152-.692,1.748-1-3.365-.147-6.309,1.5-9.422,2.418a4.143,4.143,0,0,0-1.419.775c-5.739,4.764-7.692,11-6.835,18.206a5.325,5.325,0,0,0,3.017,4.025,14.779,14.779,0,0,0,2.684,1.161A16.439,16.439,0,0,1,99.05,441.808Z" transform="translate(-70.618 -187.331)" fill="#e9e9e9"/>
      </g>
    </g>
  </g>
</svg>
