<svg xmlns="http://www.w3.org/2000/svg" width="37" height="37" viewBox="0 0 37 37">
  <g id="Icon_ionic-ios-arrow-dropleft" data-name="Icon ionic-ios-arrow-dropleft" transform="translate(40.375 40.375) rotate(180)">
    <path id="Trazado_100819" data-name="Trazado 100819" d="M23.576,10.483a1.723,1.723,0,0,0-2.428,0l-8.485,8.512a1.715,1.715,0,0,0-.053,2.366l8.361,8.387A1.714,1.714,0,1,0,23.4,27.329l-7.1-7.2,7.284-7.213A1.715,1.715,0,0,0,23.576,10.483Z" transform="translate(2.328 1.751)" fill="#5000a1"/>
    <path id="Trazado_100820" data-name="Trazado 100820" d="M21.875,3.375a18.5,18.5,0,1,0,18.5,18.5A18.5,18.5,0,0,0,21.875,3.375ZM32.939,32.939A15.647,15.647,0,1,1,10.811,10.811,15.647,15.647,0,1,1,32.939,32.939Z" fill="#5000a1"/>
  </g>
</svg>
