<svg xmlns="http://www.w3.org/2000/svg" width="114.25" height="29.25" viewBox="0 0 114.25 29.25">
  <g id="Grupo_53755" data-name="Grupo 53755" transform="translate(-285 -623)">
    <path id="Rectángulo_5143" data-name="Rectángulo 5143" d="M14.5,0h85A14.5,14.5,0,0,1,114,14.5v.967A13.533,13.533,0,0,1,100.467,29H14.5A14.5,14.5,0,0,1,0,14.5v0A14.5,14.5,0,0,1,14.5,0Z" transform="translate(285 623)" fill="#ffcf19"/>
    <path id="Icon_ionic-md-play-circle" data-name="Icon ionic-md-play-circle" d="M18,3.375A14.625,14.625,0,1,0,32.625,18,14.632,14.632,0,0,0,18,3.375ZM15.075,24.581V11.419L23.85,18Z" transform="translate(366.625 619.625)" fill="#5000a1"/>
  </g>
</svg>
